#N canvas 0 22 1286 740 10;
#X obj 597 -322 s alterPattern0;
#X obj 598 -300 s alterPattern1;
#X obj 599 -278 s alterPattern2;
#X obj 601 -256 s alterPattern3;
#X msg 486 -356 reverse;
#X obj 417 -97 s alterPattern0;
#X obj 420 -65 s alterPattern1;
#X obj 421 -43 s alterPattern2;
#X obj 423 -21 s alterPattern3;
#X msg 417 -150 rate \$1;
#X obj 392 -561 random 100;
#X obj 392 -498 sel 0 1;
#X msg 390 -218 1;
#X msg 422 -216 0.5;
#X msg 442 -192 2;
#X msg 297 -266 sparse \$1;
#X msg 286 -233 sparse \$1;
#X msg 262 -206 sparse \$1;
#X obj 257 -383 sel 0 1;
#X msg 255 -348 0;
#X msg 284 -355 1;
#X obj 411 -452 random 2;
#X obj 415 -422 sel 0 1;
#X msg 308 -318 sparse \$1;
#X obj 257 -442 random 100;
#X obj 121 -601 t b b;
#X obj 416 -319 sel 0 1 2 3;
#X obj 416 -342 random 4;
#X msg 460 -171 0.25;
#X msg 474 -150 4;
#X obj 248 -531 r \$0-timer;
#X msg 248 -486 seed \$1;
#X obj 248 -506 mod 66;
#X obj 398 -648 r \$0-timer;
#X msg 398 -603 seed \$1;
#X obj 398 -623 mod 65;
#X obj 491 -566 r \$0-timer;
#X msg 491 -521 seed \$1;
#X obj 505 -474 r \$0-timer;
#X msg 505 -429 seed \$1;
#X obj 491 -541 mod 64;
#X obj 505 -449 mod 63;
#X obj 120 -681 inlet;
#X obj 244 -681 inlet;
#X obj 246 -656 s \$0-timer;
#X obj 801 -227 r beats;
#X obj 647 -205 r divisions;
#X obj 592 -61 f 2;
#X obj 630 -62 f 0.5;
#X obj 633 -165 t f f;
#X obj 657 -113 swap 1;
#X obj 665 -90 /;
#X obj 654 -137 max 1e-06;
#X obj 782 -162 t f f;
#X obj 806 -110 swap 1;
#X obj 814 -87 /;
#X obj 803 -134 max 1e-06;
#X obj 741 -58 f 6;
#X obj 790 -37 f 0.16666;
#X obj 673 -428 f;
#X obj 708 -429 + 1;
#X obj 726 -518 r onOff;
#X obj 726 -491 t b;
#X msg 729 -459 0;
#X floatatom 786 -445 5 0 0 0 - - -;
#X obj 258 -413 < 25;
#X obj 394 -532 < 25;
#X obj 111 -426 r goBackToNormal;
#X obj 729 -407 r goBackToNormal;
#X obj 734 -366 spigot;
#X obj 827 -421 mod 2;
#X obj 378 -260 r goBackToNormal;
#X connect 4 0 0 0;
#X connect 4 0 1 0;
#X connect 4 0 2 0;
#X connect 4 0 3 0;
#X connect 9 0 5 0;
#X connect 9 0 6 0;
#X connect 9 0 7 0;
#X connect 9 0 8 0;
#X connect 10 0 66 0;
#X connect 11 0 12 0;
#X connect 11 1 21 0;
#X connect 12 0 9 0;
#X connect 15 0 6 0;
#X connect 16 0 7 0;
#X connect 17 0 8 0;
#X connect 18 0 19 0;
#X connect 18 1 20 0;
#X connect 19 0 15 0;
#X connect 19 0 16 0;
#X connect 19 0 17 0;
#X connect 19 0 23 0;
#X connect 20 0 15 0;
#X connect 20 0 16 0;
#X connect 20 0 17 0;
#X connect 20 0 23 0;
#X connect 21 0 22 0;
#X connect 22 0 27 0;
#X connect 22 1 4 0;
#X connect 22 1 59 0;
#X connect 23 0 5 0;
#X connect 24 0 65 0;
#X connect 25 0 24 0;
#X connect 25 1 10 0;
#X connect 26 0 13 0;
#X connect 26 0 47 0;
#X connect 26 1 14 0;
#X connect 26 1 48 0;
#X connect 26 2 28 0;
#X connect 26 2 57 0;
#X connect 26 3 29 0;
#X connect 26 3 58 0;
#X connect 27 0 26 0;
#X connect 30 0 32 0;
#X connect 31 0 24 0;
#X connect 32 0 31 0;
#X connect 33 0 35 0;
#X connect 34 0 10 0;
#X connect 35 0 34 0;
#X connect 36 0 40 0;
#X connect 37 0 21 0;
#X connect 38 0 41 0;
#X connect 39 0 27 0;
#X connect 40 0 37 0;
#X connect 41 0 39 0;
#X connect 42 0 25 0;
#X connect 43 0 44 0;
#X connect 45 0 53 0;
#X connect 46 0 49 0;
#X connect 47 0 9 0;
#X connect 48 0 9 0;
#X connect 49 0 47 1;
#X connect 49 1 52 0;
#X connect 50 0 51 0;
#X connect 50 1 51 1;
#X connect 51 0 48 1;
#X connect 52 0 50 0;
#X connect 53 0 57 1;
#X connect 53 1 56 0;
#X connect 54 0 55 0;
#X connect 54 1 55 1;
#X connect 55 0 58 1;
#X connect 56 0 54 0;
#X connect 57 0 9 0;
#X connect 58 0 9 0;
#X connect 59 0 60 0;
#X connect 59 0 64 0;
#X connect 59 0 69 1;
#X connect 60 0 59 1;
#X connect 61 0 62 0;
#X connect 62 0 63 0;
#X connect 63 0 59 1;
#X connect 64 0 70 0;
#X connect 65 0 18 0;
#X connect 66 0 11 0;
#X connect 67 0 19 0;
#X connect 68 0 69 0;
#X connect 69 0 4 0;
#X connect 70 0 69 1;
#X connect 71 0 12 0;
