#N canvas 87 57 950 534 10;
#X obj 152 15 inlet;
#X obj 315 19 inlet;
#X obj 316 42 route switch;
#X obj 316 72 s \$0-switch;
#X obj 354 133 r \$0-switch;
#X obj 354 165 switch~;
#X obj 155 80 osc~;
#X obj 158 169 *~;
#X obj 175 139 phasor~;
#X obj 159 260 outlet~;
#X obj 177 112 * 0.5;
#X connect 0 0 6 0;
#X connect 0 0 10 0;
#X connect 1 0 2 0;
#X connect 2 0 3 0;
#X connect 4 0 5 0;
#X connect 6 0 7 0;
#X connect 7 0 9 0;
#X connect 8 0 7 1;
#X connect 10 0 8 0;
