#N canvas 392 64 719 520 10;
#X obj 51 -41 adc~;
#X obj 87 87 *~;
#X obj 107 66 lop~ 1;
#X obj 108 -39 r inputVolume;
#X obj 129 10 loadbang;
#X msg 128 33 1;
#X obj 139 92 *~;
#X obj 77 166 outlet~;
#X obj 146 164 outlet~;
#X connect 0 0 1 0;
#X connect 0 1 6 0;
#X connect 1 0 7 0;
#X connect 2 0 1 1;
#X connect 2 0 6 1;
#X connect 3 0 2 0;
#X connect 4 0 5 0;
#X connect 5 0 2 0;
#X connect 6 0 8 0;
