#N canvas 427 187 1107 776 10;
#X obj 367 334 bp~ 2500 3;
#X obj 333 229 *~ 1;
#X obj 348 310 bp~ 2000 3;
#X obj 335 283 bp~ 1500 3;
#X obj 387 389 bp~ 3500 3;
#X obj 370 361 bp~ 2750 3;
#X obj 277 300 *~ 1;
#X obj 311 455 *~ 0.5;
#X obj 262 530 lop~ 7000;
#X obj 309 556 lop~ 50;
#X obj 322 584 lop~ 150;
#X obj 333 609 lop~ 250;
#X obj 344 633 lop~ 300;
#X obj 265 689 *~ 0.5;
#X obj 263 742 outlet~;
#X obj 318 60 inlet~;
#X obj 403 63 inlet;
#X obj 330 179 mm_noisegate~ 50;
#X connect 0 0 7 0;
#X connect 1 0 0 0;
#X connect 1 0 2 0;
#X connect 1 0 3 0;
#X connect 1 0 4 0;
#X connect 1 0 5 0;
#X connect 1 0 6 0;
#X connect 2 0 7 0;
#X connect 3 0 7 0;
#X connect 4 0 7 0;
#X connect 5 0 7 0;
#X connect 6 0 8 0;
#X connect 7 0 8 0;
#X connect 8 0 9 0;
#X connect 8 0 10 0;
#X connect 8 0 11 0;
#X connect 8 0 12 0;
#X connect 8 0 13 0;
#X connect 9 0 13 0;
#X connect 10 0 13 0;
#X connect 11 0 13 0;
#X connect 12 0 13 0;
#X connect 13 0 14 0;
#X connect 15 0 17 0;
#X connect 16 0 17 1;
#X connect 17 0 1 0;
