#N canvas 0 22 450 300 10;
#N canvas 0 23 1440 851 time 0;
#X obj 440 120 r measures;
#X floatatom 441 143 5 0 0 0 - - -;
#X obj 472 168 r beats;
#X floatatom 473 192 5 0 0 0 - - -;
#X obj 533 194 r divisions;
#X floatatom 536 219 5 0 0 0 - - -;
#X obj 446 381 pack f f f;
#X obj 447 299 f;
#X floatatom 423 434 5 0 0 0 - - -;
#X obj 471 254 t b f;
#X obj 408 330 moses 0;
#X obj 536 256 moses 0;
#X obj 543 282 t b f;
#X obj 472 233 moses 0;
#X obj 407 498 outlet;
#X obj 408 466 pack f f f f;
#X obj 446 409 mm_listprod;
#X connect 0 0 1 0;
#X connect 1 0 7 1;
#X connect 1 0 7 0;
#X connect 1 0 15 1;
#X connect 2 0 3 0;
#X connect 3 0 13 0;
#X connect 3 0 15 2;
#X connect 4 0 5 0;
#X connect 5 0 11 0;
#X connect 5 0 15 3;
#X connect 6 0 16 0;
#X connect 7 0 10 0;
#X connect 8 0 15 0;
#X connect 9 0 7 0;
#X connect 9 1 6 1;
#X connect 10 1 6 0;
#X connect 11 1 12 0;
#X connect 12 0 7 0;
#X connect 12 1 6 2;
#X connect 13 1 9 0;
#X connect 15 0 14 0;
#X connect 16 0 8 0;
#X restore 201 73 pd time info;
#X obj 201 137 unpack f f f f;
#X obj 171 186 swap;
#X floatatom 202 160 5 0 0 0 - - -;
#X obj 170 209 -;
#X obj 171 233 moses 0;
#X obj 169 45 inlet;
#X obj 170 272 outlet;
#X connect 0 0 1 0;
#X connect 1 0 3 0;
#X connect 2 0 4 0;
#X connect 2 1 4 1;
#X connect 3 0 2 1;
#X connect 4 0 5 0;
#X connect 5 1 7 0;
#X connect 6 0 2 0;
