#N canvas 332 193 1108 602 10;
#X obj 547 256 f;
#X obj 547 291 int;
#X obj 549 318 t f f;
#X obj 569 428 pack f f;
#X obj 674 259 loadbang;
#X obj 632 379 clip 5 90;
#X obj 547 389 clip 10 105;
#X msg 674 280 50;
#X obj 463 142 er_contAvg;
#X obj 546 121 t b;
#X obj 548 148 t b b b;
#X msg 562 202 0;
#X obj 462 172 s theAvgDB;
#X obj 455 99 env~ 2048;
#X obj 334 202 mm_floor2~;
#X obj 332 248 s theFloorDB;
#X obj 357 289 mm_ceiling2~;
#X obj 356 318 s theCeilingDB;
#X obj 545 355 + 5;
#X obj 633 337 - 5;
#X obj 541 38 inlet;
#X obj 451 36 inlet~;
#X obj 568 513 outlet;
#X obj 316 511 outlet;
#X obj 398 517 outlet;
#X obj 468 516 outlet;
#X text 326 545 avg;
#X text 401 548 floor;
#X text 465 545 ceiling;
#X text 571 542 range;
#X connect 0 0 1 0;
#X connect 1 0 2 0;
#X connect 2 0 18 0;
#X connect 2 1 19 0;
#X connect 3 0 22 0;
#X connect 4 0 7 0;
#X connect 5 0 3 1;
#X connect 6 0 3 0;
#X connect 7 0 2 0;
#X connect 8 0 0 1;
#X connect 8 0 12 0;
#X connect 8 0 23 0;
#X connect 9 0 10 0;
#X connect 10 0 8 1;
#X connect 10 0 14 1;
#X connect 10 0 16 1;
#X connect 10 1 11 0;
#X connect 10 2 0 0;
#X connect 11 0 0 1;
#X connect 13 0 8 0;
#X connect 13 0 14 0;
#X connect 13 0 16 0;
#X connect 14 0 15 0;
#X connect 14 0 24 0;
#X connect 16 0 17 0;
#X connect 16 0 25 0;
#X connect 18 0 6 0;
#X connect 19 0 5 0;
#X connect 20 0 9 0;
#X connect 21 0 13 0;
