#N canvas 0 23 701 502 10;
#N canvas 0 23 1440 851 time 0;
#X obj 440 108 r measures;
#X floatatom 441 141 5 0 0 0 - - -;
#X obj 472 163 r beats;
#X floatatom 473 186 5 0 0 0 - - -;
#X obj 533 194 r divisions;
#X floatatom 536 219 5 0 0 0 - - -;
#X obj 446 381 pack f f f;
#X obj 447 299 f;
#X floatatom 423 434 5 0 0 0 - - -;
#X obj 471 254 t b f;
#X obj 408 330 moses 0;
#X obj 536 256 moses 0;
#X obj 543 282 t b f;
#X obj 472 233 moses 0;
#X obj 407 498 outlet;
#X obj 408 466 pack f f f f;
#X obj 446 409 mm_listprod;
#X connect 0 0 1 0;
#X connect 1 0 7 1;
#X connect 1 0 7 0;
#X connect 1 0 15 1;
#X connect 2 0 3 0;
#X connect 3 0 13 0;
#X connect 3 0 15 2;
#X connect 4 0 5 0;
#X connect 5 0 11 0;
#X connect 5 0 15 3;
#X connect 6 0 16 0;
#X connect 7 0 10 0;
#X connect 8 0 15 0;
#X connect 9 0 7 0;
#X connect 9 1 6 1;
#X connect 10 1 6 0;
#X connect 11 1 12 0;
#X connect 12 0 7 0;
#X connect 12 1 6 2;
#X connect 13 1 9 0;
#X connect 15 0 14 0;
#X connect 16 0 8 0;
#X restore 219 120 pd time info;
#X obj 217 145 unpack f f f f;
#X floatatom 218 168 5 0 0 0 - - -;
#X obj 162 44 inlet;
#X floatatom 238 194 5 0 0 0 - - -;
#X floatatom 263 221 5 0 0 0 - - -;
#X obj 175 272 mod;
#X obj 171 393 mod;
#X floatatom 175 296 5 0 0 0 - - -;
#X obj 176 323 sel 0;
#X obj 174 354 f;
#X obj 208 353 +;
#X floatatom 173 423 5 0 0 0 - - -;
#X obj 171 473 outlet;
#X obj 162 72 t f f;
#X obj 190 100 sel 0;
#X msg 190 121 0;
#X floatatom 289 258 5 0 0 0 - - -;
#X connect 0 0 1 0;
#X connect 1 0 2 0;
#X connect 1 1 4 0;
#X connect 1 2 5 0;
#X connect 1 3 17 0;
#X connect 2 0 7 1;
#X connect 3 0 14 0;
#X connect 6 0 8 0;
#X connect 7 0 12 0;
#X connect 8 0 9 0;
#X connect 9 0 10 0;
#X connect 10 0 11 0;
#X connect 10 0 7 0;
#X connect 11 0 10 1;
#X connect 12 0 13 0;
#X connect 14 0 6 0;
#X connect 14 1 15 0;
#X connect 15 0 16 0;
#X connect 16 0 10 1;
#X connect 17 0 6 1;
#X connect 17 0 11 1;
