#N canvas 0 23 701 502 10;
#N canvas 0 23 1440 851 time 0;
#X obj 440 120 r measures;
#X floatatom 441 143 5 0 0 0 - - -;
#X obj 472 168 r beats;
#X floatatom 473 192 5 0 0 0 - - -;
#X obj 533 194 r divisions;
#X floatatom 536 219 5 0 0 0 - - -;
#X obj 446 381 pack f f f;
#X obj 447 299 f;
#X floatatom 423 434 5 0 0 0 - - -;
#X obj 471 254 t b f;
#X obj 408 330 moses 0;
#X obj 536 256 moses 0;
#X obj 543 282 t b f;
#X obj 472 233 moses 0;
#X obj 407 498 outlet;
#X obj 408 466 pack f f f f;
#X obj 446 409 mm_listprod;
#X connect 0 0 1 0;
#X connect 1 0 7 1;
#X connect 1 0 7 0;
#X connect 1 0 15 1;
#X connect 2 0 3 0;
#X connect 3 0 13 0;
#X connect 3 0 15 2;
#X connect 4 0 5 0;
#X connect 5 0 11 0;
#X connect 5 0 15 3;
#X connect 6 0 16 0;
#X connect 7 0 10 0;
#X connect 8 0 15 0;
#X connect 9 0 7 0;
#X connect 9 1 6 1;
#X connect 10 1 6 0;
#X connect 11 1 12 0;
#X connect 12 0 7 0;
#X connect 12 1 6 2;
#X connect 13 1 9 0;
#X connect 15 0 14 0;
#X connect 16 0 8 0;
#X restore 219 120 pd time info;
#X floatatom 214 192 5 0 0 0 - - -;
#X obj 162 44 inlet;
#X obj 169 337 mod;
#X obj 171 460 mod;
#X floatatom 169 361 5 0 0 0 - - -;
#X obj 170 388 sel 0;
#X obj 168 419 f;
#X obj 202 418 +;
#X floatatom 167 498 5 0 0 0 - - -;
#X obj 166 607 outlet;
#X obj 162 72 t f f;
#X obj 190 100 sel 0;
#X msg 190 121 0;
#X obj 217 145 list split 2;
#X obj 216 169 unpack f f;
#X obj 165 577 +;
#X obj 166 520 t f b;
#X obj 192 547 f \$1;
#X obj 413 167 inlet;
#X obj 281 196 unpack f f;
#X obj 283 257 f;
#X obj 336 228 t b f;
#X obj 281 288 *;
#X floatatom 283 334 5 0 0 0 - - -;
#X connect 0 0 14 0;
#X connect 1 0 4 1;
#X connect 2 0 11 0;
#X connect 3 0 5 0;
#X connect 4 0 9 0;
#X connect 5 0 6 0;
#X connect 6 0 7 0;
#X connect 7 0 8 0;
#X connect 7 0 4 0;
#X connect 8 0 7 1;
#X connect 9 0 17 0;
#X connect 11 0 3 0;
#X connect 11 1 12 0;
#X connect 12 0 13 0;
#X connect 13 0 7 1;
#X connect 14 0 15 0;
#X connect 14 1 20 0;
#X connect 15 0 1 0;
#X connect 16 0 10 0;
#X connect 17 0 16 0;
#X connect 17 1 18 0;
#X connect 18 0 16 1;
#X connect 19 0 18 1;
#X connect 20 0 21 1;
#X connect 20 0 21 0;
#X connect 20 1 22 0;
#X connect 21 0 23 0;
#X connect 22 0 21 0;
#X connect 22 1 23 1;
#X connect 23 0 24 0;
#X connect 24 0 8 1;
#X connect 24 0 3 1;
