#N canvas 0 23 903 626 10;
#X obj 211 189 mm_alt_per_measure;
#X obj 277 214 mm_alt_per_beat;
#X floatatom 278 237 5 0 0 0 - - -;
#X obj 148 38 inlet;
#X obj 336 21 inlet;
#X obj 148 152 spigot;
#X obj 184 97 == 0;
#X obj 210 156 spigot;
#X obj 247 97 == 1;
#X obj 277 157 spigot;
#X obj 148 63 t f f f;
#X floatatom 210 216 5 0 0 0 - - -;
#X obj 306 94 == 2;
#X obj 316 63 t f f f;
#X floatatom 147 175 5 0 0 0 - - -;
#X obj 179 292 outlet;
#X obj 315 -24 loadbang;
#X msg 316 1 0;
#X floatatom 394 160 5 0 0 0 - - -;
#X floatatom 479 174 5 0 0 0 - - -;
#X obj 451 -13 inlet;
#X obj 451 16 route mo bo;
#X connect 0 0 11 0;
#X connect 1 0 2 0;
#X connect 2 0 15 0;
#X connect 3 0 10 0;
#X connect 4 0 13 0;
#X connect 5 0 14 0;
#X connect 6 0 5 1;
#X connect 7 0 0 0;
#X connect 8 0 7 1;
#X connect 9 0 1 0;
#X connect 10 0 5 0;
#X connect 10 1 7 0;
#X connect 10 2 9 0;
#X connect 11 0 15 0;
#X connect 12 0 9 1;
#X connect 13 0 6 0;
#X connect 13 1 8 0;
#X connect 13 2 12 0;
#X connect 14 0 15 0;
#X connect 16 0 17 0;
#X connect 17 0 13 0;
#X connect 18 0 1 1;
#X connect 20 0 21 0;
#X connect 21 0 0 1;
#X connect 21 1 1 1;
