#N canvas 370 34 921 695 10;
#X obj 150 417 vline~;
#X obj 111 154 inlet~;
#X obj 150 480 *~;
#X obj 111 524 *~;
#X obj 108 649 outlet~;
#X msg 385 612 \$4 5 \, 1 \$1 5 \, \$4 \$3 \$2;
#X obj 447 204 route a s r v;
#X obj 387 459 list;
#X obj 520 317 t b f;
#X obj 477 393 + 50;
#X obj 437 294 t f b f;
#X obj 450 329 t b f;
#X msg 418 515 \$2;
#X obj 420 537 list trim;
#X obj 484 260 t b f;
#X obj 419 560 + 5;
#X obj 387 491 t l l;
#X obj 419 586 s \$0-debounce;
#X obj 385 636 s \$0-env;
#X obj 174 148 inlet;
#X obj 174 195 bang;
#N canvas 699 131 450 300 db 0;
#X obj 69 38 inlet;
#X obj 69 70 spigot;
#X obj 70 100 t b b;
#X obj 98 129 t b b;
#X obj 67 251 outlet;
#X msg 127 151 0;
#X msg 98 203 1;
#X obj 154 48 loadbang;
#X msg 153 69 1;
#X obj 230 44 inlet;
#X obj 99 178 del 50;
#X connect 0 0 1 0;
#X connect 1 0 2 0;
#X connect 2 0 4 0;
#X connect 2 1 3 0;
#X connect 3 0 10 0;
#X connect 3 1 5 0;
#X connect 5 0 1 1;
#X connect 6 0 1 1;
#X connect 7 0 8 0;
#X connect 8 0 1 1;
#X connect 9 0 10 1;
#X connect 10 0 6 0;
#X restore 175 247 pd db;
#X obj 205 213 r \$0-debounce;
#X obj 150 352 r \$0-env;
#X obj 460 137 loadbang;
#X obj 360 143 inlet;
#X msg 447 171 a 10 \, s 100 \, r 50 \, v 0;
#X obj 447 429 pack 10 110 50 0;
#X connect 0 0 2 1;
#X connect 0 0 2 0;
#X connect 1 0 3 0;
#X connect 2 0 3 1;
#X connect 3 0 4 0;
#X connect 5 0 18 0;
#X connect 6 0 10 0;
#X connect 6 1 11 0;
#X connect 6 2 14 0;
#X connect 6 3 8 0;
#X connect 7 0 16 0;
#X connect 8 0 27 0;
#X connect 8 1 27 3;
#X connect 9 0 27 1;
#X connect 10 0 27 0;
#X connect 10 1 9 0;
#X connect 10 2 9 1;
#X connect 11 0 27 0;
#X connect 11 1 9 0;
#X connect 12 0 13 0;
#X connect 13 0 15 0;
#X connect 14 0 27 0;
#X connect 14 1 27 2;
#X connect 15 0 17 0;
#X connect 16 0 5 0;
#X connect 16 1 12 0;
#X connect 19 0 20 0;
#X connect 20 0 21 0;
#X connect 21 0 7 0;
#X connect 22 0 21 1;
#X connect 23 0 0 0;
#X connect 24 0 26 0;
#X connect 25 0 6 0;
#X connect 26 0 6 0;
#X connect 27 0 7 1;
