#N canvas 136 199 1424 851 10;
#X obj 480 145 t f b;
#X obj 493 24 f;
#X obj 513 -52 +;
#X obj 544 -74 r \$0-theRoot;
#X obj 513 24 spigot;
#N canvas 552 254 450 300 inv 0;
#X obj 93 21 inlet;
#X obj 91 56 swap 1;
#X obj 89 89 -;
#X obj 87 130 outlet;
#X connect 0 0 1 0;
#X connect 1 0 2 0;
#X connect 1 1 2 1;
#X connect 2 0 3 0;
#X restore 601 -2 pd inv;
#X obj 673 70 route 0;
#X obj 493 47 t b b f;
#X obj 493 74 del;
#X obj 492 105 f;
#X obj 664 14 spigot;
#X obj 512 64 mod 12;
#X obj 513 88 + 24;
#X obj 408 80 mod 12;
#X obj 673 95 + 24;
#X obj 580 388 r onOff;
#X obj 579 432 sel 0;
#X obj 579 453 del 1000;
#X obj 510 261 * 12;
#X obj 485 282 +;
#X obj 483 172 t f b;
#X obj 510 202 random 3;
#X obj 509 228 - 1;
#X obj 471 348 <= 24;
#X obj 431 317 t f f;
#X obj 431 410 +;
#X obj 471 372 * 12;
#X obj 433 443 moses 24;
#X obj 455 -180 r \$0-clock;
#X obj 642 -179 r alterPattern0;
#X obj 532 -205 list prepend read;
#X obj 531 -182 list trim;
#X obj 532 -227 route 0;
#X msg 637 -23 0;
#X obj 671 -49 loadbang;
#X obj 456 -87 mm_pattern;
#X obj 566 63 random 15;
#X obj 183 -210 inlet;
#X obj 180 -133 s \$0-clock;
#X obj 346 -125 r kickHits;
#X obj 201 -99 s \$0-timer;
#X obj 225 -60 s \$0-theRoot;
#X obj 633 -95 r 0shouldImprovise;
#X obj 698 -29 r 0shouldImprovise;
#X obj 529 -250 inlet;
#X obj 753 -249 inlet;
#X obj 409 110 s note0;
#X obj 181 -169 route clock timer root tempo;
#X obj 252 24 s \$0-detectedTempo;
#X msg 259 -17 tempo \$1;
#X msg 580 483 0;
#X obj 452 565 outlet;
#X obj 352 108 bng 15 250 50 0 empty empty empty 17 7 0 10 -262144
-1 -1;
#X floatatom 539 147 5 0 0 0 - - -;
#X obj 643 -143 route sparse;
#X obj 347 -76 bng 15 250 50 0 empty empty empty 17 7 0 10 -262144
-1 -1;
#X obj 435 -1 bng 15 250 50 0 empty empty empty 17 7 0 10 -262144 -1
-1;
#X obj 435 -23 mm_maybe 5 106;
#X obj 347 -98 mm_maybe 1 107;
#X connect 0 0 20 0;
#X connect 1 0 7 0;
#X connect 2 0 4 0;
#X connect 2 0 13 0;
#X connect 2 0 57 0;
#X connect 3 0 2 1;
#X connect 4 0 11 0;
#X connect 5 0 4 1;
#X connect 6 0 14 0;
#X connect 7 0 8 0;
#X connect 7 1 36 0;
#X connect 7 2 9 1;
#X connect 8 0 9 0;
#X connect 9 0 0 0;
#X connect 9 0 53 0;
#X connect 10 0 1 1;
#X connect 11 0 12 0;
#X connect 12 0 1 1;
#X connect 12 0 1 0;
#X connect 13 0 46 0;
#X connect 14 0 10 0;
#X connect 15 0 16 0;
#X connect 16 0 17 0;
#X connect 17 0 50 0;
#X connect 18 0 19 1;
#X connect 19 0 24 0;
#X connect 20 0 19 0;
#X connect 20 1 21 0;
#X connect 21 0 22 0;
#X connect 22 0 18 0;
#X connect 23 0 26 0;
#X connect 24 0 25 0;
#X connect 24 1 23 0;
#X connect 25 0 27 0;
#X connect 26 0 25 1;
#X connect 27 1 51 0;
#X connect 28 0 35 0;
#X connect 29 0 54 0;
#X connect 29 0 35 1;
#X connect 30 0 31 0;
#X connect 31 0 35 1;
#X connect 32 0 30 0;
#X connect 33 0 5 0;
#X connect 34 0 33 0;
#X connect 35 1 2 0;
#X connect 36 0 8 1;
#X connect 37 0 47 0;
#X connect 39 0 58 0;
#X connect 42 0 5 0;
#X connect 43 0 10 1;
#X connect 44 0 32 0;
#X connect 45 0 6 0;
#X connect 47 0 38 0;
#X connect 47 1 40 0;
#X connect 47 2 41 0;
#X connect 47 3 49 0;
#X connect 49 0 48 0;
#X connect 50 0 51 0;
#X connect 55 0 1 0;
#X connect 56 0 1 0;
#X connect 57 0 56 0;
#X connect 58 0 55 0;
