#N canvas 135 23 1424 851 10;
#X obj 448 -207 r \$0-clock;
#X obj 532 -231 list prepend read;
#X obj 531 -208 list trim;
#X obj 532 -263 route 0;
#X obj 441 -91 mm_pattern;
#X obj 183 -210 inlet;
#X obj 180 -133 s \$0-clock;
#X obj 201 -99 s \$0-timer;
#X obj 225 -60 s \$0-theRoot;
#X obj 531 -301 inlet;
#X obj 753 -249 inlet;
#X obj 181 -169 route clock timer root tempo;
#X obj 252 24 s \$0-detectedTempo;
#X msg 259 -17 tempo \$1;
#X obj 497 193 outlet;
#N canvas 184 112 1161 757 bass 0;
#X obj 390 -271 +;
#X obj 422 -301 r \$0-theRoot;
#X obj 349 -388 moses 1;
#X obj 416 -243 r onOff;
#X obj 415 -217 sel 0;
#X obj 417 -194 f 0;
#X obj 389 -147 f;
#X obj 350 -760 inlet;
#X obj 386 -84 outlet;
#X obj 389 -322 + 24;
#X floatatom 458 -358 5 0 0 0 - - -;
#X floatatom 470 -327 5 0 0 0 - - -;
#X obj 481 -764 inlet;
#X obj 351 -527 spigot;
#X obj 467 -526 spigot;
#X obj 392 -614 r 0shouldImprovise;
#X obj 393 -590 t f f;
#X obj 391 -563 mm_invert 1;
#X obj 462 -445 f;
#X obj 462 -497 r kickHits;
#X obj 461 -474 mm_maybe 2 120;
#X obj 390 -661 loadbang;
#X msg 390 -636 0;
#X obj 388 -357 mod 24;
#X connect 0 0 6 1;
#X connect 0 0 6 0;
#X connect 1 0 0 1;
#X connect 2 1 10 0;
#X connect 2 1 23 0;
#X connect 3 0 4 0;
#X connect 4 0 5 0;
#X connect 5 0 6 1;
#X connect 5 0 6 0;
#X connect 6 0 8 0;
#X connect 7 0 13 0;
#X connect 9 0 0 0;
#X connect 12 0 14 0;
#X connect 13 0 2 0;
#X connect 14 0 18 1;
#X connect 15 0 16 0;
#X connect 16 0 17 0;
#X connect 16 1 14 1;
#X connect 17 0 13 1;
#X connect 18 0 2 0;
#X connect 19 0 20 0;
#X connect 20 0 18 0;
#X connect 21 0 22 0;
#X connect 22 0 16 0;
#X connect 23 0 9 0;
#X connect 23 0 11 0;
#X restore 499 162 pd bass jitter;
#X floatatom 515 -41 5 0 0 0 - - -;
#X obj 492 15 s note0;
#X obj 498 -17 mod 12;
#X connect 0 0 4 0;
#X connect 1 0 2 0;
#X connect 2 0 4 1;
#X connect 3 0 1 0;
#X connect 4 1 15 0;
#X connect 4 1 16 0;
#X connect 4 1 18 0;
#X connect 5 0 11 0;
#X connect 9 0 3 0;
#X connect 10 0 15 1;
#X connect 11 0 6 0;
#X connect 11 1 7 0;
#X connect 11 2 8 0;
#X connect 11 3 13 0;
#X connect 13 0 12 0;
#X connect 15 0 14 0;
#X connect 18 0 17 0;
