#N canvas 0 23 1225 851 10;
#X obj 395 700 *~;
#X obj 482 650 lop~ 1;
#X obj 531 578 r bassVolume;
#X obj 754 359 r randomize1;
#X obj 381 784 outlet~;
#X obj 518 783 outlet~;
#X obj 517 723 *~;
#X obj 542 651 lop~ 1;
#X obj 380 329 inlet~;
#X obj 458 332 inlet~;
#X obj 620 361 inlet;
#X obj 622 390 route tempo;
#X msg 622 422 tempo \$1;
#X obj 406 545 mm_schorus~;
#X obj 591 756 mm_scope~ bassScope;
#X connect 0 0 4 0;
#X connect 0 0 14 0;
#X connect 1 0 0 1;
#X connect 2 0 7 0;
#X connect 2 0 1 0;
#X connect 3 0 13 2;
#X connect 6 0 5 0;
#X connect 6 0 14 0;
#X connect 7 0 6 1;
#X connect 8 0 0 0;
#X connect 8 0 13 0;
#X connect 9 0 6 0;
#X connect 9 0 13 1;
#X connect 10 0 11 0;
#X connect 11 0 12 0;
#X connect 12 0 13 2;
#X connect 13 0 0 0;
#X connect 13 1 6 0;
