#N canvas 0 22 1440 747 10;
#N canvas 621 248 450 300 square 0;
#X obj 28 205 *~;
#X obj 29 249 outlet~;
#X obj 119 -44 inlet;
#X obj 121 34 select 0 1;
#X obj 207 141 switch~;
#X obj 180 70 t b b;
#X msg 205 109 1;
#X msg 171 109 1;
#X obj 46 184 lop~ 1;
#X obj 113 70 t b b;
#X msg 138 109 0;
#X obj 104 90 del 30;
#X msg 104 109 0;
#X obj -110 94 expr~ if($v1<0.5 \, -1 \, 1);
#X obj -112 -4 inlet;
#X obj -110 47 phasor~;
#X connect 0 0 1 0;
#X connect 2 0 3 0;
#X connect 3 0 9 0;
#X connect 3 1 5 0;
#X connect 5 0 7 0;
#X connect 5 1 6 0;
#X connect 6 0 4 0;
#X connect 7 0 8 0;
#X connect 8 0 0 1;
#X connect 9 0 11 0;
#X connect 9 1 10 0;
#X connect 10 0 8 0;
#X connect 11 0 12 0;
#X connect 12 0 4 0;
#X connect 13 0 0 0;
#X connect 14 0 15 0;
#X connect 15 0 13 0;
#X restore -7 374 pd square;
#X obj 945 700 hip~ 5;
#X obj 944 745 outlet~;
#N canvas 378 177 901 641 sin1 0;
#X obj 248 165 inlet;
#X obj 250 243 select 0 1;
#X obj 336 350 switch~;
#X obj 309 279 t b b;
#X msg 334 318 1;
#X msg 300 318 1;
#X obj 174 439 lop~ 1;
#X obj 242 279 t b b;
#X msg 267 318 0;
#X obj 233 299 del 30;
#X msg 233 318 0;
#X obj 140 476 *~;
#X obj 135 238 osc~;
#X obj 143 576 outlet~;
#X obj 136 155 inlet;
#X obj 178 306 osc~;
#X obj 196 344 osc~;
#X obj 177 223 * 2;
#X obj 190 254 * 3;
#X obj 173 370 *~ 0.5;
#X obj 184 398 *~ 0.25;
#X obj 140 534 *~ 1.1;
#X connect 0 0 1 0;
#X connect 1 0 7 0;
#X connect 1 1 3 0;
#X connect 3 0 5 0;
#X connect 3 1 4 0;
#X connect 4 0 2 0;
#X connect 5 0 6 0;
#X connect 6 0 11 1;
#X connect 7 0 9 0;
#X connect 7 1 8 0;
#X connect 8 0 6 0;
#X connect 9 0 10 0;
#X connect 10 0 2 0;
#X connect 11 0 21 0;
#X connect 12 0 11 0;
#X connect 14 0 12 0;
#X connect 14 0 17 0;
#X connect 14 0 18 0;
#X connect 15 0 19 0;
#X connect 16 0 20 0;
#X connect 17 0 15 0;
#X connect 18 0 16 0;
#X connect 19 0 11 0;
#X connect 20 0 11 0;
#X connect 21 0 13 0;
#X restore 202 392 pd sin1;
#X obj 119 34 inlet;
#X obj 943 618 catch~ \$0-out1;
#X obj 120 63 s \$0-pitch1;
#X obj -6 302 r \$0-pitch1;
#X obj 201 308 r \$0-pitch1;
#X obj 204 471 throw~ \$0-out1;
#X obj -10 478 throw~ \$0-out1;
#X obj 65 319 r \$0-wave1;
#X obj 62 348 == 0;
#X obj 266 328 r \$0-wave1;
#X obj 417 480 throw~ \$0-out1;
#X obj 419 326 r \$0-pitch1;
#X obj 483 349 r \$0-wave1;
#X msg 485 398 switch \$1;
#X obj 420 418 mm_blsq12~;
#X obj 944 647 *~ 1.1;
#X obj 99 402 sel 1;
#X msg 99 431 square;
#X obj 111 461 s \$0-wave;
#X obj 309 419 sel 1;
#X obj 321 478 s \$0-wave;
#X msg 309 448 sine;
#X obj 504 223 sel 1;
#X obj 516 282 s \$0-wave;
#X msg 504 252 bl_sqaure12;
#X obj 205 435 *~ 1.5;
#X obj 263 357 == 2;
#N canvas 378 177 901 641 sin1 0;
#X obj 248 165 inlet;
#X obj 250 243 select 0 1;
#X obj 336 350 switch~;
#X obj 309 279 t b b;
#X msg 334 318 1;
#X msg 300 318 1;
#X obj 174 439 lop~ 1;
#X obj 242 279 t b b;
#X msg 267 318 0;
#X obj 233 299 del 30;
#X msg 233 318 0;
#X obj 140 476 *~;
#X obj 135 238 osc~;
#X obj 143 576 outlet~;
#X obj 136 155 inlet;
#X obj 178 306 osc~;
#X obj 196 344 osc~;
#X obj 177 223 * 2;
#X obj 190 254 * 3;
#X obj 173 370 *~ 0.5;
#X obj 184 398 *~ 0.25;
#X obj 140 534 *~ 1.1;
#X connect 0 0 1 0;
#X connect 1 0 7 0;
#X connect 1 1 3 0;
#X connect 3 0 5 0;
#X connect 3 1 4 0;
#X connect 4 0 2 0;
#X connect 5 0 6 0;
#X connect 6 0 11 1;
#X connect 7 0 9 0;
#X connect 7 1 8 0;
#X connect 8 0 6 0;
#X connect 9 0 10 0;
#X connect 10 0 2 0;
#X connect 11 0 21 0;
#X connect 12 0 11 0;
#X connect 14 0 12 0;
#X connect 14 0 17 0;
#X connect 14 0 18 0;
#X connect 15 0 19 0;
#X connect 16 0 20 0;
#X connect 17 0 15 0;
#X connect 18 0 16 0;
#X connect 19 0 11 0;
#X connect 20 0 11 0;
#X connect 21 0 13 0;
#X restore 609 390 pd sin1;
#X obj 608 306 r \$0-pitch1;
#X obj 611 469 throw~ \$0-out1;
#X obj 673 326 r \$0-wave1;
#X obj 716 417 sel 1;
#X obj 728 476 s \$0-wave;
#X msg 716 446 sine;
#X obj 612 433 *~ 1.5;
#X obj 670 355 == 3;
#X obj -11 420 *~ 0.25;
#X obj 417 453 *~ 0.9;
#N canvas 621 248 450 300 square 0;
#X obj 28 205 *~;
#X obj 29 249 outlet~;
#X obj 119 -44 inlet;
#X obj 121 34 select 0 1;
#X obj 207 141 switch~;
#X obj 180 70 t b b;
#X msg 205 109 1;
#X msg 171 109 1;
#X obj 46 184 lop~ 1;
#X obj 113 70 t b b;
#X msg 138 109 0;
#X obj 104 90 del 30;
#X msg 104 109 0;
#X obj -110 94 expr~ if($v1<0.5 \, -1 \, 1);
#X obj -112 -4 inlet;
#X obj -110 47 phasor~;
#X connect 0 0 1 0;
#X connect 2 0 3 0;
#X connect 3 0 9 0;
#X connect 3 1 5 0;
#X connect 5 0 7 0;
#X connect 5 1 6 0;
#X connect 6 0 4 0;
#X connect 7 0 8 0;
#X connect 8 0 0 1;
#X connect 9 0 11 0;
#X connect 9 1 10 0;
#X connect 10 0 8 0;
#X connect 11 0 12 0;
#X connect 12 0 4 0;
#X connect 13 0 0 0;
#X connect 14 0 15 0;
#X connect 15 0 13 0;
#X restore 854 352 pd square;
#X obj 855 280 r \$0-pitch1;
#X obj 851 456 throw~ \$0-out1;
#X obj 926 297 r \$0-wave1;
#X obj 960 380 sel 1;
#X msg 960 409 square;
#X obj 972 439 s \$0-wave;
#X obj 850 398 *~ 0.25;
#X obj 923 326 == 1;
#X obj 485 371 == -1;
#X obj 949 126 inlet;
#X obj 947 167 s \$0-wave1;
#X connect 0 0 40 0;
#X connect 1 0 2 0;
#X connect 3 0 29 0;
#X connect 4 0 6 0;
#X connect 5 0 19 0;
#X connect 7 0 0 0;
#X connect 8 0 3 0;
#X connect 11 0 12 0;
#X connect 12 0 0 1;
#X connect 12 0 20 0;
#X connect 13 0 30 0;
#X connect 15 0 18 0;
#X connect 16 0 51 0;
#X connect 17 0 18 1;
#X connect 18 0 41 0;
#X connect 19 0 1 0;
#X connect 20 0 21 0;
#X connect 21 0 22 0;
#X connect 23 0 25 0;
#X connect 25 0 24 0;
#X connect 26 0 28 0;
#X connect 28 0 27 0;
#X connect 29 0 9 0;
#X connect 30 0 3 1;
#X connect 30 0 23 0;
#X connect 31 0 38 0;
#X connect 32 0 31 0;
#X connect 34 0 39 0;
#X connect 35 0 37 0;
#X connect 37 0 36 0;
#X connect 38 0 33 0;
#X connect 39 0 31 1;
#X connect 39 0 35 0;
#X connect 40 0 10 0;
#X connect 41 0 14 0;
#X connect 42 0 49 0;
#X connect 43 0 42 0;
#X connect 45 0 50 0;
#X connect 46 0 47 0;
#X connect 47 0 48 0;
#X connect 49 0 44 0;
#X connect 50 0 42 1;
#X connect 50 0 46 0;
#X connect 51 0 17 0;
#X connect 51 0 26 0;
#X connect 52 0 53 0;
