#N canvas 108 23 1129 851 10;
#X msg 214 49 0;
#X obj 185 237 metro;
#X obj 316 128 swap 60000;
#X obj 316 152 /;
#X obj 316 182 f;
#X obj 416 146 t b f;
#X msg 132 54 1;
#X obj 183 506 f;
#X obj 215 505 + 1;
#X obj 173 887 mod;
#X obj 325 501 r \$0-patternLength;
#X obj 350 905 mod;
#X obj 334 1014 outlet~;
#X obj 132 -90 inlet;
#X obj 173 1008 outlet;
#X obj 563 -40 inlet;
#X obj 570 127 s \$0-beatDivisions;
#X obj 415 110 r \$0-beatDivisions;
#X obj 619 157 s \$0-numberBeats;
#X obj 665 196 s \$0-numberMeasures;
#X obj 720 221 s \$0-theTempo;
#X obj 315 97 r \$0-theTempo;
#X obj 132 -7 route record play stop clear reset;
#X msg 249 52 0;
#X obj 247 99 s \$0-clear;
#X obj 725 290 r \$0-beatDivisions;
#X obj 777 334 r \$0-numberBeats;
#X obj 778 403 r \$0-numberMeasures;
#X obj 776 357 t b f;
#X obj 778 430 t b f;
#X obj 769 636 s \$0-patternLength;
#X msg 172 928 clock \$1;
#X obj 69 952 r \$0-patternLength;
#X msg 69 974 length \$1;
#X obj 776 149 s \$0-thePattern;
#X obj 203 -34 s \$0-commands;
#X obj 517 902 r \$0-commands;
#X obj 579 925 r \$0-thePattern;
#X floatatom 791 473 5 0 0 0 - - -;
#X floatatom 699 440 5 0 0 0 - - -;
#X floatatom 695 380 5 0 0 0 - - -;
#X obj 726 348 f;
#X obj 727 407 *;
#X obj 729 470 *;
#X obj 579 88 \$3;
#X obj 634 104 \$2;
#X obj 687 129 \$1;
#X obj 667 57 loadbang;
#X msg 796 112 0;
#X obj 736 166 \$4;
#X obj 516 974 list trim;
#X obj 516 950 list append;
#X obj 295 66 s \$0-reset;
#X obj 80 234 r \$0-reset;
#X msg 292 41 -1;
#X obj 897 181 s \$0-loop;
#X obj 182 599 ==;
#X obj 184 560 t f f;
#X obj 201 650 sel 0 1;
#X obj 295 583 r \$0-loop;
#X obj 202 629 spigot;
#X obj 173 726 spigot;
#X msg 240 736 0;
#X msg 201 704 1;
#X obj 223 760 s \$0-stopNow;
#X obj 60 168 r \$0-stopNow;
#X msg 61 193 0;
#X obj 275 276 r \$0-stopNow;
#X msg 273 298 -1;
#X obj 259 561 - 1;
#X obj 954 56 s \$0-countin;
#X obj 239 15 r \$0-countin;
#X msg 234 126 counts \$1;
#X msg 248 152 tempo \$1;
#X obj 171 192 s \$0-countinBangs;
#X obj 377 923 r \$0-countinBangs;
#X obj 953 11 loadbang;
#X msg 951 33 4;
#X msg 171 53 1;
#X obj 132 -65 t a a;
#X obj 221 673 t b b b;
#X msg 270 737 0;
#X obj 240 711 del;
#X obj 357 207 s \$0-timeBaseMS;
#X obj 281 683 r \$0-timeBaseMS;
#X obj 186 261 f;
#X obj 223 261 + 1;
#X obj 185 286 mod 2;
#X obj 185 342 sel 0 1;
#X obj 78 664 s \$0-quantBang;
#X obj 69 953 r \$0-quantBang;
#X obj 76 591 f;
#X obj 105 590 + 1;
#X obj 77 632 mod;
#X obj 108 621 * 2;
#X msg 68 929 quant \$1;
#X msg 70 929 tempo \$1;
#X obj 69 904 r \$0-theTempo;
#X obj 896 148 \$5;
#X msg 224 -75 play;
#X obj 187 83 s \$0-play;
#X obj 337 733 r \$0-play;
#X floatatom 347 240 5 0 0 0 - - -;
#X obj 241 231 * 0.5;
#X obj 314 215 / \$3;
#X obj 628 446 bng 15 250 50 0 empty empty empty 17 7 0 10 -262144
-1 -1;
#X obj 626 638 print length;
#N canvas 659 400 450 300 swing 0;
#X obj 128 -22 inlet;
#X obj 160 94 sel 0 1;
#X obj 135 192 del;
#X obj 152 126 f 0;
#X obj 233 -8 inlet;
#X obj 235 36 sel 0 1;
#X obj 180 126 f;
#X msg 268 130 0;
#X obj 342 119 f;
#X obj 328 8 inlet;
#X obj 335 50 * 0.5;
#X obj 137 242 outlet;
#X floatatom 334 165 5 0 0 0 - - -;
#X obj 130 24 f;
#X obj 160 23 + 1;
#X obj 130 47 mod 2;
#X obj 182 -30 r \$0-reset;
#X obj 128 70 t b f;
#X msg 183 -10 0;
#X obj 273 -18 loadbang;
#X msg 273 5 0;
#X obj 208 168 spigot;
#X msg 258 102 1;
#X floatatom 181 200 5 0 0 0 - - -;
#X obj 257 73 t b b;
#X obj 211 56 t b b;
#X msg 212 82 0;
#X connect 0 0 13 0;
#X connect 1 0 3 0;
#X connect 1 1 6 0;
#X connect 2 0 11 0;
#X connect 3 0 2 1;
#X connect 3 0 23 0;
#X connect 4 0 5 0;
#X connect 5 0 25 0;
#X connect 5 1 24 0;
#X connect 6 0 2 1;
#X connect 6 0 23 0;
#X connect 7 0 21 1;
#X connect 8 0 12 0;
#X connect 8 0 21 0;
#X connect 9 0 10 0;
#X connect 10 0 8 1;
#X connect 10 0 8 0;
#X connect 13 0 14 0;
#X connect 13 0 15 0;
#X connect 14 0 13 1;
#X connect 15 0 17 0;
#X connect 16 0 18 0;
#X connect 17 0 2 0;
#X connect 17 1 1 0;
#X connect 18 0 13 1;
#X connect 19 0 20 0;
#X connect 20 0 5 0;
#X connect 21 0 6 1;
#X connect 22 0 21 1;
#X connect 24 0 22 0;
#X connect 24 1 8 0;
#X connect 25 0 26 0;
#X connect 25 1 7 0;
#X connect 26 0 6 1;
#X restore 181 424 pd swing;
#X obj 958 157 s \$0-swing;
#X obj 325 339 r \$0-swing;
#X obj 293 388 tgl 15 0 empty empty empty 17 7 0 10 -262144 -1 -1 0
1;
#X obj 396 64 bng 15 250 50 0 empty empty empty 17 7 0 10 -262144 -1
-1;
#X obj 336 -90 r resetClock;
#X obj 339 -66 t b b;
#X msg 407 -51 stop;
#X obj 408 -30 list trim;
#X msg 338 -43 play;
#X obj 366 -1 list trim;
#X floatatom 377 830 5 0 0 0 - - -;
#X floatatom 871 468 5 0 0 0 - - -;
#X floatatom 258 876 5 0 0 0 - - -;
#X obj 449 754 r \$0-numberBeats;
#X obj 489 784 r \$0-beatDivisions;
#X obj 492 808 t b f;
#X obj 443 791 f;
#X obj 430 840 *;
#X floatatom 445 890 5 0 0 0 - - -;
#X obj 774 749 sel 0;
#X obj 776 793 f;
#X obj 812 791 + 1;
#X obj 775 852 mod;
#X obj 800 819 r \$0-numberMeasures;
#X floatatom 773 896 5 0 0 0 - - -;
#X floatatom 717 830 5 0 0 0 - - -;
#X obj 835 657 r \$0-reset;
#X obj 837 686 t b;
#X msg 838 710 0;
#X obj 639 669 t f f;
#X floatatom 647 831 5 0 0 0 - - -;
#X obj 649 799 max;
#X floatatom 587 186 5 0 0 0 - - -;
#X obj 667 714 r \$0-reset;
#X obj 669 743 t b;
#X msg 670 767 0;
#X obj 336 987 hip~ 5;
#X floatatom 342 391 5 0 0 0 - - -;
#X floatatom 955 108 5 0 0 0 - - -;
#X obj 566 36 route divisions beats measures tempo pattern loop swing
;
#X obj 615 4 print clock_in;
#X obj 295 608 mm_invert 1;
#X obj 335 958 mm_click~;
#X obj 168 164 mm_countin;
#X obj 728 588 moses 0;
#X obj 756 548 r patternLength;
#X obj 769 611 change;
#X connect 0 0 1 0;
#X connect 1 0 85 0;
#X connect 2 0 3 0;
#X connect 2 1 3 1;
#X connect 3 0 4 1;
#X connect 3 0 4 0;
#X connect 4 0 83 0;
#X connect 4 0 104 0;
#X connect 5 0 4 0;
#X connect 5 1 104 1;
#X connect 6 0 151 0;
#X connect 7 0 8 0;
#X connect 7 0 57 0;
#X connect 8 0 7 1;
#X connect 9 0 11 0;
#X connect 9 0 31 0;
#X connect 9 0 120 0;
#X connect 10 0 9 1;
#X connect 10 0 69 0;
#X connect 10 0 94 0;
#X connect 11 0 118 0;
#X connect 11 0 137 0;
#X connect 13 0 79 0;
#X connect 15 0 147 0;
#X connect 15 0 148 0;
#X connect 17 0 5 0;
#X connect 21 0 2 0;
#X connect 21 0 73 0;
#X connect 22 0 6 0;
#X connect 22 1 78 0;
#X connect 22 2 0 0;
#X connect 22 2 54 0;
#X connect 22 3 23 0;
#X connect 22 3 54 0;
#X connect 22 4 54 0;
#X connect 23 0 1 0;
#X connect 25 0 41 1;
#X connect 25 0 41 0;
#X connect 26 0 28 0;
#X connect 27 0 29 0;
#X connect 28 0 41 0;
#X connect 28 1 42 1;
#X connect 29 0 41 0;
#X connect 29 1 43 1;
#X connect 29 1 119 0;
#X connect 31 0 14 0;
#X connect 32 0 33 0;
#X connect 33 0 14 0;
#X connect 36 0 51 0;
#X connect 37 0 51 1;
#X connect 41 0 40 0;
#X connect 41 0 42 0;
#X connect 42 0 39 0;
#X connect 42 0 43 0;
#X connect 43 0 38 0;
#X connect 43 0 106 0;
#X connect 43 0 152 0;
#X connect 44 0 16 0;
#X connect 45 0 18 0;
#X connect 46 0 19 0;
#X connect 47 0 46 0;
#X connect 47 0 45 0;
#X connect 47 0 44 0;
#X connect 47 0 48 0;
#X connect 47 0 49 0;
#X connect 47 0 98 0;
#X connect 48 0 34 0;
#X connect 49 0 20 0;
#X connect 50 0 14 0;
#X connect 51 0 50 0;
#X connect 53 0 7 1;
#X connect 53 0 7 0;
#X connect 53 0 85 1;
#X connect 53 0 91 1;
#X connect 53 0 85 0;
#X connect 54 0 52 0;
#X connect 56 0 60 0;
#X connect 57 0 56 0;
#X connect 57 1 61 0;
#X connect 58 0 63 0;
#X connect 58 1 80 0;
#X connect 59 0 149 0;
#X connect 60 0 58 0;
#X connect 61 0 9 0;
#X connect 63 0 61 1;
#X connect 65 0 66 0;
#X connect 66 0 1 0;
#X connect 67 0 68 0;
#X connect 68 0 7 1;
#X connect 68 0 7 0;
#X connect 68 0 91 1;
#X connect 68 0 85 1;
#X connect 68 0 85 0;
#X connect 69 0 56 1;
#X connect 71 0 72 0;
#X connect 72 0 151 1;
#X connect 73 0 151 1;
#X connect 75 0 150 0;
#X connect 76 0 77 0;
#X connect 77 0 70 0;
#X connect 78 0 1 0;
#X connect 78 0 100 0;
#X connect 79 0 22 0;
#X connect 79 1 35 0;
#X connect 80 0 64 0;
#X connect 80 1 82 0;
#X connect 80 2 81 0;
#X connect 81 0 61 1;
#X connect 82 0 62 0;
#X connect 84 0 82 1;
#X connect 85 0 86 0;
#X connect 85 0 87 0;
#X connect 86 0 85 1;
#X connect 87 0 88 0;
#X connect 88 0 91 0;
#X connect 88 0 107 0;
#X connect 88 1 91 0;
#X connect 90 0 95 0;
#X connect 91 0 92 0;
#X connect 91 0 93 0;
#X connect 92 0 91 1;
#X connect 93 0 89 0;
#X connect 94 0 93 1;
#X connect 95 0 14 0;
#X connect 96 0 14 0;
#X connect 97 0 96 0;
#X connect 98 0 55 0;
#X connect 99 0 22 0;
#X connect 101 0 61 1;
#X connect 103 0 1 1;
#X connect 104 0 102 0;
#X connect 104 0 103 0;
#X connect 104 0 107 2;
#X connect 105 0 43 0;
#X connect 107 0 7 0;
#X connect 109 0 107 1;
#X connect 109 0 145 0;
#X connect 110 0 107 1;
#X connect 111 0 2 0;
#X connect 112 0 113 0;
#X connect 113 0 116 0;
#X connect 113 1 114 0;
#X connect 114 0 115 0;
#X connect 116 0 117 0;
#X connect 121 0 124 1;
#X connect 121 0 124 0;
#X connect 122 0 123 0;
#X connect 123 0 124 0;
#X connect 123 1 125 1;
#X connect 124 0 125 0;
#X connect 125 0 126 0;
#X connect 125 0 11 1;
#X connect 127 0 128 0;
#X connect 128 0 129 0;
#X connect 128 0 130 0;
#X connect 128 0 133 0;
#X connect 129 0 128 1;
#X connect 130 0 132 0;
#X connect 130 0 139 1;
#X connect 131 0 130 1;
#X connect 134 0 135 0;
#X connect 135 0 136 0;
#X connect 136 0 128 1;
#X connect 136 0 130 1;
#X connect 137 0 139 0;
#X connect 137 1 127 0;
#X connect 139 0 138 0;
#X connect 139 0 150 0;
#X connect 141 0 142 0;
#X connect 142 0 143 0;
#X connect 143 0 139 1;
#X connect 143 0 124 1;
#X connect 143 0 125 1;
#X connect 143 0 11 1;
#X connect 144 0 12 0;
#X connect 147 0 16 0;
#X connect 147 0 140 0;
#X connect 147 1 18 0;
#X connect 147 2 19 0;
#X connect 147 3 20 0;
#X connect 147 4 34 0;
#X connect 147 5 55 0;
#X connect 147 6 108 0;
#X connect 147 6 146 0;
#X connect 149 0 60 1;
#X connect 150 0 144 0;
#X connect 151 0 74 0;
#X connect 151 1 1 0;
#X connect 152 1 154 0;
#X connect 153 0 152 0;
#X connect 154 0 30 0;
