#N canvas 77 63 1256 237 10;
#X obj 156 21 inlet;
#X obj 852 82 \$0;
#X obj 851 48 loadbang;
#X msg 840 212 \; \$1-waveform normalize 1;
#X obj 853 109 t f f;
#X obj 908 69 bng 15 250 50 0 empty empty empty 17 7 0 10 -262144 -1
-1;
#X obj 834 11 table \$0-waveform;
#X obj 144 155 tabread4~ \$0-waveform;
#X obj 150 70 phasor~;
#X obj 147 121 *~ 2051;
#X obj 145 210 outlet~;
#X obj 489 20 inlet;
#X obj 486 51 route switch;
#X obj 486 81 s \$0-switch;
#X obj 624 303 r \$0-switch;
#X obj 624 332 switch~;
#X msg 870 157 \; \$1-waveform sinesum 2051 1 0 0.333333 0 0.2 0 0.142857
0 0.111111 0 0.090909 0 0.076923;
#X connect 0 0 8 0;
#X connect 1 0 4 0;
#X connect 2 0 1 0;
#X connect 4 0 3 0;
#X connect 4 1 16 0;
#X connect 5 0 1 0;
#X connect 7 0 10 0;
#X connect 8 0 9 0;
#X connect 9 0 7 0;
#X connect 11 0 12 0;
#X connect 12 0 13 0;
#X connect 14 0 15 0;
