#N canvas 135 23 1424 851 10;
#X obj 477 272 t f b;
#X obj 484 136 f;
#X obj 504 60 +;
#X obj 520 23 r \$0-theRoot;
#X obj 504 136 spigot;
#N canvas 552 254 450 300 inv 0;
#X obj 93 21 inlet;
#X obj 91 56 swap 1;
#X obj 89 89 -;
#X obj 87 130 outlet;
#X connect 0 0 1 0;
#X connect 1 0 2 0;
#X connect 1 1 2 1;
#X connect 2 0 3 0;
#X restore 594 114 pd inv;
#X obj 664 182 route 0;
#X obj 484 159 t b b f;
#X obj 484 186 del;
#X obj 476 247 f;
#X obj 655 126 spigot;
#X obj 527 177 mod 12;
#X obj 512 233 + 24;
#X obj 399 192 mod 12;
#X obj 664 207 + 24;
#X obj 507 388 * 12;
#X obj 482 409 +;
#X obj 480 299 t f b;
#X obj 507 329 random 3;
#X obj 506 355 - 1;
#X obj 462 460 <= 24;
#X obj 422 429 t f f;
#X obj 422 522 +;
#X obj 462 484 * 12;
#X obj 424 555 moses 24;
#X obj 455 -180 r \$0-clock;
#X obj 642 -179 r alterPattern0;
#X obj 532 -231 list prepend read;
#X obj 531 -208 list trim;
#X obj 532 -263 route 0;
#X msg 628 89 0;
#X obj 662 63 loadbang;
#X obj 441 -91 mm_pattern;
#X obj 571 175 random 15;
#X obj 183 -210 inlet;
#X obj 180 -133 s \$0-clock;
#X obj 346 -125 r kickHits;
#X obj 201 -99 s \$0-timer;
#X obj 225 -60 s \$0-theRoot;
#X obj 592 34 r 0shouldImprovise;
#X obj 689 83 r 0shouldImprovise;
#X obj 531 -301 inlet;
#X obj 753 -249 inlet;
#X obj 181 -169 route clock timer root tempo;
#X obj 252 24 s \$0-detectedTempo;
#X msg 259 -17 tempo \$1;
#X obj 443 677 outlet;
#X obj 352 108 bng 15 250 50 0 empty empty empty 17 7 0 10 -262144
-1 -1;
#X floatatom 536 274 5 0 0 0 - - -;
#X obj 643 -143 route sparse;
#X obj 347 -76 bng 15 250 50 0 empty empty empty 17 7 0 10 -262144
-1 -1;
#X obj 426 111 bng 15 250 50 0 empty empty empty 17 7 0 10 -262144
-1 -1;
#X obj 463 93 mm_maybe 5 106;
#X obj 347 -98 mm_maybe 1 107;
#X obj 456 -123 mm_alt_clock;
#X obj 680 -426 t b b;
#X obj 809 -400 r divisions;
#X floatatom 711 -349 5 0 0 0 - - -;
#X floatatom 678 -377 5 0 0 0 - - -;
#X obj 680 -452 r alterPattern0;
#X obj 681 -403 mm_srandom 3 159;
#X obj 712 -377 mm_srandom 2 147;
#N canvas 184 112 1161 757 bass 0;
#X obj 390 -271 +;
#X obj 422 -301 r \$0-theRoot;
#X obj 349 -388 moses 1;
#X obj 416 -243 r onOff;
#X obj 415 -217 sel 0;
#X obj 417 -194 f 0;
#X obj 389 -147 f;
#X obj 350 -760 inlet;
#X obj 386 -84 outlet;
#X obj 389 -322 + 24;
#X floatatom 458 -358 5 0 0 0 - - -;
#X floatatom 470 -327 5 0 0 0 - - -;
#X obj 388 -357 mod 36;
#X obj 481 -764 inlet;
#X obj 351 -527 spigot;
#X obj 467 -526 spigot;
#X obj 392 -614 r 0shouldImprovise;
#X obj 393 -590 t f f;
#X obj 391 -563 mm_invert 1;
#X obj 462 -445 f;
#X obj 462 -497 r kickHits;
#X obj 461 -474 mm_maybe 2 120;
#X obj 390 -661 loadbang;
#X msg 390 -636 0;
#X obj 573 -231 s note0;
#X obj 579 -263 mod 12;
#X connect 0 0 6 1;
#X connect 0 0 6 0;
#X connect 0 0 25 0;
#X connect 1 0 0 1;
#X connect 2 1 10 0;
#X connect 2 1 12 0;
#X connect 3 0 4 0;
#X connect 4 0 5 0;
#X connect 5 0 6 1;
#X connect 5 0 6 0;
#X connect 6 0 8 0;
#X connect 7 0 14 0;
#X connect 9 0 0 0;
#X connect 12 0 9 0;
#X connect 12 0 11 0;
#X connect 13 0 15 0;
#X connect 14 0 2 0;
#X connect 15 0 19 1;
#X connect 16 0 17 0;
#X connect 17 0 18 0;
#X connect 17 1 15 1;
#X connect 18 0 14 1;
#X connect 19 0 2 0;
#X connect 20 0 21 0;
#X connect 21 0 19 0;
#X connect 22 0 23 0;
#X connect 23 0 17 0;
#X connect 25 0 24 0;
#X restore 837 179 pd bass jitter;
#X floatatom 515 -41 5 0 0 0 - - -;
#X connect 0 0 17 0;
#X connect 1 0 7 0;
#X connect 2 0 4 0;
#X connect 2 0 13 0;
#X connect 2 0 52 0;
#X connect 3 0 2 1;
#X connect 4 0 11 0;
#X connect 5 0 4 1;
#X connect 6 0 14 0;
#X connect 7 0 8 0;
#X connect 7 1 33 0;
#X connect 7 2 9 1;
#X connect 8 0 9 0;
#X connect 9 0 0 0;
#X connect 9 0 48 0;
#X connect 10 0 1 1;
#X connect 11 0 12 0;
#X connect 12 0 1 1;
#X connect 12 0 1 0;
#X connect 14 0 10 0;
#X connect 15 0 16 1;
#X connect 16 0 21 0;
#X connect 17 0 16 0;
#X connect 17 1 18 0;
#X connect 18 0 19 0;
#X connect 19 0 15 0;
#X connect 20 0 23 0;
#X connect 21 0 22 0;
#X connect 21 1 20 0;
#X connect 22 0 24 0;
#X connect 23 0 22 1;
#X connect 25 0 54 0;
#X connect 26 0 49 0;
#X connect 27 0 28 0;
#X connect 28 0 32 1;
#X connect 29 0 27 0;
#X connect 30 0 5 0;
#X connect 31 0 30 0;
#X connect 32 1 62 0;
#X connect 32 1 63 0;
#X connect 33 0 8 1;
#X connect 34 0 43 0;
#X connect 36 0 53 0;
#X connect 39 0 5 0;
#X connect 40 0 10 1;
#X connect 41 0 29 0;
#X connect 42 0 6 0;
#X connect 42 0 62 1;
#X connect 43 0 35 0;
#X connect 43 1 37 0;
#X connect 43 2 38 0;
#X connect 43 3 45 0;
#X connect 45 0 44 0;
#X connect 50 0 1 0;
#X connect 51 0 1 0;
#X connect 52 0 51 0;
#X connect 53 0 50 0;
#X connect 54 0 32 0;
#X connect 55 0 60 0;
#X connect 55 1 61 0;
#X connect 56 0 61 1;
#X connect 58 0 54 1;
#X connect 59 0 55 0;
#X connect 60 0 58 0;
#X connect 61 0 57 0;
#X connect 62 0 46 0;
