#N canvas 140 66 1404 737 10;
#X obj 230 -214 noise~;
#X obj 582 241 *~;
#X obj 609 216 vline~;
#X obj 580 304 throw~ \$0-theOutput;
#X obj 607 156 r \$0-anAttack;
#X obj 124 -28 inlet;
#X obj 125 106 s \$0-anAttack;
#X obj 577 330 catch~ \$0-theOutput;
#X obj 575 536 *~;
#X obj 591 494 r \$0-theVolume;
#X obj 592 515 sig~;
#X obj 236 59 inlet;
#X obj 237 105 s \$0-theVolume;
#X obj 897 268 *~;
#X obj 619 281 delwrite~ \$0-theDelay 300;
#X obj 915 242 vline~;
#X obj 896 294 throw~ \$0-theOutput;
#X obj 854 97 *~;
#X obj 872 71 vline~;
#X obj 853 123 throw~ \$0-theOutput;
#X obj 872 22 r \$0-anAttack;
#X obj 915 196 r \$0-anAttack;
#X obj 854 0 delread~ \$0-theDelay 10;
#X obj 897 176 delread~ \$0-theDelay 30;
#X obj 619 94 osc~;
#X obj 620 21 unpack 0 0;
#X obj 653 68 osc~;
#X obj 654 94 *~ 0.5;
#X obj 652 48 * 2;
#X obj 582 123 bp~ 1000 50;
#X msg 872 43 0.2 5 10 \, 0 30 15;
#X msg 915 217 0.1 30 30 \, 0 100 130;
#X obj 465 -85 *~ 1;
#X msg 668 -4 220 0;
#X obj 124 83 t b;
#X obj 286 36 loadbang;
#X obj 467 -58 lop~ 5000;
#X obj 226 -146 table \$0-theNoise 1024;
#X obj 229 -168 tabwrite~ \$0-theNoise;
#X obj 295 -216 loadbang;
#X obj 460 -113 tabplay~ \$0-theNoise;
#X obj 461 -155 r \$0-anAttack;
#X msg 620 -5 440 0;
#X obj 148 61 s \$0-count;
#X obj 605 -193 r \$0-count;
#X obj 575 567 outlet~;
#X obj 577 461 *~;
#X obj 652 350 r \$0-count;
#X obj 653 372 sel 0;
#X obj 653 421 sig~;
#X msg 608 180 1 3 \, 0 5 3;
#X msg 653 401 1;
#X msg 684 401 0.8;
#X msg 287 71 2;
#X obj 851 -109 switch~;
#X obj 849 -177 loadbang;
#X msg 854 -142 1;
#X obj 674 -116 t b b;
#X obj 742 -21 s \$0-theVolume;
#X obj 604 -122 t b b;
#X msg 635 -96 2;
#X obj 606 -165 sel 0 1;
#X obj 738 -121 t b b;
#X msg 771 -90 0.5;
#X msg 707 -85 1.5;
#X connect 0 0 38 0;
#X connect 1 0 3 0;
#X connect 1 0 14 0;
#X connect 2 0 1 1;
#X connect 4 0 50 0;
#X connect 5 0 34 0;
#X connect 5 0 43 0;
#X connect 7 0 46 0;
#X connect 8 0 45 0;
#X connect 9 0 10 0;
#X connect 10 0 8 1;
#X connect 11 0 12 0;
#X connect 13 0 16 0;
#X connect 15 0 13 1;
#X connect 17 0 19 0;
#X connect 18 0 17 1;
#X connect 20 0 30 0;
#X connect 21 0 31 0;
#X connect 22 0 17 0;
#X connect 23 0 13 0;
#X connect 24 0 29 0;
#X connect 25 0 24 0;
#X connect 25 0 28 0;
#X connect 25 1 24 1;
#X connect 25 1 26 1;
#X connect 26 0 27 0;
#X connect 27 0 29 0;
#X connect 28 0 26 0;
#X connect 29 0 1 0;
#X connect 30 0 18 0;
#X connect 31 0 15 0;
#X connect 32 0 36 0;
#X connect 33 0 25 0;
#X connect 34 0 6 0;
#X connect 35 0 53 0;
#X connect 36 0 29 0;
#X connect 39 0 38 0;
#X connect 40 0 32 0;
#X connect 41 0 40 0;
#X connect 42 0 25 0;
#X connect 44 0 61 0;
#X connect 46 0 8 0;
#X connect 47 0 48 0;
#X connect 48 0 51 0;
#X connect 48 1 52 0;
#X connect 49 0 46 1;
#X connect 50 0 2 0;
#X connect 51 0 49 0;
#X connect 52 0 49 0;
#X connect 53 0 12 0;
#X connect 55 0 56 0;
#X connect 56 0 54 0;
#X connect 57 0 33 0;
#X connect 57 1 64 0;
#X connect 59 0 42 0;
#X connect 59 1 60 0;
#X connect 60 0 58 0;
#X connect 61 0 59 0;
#X connect 61 1 57 0;
#X connect 61 2 62 0;
#X connect 62 0 33 0;
#X connect 62 1 63 0;
#X connect 63 0 58 0;
#X connect 64 0 58 0;
