#N canvas 195 91 511 465 10;
#X obj 185 32 inlet;
#X obj 185 116 metro;
#X obj 238 5 inlet;
#X obj 184 143 f;
#X obj 214 143 + 1;
#X obj 185 177 mod;
#X obj 214 246 ==;
#X obj 238 37 route tempo counts;
#X obj 237 79 swap 60000;
#X obj 240 102 /;
#X obj 253 215 - 1;
#X obj 184 205 t f f;
#X obj 214 271 sel 1;
#X obj 237 321 del;
#X obj 212 293 t b b;
#X msg 242 367 1;
#X msg 204 322 0;
#X obj 180 391 outlet;
#X obj 242 392 outlet;
#X msg 331 7 counts 4;
#X obj 333 -29 loadbang;
#X connect 0 0 1 0;
#X connect 1 0 3 0;
#X connect 2 0 7 0;
#X connect 3 0 4 0;
#X connect 3 0 5 0;
#X connect 4 0 3 1;
#X connect 5 0 11 0;
#X connect 6 0 12 0;
#X connect 7 0 8 0;
#X connect 7 1 5 1;
#X connect 7 1 10 0;
#X connect 8 0 9 0;
#X connect 8 1 9 1;
#X connect 9 0 1 1;
#X connect 9 0 13 1;
#X connect 10 0 6 1;
#X connect 11 0 17 0;
#X connect 11 1 6 0;
#X connect 12 0 14 0;
#X connect 13 0 15 0;
#X connect 14 0 16 0;
#X connect 14 1 13 0;
#X connect 15 0 18 0;
#X connect 16 0 1 0;
#X connect 16 0 3 1;
#X connect 19 0 7 0;
#X connect 20 0 19 0;
