#N canvas 371 60 1015 785 10;
#X obj 465 194 r \$0-detectedTempo;
#X obj 488 218 r randomize1;
#X msg 489 272 feedback 0.6;
#X obj 491 243 loadbang;
#X obj 23 73 inlet~;
#X obj 272 18 inlet~;
#X obj 615 46 inlet~;
#X obj 985 253 r \$0-detectedTempo;
#X msg 981 313 feedback 0.6;
#X obj 983 284 loadbang;
#X obj 842 20 inlet~;
#X obj 333 769 outlet~;
#X obj 479 771 outlet~;
#X obj 1165 66 inlet;
#X msg 1162 124 tempo \$1;
#X obj 1161 152 s \$0-detectedTempo;
#X obj 51 368 loadbang;
#X obj 331 359 loadbang;
#X msg 321 382 switch 1 \, threshold 94 \, ratio 1.2;
#X msg 52 390 switch 1 \, threshold 98 \, ratio 1.5;
#X obj 13 414 mm_compressor~;
#X obj 314 323 mm_msync_delay~;
#X obj 282 411 mm_compressor~;
#X obj 281 466 mm_pan~;
#X obj 842 351 mm_msync_delay~;
#X obj 476 110 r randomize1;
#X obj 766 105 r randomize2;
#X obj 1016 71 r randomize3;
#X obj 1165 97 route tempo seed;
#X obj 1209 179 s \$0-seed;
#X obj 174 198 r randomize0;
#X obj 23 147 *~ \$1;
#X obj 264 88 *~ \$2;
#X obj 616 67 *~ \$3;
#X obj 835 79 *~ \$4;
#X obj 317 64 r drumsVolume;
#X obj 291 140 *~;
#X obj 316 111 lop~ 1;
#X obj 876 59 r drumsVolume;
#X obj 849 111 *~;
#X obj 880 88 lop~ 1;
#X obj 43 195 r drumsVolume;
#X obj 17 256 *~;
#X obj 42 227 lop~ 1;
#X obj 654 88 r drumsVolume;
#X obj 623 144 *~;
#X obj 653 113 lop~ 1;
#X obj 747 251 r \$0-detectedTempo;
#X obj 737 217 r randomize2;
#X msg 743 316 feedback 0.6;
#X obj 745 287 loadbang;
#X obj 604 354 mm_msync_delay~;
#X obj 975 214 r randomize3;
#X obj 16 496 throw~ \$0-outL;
#X obj 47 538 throw~ \$0-outR;
#X obj 282 509 throw~ \$0-outL;
#X obj 341 543 throw~ \$0-outR;
#X obj 609 423 throw~ \$0-outL;
#X obj 850 414 throw~ \$0-outR;
#X obj 333 719 catch~ \$0-outL;
#X obj 476 717 catch~ \$0-outR;
#X obj 877 125 mm_scope~ percScope;
#X obj 310 163 mm_scope~ snareScope;
#X obj 116 336 *~ 0.9;
#X obj 118 358 mm_scope~ kickScope;
#X obj 161 454 mm_sigtest~;
#X obj 164 559 mm_sigtest~;
#X obj 304 223 r \$0-seed;
#X obj 557 127 r \$0-seed;
#X obj 790 136 r \$0-seed;
#X obj 1086 108 r \$0-seed;
#X obj 170 257 mm_rbpfilter_parms 15;
#X obj 476 151 mm_rbpfilter_parms 49;
#X obj 709 160 mm_rbpfilter_parms 53;
#X obj 1005 132 mm_rbpfilter_parms 67;
#X obj 208 224 bng 15 250 50 0 empty empty empty 17 7 0 10 -262144
-1 -1;
#X obj 55 293 mm_rbpfilter~ 80 1200 1 1;
#X obj 427 93 bng 15 250 50 0 empty empty empty 17 7 0 10 -262144 -1
-1;
#X obj 277 193 mm_rbpfilter~ 1000 9000 2 1.5;
#X obj 334 436 r randomize1;
#X obj 892 224 bng 15 250 50 0 empty empty empty 17 7 0 10 -262144
-1 -1;
#X obj 880 171 mm_rfilter~ 500 10000 5 4;
#X obj 614 190 mm_rbpfilter~ 500 10000 4 4;
#X obj 921 220 bng 15 250 50 0 empty empty empty 17 7 0 10 -262144
-1 -1;
#X connect 0 0 21 1;
#X connect 1 0 21 1;
#X connect 2 0 21 1;
#X connect 3 0 2 0;
#X connect 4 0 31 0;
#X connect 5 0 32 0;
#X connect 6 0 33 0;
#X connect 7 0 24 1;
#X connect 8 0 24 1;
#X connect 9 0 8 0;
#X connect 10 0 34 0;
#X connect 13 0 28 0;
#X connect 14 0 15 0;
#X connect 16 0 19 0;
#X connect 17 0 18 0;
#X connect 18 0 22 1;
#X connect 19 0 20 1;
#X connect 20 0 53 0;
#X connect 20 0 54 0;
#X connect 21 0 22 0;
#X connect 22 0 23 0;
#X connect 23 0 55 0;
#X connect 23 1 56 0;
#X connect 24 0 58 0;
#X connect 25 0 72 0;
#X connect 26 0 73 0;
#X connect 27 0 74 0;
#X connect 28 0 14 0;
#X connect 28 1 29 0;
#X connect 30 0 71 0;
#X connect 31 0 42 0;
#X connect 32 0 36 0;
#X connect 33 0 45 0;
#X connect 34 0 39 0;
#X connect 35 0 37 0;
#X connect 36 0 62 0;
#X connect 36 0 78 0;
#X connect 36 0 65 0;
#X connect 37 0 36 1;
#X connect 38 0 40 0;
#X connect 39 0 61 0;
#X connect 39 0 81 0;
#X connect 40 0 39 1;
#X connect 41 0 43 0;
#X connect 42 0 63 0;
#X connect 42 0 76 0;
#X connect 42 0 20 0;
#X connect 43 0 42 1;
#X connect 44 0 46 0;
#X connect 45 0 61 0;
#X connect 45 0 82 0;
#X connect 46 0 45 1;
#X connect 47 0 51 1;
#X connect 48 0 51 1;
#X connect 49 0 51 1;
#X connect 50 0 49 0;
#X connect 51 0 57 0;
#X connect 52 0 24 1;
#X connect 59 0 11 0;
#X connect 60 0 12 0;
#X connect 63 0 64 0;
#X connect 67 0 71 1;
#X connect 68 0 72 1;
#X connect 69 0 73 1;
#X connect 70 0 74 1;
#X connect 71 0 76 1;
#X connect 72 0 78 1;
#X connect 73 0 82 1;
#X connect 74 0 81 1;
#X connect 75 0 71 0;
#X connect 76 0 20 0;
#X connect 77 0 72 0;
#X connect 78 0 21 0;
#X connect 78 0 22 0;
#X connect 79 0 23 1;
#X connect 80 0 73 0;
#X connect 81 0 24 0;
#X connect 82 0 51 0;
#X connect 83 0 74 0;
