#N canvas 0 22 450 300 10;
#X obj 176 90 inlet;
#X obj 178 121 spigot;
#X msg 237 89 1;
#X obj 236 56 loadbang;
#X msg 255 198 0;
#X obj 181 233 outlet;
#X obj 303 75 inlet;
#X obj 176 157 t a b b;
#X obj 199 185 del 50;
#X connect 0 0 1 0;
#X connect 1 0 7 0;
#X connect 2 0 1 1;
#X connect 3 0 2 0;
#X connect 4 0 1 1;
#X connect 6 0 8 1;
#X connect 7 0 5 0;
#X connect 7 1 8 0;
#X connect 7 2 4 0;
#X connect 8 0 2 0;
