#N canvas 68 27 1440 833 10;
#X obj 23 34 inlet~;
#X obj 272 18 inlet~;
#X obj 680 137 inlet~;
#X obj 902 128 inlet~;
#X obj 333 769 outlet~;
#X obj 479 771 outlet~;
#X obj 51 368 loadbang;
#X obj 331 285 loadbang;
#X obj 13 414 mm_compressor~;
#X obj 282 411 mm_compressor~;
#X obj 21 106 *~ \$1;
#X obj 272 66 *~ \$2;
#X obj 681 158 *~ \$3;
#X obj 317 64 r drumsVolume;
#X obj 283 132 *~;
#X obj 316 111 lop~ 1;
#X obj 936 182 r drumsVolume;
#X obj 909 234 *~;
#X obj 940 211 lop~ 1;
#X obj 43 195 r drumsVolume;
#X obj 17 256 *~;
#X obj 42 227 lop~ 1;
#X obj 714 211 r drumsVolume;
#X obj 683 267 *~;
#X obj 713 236 lop~ 1;
#X obj 16 496 throw~ \$0-outL;
#X obj 47 538 throw~ \$0-outR;
#X obj 282 453 throw~ \$0-outL;
#X obj 341 543 throw~ \$0-outR;
#X obj 678 537 throw~ \$0-outL;
#X obj 910 537 throw~ \$0-outR;
#X obj 333 719 catch~ \$0-outL;
#X obj 476 717 catch~ \$0-outR;
#X obj 776 334 mm_scope~ percScope;
#X obj 303 163 mm_scope~ snareScope;
#X obj 116 336 *~ 0.9;
#X obj 118 358 mm_scope~ kickScope;
#X obj 304 223 r \$0-seed;
#X obj 1273 42 inlet;
#X msg 1270 100 tempo \$1;
#X obj 1269 128 s \$0-detectedTempo;
#X obj 1273 73 route tempo seed;
#X obj 1317 155 s \$0-seed;
#X msg 52 390 switch 1 \, threshold 98 \, ratio 1.3;
#X obj 905 154 *~ \$3;
#X obj 433 21 inlet~;
#X obj 492 362 loadbang;
#X obj 443 414 mm_compressor~;
#X obj 433 69 *~ \$2;
#X obj 478 67 r drumsVolume;
#X obj 444 135 *~;
#X obj 477 114 lop~ 1;
#X obj 465 226 r \$0-seed;
#X obj 443 456 throw~ \$0-outR;
#X msg 321 308 switch 1 \, threshold 98 \, ratio 1.2;
#X msg 482 385 switch 1 \, threshold 98 \, ratio 1.2;
#X obj 730 349 loadbang;
#X obj 681 475 mm_compressor~;
#X obj 967 424 loadbang;
#X obj 918 476 mm_compressor~;
#X msg 720 372 switch 1 \, threshold 98 \, ratio 1.2;
#X msg 957 447 switch 1 \, threshold 98 \, ratio 1.2;
#X connect 0 0 10 0;
#X connect 1 0 11 0;
#X connect 2 0 12 0;
#X connect 3 0 44 0;
#X connect 6 0 43 0;
#X connect 7 0 54 0;
#X connect 8 0 25 0;
#X connect 8 0 26 0;
#X connect 9 0 27 0;
#X connect 10 0 20 0;
#X connect 11 0 14 0;
#X connect 12 0 23 0;
#X connect 13 0 15 0;
#X connect 14 0 34 0;
#X connect 14 0 9 0;
#X connect 15 0 14 1;
#X connect 16 0 18 0;
#X connect 17 0 33 0;
#X connect 17 0 59 0;
#X connect 18 0 17 1;
#X connect 19 0 21 0;
#X connect 20 0 35 0;
#X connect 20 0 8 0;
#X connect 21 0 20 1;
#X connect 22 0 24 0;
#X connect 23 0 33 0;
#X connect 23 0 57 0;
#X connect 24 0 23 1;
#X connect 31 0 4 0;
#X connect 32 0 5 0;
#X connect 35 0 36 0;
#X connect 38 0 41 0;
#X connect 39 0 40 0;
#X connect 41 0 39 0;
#X connect 41 1 42 0;
#X connect 43 0 8 1;
#X connect 44 0 17 0;
#X connect 45 0 48 0;
#X connect 46 0 55 0;
#X connect 47 0 53 0;
#X connect 48 0 50 0;
#X connect 49 0 51 0;
#X connect 50 0 47 0;
#X connect 50 0 34 0;
#X connect 51 0 50 1;
#X connect 54 0 9 1;
#X connect 55 0 47 1;
#X connect 56 0 60 0;
#X connect 57 0 29 0;
#X connect 58 0 61 0;
#X connect 59 0 30 0;
#X connect 60 0 57 1;
#X connect 61 0 59 1;
