#N canvas 4 23 1429 536 10;
#X obj 544 266 soundfiler;
#X obj 162 785 outlet~;
#X obj 161 742 *~;
#X obj 169 321 t b b b;
#X obj 207 548 * 0.01;
#X obj 199 489 random 45;
#X obj 208 520 + 70;
#X obj 224 349 == 0;
#X obj 224 381 sel 0 1;
#X msg 264 410 90;
#X msg 223 411 60;
#X obj 189 709 *~;
#X obj 193 656 lop~ 1;
#X obj 215 442 random 10;
#X obj 215 130 random 100;
#X obj 216 153 <;
#X obj 173 182 spigot;
#X obj 298 -57 r notes;
#X obj 298 -11 list prepend read;
#X obj 297 12 list trim;
#X obj 177 -105 inlet;
#X obj 179 36 t f b f f;
#X obj 590 6 list trim;
#X obj 304 139 r ticksPerMeasure;
#X obj 269 216 t f b f;
#X obj 291 368 random 16;
#X obj 228 288 mod 16;
#X obj 302 177 f 16;
#X obj 332 192 r alterPattern;
#X obj 332 245 bng 15 250 50 0 empty empty empty 17 7 0 10 -262144
-1 -1;
#X obj 234 85 mm_pattern;
#X obj 3 -83 table \$0-\$1\$2;
#X obj 167 615 tabplay~;
#X obj 167 575 t b b;
#X obj 272 791 outlet;
#X obj 162 547 del 5;
#X obj 589 -108 inlet;
#X msg 574 395 \; \$1-\$2\$3 normalize 1;
#X obj 590 32 route \$2;
#X obj 282 482 r \$0-tableName;
#X obj 282 532 list prepend set;
#X obj 281 553 list trim;
#X obj 284 509 t a a;
#X obj 634 218 s \$0-tableName;
#X obj 298 -33 route \$3;
#X floatatom 547 318 5 0 0 0 - - -;
#X msg 606 165 \$1-\$2\$3;
#X obj 638 87 symbol \$1;
#X obj 607 88 \$0;
#X obj 543 220 list append;
#X obj 590 58 t a b b;
#X obj 608 117 pack f s \$2;
#X obj 544 242 list trim;
#X obj 179 16 spigot;
#X msg 258 -90 1;
#X obj 260 -112 loadbang;
#X obj 545 289 t f b;
#X obj 573 375 list;
#X obj 606 141 t a a;
#X obj 607 190 t a a;
#X obj 590 -74 t a b;
#X obj 629 -30 s \$0-clear;
#X obj 633 300 r \$0-clear;
#X msg 632 324 set;
#X obj 177 -60 unpack f f;
#X obj 232 -22 == \$2;
#X obj 901 -119 inlet;
#X obj 904 -91 s \$0-seed;
#X obj 363 213 r \$0-seed;
#X msg 361 334 seed \$1;
#X obj 405 265 f \$4;
#X obj 363 314 mod;
#X obj 427 -59 r \$0-seed;
#X msg 426 61 seed \$1;
#X obj 428 -32 t f b;
#X obj 455 -9 f \$4;
#X obj 427 39 mod;
#X obj 455 15 + 3;
#X obj 364 240 t f f b;
#X msg 402 405 seed \$1;
#X obj 404 385 mod;
#X obj 403 285 t f f f;
#X msg 428 451 seed \$1;
#X obj 430 431 mod;
#X obj 422 310 + 1;
#X obj 445 333 + 2;
#X obj 381 357 t f f;
#X connect 0 0 56 0;
#X connect 2 0 1 0;
#X connect 3 0 35 0;
#X connect 3 1 5 0;
#X connect 3 2 13 0;
#X connect 4 0 12 0;
#X connect 5 0 6 0;
#X connect 6 0 4 0;
#X connect 7 0 8 0;
#X connect 8 0 10 0;
#X connect 8 1 9 0;
#X connect 9 0 6 1;
#X connect 10 0 6 1;
#X connect 11 0 2 1;
#X connect 12 0 11 1;
#X connect 12 0 11 0;
#X connect 13 0 35 1;
#X connect 14 0 15 0;
#X connect 15 0 16 1;
#X connect 16 0 3 0;
#X connect 17 0 44 0;
#X connect 18 0 19 0;
#X connect 19 0 30 1;
#X connect 20 0 64 0;
#X connect 21 0 16 0;
#X connect 21 1 14 0;
#X connect 21 2 30 0;
#X connect 21 3 26 0;
#X connect 22 0 38 0;
#X connect 23 0 27 1;
#X connect 23 0 27 0;
#X connect 24 0 26 1;
#X connect 24 1 25 0;
#X connect 24 2 25 1;
#X connect 25 0 7 1;
#X connect 26 0 7 0;
#X connect 27 0 24 0;
#X connect 28 0 29 0;
#X connect 29 0 25 0;
#X connect 30 0 15 1;
#X connect 30 1 15 1;
#X connect 32 0 2 0;
#X connect 33 0 32 0;
#X connect 33 1 34 0;
#X connect 35 0 33 0;
#X connect 36 0 60 0;
#X connect 38 0 50 0;
#X connect 39 0 42 0;
#X connect 40 0 41 0;
#X connect 41 0 32 0;
#X connect 42 0 40 0;
#X connect 44 0 18 0;
#X connect 46 0 59 0;
#X connect 47 0 51 1;
#X connect 48 0 51 0;
#X connect 49 0 52 0;
#X connect 50 0 49 0;
#X connect 50 1 48 0;
#X connect 50 2 47 0;
#X connect 51 0 58 0;
#X connect 52 0 0 0;
#X connect 53 0 21 0;
#X connect 54 0 53 1;
#X connect 55 0 54 0;
#X connect 56 0 45 0;
#X connect 56 1 57 0;
#X connect 57 0 37 0;
#X connect 58 0 46 0;
#X connect 58 1 57 1;
#X connect 59 0 49 1;
#X connect 59 1 43 0;
#X connect 60 0 22 0;
#X connect 60 1 61 0;
#X connect 62 0 63 0;
#X connect 63 0 57 1;
#X connect 64 0 53 0;
#X connect 64 1 65 0;
#X connect 65 0 53 1;
#X connect 66 0 67 0;
#X connect 68 0 78 0;
#X connect 69 0 25 0;
#X connect 70 0 81 0;
#X connect 71 0 69 0;
#X connect 72 0 74 0;
#X connect 73 0 14 0;
#X connect 74 0 76 0;
#X connect 74 1 75 0;
#X connect 75 0 77 0;
#X connect 76 0 73 0;
#X connect 77 0 76 1;
#X connect 78 0 71 0;
#X connect 78 1 86 0;
#X connect 78 2 70 0;
#X connect 79 0 13 0;
#X connect 80 0 79 0;
#X connect 81 0 71 1;
#X connect 81 1 84 0;
#X connect 81 2 85 0;
#X connect 82 0 5 0;
#X connect 83 0 82 0;
#X connect 84 0 80 1;
#X connect 85 0 83 1;
#X connect 86 0 80 0;
#X connect 86 1 83 0;
