#N canvas 0 22 1104 581 10;
#X obj 89 272 mm_audio_input_sampler~;
#X obj 73 53 inlet~;
#X obj 328 45 inlet;
#X obj 328 119 sel 0 1;
#X msg 326 150 clear;
#X msg 342 176 arm;
#X msg 377 143 tempo \$1;
#X msg 426 168 randomize;
#X msg 225 328 arm;
#X obj 222 300 del 30000;
#X msg 299 422 arm;
#X obj 296 394 del 30000;
#X obj 91 437 outlet~;
#X obj 166 464 outlet~;
#X msg 478 202 threshold \$1;
#X msg 509 123 play;
#X msg 555 153 play;
#X obj 328 82 route on tempo randomize threshold play1 play2 slice1
slice2;
#X msg 589 169 slice;
#X msg 625 207 slice;
#X obj 160 366 mm_audio_input_sampler~;
#X connect 0 0 12 0;
#X connect 0 1 9 0;
#X connect 1 0 0 0;
#X connect 1 0 20 0;
#X connect 2 0 17 0;
#X connect 3 0 4 0;
#X connect 3 1 5 0;
#X connect 4 0 0 1;
#X connect 4 0 20 1;
#X connect 5 0 0 1;
#X connect 6 0 0 1;
#X connect 6 0 20 1;
#X connect 7 0 0 1;
#X connect 7 0 20 1;
#X connect 8 0 20 1;
#X connect 9 0 8 0;
#X connect 10 0 0 1;
#X connect 11 0 10 0;
#X connect 14 0 0 1;
#X connect 14 0 20 1;
#X connect 15 0 0 1;
#X connect 16 0 20 1;
#X connect 17 0 3 0;
#X connect 17 1 6 0;
#X connect 17 2 7 0;
#X connect 17 3 14 0;
#X connect 17 4 15 0;
#X connect 17 5 16 0;
#X connect 17 6 18 0;
#X connect 17 7 19 0;
#X connect 18 0 0 1;
#X connect 19 0 20 1;
#X connect 20 0 13 0;
#X connect 20 1 11 0;
