#N canvas 472 92 847 510 10;
#X obj 73 -11 inlet~;
#X obj 116 124 moses \$1;
#X obj 264 -9 inlet;
#X obj 261 43 s \$0-upper;
#X obj 314 66 s \$0-lower;
#X obj 90 89 r \$0-lower;
#X obj 167 90 r \$0-upper;
#X obj 45 122 moses \$2;
#X obj 93 483 outlet;
#X obj 263 17 route upper lower reset;
#X obj 355 98 s \$0-reset;
#X obj 45 143 bng 15 250 50 0 empty empty empty 17 7 0 10 -262144 -1
-1;
#X obj 282 90 r \$0-lower;
#X obj 268 122 moses \$2;
#X floatatom 143 39 5 0 0 0 - - -;
#X obj 72 44 t f f f;
#X obj 159 144 bng 15 250 50 0 empty empty empty 17 7 0 10 -262144
-1 -1;
#X obj 271 144 bng 15 250 50 0 empty empty empty 17 7 0 10 -262144
-1 -1;
#X obj 347 279 spigot;
#X floatatom 15 43 5 0 0 0 - - -;
#X obj 90 145 bng 15 250 50 0 empty empty empty 17 7 0 10 -262144 -1
-1;
#X obj 46 224 t b b b;
#X obj 45 199 spigot;
#X obj 160 229 t b b b;
#X obj 159 204 spigot;
#X msg 85 245 0;
#X obj 76 176 r \$0-begin;
#X obj 191 177 r \$0-peak;
#X obj 379 146 r \$0-end;
#X obj 346 304 t b b b;
#X obj 86 270 s \$0-begin;
#X obj 65 315 s \$0-peak;
#X obj 201 273 s \$0-peak;
#X msg 65 293 1;
#X obj 164 366 s \$0-out;
#X msg 201 252 0;
#X msg 181 296 1;
#X obj 182 316 s \$0-end;
#X msg 163 337 1;
#X obj 366 391 s \$0-out;
#X msg 383 324 0;
#X obj 384 347 s \$0-end;
#X msg 366 368 0;
#X obj 523 175 r \$0-reset;
#X obj 523 204 t b b b;
#X obj 507 322 s \$0-begin;
#X obj 545 298 s \$0-peak;
#X msg 545 277 0;
#X msg 576 241 0;
#X obj 577 264 s \$0-end;
#X msg 506 289 1;
#X obj 93 430 r \$0-out;
#X floatatom 90 459 5 0 0 0 - - -;
#X obj 501 139 bng 15 250 50 0 empty empty empty 17 7 0 10 -262144
-1 -1;
#N canvas 866 243 450 300 db 0;
#X obj 51 37 inlet;
#X obj 126 36 inlet;
#X obj 52 81 spigot;
#X obj 52 108 t b b;
#X msg 84 136 0;
#X obj 52 181 outlet;
#X obj 191 37 inlet;
#X msg 125 98 1;
#X obj 126 75 del 2000;
#X connect 0 0 2 0;
#X connect 1 0 8 0;
#X connect 2 0 3 0;
#X connect 3 0 5 0;
#X connect 3 1 4 0;
#X connect 4 0 2 1;
#X connect 6 0 8 1;
#X connect 7 0 2 1;
#X connect 8 0 7 0;
#X restore 345 229 pd db;
#X obj 378 192 sel 1;
#X obj 378 169 t f f;
#X obj 530 138 loadbang;
#X obj 73 19 env~ 2048;
#X msg 422 208 2000;
#X obj 422 172 loadbang;
#X obj 416 245 print edgeDebounce;
#X connect 0 0 58 0;
#X connect 1 1 16 0;
#X connect 2 0 9 0;
#X connect 5 0 7 1;
#X connect 6 0 1 1;
#X connect 7 0 11 0;
#X connect 7 1 20 0;
#X connect 9 0 3 0;
#X connect 9 1 4 0;
#X connect 9 2 10 0;
#X connect 11 0 22 0;
#X connect 12 0 13 1;
#X connect 13 0 17 0;
#X connect 15 0 7 0;
#X connect 15 1 1 0;
#X connect 15 2 13 0;
#X connect 16 0 24 0;
#X connect 17 0 54 0;
#X connect 18 0 29 0;
#X connect 21 1 33 0;
#X connect 21 2 25 0;
#X connect 22 0 21 0;
#X connect 23 0 38 0;
#X connect 23 1 36 0;
#X connect 23 2 35 0;
#X connect 24 0 23 0;
#X connect 25 0 30 0;
#X connect 26 0 22 1;
#X connect 27 0 24 1;
#X connect 28 0 56 0;
#X connect 29 1 42 0;
#X connect 29 2 40 0;
#X connect 33 0 31 0;
#X connect 35 0 32 0;
#X connect 36 0 37 0;
#X connect 38 0 34 0;
#X connect 40 0 41 0;
#X connect 42 0 39 0;
#X connect 43 0 44 0;
#X connect 44 0 50 0;
#X connect 44 1 47 0;
#X connect 44 2 48 0;
#X connect 47 0 46 0;
#X connect 48 0 49 0;
#X connect 50 0 45 0;
#X connect 51 0 52 0;
#X connect 51 0 8 0;
#X connect 53 0 44 0;
#X connect 54 0 18 0;
#X connect 55 0 54 1;
#X connect 56 0 55 0;
#X connect 56 1 18 1;
#X connect 57 0 44 0;
#X connect 58 0 15 0;
#X connect 58 0 19 0;
#X connect 59 0 54 2;
#X connect 59 0 61 0;
#X connect 60 0 59 0;
