#N canvas 242 142 985 722 10;
#X obj 188 334 list trim;
#X obj 189 358 route sequence;
#X obj 189 384 s notes;
#X obj 269 454 s measures;
#X obj 357 508 s divisions;
#X obj 314 481 s beats;
#X obj 269 403 route measures beats divisions length swing minTempo
maxTempo;
#X obj 396 536 s length;
#X obj 440 563 s swing;
#X obj 483 589 s minTempo;
#X obj 526 619 s maxTempo;
#X obj 663 60 r measures;
#X obj 708 87 r beats;
#X obj 751 114 r divisions;
#X obj 790 142 r length;
#X obj 834 169 r swing;
#X obj 877 195 r minTempo;
#X obj 920 225 r maxTempo;
#X floatatom 664 81 5 0 0 0 - - -;
#X floatatom 710 109 5 0 0 0 - - -;
#X floatatom 752 135 5 0 0 0 - - -;
#X floatatom 791 163 5 0 0 0 - - -;
#X floatatom 835 190 5 0 0 0 - - -;
#X floatatom 878 216 5 0 0 0 - - -;
#X floatatom 921 246 5 0 0 0 - - -;
#X obj 175 209 pack f s s;
#X obj 173 122 t f b b;
#X obj 278 314 print;
#X obj 163 461 print notes;
#X msg 176 240 read \$3\$1-\$2.csv;
#X obj 178 303 mm_textfile;
#X obj 177 -296 r loadSection;
#X obj 178 -257 f;
#X obj 156 -208 +;
#X obj 174 -233 t f f;
#X floatatom 201 -213 5 0 0 0 - - -;
#X floatatom 155 -176 5 0 0 0 - - -;
#X floatatom 212 -253 5 0 0 0 - - -;
#X floatatom 172 -61 5 0 0 0 - - -;
#X obj 142 -382 r changeSectionIndex;
#X obj 213 -148 loadbang;
#X obj 204 154 symbol \$2;
#X obj 213 -126 f \$1;
#X obj 171 -104 mod \$1;
#X obj 227 -56 f \$1;
#X obj 227 -35 - 1;
#X obj 173 -13 clip 0 0;
#X obj 227 -80 loadbang;
#X obj 288 128 r path;
#X obj 309 166 print path;
#X obj 172 42 change;
#X obj 173 10 t f f;
#X obj 172 62 t b;
#X obj 231 92 s resetTheClock;
#X obj 233 181 symbol;
#X obj 342 576 s theLength;
#X obj 154 -323 spigot;
#X obj 283 -367 r allowRandom;
#X msg 196 -346 1;
#X obj 198 -471 loadbang;
#X obj 318 245 r writeFile;
#X connect 0 0 1 0;
#X connect 1 0 2 0;
#X connect 1 0 28 0;
#X connect 1 1 6 0;
#X connect 6 0 3 0;
#X connect 6 1 5 0;
#X connect 6 2 4 0;
#X connect 6 3 7 0;
#X connect 6 3 55 0;
#X connect 6 4 8 0;
#X connect 6 5 9 0;
#X connect 6 6 10 0;
#X connect 11 0 18 0;
#X connect 12 0 19 0;
#X connect 13 0 20 0;
#X connect 14 0 21 0;
#X connect 15 0 22 0;
#X connect 16 0 23 0;
#X connect 17 0 24 0;
#X connect 25 0 29 0;
#X connect 26 0 25 0;
#X connect 26 1 41 0;
#X connect 26 2 54 0;
#X connect 29 0 27 0;
#X connect 29 0 30 0;
#X connect 30 0 0 0;
#X connect 31 0 32 1;
#X connect 31 0 32 0;
#X connect 31 0 37 0;
#X connect 32 0 34 0;
#X connect 33 0 36 0;
#X connect 34 0 33 1;
#X connect 34 1 35 0;
#X connect 35 0 43 0;
#X connect 36 0 43 0;
#X connect 38 0 33 1;
#X connect 38 0 46 0;
#X connect 39 0 56 0;
#X connect 40 0 42 0;
#X connect 41 0 25 1;
#X connect 42 0 43 1;
#X connect 43 0 38 0;
#X connect 44 0 45 0;
#X connect 45 0 46 2;
#X connect 46 0 51 0;
#X connect 47 0 44 0;
#X connect 48 0 49 0;
#X connect 48 0 54 1;
#X connect 50 0 52 0;
#X connect 51 0 50 0;
#X connect 51 1 26 0;
#X connect 54 0 25 2;
#X connect 56 0 33 0;
#X connect 57 0 56 1;
#X connect 58 0 56 1;
#X connect 59 0 58 0;
#X connect 60 0 30 0;
