#N canvas 464 111 950 534 10;
#X obj 142 14 inlet;
#X obj 315 19 inlet;
#X obj 316 101 s \$0-switch;
#X obj 354 133 r \$0-switch;
#X obj 354 165 switch~;
#X obj 144 315 outlet~;
#X obj 142 89 sig~;
#X obj 142 199 +~;
#X obj 184 109 osc~;
#X obj 140 229 osc~;
#X obj 196 14 loadbang;
#X msg 198 42 5;
#X obj 222 114 loadbang;
#X msg 223 135 30;
#X obj 397 -10 loadbang;
#X msg 398 12 1;
#X obj 315 45 route switch freq amp;
#X obj 180 82 lop~ 5;
#X obj 227 161 lop~ 5;
#X obj 186 182 *~;
#X connect 0 0 6 0;
#X connect 1 0 16 0;
#X connect 3 0 4 0;
#X connect 6 0 7 0;
#X connect 7 0 9 0;
#X connect 8 0 19 0;
#X connect 9 0 5 0;
#X connect 10 0 11 0;
#X connect 11 0 17 0;
#X connect 12 0 13 0;
#X connect 13 0 18 0;
#X connect 14 0 15 0;
#X connect 15 0 2 0;
#X connect 16 0 2 0;
#X connect 16 1 17 0;
#X connect 16 2 18 0;
#X connect 17 0 8 0;
#X connect 18 0 19 1;
#X connect 19 0 7 1;
