#N canvas 344 166 450 300 10;
#X obj 120 70 inlet;
#X obj 154 148 - 0.05;
#X obj 187 122 f \$1;
#X obj 137 176 f \$2;
#X obj 119 98 t f b f b;
#X obj 118 208 pack f 50;
#X obj 118 239 line;
#X obj 119 266 outlet;
#X connect 0 0 4 0;
#X connect 1 0 6 0;
#X connect 2 0 1 1;
#X connect 3 0 5 1;
#X connect 4 0 5 0;
#X connect 4 1 3 0;
#X connect 4 2 1 0;
#X connect 4 3 2 0;
#X connect 5 0 6 0;
#X connect 6 0 7 0;
