#N canvas 130 128 1108 602 10;
#X obj 537 97 t b b b;
#X obj 541 38 inlet;
#X obj 451 36 inlet~;
#X obj 447 515 outlet;
#N canvas 908 297 526 436 calcs 0;
#X floatatom 40 -50 5 0 0 0 - - -;
#X floatatom 77 -7 5 0 0 0 - - -;
#X floatatom 232 -21 5 0 0 0 - - -;
#X obj 77 18 f;
#X obj 32 -28 f;
#X obj 77 46 t b f f;
#X obj 79 144 +;
#X obj 63 75 -;
#X obj 66 108 * 0.5;
#X floatatom 83 167 5 0 0 0 - - -;
#X obj 275 29 f;
#X obj 205 -3 f;
#X obj 251 88 -;
#X floatatom 251 120 5 0 0 0 - - -;
#X obj 210 176 +;
#X obj 254 150 * 0.5;
#X floatatom 211 212 5 0 0 0 - - -;
#X obj 202 96 f;
#X obj 203 29 t b f b;
#X obj -24 -81 inlet;
#X obj 88 -57 inlet;
#X obj 161 -78 inlet;
#X obj 39 279 outlet;
#X obj 235 282 outlet;
#X text 34 306 half floor;
#X text 240 307 half ceiling;
#X connect 3 0 5 0;
#X connect 4 0 7 0;
#X connect 5 0 4 0;
#X connect 5 1 7 1;
#X connect 5 2 6 1;
#X connect 6 0 9 0;
#X connect 6 0 22 0;
#X connect 7 0 8 0;
#X connect 8 0 6 0;
#X connect 10 0 12 1;
#X connect 10 0 17 1;
#X connect 10 0 17 0;
#X connect 11 0 18 0;
#X connect 12 0 13 0;
#X connect 12 0 15 0;
#X connect 14 0 16 0;
#X connect 14 0 23 0;
#X connect 15 0 14 1;
#X connect 17 0 14 0;
#X connect 18 0 17 0;
#X connect 18 1 12 0;
#X connect 18 2 10 0;
#X connect 19 0 4 1;
#X connect 19 0 4 0;
#X connect 19 0 10 1;
#X connect 19 0 10 0;
#X connect 20 0 3 1;
#X connect 20 0 3 0;
#X connect 21 0 11 1;
#X connect 21 0 11 0;
#X restore 450 409 pd calcs;
#X floatatom 560 277 5 0 0 0 - - -;
#X obj 451 95 env~;
#X obj 448 147 mm_ravg;
#X obj 470 186 mm_rfloor;
#X obj 506 221 mm_rceiling;
#X connect 0 0 7 1;
#X connect 0 1 8 1;
#X connect 0 2 9 1;
#X connect 1 0 0 0;
#X connect 2 0 6 0;
#X connect 4 0 3 0;
#X connect 6 0 5 0;
#X connect 6 0 7 0;
#X connect 6 0 8 0;
#X connect 6 0 9 0;
#X connect 7 0 4 0;
#X connect 8 0 4 1;
#X connect 9 0 4 2;
#X connect 9 0 5 0;
