#N canvas 0 22 1044 808 10;
#X obj 100 132 t b f;
#X obj 136 206 t b f;
#X obj 160 279 t b f;
#X obj 87 336 pack f f f f;
#X obj 109 437 s \$0-theChord;
#X obj 150 474 r \$0-clock;
#X floatatom 177 515 5 0 0 0 - - -;
#X obj 218 520 list trim;
#X obj 219 498 list prepend chord set;
#X obj 148 657 s \$0-randomNotes;
#X obj 175 354 list prepend set;
#X obj 176 376 list trim;
#X msg 177 399 11 9 9 9;
#X obj 68 521 sel 0;
#X obj 69 494 mod 2;
#X obj 100 396 s myChord;
#X obj 79 23 r note0;
#X obj 101 91 r note1;
#X obj 137 162 r note2;
#X obj 161 235 r note3;
#X obj 235 21 inlet;
#X obj 236 51 s \$0-clock;
#X obj 339 22 inlet;
#X obj 84 627 outlet;
#X obj 169 633 outlet;
#X msg 286 395 probs 80 80 80 80;
#X obj 297 347 loadbang;
#X obj 148 607 mm_random_player;
#X connect 0 0 3 0;
#X connect 0 1 3 1;
#X connect 1 0 3 0;
#X connect 1 1 3 2;
#X connect 2 0 3 0;
#X connect 2 1 3 3;
#X connect 3 0 4 0;
#X connect 3 0 10 0;
#X connect 3 0 15 0;
#X connect 3 0 23 0;
#X connect 5 0 6 0;
#X connect 5 0 14 0;
#X connect 5 0 27 0;
#X connect 7 0 27 1;
#X connect 8 0 7 0;
#X connect 10 0 11 0;
#X connect 11 0 12 0;
#X connect 12 0 8 0;
#X connect 13 0 12 0;
#X connect 14 0 13 0;
#X connect 16 0 3 0;
#X connect 17 0 0 0;
#X connect 18 0 1 0;
#X connect 19 0 2 0;
#X connect 20 0 21 0;
#X connect 22 0 27 1;
#X connect 25 0 27 1;
#X connect 26 0 25 0;
#X connect 27 0 9 0;
#X connect 27 0 24 0;
