#N canvas 180 23 1006 594 10;
#X obj 589 88 block~ 1;
#X obj 327 305 vd~ \$0-string;
#X obj 168 111 inlet;
#X obj 223 344 noise~;
#X obj 166 300 vline~;
#X obj 196 392 *~;
#X obj 314 487 outlet~;
#X obj 325 334 rzero~ -1;
#X obj 323 363 *~ 0.5;
#X obj 168 145 mtof;
#X obj 168 173 expr 1/$f1*1000;
#X obj 167 205 t f f;
#X obj 166 328 *~;
#X obj 196 437 delwrite~ \$0-string 10000;
#X msg 167 249 1 \, 0 13 30;
#X connect 1 0 7 0;
#X connect 2 0 9 0;
#X connect 3 0 5 1;
#X connect 4 0 12 1;
#X connect 4 0 12 0;
#X connect 5 0 13 0;
#X connect 7 0 8 0;
#X connect 8 0 6 0;
#X connect 8 0 13 0;
#X connect 9 0 10 0;
#X connect 10 0 11 0;
#X connect 11 0 14 0;
#X connect 11 1 1 0;
#X connect 12 0 5 0;
#X connect 14 0 4 0;
