#N canvas 0 22 905 701 10;
#X obj 280 480 f;
#X obj 277 361 list;
#X obj 249 417 t a b;
#X obj 245 524 list prepend;
#X obj 250 73 inlet;
#X obj 308 243 f \$1;
#X obj 331 67 inlet;
#X obj 246 550 outlet;
#X obj 341 271 s \$0-clear;
#X obj 355 296 r \$0-clear;
#X msg 355 316 set;
#X obj 277 303 t b a b;
#X msg 315 325 set;
#X obj 243 274 list split 4;
#X obj 247 206 t a b b a;
#X obj 474 250 f \$1;
#X obj 430 173 list length;
#X obj 431 198 t f b;
#X obj 441 282 /;
#X obj 444 338 outlet;
#X obj 306 480 - 1;
#X connect 0 0 3 1;
#X connect 0 0 20 0;
#X connect 1 0 13 0;
#X connect 2 0 3 0;
#X connect 2 1 0 0;
#X connect 3 0 7 0;
#X connect 4 0 14 0;
#X connect 5 0 13 1;
#X connect 6 0 5 1;
#X connect 6 0 5 0;
#X connect 6 0 15 1;
#X connect 6 0 15 0;
#X connect 9 0 10 0;
#X connect 11 0 1 0;
#X connect 11 1 1 1;
#X connect 11 2 12 0;
#X connect 12 0 1 1;
#X connect 13 0 2 0;
#X connect 13 1 11 0;
#X connect 14 0 13 0;
#X connect 14 1 5 0;
#X connect 14 2 8 0;
#X connect 14 3 16 0;
#X connect 15 0 18 1;
#X connect 16 0 17 0;
#X connect 17 0 18 0;
#X connect 17 1 15 0;
#X connect 18 0 19 0;
#X connect 18 0 0 1;
#X connect 20 0 0 1;
