#N canvas 0 22 1243 851 10;
#X obj 539 634 f;
#X obj 589 552 r onOff;
#X msg 586 608 0;
#X obj 584 581 sel 0;
#X obj 514 489 t b b f;
#X obj 520 335 inlet;
#X obj 535 704 outlet;
#X obj 513 600 del \$2;
#X obj 538 520 mm_srandom \$1 \$3;
#X connect 0 0 6 0;
#X connect 1 0 3 0;
#X connect 2 0 0 1;
#X connect 3 0 2 0;
#X connect 4 0 7 0;
#X connect 4 1 8 0;
#X connect 4 2 0 1;
#X connect 5 0 4 0;
#X connect 7 0 0 0;
#X connect 8 0 7 1;
