#N canvas 353 334 450 300 10;
#X obj 142 20 inlet;
#X obj 142 120 list-drip;
#X obj 142 49 t a b;
#X obj 143 147 t f b;
#X obj 143 231 t f f;
#X obj 151 264 f 0;
#X obj 152 291 outlet;
#X obj 144 196 *;
#X obj 169 81 f 1;
#X obj 172 174 f 1;
#X connect 0 0 2 0;
#X connect 1 0 3 0;
#X connect 1 1 5 0;
#X connect 2 0 1 0;
#X connect 2 1 8 0;
#X connect 3 0 7 0;
#X connect 3 1 9 0;
#X connect 4 0 9 1;
#X connect 4 1 5 1;
#X connect 5 0 6 0;
#X connect 7 0 4 0;
#X connect 8 0 5 1;
#X connect 8 0 9 1;
#X connect 9 0 7 1;
