#N canvas 397 286 450 300 10;
#X floatatom 219 107 5 0 0 0 - - -;
#X floatatom 268 58 5 0 0 0 - - -;
#X obj 176 127 spigot;
#X obj 221 34 mm_srandom \$1 \$2;
#X obj 196 -41 inlet;
#X obj 195 -2 t a b;
#X obj 180 162 outlet;
#X obj 325 -25 inlet;
#X obj 221 57 == 0;
#X connect 0 0 2 1;
#X connect 2 0 6 0;
#X connect 3 0 1 0;
#X connect 3 0 8 0;
#X connect 4 0 5 0;
#X connect 5 0 2 0;
#X connect 5 1 3 0;
#X connect 7 0 3 1;
#X connect 8 0 0 0;
