#N canvas 588 162 450 300 10;
#X obj 143 153 until;
#X obj 142 179 f \$1;
#X obj 144 120 f \$2;
#X msg 141 209 add2 \$1;
#X obj 143 16 inlet;
#X obj 141 52 route make length const;
#X obj 139 250 outlet;
#X floatatom 205 149 5 0 0 0 - - -;
#X obj 142 92 t b b;
#X msg 183 118 set;
#X connect 0 0 1 0;
#X connect 1 0 3 0;
#X connect 2 0 0 0;
#X connect 2 0 7 0;
#X connect 3 0 6 0;
#X connect 4 0 5 0;
#X connect 5 0 8 0;
#X connect 5 1 2 1;
#X connect 5 2 1 1;
#X connect 8 0 2 0;
#X connect 8 1 9 0;
#X connect 9 0 6 0;
