#N canvas 62 118 875 615 10;
#X obj 59 16 inlet~;
#X obj 60 170 delwrite~ \$0-delay 500;
#X obj 50 660 outlet~;
#X obj 361 29 inlet;
#X obj 412 130 s \$0-delay;
#X obj 473 167 s \$0-randomize;
#X obj 530 207 s \$0-feedback;
#X obj 98 513 s~ \$0-toFeedback;
#X obj 97 40 r~ \$0-toFeedback;
#X obj 88 142 *~;
#X obj 110 109 lop~ 1;
#X obj 109 85 r \$0-feedback;
#X obj 583 242 s \$0-mix;
#X obj 21 53 s~ \$0-dry;
#X obj 28 616 *~;
#X obj 85 617 *~;
#X obj 46 588 lop~ 1;
#X obj 107 587 lop~ 1;
#X obj 629 275 s \$0-switch;
#X obj 510 341 r \$0-switch;
#X obj 510 386 switch~;
#X obj 12 512 r~ \$0-dry;
#X obj 107 533 r \$0-mix;
#N canvas 753 377 450 300 inv 0;
#X obj 202 105 swap 1;
#X obj 207 129 -;
#X obj 201 41 inlet;
#X obj 209 181 outlet;
#X connect 0 0 1 0;
#X connect 0 1 1 1;
#X connect 1 0 3 0;
#X connect 2 0 0 0;
#X restore 45 559 pd inv;
#X obj 75 203 r \$0-delay;
#X obj 69 388 swap;
#X obj 70 419 /;
#X obj 70 441 min 500;
#X obj 70 487 vd~ \$0-delay;
#X obj 431 8 loadbang;
#X obj 252 123 r \$0-randomize;
#X obj 362 68 route tempo delay randomize feedback mix switch;
#X obj 135 331 swap 60000;
#X obj 135 356 /;
#X obj 157 223 random 4;
#X obj 157 250 + 1;
#X obj 360 98 s \$0-tempo;
#X obj 136 303 r \$0-tempo;
#X floatatom 193 270 5 0 0 0 - - -;
#X floatatom 158 436 5 0 0 0 - - -;
#X floatatom 161 386 5 0 0 0 - - -;
#X floatatom 95 412 5 0 0 0 - - -;
#X floatatom 32 407 5 0 0 0 - - -;
#X obj 72 324 max 1;
#X obj 70 464 lop~ 20;
#X obj 96 63 *~ 0.45;
#X msg 434 36 switch 1 \, tempo 120 \, delay 2 \, feedback 1 \, mix
0.5 \,;
#X obj 263 211 loadbang;
#X obj 262 237 timer;
#X obj 255 263 f;
#X obj 255 284 mod 200;
#X msg 254 311 seed \$1;
#X obj 251 148 t b b b b;
#X connect 0 0 1 0;
#X connect 0 0 13 0;
#X connect 3 0 31 0;
#X connect 8 0 45 0;
#X connect 9 0 1 0;
#X connect 10 0 9 1;
#X connect 11 0 10 0;
#X connect 14 0 2 0;
#X connect 15 0 2 0;
#X connect 16 0 14 1;
#X connect 17 0 15 1;
#X connect 19 0 20 0;
#X connect 21 0 14 0;
#X connect 22 0 17 0;
#X connect 22 0 23 0;
#X connect 23 0 16 0;
#X connect 24 0 43 0;
#X connect 25 0 26 0;
#X connect 25 0 42 0;
#X connect 25 1 26 1;
#X connect 25 1 41 0;
#X connect 26 0 27 0;
#X connect 26 0 39 0;
#X connect 27 0 44 0;
#X connect 28 0 7 0;
#X connect 28 0 15 0;
#X connect 29 0 46 0;
#X connect 30 0 52 0;
#X connect 31 0 36 0;
#X connect 31 1 4 0;
#X connect 31 2 5 0;
#X connect 31 3 6 0;
#X connect 31 4 12 0;
#X connect 31 5 18 0;
#X connect 32 0 33 0;
#X connect 32 1 33 1;
#X connect 33 0 25 1;
#X connect 33 0 40 0;
#X connect 34 0 35 0;
#X connect 35 0 38 0;
#X connect 35 0 43 0;
#X connect 37 0 32 0;
#X connect 43 0 25 0;
#X connect 44 0 28 0;
#X connect 45 0 9 0;
#X connect 46 0 31 0;
#X connect 47 0 48 0;
#X connect 48 0 49 1;
#X connect 49 0 50 0;
#X connect 50 0 51 0;
#X connect 51 0 34 0;
#X connect 52 0 34 0;
#X connect 52 1 48 0;
#X connect 52 2 49 0;
#X connect 52 3 48 1;
