#N canvas 0 22 976 479 10;
#X obj 332 34 inlet~;
#X obj 331 312 *~;
#X msg 373 139 0;
#X msg 412 138 1;
#X obj 330 352 outlet~;
#X obj 499 76 inlet;
#X obj 373 112 moses \$1;
#X obj 374 74 env~ 2048;
#X obj 362 284 *~;
#X obj 371 180 change;
#X obj 366 259 vline~;
#X msg 367 229 \$1 30;
#X connect 0 0 1 0;
#X connect 0 0 7 0;
#X connect 1 0 4 0;
#X connect 2 0 9 0;
#X connect 3 0 9 0;
#X connect 5 0 6 1;
#X connect 6 0 2 0;
#X connect 6 1 3 0;
#X connect 7 0 6 0;
#X connect 8 0 1 1;
#X connect 9 0 11 0;
#X connect 10 0 8 1;
#X connect 10 0 8 0;
#X connect 11 0 10 0;
