#N canvas 40 26 988 629 12;
#N canvas 190 70 1113 756 fft-analysis 0;
#X obj 35 589 *~;
#X obj 143 305 *~;
#X obj 158 150 *~;
#X obj 35 72 *~;
#X obj 76 527 *~;
#X obj 35 44 inlet~;
#X obj 35 528 *~;
#X obj 34 101 rfft~;
#X obj 35 558 rifft~;
#X obj 36 616 outlet~;
#X obj 119 149 *~;
#X obj 119 176 +~;
#X obj 100 422 /~;
#X text 176 446 is signal power and "m" is mask.;
#X obj 131 332 -~;
#X obj 131 355 max~ 0;
#X obj 99 448 q8_sqrt~;
#X text 175 464 (zero if s < m).;
#X obj 144 256 tabreceive~ \$0-mask;
#X obj 76 72 tabreceive~ \$0-hann;
#X obj 69 590 tabreceive~ \$0-hann;
#N canvas 91 250 910 495 calculate-mask 0;
#X obj 125 379 inlet~;
#X msg 371 283 0;
#X msg 371 166 0;
#X obj 240 196 float;
#X obj 294 200 + 1;
#X obj 240 144 bang~;
#X obj 240 169 spigot;
#X floatatom 411 218 0 0 0 0 - - -;
#X obj 315 408 -~;
#X obj 371 258 sel 0;
#X obj 327 443 *~;
#X obj 293 443 +~;
#X floatatom 351 313 0 0 0 0 - - -;
#X obj 240 219 t f f;
#X obj 371 141 t b f;
#X obj 411 165 /;
#X text 483 212 number of;
#X text 491 227 frames;
#X floatatom 481 166 0 0 0 0 - - -;
#X obj 481 136 / 4;
#X text 521 133 hop size (analysis;
#X text 546 149 period) in msec;
#X obj 359 408 tabreceive~ \$0-mask;
#X obj 292 468 tabsend~ \$0-mask;
#X obj 371 218 <;
#X obj 235 258 expr 1/($f1+1);
#X text 134 17 calculate a mask using N msec of background noise;
#X text 43 354 current power (for each channel);
#X text 367 430 average the current power into the last mask to get
the new mask. The new value is weighted 1/n on the nth iteration.;
#X text 390 312 weight to average in new power to mask;
#X text 11 203 loop counting to desired;
#X text 78 219 number of frames;
#X text 72 39 This loops for "make-mask" milliseconds \, averaging
power in each channel over that amount of time. This is done by a moving
average whose weight is adjusted to average each new value equally
with each of the accumulating ones.;
#X obj 480 113 r \$0-window-msec;
#X obj 370 113 r \$0-make-mask;
#X connect 0 0 8 0;
#X connect 1 0 12 0;
#X connect 2 0 3 1;
#X connect 2 0 24 0;
#X connect 3 0 13 0;
#X connect 3 0 4 0;
#X connect 4 0 3 1;
#X connect 5 0 6 0;
#X connect 6 0 3 0;
#X connect 7 0 24 1;
#X connect 8 0 10 0;
#X connect 9 0 1 0;
#X connect 10 0 11 1;
#X connect 11 0 23 0;
#X connect 12 0 10 1;
#X connect 13 0 24 0;
#X connect 13 1 25 0;
#X connect 14 0 2 0;
#X connect 14 1 15 0;
#X connect 15 0 7 0;
#X connect 19 0 15 1;
#X connect 19 0 18 0;
#X connect 22 0 8 1;
#X connect 22 0 11 0;
#X connect 24 0 6 1;
#X connect 24 0 9 0;
#X connect 25 0 12 0;
#X connect 33 0 19 0;
#X connect 34 0 14 0;
#X restore 132 203 pd calculate-mask;
#X text 91 98 real Fourier transform;
#X text 193 355 ... but not less than zero;
#X text 101 561 real inverse Fourier transform;
#X text 196 498 normalize by 2/(3N) where N is window size;
#X text 168 332 current power ("s") minus level-adjusted mask ("m")
;
#X text 156 175 compute power (call it "s") in each channel;
#X obj 123 395 +~ 1e-20;
#X text 203 395 protect against division by zero;
#X text 179 426 compute sqrt((s-m)/s) where "s";
#X text 296 204 <- subwindow calculates noise mask;
#X obj 492 132 s \$0-window-size;
#X obj 489 65 loadbang;
#X obj 165 278 r \$0-mask-level;
#X obj 355 23 block~ 2048 4;
#X msg 492 103 2048;
#X obj 98 499 /~ 3072;
#X connect 0 0 9 0;
#X connect 1 0 14 1;
#X connect 2 0 11 1;
#X connect 3 0 7 0;
#X connect 4 0 8 1;
#X connect 5 0 3 0;
#X connect 6 0 8 0;
#X connect 7 0 6 0;
#X connect 7 0 10 0;
#X connect 7 0 10 1;
#X connect 7 1 4 0;
#X connect 7 1 2 0;
#X connect 7 1 2 1;
#X connect 8 0 0 0;
#X connect 10 0 11 0;
#X connect 11 0 14 0;
#X connect 11 0 21 0;
#X connect 11 0 28 0;
#X connect 12 0 16 0;
#X connect 14 0 15 0;
#X connect 15 0 12 0;
#X connect 16 0 37 0;
#X connect 18 0 1 0;
#X connect 19 0 3 1;
#X connect 20 0 0 1;
#X connect 28 0 12 1;
#X connect 33 0 36 0;
#X connect 34 0 1 1;
#X connect 36 0 32 0;
#X connect 37 0 6 1;
#X connect 37 0 4 1;
#X restore 80 372 pd fft-analysis;
#N canvas 0 110 565 454 hann-window 0;
#N canvas 0 22 450 300 (subpatch) 0;
#X array \$0-hann 2048 float 0;
#X coords 0 1 2047 0 300 100 1;
#X restore 82 311 graph;
#X obj 378 165 osc~;
#X obj 378 190 *~ -0.5;
#X obj 378 214 +~ 0.5;
#X obj 331 247 tabwrite~ \$0-hann;
#X obj 38 173 /;
#X obj 127 142 samplerate~;
#X obj 177 204 swap;
#X obj 177 228 /;
#X obj 49 201 * 1000;
#X obj 38 115 t f b f;
#X msg 173 92 resize \$1;
#X obj 173 116 s \$0-hann;
#X msg 382 130 0;
#X obj 330 101 t f b;
#X text 43 -55 calculate Hann window table (variable window size) and
constants window-hz (fundamental frequency of analysis) \, window-sec
and window-msec (analysis window size in seconds and msec).;
#X obj 37 88 r \$0-window-size;
#X obj 330 75 r \$0-window-hz;
#X obj 49 228 s \$0-window-msec;
#X obj 38 251 s \$0-window-sec;
#X obj 177 252 s \$0-window-hz;
#X obj 42 18 inlet;
#X msg 42 47 2048;
#X connect 1 0 2 0;
#X connect 2 0 3 0;
#X connect 3 0 4 0;
#X connect 5 0 9 0;
#X connect 5 0 19 0;
#X connect 6 0 5 1;
#X connect 6 0 7 1;
#X connect 7 0 8 0;
#X connect 7 1 8 1;
#X connect 8 0 20 0;
#X connect 9 0 18 0;
#X connect 10 0 5 0;
#X connect 10 0 7 0;
#X connect 10 1 6 0;
#X connect 10 2 11 0;
#X connect 11 0 12 0;
#X connect 13 0 1 1;
#X connect 14 0 1 0;
#X connect 14 1 4 0;
#X connect 14 1 13 0;
#X connect 16 0 10 0;
#X connect 17 0 14 0;
#X connect 21 0 22 0;
#X connect 22 0 10 0;
#X restore 692 458 pd hann-window;
#N canvas 0 22 592 442 mask-table 0;
#N canvas 0 22 450 300 (subpatch) 0;
#X array \$0-mask 512 float 0;
#X coords 0 500 511 0 400 300 1;
#X restore 110 76 graph;
#X text 25 14 This table (1002-mask) is the average power measured
in each channel of the spectrum \, presumed to represent the noise
floor.;
#X restore 692 480 pd mask-table;
#X obj 79 302 inlet~;
#X obj 79 589 outlet~;
#X obj 413 212 inlet;
#X obj 253 273 loadbang;
#X obj 414 559 s \$0-make-mask;
#X obj 249 371 s \$0-mask-level;
#X obj 250 342 * 20;
#X obj 418 387 t f b;
#X msg 463 333 1;
#X obj 464 359 s \$0-switch;
#X obj 415 309 t b b b;
#X obj 465 483 outlet;
#X obj 415 240 route on off;
#X msg 455 268 0;
#X obj 474 294 s \$0-switch;
#X obj 80 557 *~;
#X obj 137 544 *~;
#X obj 134 513 lop~ 1;
#X obj 138 458 r \$0-switch;
#X obj 745 145 r \$0-switch;
#X obj 745 188 switch~;
#X obj 683 369 f;
#X obj 722 370 + 1;
#X obj 683 398 sel 1;
#X msg 418 360 3000;
#X obj 465 449 del 3000;
#X msg 252 306 0.075;
#X connect 0 0 18 0;
#X connect 3 0 0 0;
#X connect 5 0 15 0;
#X connect 6 0 29 0;
#X connect 9 0 8 0;
#X connect 10 0 7 0;
#X connect 10 1 28 0;
#X connect 11 0 12 0;
#X connect 13 0 27 0;
#X connect 13 1 24 0;
#X connect 13 2 11 0;
#X connect 15 0 13 0;
#X connect 15 1 16 0;
#X connect 16 0 17 0;
#X connect 18 0 4 0;
#X connect 19 0 18 1;
#X connect 20 0 19 1;
#X connect 20 0 19 0;
#X connect 21 0 20 0;
#X connect 22 0 23 0;
#X connect 24 0 25 0;
#X connect 24 0 26 0;
#X connect 25 0 24 1;
#X connect 26 0 1 0;
#X connect 27 0 10 0;
#X connect 28 0 14 0;
#X connect 29 0 9 0;
