#N canvas 319 170 757 412 10;
#X obj 242 -99 inlet~;
#X obj 295 277 *~;
#X obj 237 277 *~;
#X obj 404 -102 inlet;
#X obj 409 110 * 3.14;
#X obj 408 129 cos;
#X obj 409 149 + 1;
#X obj 409 169 * 0.5;
#X obj 421 192 swap 1;
#X obj 421 214 -;
#X obj 313 246 lop~ 20;
#X obj 257 247 lop~ 20;
#X obj 404 -65 route pan randomize;
#X obj 312 332 outlet~;
#X obj 229 334 outlet~;
#X obj 460 -10 random 100;
#X obj 461 15 * 0.01;
#X msg 328 23 0.5;
#X obj 309 -24 loadbang;
#X floatatom 438 254 5 0 0 0 - - -;
#X floatatom 384 255 5 0 0 0 - - -;
#X obj 458 71 line;
#X msg 458 49 \$1 500;
#X obj 550 -37 bng 15 250 50 0 empty empty empty 17 7 0 10 -262144
-1 -1;
#X floatatom 528 20 5 0 0 0 - - -;
#X obj 456 94 + 1;
#X obj 462 -35 t b;
#X connect 0 0 2 0;
#X connect 0 0 1 0;
#X connect 1 0 13 0;
#X connect 2 0 14 0;
#X connect 3 0 12 0;
#X connect 4 0 5 0;
#X connect 5 0 6 0;
#X connect 6 0 7 0;
#X connect 7 0 8 0;
#X connect 7 0 11 0;
#X connect 7 0 20 0;
#X connect 8 0 9 0;
#X connect 8 1 9 1;
#X connect 9 0 10 0;
#X connect 9 0 19 0;
#X connect 10 0 1 1;
#X connect 11 0 2 1;
#X connect 12 0 4 0;
#X connect 12 1 26 0;
#X connect 15 0 16 0;
#X connect 16 0 22 0;
#X connect 16 0 24 0;
#X connect 17 0 4 0;
#X connect 18 0 17 0;
#X connect 21 0 25 0;
#X connect 22 0 21 0;
#X connect 23 0 15 0;
#X connect 25 0 4 0;
#X connect 26 0 15 0;
