#N canvas 106 23 1285 748 10;
#X obj 59 0 inlet~;
#N canvas 135 200 1156 582 stereo 0;
#X obj 432 39 inlet~;
#X obj 503 39 inlet~;
#X obj 213 42 inlet~;
#X obj 639 62 inlet;
#X obj 633 126 select 0 1;
#X obj 636 207 vline~;
#X msg 633 149 0 50;
#X msg 652 171 1 50;
#X obj 433 234 *~;
#X obj 500 240 *~;
#X obj 206 336 outlet~;
#X obj 504 340 outlet~;
#X obj 212 263 *~ 0.5;
#X obj 211 226 *~;
#X obj 262 144 select 0 1;
#X obj 265 225 vline~;
#X msg 262 167 0 50;
#X msg 281 189 1 50;
#X obj 258 103 swap 1;
#X obj 263 124 -;
#X obj 960 49 table \$0-cosine 628;
#X obj 998 307 f;
#X obj 1030 307 + 1;
#X obj 999 359 * 0.01;
#X obj 998 381 cos;
#X obj 998 329 t f f;
#X obj 996 454 tabwrite \$0-cosine;
#X obj 997 279 until;
#X msg 995 251 628;
#X obj 997 401 + 1;
#X obj 998 426 * 0.5;
#X msg 1050 279 0;
#X obj 946 25 table \$0-cosineInv 628;
#X obj 947 460 swap 1;
#X obj 955 483 -;
#X obj 953 509 tabwrite \$0-cosineInv;
#N canvas 0 22 846 558 pong 0;
#N canvas 0 22 799 594 panner 0;
#X obj 233 98 inlet~;
#X obj 258 222 phasor~;
#X obj 273 296 tabread~ \$0-cosine;
#X obj 256 270 tabread~ \$0-cosineInv;
#X obj 228 370 *~;
#X obj 293 373 *~;
#X obj 221 420 outlet~;
#X obj 289 420 outlet~;
#X obj 263 133 r \$0-div1;
#X obj 263 153 * 0.001;
#X obj 263 175 swap 1;
#X obj 262 196 /;
#X floatatom 359 212 5 0 0 0 - - -;
#X obj 257 245 *~ 628;
#X obj 245 324 lop~ 100;
#X obj 299 323 lop~ 100;
#X connect 0 0 4 0;
#X connect 0 0 5 0;
#X connect 1 0 13 0;
#X connect 2 0 15 0;
#X connect 3 0 14 0;
#X connect 4 0 6 0;
#X connect 5 0 7 0;
#X connect 8 0 9 0;
#X connect 9 0 10 0;
#X connect 10 0 11 0;
#X connect 10 1 11 1;
#X connect 11 0 1 0;
#X connect 11 0 12 0;
#X connect 13 0 3 0;
#X connect 13 0 2 0;
#X connect 14 0 4 1;
#X connect 15 0 5 1;
#X restore 312 200 pd panner;
#N canvas 0 22 799 594 panner 0;
#X obj 233 98 inlet~;
#X obj 258 222 phasor~;
#X obj 273 296 tabread~ \$0-cosine;
#X obj 256 270 tabread~ \$0-cosineInv;
#X obj 228 349 *~;
#X obj 293 352 *~;
#X obj 221 420 outlet~;
#X obj 289 420 outlet~;
#X obj 263 153 * 0.001;
#X obj 263 175 swap 1;
#X obj 262 196 /;
#X floatatom 359 212 5 0 0 0 - - -;
#X obj 257 245 *~ 628;
#X obj 263 133 r \$0-div2;
#X obj 245 324 lop~ 20;
#X obj 299 323 lop~ 20;
#X connect 0 0 4 0;
#X connect 0 0 5 0;
#X connect 1 0 12 0;
#X connect 2 0 15 0;
#X connect 3 0 14 0;
#X connect 4 0 7 0;
#X connect 5 0 6 0;
#X connect 8 0 9 0;
#X connect 9 0 10 0;
#X connect 9 1 10 1;
#X connect 10 0 1 0;
#X connect 10 0 11 0;
#X connect 12 0 3 0;
#X connect 12 0 2 0;
#X connect 13 0 8 0;
#X connect 14 0 4 1;
#X connect 15 0 5 1;
#X restore 390 200 pd panner;
#X obj 314 101 inlet~;
#X obj 393 105 inlet~;
#X obj 305 333 outlet~;
#X obj 391 334 outlet~;
#X connect 0 0 4 0;
#X connect 0 1 5 0;
#X connect 1 0 4 0;
#X connect 1 1 5 0;
#X connect 2 0 0 0;
#X connect 3 0 1 0;
#X restore 442 103 pd pong;
#X obj 995 208 loadbang;
#X connect 0 0 36 0;
#X connect 1 0 36 1;
#X connect 2 0 13 0;
#X connect 3 0 4 0;
#X connect 3 0 18 0;
#X connect 4 0 6 0;
#X connect 4 1 7 0;
#X connect 5 0 9 1;
#X connect 5 0 8 1;
#X connect 6 0 5 0;
#X connect 7 0 5 0;
#X connect 8 0 10 0;
#X connect 9 0 11 0;
#X connect 12 0 10 0;
#X connect 12 0 11 0;
#X connect 13 0 12 0;
#X connect 14 0 16 0;
#X connect 14 1 17 0;
#X connect 15 0 13 1;
#X connect 16 0 15 0;
#X connect 17 0 15 0;
#X connect 18 0 19 0;
#X connect 18 1 19 1;
#X connect 19 0 14 0;
#X connect 21 0 22 0;
#X connect 21 0 25 0;
#X connect 22 0 21 1;
#X connect 23 0 24 0;
#X connect 24 0 29 0;
#X connect 25 0 23 0;
#X connect 25 1 26 1;
#X connect 25 1 35 1;
#X connect 27 0 21 0;
#X connect 28 0 27 0;
#X connect 29 0 30 0;
#X connect 30 0 26 0;
#X connect 30 0 33 0;
#X connect 31 0 21 1;
#X connect 33 0 34 0;
#X connect 33 1 34 1;
#X connect 34 0 35 0;
#X connect 36 0 8 0;
#X connect 36 1 9 0;
#X connect 37 0 28 0;
#X restore 426 429 pd stereo mono switch;
#X obj 421 703 outlet~;
#X obj 547 704 outlet~;
#X obj 663 122 inlet;
#X obj 417 195 vd~ \$0-pongDelay;
#X obj 530 232 vd~ \$0-pongDelay;
#X obj 548 400 r \$0-stereo;
#X obj 261 -80 swap 60000;
#X obj 278 -56 /;
#X obj 659 187 s \$0-time1;
#X obj 679 223 s \$0-time2;
#X obj 277 -34 s \$0-ms;
#N canvas 169 367 576 459 sel 0;
#X obj 179 -42 inlet;
#X obj 181 97 select 0 1 2 3 4 5 6 7;
#X obj 196 317 outlet;
#X obj 181 -19 * 7;
#X obj 178 6 + 0.5;
#X obj 178 29 int;
#X obj 178 59 min 7;
#X msg 182 119 0.33;
#X msg 192 144 0.5;
#X msg 205 166 1;
#X msg 217 188 1.33;
#X msg 226 209 1.5;
#X msg 239 231 2;
#X msg 252 253 3;
#X msg 266 276 4;
#X connect 0 0 3 0;
#X connect 1 0 7 0;
#X connect 1 1 8 0;
#X connect 1 2 9 0;
#X connect 1 3 10 0;
#X connect 1 4 11 0;
#X connect 1 5 12 0;
#X connect 1 6 13 0;
#X connect 1 7 14 0;
#X connect 3 0 4 0;
#X connect 4 0 5 0;
#X connect 5 0 6 0;
#X connect 6 0 1 0;
#X connect 7 0 2 0;
#X connect 8 0 2 0;
#X connect 9 0 2 0;
#X connect 10 0 2 0;
#X connect 11 0 2 0;
#X connect 12 0 2 0;
#X connect 13 0 2 0;
#X connect 14 0 2 0;
#X restore 416 12 pd sel;
#X obj 415 -11 r \$0-time1;
#X obj 416 91 *;
#X obj 490 14 r \$0-ms;
#X obj 596 19 r \$0-time2;
#X obj 529 159 *;
#X obj 635 48 r \$0-ms;
#X obj 429 49 t b f;
#X obj 540 81 t b f;
#X obj 429 118 s \$0-div1;
#X obj 51 107 delwrite~ \$0-pongDelay 1000;
#X obj 745 231 s \$0-feedback;
#X obj 463 329 *~;
#X obj 479 252 r \$0-feedback;
#X obj 478 273 * 0.33;
#X obj 478 299 sig~;
#X obj 462 354 s~ \$0-delayFeedback;
#X obj 69 73 r~ \$0-delayFeedback;
#X obj 415 147 sig~;
#X obj 415 170 lop~ 1;
#X obj 664 359 r \$0-switch;
#X obj 665 390 select 0 1;
#X obj 693 410 t b b;
#X obj 611 504 vline~;
#X msg 720 437 1;
#X obj 721 469 switch~;
#X msg 612 480 1 20 80;
#X obj 642 416 t b b;
#X msg 612 452 0 20;
#X obj 667 457 del 30;
#X msg 668 480 0;
#X obj 425 521 *~;
#X obj 540 541 *~;
#X obj 809 278 s \$0-switch;
#X obj 778 258 s \$0-stereo;
#N canvas 169 367 576 459 sel 0;
#X obj 179 -42 inlet;
#X obj 181 97 select 0 1 2 3 4 5 6 7;
#X msg 182 119 0.25;
#X msg 192 144 0.33;
#X msg 205 166 0.5;
#X msg 217 188 0.666;
#X msg 226 209 0.75;
#X msg 239 231 1;
#X msg 252 253 1.5;
#X msg 266 276 2;
#X obj 196 317 outlet;
#X obj 181 -19 * 7;
#X obj 178 6 + 0.5;
#X obj 178 29 int;
#X obj 178 59 min 7;
#X connect 0 0 11 0;
#X connect 1 0 2 0;
#X connect 1 1 3 0;
#X connect 1 2 4 0;
#X connect 1 3 5 0;
#X connect 1 4 6 0;
#X connect 1 5 7 0;
#X connect 1 6 8 0;
#X connect 1 7 9 0;
#X connect 2 0 10 0;
#X connect 3 0 10 0;
#X connect 4 0 10 0;
#X connect 5 0 10 0;
#X connect 6 0 10 0;
#X connect 7 0 10 0;
#X connect 8 0 10 0;
#X connect 9 0 10 0;
#X connect 11 0 12 0;
#X connect 12 0 13 0;
#X connect 13 0 14 0;
#X connect 14 0 1 0;
#X restore 698 77 pd sel;
#X obj 529 182 sig~;
#X obj 529 205 lop~ 1;
#X obj 581 188 print time2;
#X obj 504 -22 print recTime1;
#X obj 473 95 print time1;
#X obj 690 28 print recTime2;
#X obj 862 255 s \$0-tempo;
#X obj 416 -106 r \$0-tempo;
#X obj 489 44 print ms;
#N canvas 0 22 450 300 eo 0;
#X obj 129 44 inlet;
#X obj 130 68 t f b;
#X obj 206 89 f;
#X obj 237 90 + 1;
#X obj 204 114 mod 2;
#X obj 204 138 == 0;
#X obj 92 186 spigot;
#X obj 173 187 spigot;
#X obj 117 144 swap 1;
#X obj 124 164 -;
#X obj 87 251 outlet;
#X obj 173 247 outlet;
#X connect 0 0 1 0;
#X connect 1 0 7 0;
#X connect 1 0 6 0;
#X connect 1 1 2 0;
#X connect 2 0 3 0;
#X connect 2 0 4 0;
#X connect 3 0 2 1;
#X connect 4 0 5 0;
#X connect 5 0 7 1;
#X connect 5 0 8 0;
#X connect 6 0 10 0;
#X connect 7 0 11 0;
#X connect 8 0 9 0;
#X connect 8 1 9 1;
#X connect 9 0 6 1;
#X restore 415 -59 pd eo;
#N canvas 169 367 576 459 sel 0;
#X obj 179 -42 inlet;
#X obj 181 97 select 0 1 2 3 4 5 6 7;
#X obj 196 317 outlet;
#X obj 181 -19 * 7;
#X obj 178 6 + 0.5;
#X obj 178 29 int;
#X obj 178 59 min 7;
#X msg 182 119 0.33;
#X msg 192 144 0.5;
#X msg 205 166 1;
#X msg 217 188 1.33;
#X msg 226 209 1.5;
#X msg 239 231 2;
#X msg 252 253 3;
#X msg 266 276 4;
#X connect 0 0 3 0;
#X connect 1 0 7 0;
#X connect 1 1 8 0;
#X connect 1 2 9 0;
#X connect 1 3 10 0;
#X connect 1 4 11 0;
#X connect 1 5 12 0;
#X connect 1 6 13 0;
#X connect 1 7 14 0;
#X connect 3 0 4 0;
#X connect 4 0 5 0;
#X connect 5 0 6 0;
#X connect 6 0 1 0;
#X connect 7 0 2 0;
#X connect 8 0 2 0;
#X connect 9 0 2 0;
#X connect 10 0 2 0;
#X connect 11 0 2 0;
#X connect 12 0 2 0;
#X connect 13 0 2 0;
#X connect 14 0 2 0;
#X restore 595 79 pd sel;
#X obj 406 68 f;
#X obj 527 128 f;
#X obj 752 95 loadbang;
#X obj 662 151 route time1 time2 feedback stereo switch tempo mix;
#X obj 68 37 s~ \$0-drySig;
#X obj 553 652 *~;
#X obj 578 627 lop~ 1;
#X obj 578 604 mm_invert 1;
#X obj 575 544 r \$0-mix;
#X obj 554 572 r~ \$0-drySig;
#X obj 425 623 *~;
#X obj 529 618 *~;
#X obj 445 569 r \$0-mix;
#X obj 448 601 lop~ 1;
#X obj 920 187 s \$0-mix;
#X msg 749 116 switch 1 \, feedback 0.4 \, stereo 1 \, time1 1 \, time2
2 \, tempo 120 \, mix 0.3;
#X connect 0 0 23 0;
#X connect 0 0 64 0;
#X connect 1 0 44 0;
#X connect 1 1 45 0;
#X connect 4 0 63 0;
#X connect 5 0 1 0;
#X connect 5 0 1 1;
#X connect 5 0 25 0;
#X connect 6 0 1 0;
#X connect 6 0 25 0;
#X connect 6 0 1 2;
#X connect 7 0 1 3;
#X connect 8 0 9 0;
#X connect 8 1 9 1;
#X connect 9 0 12 0;
#X connect 13 0 53 0;
#X connect 13 0 60 1;
#X connect 13 0 60 0;
#X connect 14 0 13 0;
#X connect 14 0 52 0;
#X connect 15 0 22 0;
#X connect 15 0 31 0;
#X connect 16 0 57 0;
#X connect 17 0 54 0;
#X connect 17 0 59 0;
#X connect 18 0 49 0;
#X connect 20 0 60 0;
#X connect 20 1 15 1;
#X connect 21 0 61 0;
#X connect 21 1 18 1;
#X connect 25 0 29 0;
#X connect 26 0 27 0;
#X connect 27 0 28 0;
#X connect 28 0 25 1;
#X connect 30 0 23 0;
#X connect 31 0 32 0;
#X connect 32 0 5 0;
#X connect 33 0 34 0;
#X connect 34 0 40 0;
#X connect 34 1 35 0;
#X connect 35 0 39 0;
#X connect 35 1 37 0;
#X connect 36 0 45 1;
#X connect 36 0 44 1;
#X connect 37 0 38 0;
#X connect 39 0 36 0;
#X connect 40 0 42 0;
#X connect 40 1 41 0;
#X connect 41 0 36 0;
#X connect 42 0 43 0;
#X connect 43 0 38 0;
#X connect 44 0 70 0;
#X connect 45 0 71 0;
#X connect 49 0 50 0;
#X connect 50 0 6 0;
#X connect 56 0 58 0;
#X connect 58 0 20 0;
#X connect 58 1 21 0;
#X connect 59 0 51 0;
#X connect 59 0 61 1;
#X connect 59 0 61 0;
#X connect 60 0 15 0;
#X connect 61 0 18 0;
#X connect 62 0 75 0;
#X connect 63 0 10 0;
#X connect 63 1 11 0;
#X connect 63 2 24 0;
#X connect 63 3 47 0;
#X connect 63 4 46 0;
#X connect 63 5 55 0;
#X connect 63 6 74 0;
#X connect 65 0 3 0;
#X connect 65 0 2 0;
#X connect 66 0 65 1;
#X connect 67 0 66 0;
#X connect 68 0 67 0;
#X connect 69 0 65 0;
#X connect 70 0 2 0;
#X connect 71 0 3 0;
#X connect 72 0 73 0;
#X connect 73 0 70 1;
#X connect 73 0 71 1;
#X connect 75 0 63 0;
