#N canvas 464 111 950 534 10;
#X obj 142 7 inlet;
#X obj 315 19 inlet;
#X obj 316 61 s \$0-switch;
#X obj 769 401 r \$0-switch;
#X obj 769 433 switch~;
#X obj 144 401 outlet~;
#X obj 142 225 phasor~;
#X obj 142 309 expr~ $v1 > $v2;
#X obj 142 63 t f b;
#X obj 226 270 vline~;
#X obj 229 130 r \$0-period;
#X obj 229 169 * 0.5;
#X obj 214 199 f;
#X msg 225 235 0.01 \, 0.99 \$1 \, 0.01 \$1 \$1;
#X obj 316 42 route switch period;
#X obj 372 83 s \$0-period;
#N canvas 930 283 450 300 db 0;
#X obj 32 34 inlet;
#X obj 32 106 spigot;
#X obj 33 153 t b b b;
#X msg 85 108 0;
#X msg 83 74 1;
#X obj 83 35 loadbang;
#X obj 51 221 del;
#X obj 62 189 r \$0-period;
#X msg 51 245 1;
#X obj 40 275 outlet;
#X connect 0 0 1 0;
#X connect 1 0 2 0;
#X connect 2 0 9 0;
#X connect 2 1 6 0;
#X connect 2 2 3 0;
#X connect 3 0 1 1;
#X connect 4 0 1 1;
#X connect 5 0 4 0;
#X connect 6 0 8 0;
#X connect 7 0 6 1;
#X connect 8 0 1 1;
#X restore 190 134 pd db;
#X msg 463 54 1000;
#X obj 463 19 loadbang;
#X connect 0 0 8 0;
#X connect 1 0 14 0;
#X connect 3 0 4 0;
#X connect 6 0 7 0;
#X connect 7 0 5 0;
#X connect 8 0 6 0;
#X connect 8 1 16 0;
#X connect 9 0 7 1;
#X connect 10 0 11 0;
#X connect 11 0 12 1;
#X connect 12 0 13 0;
#X connect 13 0 9 0;
#X connect 14 0 2 0;
#X connect 14 1 15 0;
#X connect 16 0 12 0;
#X connect 17 0 15 0;
#X connect 18 0 17 0;
