#N canvas 174 140 1309 789 10;
#X obj 862 -394 inlet;
#X obj 173 -407 inlet;
#X obj 212 314 outlet;
#X obj 858 -334 s \$0-length;
#X obj 172 240 moses 1;
#X obj 362 35 list-rev;
#X obj 362 -16 f 64;
#X obj 901 -309 s \$0-reverse;
#X obj 354 -145 r \$0-reverse;
#X obj 358 187 t f b;
#X obj 388 213 f;
#X obj 419 213 + 1;
#X obj 356 -105 t b b;
#X msg 402 190 0;
#X obj 358 160 list-dripslow;
#X obj 455 -98 bng 15 250 50 0 empty empty empty 17 7 0 10 -262144
-1 -1;
#X obj 360 58 t a a;
#X obj 359 93 list length;
#X obj 358 128 until;
#X obj 941 -283 s \$0-rate;
#X obj 212 -48 r \$0-rate;
#X obj 189 -23 * 1;
#X obj 180 57 mod 64;
#X obj 984 -252 s \$0-sparse;
#X obj 217 150 r \$0-sparse;
#N canvas 350 249 450 300 inv 0;
#X obj 181 23 inlet;
#X obj 179 71 swap 1;
#X obj 185 97 -;
#X obj 187 138 outlet;
#X connect 0 0 1 0;
#X connect 1 0 2 0;
#X connect 1 1 2 1;
#X connect 2 0 3 0;
#X restore 217 194 pd inv;
#X obj 176 -283 t f f;
#X obj 348 -313 r \$0-rate;
#X obj 353 -281 t b f;
#X obj 282 -256 /;
#X obj 202 -257 sel 0;
#X obj 181 -98 +;
#X obj 283 -220 /;
#X obj 295 -319 t f f f;
#X obj 203 -232 f;
#X obj 233 -232 + 1;
#X obj 205 -171 mod;
#X obj 211 -114 *;
#X floatatom 277 -187 5 0 0 0 - - -;
#X obj 226 -303 t b;
#X msg 225 -280 0;
#X obj 1025 -221 s \$0-offset;
#X obj 171 -337 +;
#X obj 186 -364 r \$0-offset;
#X obj 299 -358 r \$0-length;
#X obj 227 -327 r \$0-read;
#X obj 384 -48 r \$0-length;
#X obj 361 10 list-tabdump \$0-notes;
#X obj 235 -160 r \$0-length;
#X obj 222 10 r \$0-length;
#X obj 179 125 tabread \$0-notes;
#X obj 359 247 tabwrite \$0-notes;
#X obj 861 -371 route length reverse rate sparse offset read;
#X obj 1065 -184 s \$0-read;
#X obj 616 185 t f b;
#X obj 646 211 f;
#X obj 677 211 + 1;
#X msg 660 188 0;
#X obj 616 158 list-dripslow;
#X obj 618 -5 t a a;
#X obj 617 30 list length;
#X obj 615 128 until;
#X obj 617 245 tabwrite \$0-notes;
#X obj 614 -90 r \$0-read;
#X obj 616 -50 t a b;
#X obj 687 90 s \$0-length;
#X obj 600 -336 r \$0-length;
#X obj 595 -230 pack \$0 f;
#X obj 598 -268 t b f;
#X obj 600 -302 change;
#X obj 141 311 outlet;
#X msg 596 -200 \$1-notes resize \$2 \;;
#X obj 731 245 list-tabdump \$0-notes;
#X obj 733 279 print \$0-tabdump;
#X obj 619 60 trigger f f;
#X obj 466 124 print \$0-newlength;
#X obj -143 -316 table \$0-notes 1024;
#X obj 830 -56 f;
#X obj 845 -89 r \$0-length;
#X obj 826 -147 r resetClock;
#X obj 833 -17 s \$0-length;
#X obj 878 25 print resetClock;
#X obj 95 -370 r reset;
#X connect 0 0 52 0;
#X connect 1 0 42 0;
#X connect 4 0 70 0;
#X connect 4 1 2 0;
#X connect 5 0 16 0;
#X connect 6 0 47 0;
#X connect 8 0 12 0;
#X connect 9 0 51 0;
#X connect 9 1 10 0;
#X connect 10 0 11 0;
#X connect 10 0 51 1;
#X connect 11 0 10 1;
#X connect 12 0 6 0;
#X connect 12 1 13 0;
#X connect 13 0 10 1;
#X connect 14 0 9 0;
#X connect 15 0 12 0;
#X connect 16 0 17 0;
#X connect 16 1 14 1;
#X connect 17 0 18 0;
#X connect 18 0 14 0;
#X connect 20 0 21 1;
#X connect 21 0 22 0;
#X connect 22 0 50 0;
#X connect 24 0 25 0;
#X connect 25 0 4 1;
#X connect 26 0 31 0;
#X connect 26 1 30 0;
#X connect 27 0 28 0;
#X connect 28 0 29 0;
#X connect 28 1 29 1;
#X connect 29 0 32 0;
#X connect 30 0 34 0;
#X connect 31 0 21 0;
#X connect 32 0 36 1;
#X connect 32 0 38 0;
#X connect 33 1 29 0;
#X connect 33 2 32 1;
#X connect 34 0 35 0;
#X connect 34 0 36 0;
#X connect 35 0 34 1;
#X connect 36 0 37 0;
#X connect 37 0 31 1;
#X connect 39 0 40 0;
#X connect 40 0 34 1;
#X connect 42 0 26 0;
#X connect 43 0 42 1;
#X connect 44 0 33 0;
#X connect 45 0 39 0;
#X connect 46 0 6 1;
#X connect 47 0 5 0;
#X connect 48 0 37 1;
#X connect 49 0 22 1;
#X connect 50 0 4 0;
#X connect 52 0 3 0;
#X connect 52 1 7 0;
#X connect 52 2 19 0;
#X connect 52 3 23 0;
#X connect 52 4 41 0;
#X connect 52 5 53 0;
#X connect 54 0 62 0;
#X connect 54 1 55 0;
#X connect 55 0 56 0;
#X connect 55 0 62 1;
#X connect 56 0 55 1;
#X connect 57 0 55 1;
#X connect 58 0 54 0;
#X connect 58 1 72 0;
#X connect 59 0 60 0;
#X connect 59 1 58 1;
#X connect 60 0 74 0;
#X connect 61 0 58 0;
#X connect 63 0 64 0;
#X connect 64 0 59 0;
#X connect 64 1 57 0;
#X connect 66 0 69 0;
#X connect 67 0 71 0;
#X connect 68 0 67 0;
#X connect 68 1 67 1;
#X connect 69 0 68 0;
#X connect 72 0 73 0;
#X connect 74 0 61 0;
#X connect 74 1 65 0;
#X connect 77 0 80 0;
#X connect 77 0 81 0;
#X connect 78 0 77 1;
#X connect 79 0 77 0;
#X connect 82 0 40 0;
#X coords 0 789 1 788 700 420 0;
