#N canvas 0 22 1158 523 10;
#X obj 61 87 s drumsVolume;
#X obj 132 139 s synthVolume;
#X obj 204 192 s bassVolume;
#X obj 286 241 s samplerVolume;
#X obj 384 109 s inputVolume;
#X obj 446 159 s allowRandom;
#X obj 581 253 s lockTempo;
#X obj 739 139 s audioSwitch;
#X obj 813 356 s outputVolume;
#X obj 912 237 s onOff;
#X obj 516 203 s setTempo;
#X obj 657 302 s loadSection;
#X obj 61 37 route drumsVolume synthVolume bassVolume samplerVolume
;
#X floatatom 62 64 5 0 0 0 - - -;
#X floatatom 132 117 5 0 0 0 - - -;
#X floatatom 204 167 5 0 0 0 - - -;
#X floatatom 287 221 5 0 0 0 - - -;
#X floatatom 382 89 5 0 0 0 - - -;
#X floatatom 446 139 5 0 0 0 - - -;
#X floatatom 581 233 5 0 0 0 - - -;
#X floatatom 517 183 5 0 0 0 - - -;
#X floatatom 656 280 5 0 0 0 - - -;
#X floatatom 739 118 5 0 0 0 - - -;
#X floatatom 813 334 5 0 0 0 - - -;
#X floatatom 884 188 5 0 0 0 - - -;
#X obj 59 3 inlet;
#X obj 812 251 t b f;
#X obj 813 301 f;
#X obj 813 272 del 50;
#X obj 882 109 t b f;
#X obj 883 159 f;
#X obj 883 133 del 100;
#X obj 382 61 route inputVolume allowRandom setTempo lockTempo loadSection
;
#X obj 739 85 route audioSwitch outputVolume onOff;
#X obj 885 213 t f f;
#X obj 886 259 s playbackBegan;
#X connect 12 0 13 0;
#X connect 12 1 14 0;
#X connect 12 2 15 0;
#X connect 12 3 16 0;
#X connect 12 4 32 0;
#X connect 13 0 0 0;
#X connect 14 0 1 0;
#X connect 15 0 2 0;
#X connect 16 0 3 0;
#X connect 17 0 4 0;
#X connect 18 0 5 0;
#X connect 19 0 6 0;
#X connect 20 0 10 0;
#X connect 21 0 11 0;
#X connect 22 0 7 0;
#X connect 23 0 8 0;
#X connect 24 0 34 0;
#X connect 25 0 12 0;
#X connect 26 0 28 0;
#X connect 26 1 27 1;
#X connect 27 0 23 0;
#X connect 28 0 27 0;
#X connect 29 0 31 0;
#X connect 29 1 30 1;
#X connect 30 0 24 0;
#X connect 31 0 30 0;
#X connect 32 0 17 0;
#X connect 32 1 18 0;
#X connect 32 2 20 0;
#X connect 32 3 19 0;
#X connect 32 4 21 0;
#X connect 32 5 33 0;
#X connect 33 0 22 0;
#X connect 33 1 26 0;
#X connect 33 2 29 0;
#X connect 34 0 35 0;
#X connect 34 1 9 0;
