#N canvas 0 22 906 477 10;
#X msg 539 215 seed \$1;
#X obj 585 171 r onOff;
#X msg 587 243 on \$1;
#N canvas 648 253 667 404 rtime 0;
#X obj 331 24 bng 15 250 50 0 empty empty empty 17 7 0 10 -262144 -1
-1;
#X obj 330 -3 inlet;
#X obj 352 115 + 1;
#X obj 207 7 r msPerMeasure;
#X obj 330 47 t b b;
#X obj 405 60 r measures;
#X obj 224 205 outlet;
#X obj 209 91 f 2000;
#X obj 354 89 random 4;
#X obj 467 -26 inlet;
#X obj 221 160 * 1;
#X connect 0 0 4 0;
#X connect 1 0 0 0;
#X connect 2 0 10 1;
#X connect 3 0 7 1;
#X connect 3 0 7 0;
#X connect 4 0 7 0;
#X connect 4 1 8 0;
#X connect 5 0 8 1;
#X connect 7 0 10 0;
#X connect 8 0 2 0;
#X connect 9 0 8 0;
#X connect 10 0 6 0;
#X restore 415 213 pd rtime;
#X msg 415 254 time \$1;
#X obj 333 385 outlet;
#X obj 415 177 inlet;
#X obj 509 151 mod \$1;
#X obj 509 126 inlet;
#X obj 510 184 t f f;
#X msg 507 236 seed \$1;
#X connect 0 0 5 0;
#X connect 1 0 2 0;
#X connect 2 0 5 0;
#X connect 3 0 4 0;
#X connect 4 0 5 0;
#X connect 6 0 3 0;
#X connect 7 0 9 0;
#X connect 8 0 7 0;
#X connect 9 0 10 0;
#X connect 9 1 0 0;
#X connect 10 0 3 1;
