#N canvas 225 41 944 762 10;
#X obj 752 136 f \$1;
#X obj 723 162 f \$2;
#X obj 721 110 t b b;
#X obj 721 83 r loadbang;
#X obj 491 54 inlet;
#X obj 492 114 s \$0-min;
#X obj 524 143 s \$0-max;
#X obj 553 167 s \$0-time;
#X obj 586 199 s \$0-pow;
#X obj 361 126 r \$0-max;
#X obj 304 83 r \$0-min;
#X msg 362 147 max \$1;
#X msg 305 103 min \$1;
#X obj 756 160 s \$0-min;
#X obj 724 192 s \$0-max;
#X obj 205 -29 inlet;
#X obj 492 85 route min max time pow;
#X obj 279 246 r \$0-time;
#X obj 598 519 r \$0-min;
#X obj 557 495 r \$0-max;
#X obj 525 710 /;
#X obj 558 594 max 1e-05;
#X floatatom 474 740 5 0 0 0 - - -;
#X obj 213 121 bng 15 250 50 0 empty empty empty 17 7 0 10 -262144
-1 -1;
#X obj 213 433 line;
#X floatatom 217 495 5 0 0 0 - - -;
#X floatatom 240 234 5 0 0 0 - - -;
#X obj 597 542 t b f f f;
#X obj 577 718 r \$0-pow;
#X msg 574 53 min 500 \, max 10000 \, time 2000 \, pow 2;
#X floatatom 582 789 5 0 0 0 - - -;
#X obj 558 618 t f f;
#X obj 527 805 *;
#X floatatom 556 915 5 0 0 0 - - -;
#X obj 213 295 pack f f;
#X obj 214 321 t a b;
#X obj 525 751 pow \$3;
#X obj 341 426 s \$0-doIt;
#X obj 231 898 outlet;
#X obj 208 84 spigot;
#X obj 206 38 t b f;
#X obj 138 38 r \$0-doIt;
#X obj 139 64 bng 15 250 50 0 empty empty empty 17 7 0 10 -262144 -1
-1;
#X obj 213 208 mm_runif \$1 \$2;
#X obj 274 10 tgl 15 0 empty empty empty 17 7 0 10 -262144 -1 -1 0
1;
#X obj 575 4 loadbang;
#X obj 253 147 f \$1;
#X obj 313 146 f \$2;
#X obj 250 125 bng 15 250 50 0 empty empty empty 17 7 0 10 -262144
-1 -1;
#X obj 277 122 bng 15 250 50 0 empty empty empty 17 7 0 10 -262144
-1 -1;
#X floatatom 383 199 5 0 0 0 - - -;
#X floatatom 271 178 5 0 0 0 - - -;
#X obj 559 540 f \$2;
#X obj 559 567 - \$1;
#X obj 525 659 - \$1;
#X obj 528 854 + \$1;
#X floatatom 622 147 5 0 0 0 - - -;
#X floatatom 342 312 5 0 0 0 - - -;
#X obj 382 347 bng 15 250 50 0 empty empty empty 17 7 0 10 -262144
-1 -1;
#X obj 278 380 del 2000;
#X obj 276 351 mm_db;
#X obj 278 272 t f f f;
#X obj 280 474 bng 15 250 50 0 empty empty empty 17 7 0 10 -262144
-1 -1;
#X obj 93 -21 r clock;
#X obj 91 6 sel 0;
#X connect 0 0 13 0;
#X connect 1 0 14 0;
#X connect 2 0 1 0;
#X connect 2 1 0 0;
#X connect 3 0 2 0;
#X connect 4 0 16 0;
#X connect 9 0 11 0;
#X connect 10 0 12 0;
#X connect 11 0 43 1;
#X connect 12 0 43 1;
#X connect 15 0 40 0;
#X connect 16 0 5 0;
#X connect 16 1 6 0;
#X connect 16 2 7 0;
#X connect 16 3 8 0;
#X connect 16 3 56 0;
#X connect 17 0 61 0;
#X connect 18 0 27 0;
#X connect 19 0 52 1;
#X connect 19 0 52 0;
#X connect 20 0 22 0;
#X connect 20 0 36 0;
#X connect 21 0 31 0;
#X connect 23 0 43 0;
#X connect 24 0 25 0;
#X connect 25 0 38 0;
#X connect 27 0 52 0;
#X connect 27 1 53 1;
#X connect 27 2 54 1;
#X connect 27 3 55 1;
#X connect 28 0 36 1;
#X connect 29 0 16 0;
#X connect 31 0 20 1;
#X connect 31 1 32 1;
#X connect 32 0 55 0;
#X connect 34 0 35 0;
#X connect 35 0 24 0;
#X connect 35 1 60 0;
#X connect 36 0 30 0;
#X connect 36 0 32 0;
#X connect 39 0 23 0;
#X connect 39 0 48 0;
#X connect 39 0 49 0;
#X connect 40 0 39 0;
#X connect 40 1 39 1;
#X connect 41 0 42 0;
#X connect 42 0 39 0;
#X connect 43 0 26 0;
#X connect 43 0 34 0;
#X connect 44 0 40 0;
#X connect 45 0 29 0;
#X connect 46 0 12 0;
#X connect 46 0 51 0;
#X connect 47 0 11 0;
#X connect 47 0 50 0;
#X connect 48 0 46 0;
#X connect 49 0 47 0;
#X connect 52 0 53 0;
#X connect 53 0 21 0;
#X connect 54 0 20 0;
#X connect 55 0 33 0;
#X connect 59 0 37 0;
#X connect 59 0 62 0;
#X connect 60 0 59 0;
#X connect 61 0 34 1;
#X connect 61 1 57 0;
#X connect 61 1 59 1;
#X connect 61 2 60 1;
#X connect 63 0 64 0;
#X connect 64 0 42 0;
