#N canvas 0 22 450 300 10;
#X obj 173 78 inlet;
#X obj 174 192 spigot;
#X obj 212 161 == 0;
#X obj 261 189 spigot;
#X obj 294 159 == 1;
#X obj 173 104 t f f;
#X obj 185 280 outlet;
#X obj 261 84 inlet;
#X obj 261 104 t f f;
#X obj 261 218 mm_alt_reverse;
#X obj 256 44 loadbang;
#X msg 258 66 0;
#X floatatom 282 261 5 0 0 0 - - -;
#X connect 0 0 5 0;
#X connect 1 0 6 0;
#X connect 2 0 1 1;
#X connect 3 0 9 0;
#X connect 4 0 3 1;
#X connect 5 0 1 0;
#X connect 5 1 3 0;
#X connect 7 0 8 0;
#X connect 8 0 2 0;
#X connect 8 1 4 0;
#X connect 9 0 6 0;
#X connect 9 0 12 0;
#X connect 10 0 11 0;
#X connect 11 0 8 0;
