#N canvas 182 46 450 300 10;
#X obj 169 176 t f f;
#X obj 169 220 outlet;
#X obj 313 62 inlet;
#X obj 313 88 t b;
#X obj 171 72 inlet;
#X obj 168 147 max 0;
#X msg 314 112 0;
#X connect 0 0 1 0;
#X connect 0 1 5 1;
#X connect 2 0 3 0;
#X connect 3 0 6 0;
#X connect 4 0 5 0;
#X connect 5 0 0 0;
#X connect 6 0 5 1;
