#N canvas 327 23 1098 808 10;
#X obj 350 34 r measures;
#X floatatom 352 56 5 0 0 0 - - -;
#X obj 281 33 r beats;
#X floatatom 282 60 5 0 0 0 - - -;
#X obj 200 15 r divisions;
#X floatatom 202 58 5 0 0 0 - - -;
#X obj 67 78 list;
#X obj -253 -162 inlet;
#X obj 59 217 list-drip;
#X msg 59 240 add2 \$1;
#X msg -80 357 11 10 9 8 7 6 5 4 3 2 1 0 23 22 21 20 19 18 17 16 15
14 13 12 35 34 33 32 31 30 29 28 27 26 25 24 47 46 45 44 43 42 41 40
39 38 37 36 59 58 57 56 55 54 53 52 51 50 49 48 71 70 69 68 67 66 65
64 63 62 61 60 83 82 81 80 79 78 77 76 75 74 73 72 95 94 93 92 91 90
89 88 87 86 85 84;
#X msg 148 47 set;
#X obj 170 -366 r patternLength;
#X obj 170 -341 change;
#X msg 214 -283 set;
#X msg 181 -156 0 1 2 3 4 5 6 7 8 9 10 11 12 13 14 15 16 17 18 19 20
21 22 23 24 25 26 27 28 29 30 31 32 33 34 35 36 37 38 39 40 41 42 43
44 45 46 47 48 49 50 51 52 53 54 55 56 57 58 59 60 61 62 63 64 65 66
67 68 69 70 71 72 73 74 75 76 77 78 79 80 81 82 83 84 85 86 87 88 89
90 91 92 93 94 95;
#X obj 185 -261 until;
#X msg 182 -207 add2 \$1;
#X obj 171 -313 t b f b b;
#X obj 183 -235 f;
#X obj 213 -234 + 1;
#X obj 248 -284 f 0;
#X obj 118 -22 list-rev;
#X obj 122 3 t a b;
#X obj 65 172 list split 4;
#X obj 285 110 *;
#X obj 244 90 f;
#X obj 284 84 t f b;
#X floatatom 289 140 5 0 0 0 - - -;
#X obj 281 167 f;
#X obj 354 83 t f b;
#X obj 356 111 *;
#X floatatom 354 140 5 0 0 0 - - -;
#X floatatom 288 188 5 0 0 0 - - -;
#X obj 506 -372 inlet;
#X obj 505 -343 s \$0-which;
#X obj 358 224 spigot;
#X floatatom 358 254 5 0 0 0 - - -;
#X obj 275 226 spigot;
#X floatatom 270 260 5 0 0 0 - - -;
#X obj 190 177 spigot;
#X floatatom 185 202 5 0 0 0 - - -;
#X obj 599 -366 loadbang;
#X obj -83 476 list-idx;
#X obj -71 279 t b f;
#X obj -265 504 outlet;
#X obj 132 235 t b f;
#X obj 131 266 del 1;
#X obj 228 -54 r \$0-which;
#X obj 227 -27 t b f;
#X obj 392 -13 t f f f;
#X obj 230 -3 t b b b;
#X msg 601 -340 0;
#X obj 229 156 == 1;
#X obj 314 205 == 2;
#X obj 397 203 == 3;
#X obj -243 92 spigot;
#X obj -141 87 spigot;
#X obj -163 -16 r \$0-which;
#X obj -162 8 == 0;
#X obj -112 41 mm_invert 1;
#X obj -161 31 t f f;
#X obj -253 -108 t f f;
#X connect 0 0 1 0;
#X connect 1 0 30 0;
#X connect 2 0 3 0;
#X connect 3 0 27 0;
#X connect 4 0 5 0;
#X connect 5 0 26 1;
#X connect 5 0 26 0;
#X connect 5 0 40 0;
#X connect 6 0 24 0;
#X connect 7 0 62 0;
#X connect 8 0 9 0;
#X connect 9 0 10 0;
#X connect 10 0 43 0;
#X connect 11 0 10 0;
#X connect 12 0 13 0;
#X connect 13 0 18 0;
#X connect 14 0 15 0;
#X connect 15 0 22 0;
#X connect 16 0 19 0;
#X connect 17 0 15 0;
#X connect 18 1 16 0;
#X connect 18 2 14 0;
#X connect 18 3 21 0;
#X connect 19 0 20 0;
#X connect 19 0 17 0;
#X connect 20 0 19 1;
#X connect 21 0 19 1;
#X connect 22 0 23 0;
#X connect 23 0 6 0;
#X connect 23 1 11 0;
#X connect 24 0 8 0;
#X connect 24 1 6 0;
#X connect 25 0 28 0;
#X connect 26 0 25 1;
#X connect 27 0 25 0;
#X connect 27 1 26 0;
#X connect 28 0 29 1;
#X connect 28 0 29 0;
#X connect 29 0 31 1;
#X connect 29 0 33 0;
#X connect 30 0 31 0;
#X connect 30 1 29 0;
#X connect 31 0 32 0;
#X connect 32 0 36 0;
#X connect 33 0 38 0;
#X connect 34 0 35 0;
#X connect 36 0 37 0;
#X connect 37 0 46 0;
#X connect 38 0 39 0;
#X connect 39 0 46 0;
#X connect 40 0 41 0;
#X connect 41 0 46 0;
#X connect 42 0 52 0;
#X connect 43 0 45 0;
#X connect 44 0 10 0;
#X connect 44 1 43 1;
#X connect 46 0 47 0;
#X connect 46 1 24 1;
#X connect 47 0 15 0;
#X connect 48 0 49 0;
#X connect 49 0 51 0;
#X connect 49 1 50 0;
#X connect 50 0 53 0;
#X connect 50 1 54 0;
#X connect 50 2 55 0;
#X connect 51 0 5 0;
#X connect 51 1 3 0;
#X connect 51 2 1 0;
#X connect 52 0 35 0;
#X connect 53 0 40 1;
#X connect 54 0 38 1;
#X connect 55 0 36 1;
#X connect 56 0 45 0;
#X connect 57 0 44 0;
#X connect 58 0 59 0;
#X connect 59 0 61 0;
#X connect 60 0 57 1;
#X connect 61 0 56 1;
#X connect 61 1 60 0;
#X connect 62 0 56 0;
#X connect 62 1 57 0;
