#N canvas 70 88 1112 552 10;
#X obj 491 198 random 4;
#X obj 491 230 + 1;
#X obj 491 253 until;
#X obj 491 279 random 4;
#X msg 492 348 82 77 74 82;
#X obj 492 385 list-idx;
#X obj 490 304 t b f;
#X obj 595 33 inlet;
#X obj 495 524 outlet;
#X obj 489 46 inlet;
#X obj 492 416 t f b;
#X obj 519 440 f;
#X obj 555 439 + 1;
#X obj 494 466 swap;
#X obj 493 145 t b b;
#X msg 535 164 0;
#X obj 555 198 s \$0-reset;
#X obj 550 406 r \$0-reset;
#X obj 494 494 pack f f;
#X obj 463 104 bng 15 250 50 0 empty empty empty 17 7 0 10 -262144
-1 -1;
#X obj 596 58 route chord probs steps;
#X obj 490 83 mod 4;
#X obj 491 110 mm_wrandom;
#X connect 0 0 1 0;
#X connect 1 0 2 0;
#X connect 2 0 3 0;
#X connect 3 0 6 0;
#X connect 4 0 5 0;
#X connect 5 0 10 0;
#X connect 6 0 4 0;
#X connect 6 1 5 1;
#X connect 7 0 20 0;
#X connect 9 0 21 0;
#X connect 10 0 13 0;
#X connect 10 1 11 0;
#X connect 11 0 12 0;
#X connect 11 0 13 1;
#X connect 12 0 11 1;
#X connect 13 0 18 0;
#X connect 13 1 18 1;
#X connect 14 0 0 0;
#X connect 14 1 15 0;
#X connect 15 0 16 0;
#X connect 17 0 11 1;
#X connect 18 0 8 0;
#X connect 20 0 4 0;
#X connect 20 1 22 1;
#X connect 21 0 22 0;
#X connect 22 0 14 0;
#X connect 22 0 19 0;
