#N canvas 204 227 1135 687 10;
#N canvas 424 366 478 366 pmosc 0;
#X obj 119 199 cos~;
#X obj 119 167 +~;
#X obj 120 273 outlet~;
#X obj 119 115 phasor~;
#X obj 119 86 inlet~;
#X obj 136 146 inlet~;
#X obj 160 199 inlet~;
#X obj 120 236 *~;
#X text 38 21 phase-modulation oscillator;
#X text 38 57 signal inlets: 1: freq \, 2: phase \, 3: amp;
#X connect 0 0 7 0;
#X connect 1 0 0 0;
#X connect 3 0 1 0;
#X connect 4 0 3 0;
#X connect 5 0 1 1;
#X connect 6 0 7 1;
#X connect 7 0 2 0;
#X restore 280 362 pd pmosc;
#N canvas 424 366 478 366 pmosc 0;
#X obj 119 199 cos~;
#X obj 119 167 +~;
#X obj 120 273 outlet~;
#X obj 119 115 phasor~;
#X obj 119 86 inlet~;
#X obj 136 146 inlet~;
#X obj 160 199 inlet~;
#X obj 120 236 *~;
#X text 38 21 phase-modulation oscillator;
#X text 38 57 signal inlets: 1: freq \, 2: phase \, 3: amp;
#X connect 0 0 7 0;
#X connect 1 0 0 0;
#X connect 3 0 1 0;
#X connect 4 0 3 0;
#X connect 5 0 1 1;
#X connect 6 0 7 1;
#X connect 7 0 2 0;
#X restore 255 406 pd pmosc;
#N canvas 424 366 478 366 pmosc 0;
#X obj 119 199 cos~;
#X obj 119 167 +~;
#X obj 120 273 outlet~;
#X obj 119 115 phasor~;
#X obj 119 86 inlet~;
#X obj 136 146 inlet~;
#X obj 160 199 inlet~;
#X obj 120 236 *~;
#X text 38 21 phase-modulation oscillator;
#X text 38 57 signal inlets: 1: freq \, 2: phase \, 3: amp;
#X connect 0 0 7 0;
#X connect 1 0 0 0;
#X connect 3 0 1 0;
#X connect 4 0 3 0;
#X connect 5 0 1 1;
#X connect 6 0 7 1;
#X connect 7 0 2 0;
#X restore 146 364 pd pmosc;
#N canvas 424 366 478 366 pmosc 0;
#X obj 119 199 cos~;
#X obj 119 167 +~;
#X obj 120 273 outlet~;
#X obj 119 115 phasor~;
#X obj 119 86 inlet~;
#X obj 136 146 inlet~;
#X obj 160 199 inlet~;
#X obj 120 236 *~;
#X text 38 21 phase-modulation oscillator;
#X text 38 57 signal inlets: 1: freq \, 2: phase \, 3: amp;
#X connect 0 0 7 0;
#X connect 1 0 0 0;
#X connect 3 0 1 0;
#X connect 4 0 3 0;
#X connect 5 0 1 1;
#X connect 6 0 7 1;
#X connect 7 0 2 0;
#X restore 119 409 pd pmosc;
#X obj 118 229 mtof;
#X obj 117 533 outlet~;
#X obj 407 159 * 0.535887;
#X obj 677 159 * 0.108819;
#X obj 681 291 / 127;
#X obj 407 296 / 127;
#X obj 407 137 / 127;
#X obj 407 182 t a a;
#X obj 407 318 t a a;
#X obj 681 313 t a a;
#X obj 677 179 t a a;
#X obj 677 133 / 127;
#X obj 681 263 r \$0-vel;
#X obj 677 104 r \$0-vel;
#X obj 407 268 r \$0-vel;
#X obj 407 111 r \$0-vel;
#X obj 118 91 unpack 0 0;
#X obj 185 115 s \$0-vel;
#X obj 118 67 inlet;
#X text 701 523 + --> Out;
#X text 654 537 2->1--/;
#X text 535 523 Algorithm 5 is : 4->3--;
#X text 561 481 4-op FM Rhodey piano based on algorithm 5:;
#X text 320 381 op 4;
#X text 287 423 op 3;
#X text 154 427 op 1;
#X text 179 380 op 2;
#X text 801 226 op 4;
#X text 829 334 op 3;
#X text 582 340 op 1;
#X text 583 208 op 2;
#X obj 812 15 inlet;
#X text 112 41 Midi: <pitch> <velocity>;
#X text 542 580 Clone of the STK Rhodey;
#N canvas 29 43 450 300 vib 0;
#X obj 144 64 inlet~;
#X obj 145 210 outlet~;
#X obj 144 168 +~;
#X obj 200 95 osc~ 0;
#X obj 200 64 inlet;
#X obj 281 65 inlet;
#X obj 199 123 *~ 0;
#X connect 0 0 2 0;
#X connect 2 0 1 0;
#X connect 3 0 6 0;
#X connect 4 0 3 0;
#X connect 5 0 6 1;
#X connect 6 0 2 1;
#X restore 118 288 pd vib;
#X obj 200 503 pack 0 10;
#X obj 200 480 r \$0-tone;
#X obj 160 230 r \$0-vib-freq;
#X obj 172 253 r \$0-vib-depth;
#X obj 280 336 * 15;
#X obj 146 340 * 0.5;
#X obj 571 98 r \$0-adsr24;
#X obj 571 122 / 127;
#X obj 676 232 *~ 1;
#X obj 407 231 *~ 1;
#X obj 145 386 *~ 1;
#X obj 192 339 r \$0-mod;
#X obj 285 447 loadbang;
#X msg 285 469 0.5;
#X obj 489 183 r \$0-decay;
#X obj 489 311 r \$0-decay;
#X obj 118 503 mm_xfade2 f;
#X obj 407 344 mm_adsr 1 1 1500 0 40;
#X obj 407 209 mm_adsr 1 1 1500 0 40;
#X obj 677 207 mm_adsr 1 1 1000 0 40;
#X obj 681 340 mm_adsr 1 1 250 0 40;
#X obj 815 141 s \$0-vib-freq;
#X obj 850 208 s \$0-vib-depth;
#X obj 820 80 t b b b b;
#X obj 812 52 bang;
#X obj 815 113 random 16;
#X obj 842 163 random 100;
#X obj 844 184 / 100;
#X obj 872 244 random 100;
#X obj 873 267 / 100;
#X obj 874 291 s \$0-tone;
#X obj 907 319 random 100;
#X obj 907 339 / 100;
#X obj 908 360 s \$0-mod;
#X connect 0 0 1 1;
#X connect 1 0 55 1;
#X connect 2 0 49 0;
#X connect 3 0 55 0;
#X connect 4 0 38 0;
#X connect 4 0 43 0;
#X connect 4 0 44 0;
#X connect 6 0 11 0;
#X connect 7 0 14 0;
#X connect 8 0 13 0;
#X connect 9 0 12 0;
#X connect 10 0 6 0;
#X connect 11 0 57 0;
#X connect 11 1 57 1;
#X connect 12 0 56 0;
#X connect 12 1 56 1;
#X connect 13 0 59 0;
#X connect 13 1 59 1;
#X connect 14 0 58 0;
#X connect 14 1 58 1;
#X connect 15 0 7 0;
#X connect 16 0 8 0;
#X connect 17 0 15 0;
#X connect 18 0 9 0;
#X connect 19 0 10 0;
#X connect 20 0 4 0;
#X connect 20 1 21 0;
#X connect 22 0 20 0;
#X connect 35 0 63 0;
#X connect 38 0 3 0;
#X connect 38 0 1 0;
#X connect 39 0 55 2;
#X connect 40 0 39 0;
#X connect 41 0 38 1;
#X connect 42 0 38 2;
#X connect 43 0 0 0;
#X connect 44 0 2 0;
#X connect 45 0 46 0;
#X connect 46 0 47 1;
#X connect 46 0 48 1;
#X connect 47 0 0 2;
#X connect 48 0 2 2;
#X connect 49 0 3 1;
#X connect 50 0 49 1;
#X connect 51 0 52 0;
#X connect 52 0 39 0;
#X connect 53 0 57 3;
#X connect 54 0 56 3;
#X connect 55 0 5 0;
#X connect 56 0 3 2;
#X connect 57 0 48 0;
#X connect 58 0 47 0;
#X connect 59 0 1 2;
#X connect 62 0 64 0;
#X connect 62 1 65 0;
#X connect 62 2 67 0;
#X connect 62 3 70 0;
#X connect 63 0 62 0;
#X connect 64 0 60 0;
#X connect 65 0 66 0;
#X connect 66 0 61 0;
#X connect 67 0 68 0;
#X connect 68 0 69 0;
#X connect 70 0 71 0;
#X connect 71 0 72 0;
