#N canvas 227 23 1010 712 10;
#X obj 135 277 openpanel;
#X obj 131 158 bng 80 250 50 0 empty empty OPEN 5 -20 0 30 -262144
-1 -1;
#X obj 135 327 textfile_csv;
#X msg 134 301 read \$1;
#X obj 135 354 list trim;
#X obj 135 382 route sequence;
#X obj 158 989 outlet;
#X obj 234 542 outlet;
#X obj 215 453 f;
#X obj 344 461 t b f;
#X obj 146 620 list prepend set;
#X obj 147 646 list trim;
#X msg 147 670 36 0 0 0 0 0 0 0 36 0 0 0 0 0 0 0 33 0 0 0 0 0 0 0 33
0 0 0 0 0 0 0 29 0 0 0 0 0 0 0 31 0 0 0 0 0 0 0;
#X obj 181 668 list prepend set;
#X obj 182 694 list trim;
#X msg 182 718 24 26 28 31 36 38 40 43 24 26 28 31 36 38 40 43 33 35
36 40 45 47 48 52 33 35 36 40 33 35 36 40 29 31 33 36 41 43 45 48 31
33 35 38 43 45 47 50;
#X obj 214 720 list prepend set;
#X obj 215 746 list trim;
#X msg 215 770 36 38 40 43 48 50 52 55 36 38 40 43 48 50 52 55 45 47
48 52 57 59 60 64 45 47 48 52 45 47 48 52 41 43 45 48 53 55 57 60 43
45 47 50 55 57 59 62;
#X obj 249 768 list prepend set;
#X obj 250 794 list trim;
#X msg 250 818 48 50 52 55 60 62 64 67 48 50 52 55 60 62 64 67 57 59
60 64 69 71 72 76 57 59 60 64 57 59 60 64 53 55 57 60 65 67 69 72 55
57 59 62 67 69 71 74;
#X obj 286 823 list prepend set;
#X obj 287 849 list trim;
#X obj 319 875 list prepend set;
#X obj 320 901 list trim;
#X msg 320 925 0 0 0 0 90 0 0 0 0 0 0 0 90 0 0 0 0 0 0 0 90 0 0 0 0
0 0 0 90 0 0 0 0 0 0 0 90 0 0 0 0 0 0 0 90 0 0 0;
#X obj 354 923 list prepend set;
#X obj 355 949 list trim;
#X msg 355 973 90 0 90 0 90 0 90 0 90 0 90 0 90 0 90 0 90 0 90 0 90
0 90 0 90 0 90 0 90 0 90 0 90 0 90 0 90 0 90 0 90 0 90 0 90 0 90 0
;
#X msg 287 874 100 0 0 25 0 25 0 25 90 0 0 25 0 25 0 25 90 0 0 25 0
25 0 25 90 0 0 25 0 25 0 25 90 0 0 25 0 25 0 25 90 0 0 25 0 25 0 25
;
#X obj 144 566 route 0 1 2 3 4 5 6;
#X obj 214 407 route measures beats divisions swing length;
#X floatatom 419 464 5 0 0 0 - - -;
#X obj 132 27 inlet;
#X obj 288 563 sel 0 1 2 3 4 5 6;
#X obj 307 18 inlet;
#X obj 554 104 sel bass syn1 syn2 syn3 kick snr perc;
#X msg 552 138 0;
#X msg 578 164 1;
#X msg 601 186 2;
#X msg 614 211 3;
#X msg 645 235 4;
#X msg 666 261 5;
#X msg 682 286 6;
#X obj 232 511 pack f f f f f;
#X connect 0 0 3 0;
#X connect 1 0 0 0;
#X connect 2 0 4 0;
#X connect 3 0 2 0;
#X connect 4 0 5 0;
#X connect 5 0 31 0;
#X connect 5 1 32 0;
#X connect 8 0 45 0;
#X connect 9 0 8 0;
#X connect 9 1 45 4;
#X connect 10 0 11 0;
#X connect 11 0 12 0;
#X connect 12 0 6 0;
#X connect 13 0 14 0;
#X connect 14 0 15 0;
#X connect 15 0 6 0;
#X connect 16 0 17 0;
#X connect 17 0 18 0;
#X connect 18 0 6 0;
#X connect 19 0 20 0;
#X connect 20 0 21 0;
#X connect 21 0 6 0;
#X connect 22 0 23 0;
#X connect 23 0 30 0;
#X connect 24 0 25 0;
#X connect 25 0 26 0;
#X connect 26 0 6 0;
#X connect 27 0 28 0;
#X connect 28 0 29 0;
#X connect 29 0 6 0;
#X connect 30 0 6 0;
#X connect 31 0 10 0;
#X connect 31 1 13 0;
#X connect 31 2 16 0;
#X connect 31 3 19 0;
#X connect 31 4 22 0;
#X connect 31 5 24 0;
#X connect 31 6 27 0;
#X connect 32 0 8 1;
#X connect 32 1 45 1;
#X connect 32 2 45 2;
#X connect 32 3 45 3;
#X connect 32 4 9 0;
#X connect 34 0 1 0;
#X connect 35 0 12 0;
#X connect 35 1 15 0;
#X connect 35 2 18 0;
#X connect 35 3 21 0;
#X connect 35 4 30 0;
#X connect 35 5 26 0;
#X connect 35 6 29 0;
#X connect 36 0 35 0;
#X connect 37 0 38 0;
#X connect 45 0 7 0;
