#N canvas 273 140 480 477 10;
#X obj 90 4 inlet;
#X obj 148 100 f;
#X obj 173 100 + 1;
#X obj 175 126 s \$0-count;
#X obj 90 125 f;
#X obj 116 125 +;
#X obj 88 77 t f b b;
#X obj 116 147 s \$0-sum;
#X obj 178 215 r \$0-sum;
#X obj 204 242 r \$0-count;
#X obj 178 292 /;
#X obj 315 7 inlet;
#X obj 149 57 r \$0-reset;
#X msg 149 78 0;
#X obj 186 369 outlet;
#X obj 314 35 s \$0-reset;
#X connect 0 0 6 0;
#X connect 1 0 2 0;
#X connect 2 0 1 1;
#X connect 2 0 3 0;
#X connect 4 0 5 1;
#X connect 5 0 4 1;
#X connect 5 0 7 0;
#X connect 6 0 5 0;
#X connect 6 1 4 0;
#X connect 6 2 1 0;
#X connect 8 0 10 0;
#X connect 9 0 10 1;
#X connect 10 0 14 0;
#X connect 11 0 15 0;
#X connect 12 0 13 0;
#X connect 13 0 1 1;
#X connect 13 0 5 1;
#X connect 13 0 4 1;
