#N canvas 0 23 1440 851 10;
#X obj 283 169 inlet;
#X obj 651 187 inlet;
#X obj 647 251 f \$1;
#X obj 687 252 f \$2;
#X obj 284 197 t b;
#X obj 651 212 route min max seed;
#X obj 728 243 s \$0-seed;
#X obj 688 274 s \$0-max;
#X obj 649 300 s \$0-min;
#X obj 432 210 r \$0-min;
#X obj 370 181 r \$0-max;
#X obj 351 127 r \$0-seed;
#X msg 352 151 seed \$1;
#X obj 284 347 random;
#X obj 507 173 loadbang;
#X obj 507 197 t b b;
#X obj 370 237 f;
#X obj 370 265 -;
#X floatatom 369 299 5 0 0 0 - - -;
#X obj 286 427 +;
#X obj 313 398 r \$0-min;
#X obj 284 462 outlet;
#X obj 433 234 t b f;
#X connect 0 0 4 0;
#X connect 1 0 5 0;
#X connect 2 0 8 0;
#X connect 3 0 7 0;
#X connect 4 0 13 0;
#X connect 5 0 2 1;
#X connect 5 0 2 0;
#X connect 5 1 3 1;
#X connect 5 1 3 0;
#X connect 5 2 6 0;
#X connect 9 0 22 0;
#X connect 10 0 16 1;
#X connect 10 0 16 0;
#X connect 11 0 12 0;
#X connect 12 0 13 0;
#X connect 13 0 19 0;
#X connect 14 0 15 0;
#X connect 15 0 3 0;
#X connect 15 1 2 0;
#X connect 16 0 17 0;
#X connect 17 0 18 0;
#X connect 18 0 13 1;
#X connect 19 0 21 0;
#X connect 20 0 19 1;
#X connect 22 0 16 0;
#X connect 22 1 17 1;
