#N canvas 138 87 1440 851 10;
#X obj 260 733 inlet~;
#X obj 485 739 inlet~;
#X obj 747 745 inlet~;
#X obj 1185 776 inlet;
#X obj 526 1534 outlet~;
#X obj 597 1536 outlet~;
#X obj 767 816 r synthVolume;
#X obj 282 893 mm_scope~ synthScope1;
#X obj 525 895 mm_scope~ synthScope2;
#X obj 794 900 mm_scope~ synthScope3;
#X obj 261 791 *~ \$1;
#X obj 486 781 *~ \$2;
#X obj 1188 849 s \$0-detectedTempo;
#X msg 1185 827 tempo \$1;
#X obj 750 785 *~ \$3;
#X obj 661 1487 mm_scope~ synthScope;
#X obj 769 841 lop~ 1;
#X obj 753 866 *~;
#X obj 549 1438 mm_schorus~;
#X obj 506 806 r synthVolume;
#X obj 508 831 lop~ 1;
#X obj 492 856 *~;
#X obj 276 816 r synthVolume;
#X obj 278 841 lop~ 1;
#X obj 262 866 *~;
#X obj 617 1368 r \$0-detectedTempo;
#X obj 633 1402 r randomize1;
#X obj 1233 876 s \$0-seed;
#X obj 1184 805 route tempo seed;
#X obj 219 933 throw~ \$0-outL;
#X obj 276 959 throw~ \$0-outR;
#X obj 211 788 *~ \$1;
#X obj 212 863 *~;
#X obj 202 732 inlet~;
#X obj 431 739 inlet~;
#X obj 432 781 *~ \$2;
#X obj 438 856 *~;
#X obj 427 913 throw~ \$0-outL;
#X obj 484 939 throw~ \$0-outR;
#X obj 691 746 inlet~;
#X obj 694 786 *~ \$3;
#X obj 697 867 *~;
#X obj 690 923 throw~ \$0-outL;
#X obj 747 949 throw~ \$0-outR;
#X obj 550 1275 catch~ \$0-outL;
#X obj 595 1301 catch~ \$0-outR;
#X connect 0 0 10 0;
#X connect 1 0 11 0;
#X connect 2 0 14 0;
#X connect 3 0 28 0;
#X connect 6 0 16 0;
#X connect 10 0 24 0;
#X connect 11 0 21 0;
#X connect 13 0 12 0;
#X connect 14 0 17 0;
#X connect 16 0 17 1;
#X connect 16 0 41 1;
#X connect 17 0 9 0;
#X connect 17 0 43 0;
#X connect 18 0 4 0;
#X connect 18 0 15 0;
#X connect 18 1 5 0;
#X connect 18 1 15 0;
#X connect 19 0 20 0;
#X connect 20 0 21 1;
#X connect 21 0 8 0;
#X connect 21 0 38 0;
#X connect 22 0 23 0;
#X connect 23 0 24 1;
#X connect 23 0 32 1;
#X connect 24 0 7 0;
#X connect 24 0 30 0;
#X connect 25 0 18 2;
#X connect 26 0 18 2;
#X connect 28 0 13 0;
#X connect 28 1 27 0;
#X connect 31 0 32 0;
#X connect 32 0 7 0;
#X connect 32 0 29 0;
#X connect 33 0 31 0;
#X connect 34 0 35 0;
#X connect 35 0 36 0;
#X connect 36 0 8 0;
#X connect 36 0 37 0;
#X connect 39 0 40 0;
#X connect 40 0 41 0;
#X connect 41 0 9 0;
#X connect 41 0 42 0;
#X connect 44 0 18 0;
#X connect 45 0 18 1;
