#N canvas -101 23 1386 851 10;
#N canvas 621 248 450 300 square 0;
#X obj 28 205 *~;
#X obj 29 249 outlet~;
#X obj 119 -44 inlet;
#X obj 121 34 select 0 1;
#X obj 207 141 switch~;
#X obj 180 70 t b b;
#X msg 205 109 1;
#X msg 171 109 1;
#X obj 46 184 lop~ 1;
#X obj 113 70 t b b;
#X msg 138 109 0;
#X obj 104 90 del 30;
#X msg 104 109 0;
#X obj -110 94 expr~ if($v1<0.5 \, -1 \, 1);
#X obj -112 -4 inlet;
#X obj -110 47 phasor~;
#X connect 0 0 1 0;
#X connect 2 0 3 0;
#X connect 3 0 9 0;
#X connect 3 1 5 0;
#X connect 5 0 7 0;
#X connect 5 1 6 0;
#X connect 6 0 4 0;
#X connect 7 0 8 0;
#X connect 8 0 0 1;
#X connect 9 0 11 0;
#X connect 9 1 10 0;
#X connect 10 0 8 0;
#X connect 11 0 12 0;
#X connect 12 0 4 0;
#X connect 13 0 0 0;
#X connect 14 0 15 0;
#X connect 15 0 13 0;
#X restore -7 374 pd square;
#X obj 945 700 hip~ 5;
#X obj 947 828 outlet~;
#X obj 392 266 r~ theNoise;
#N canvas 398 211 874 565 sub1 0;
#X obj 58 45 inlet~;
#X obj 121 396 *~;
#X obj 122 440 outlet~;
#X obj 318 142 inlet;
#X obj 320 220 select 0 1;
#X obj 406 327 switch~;
#X obj 379 256 t b b;
#X msg 404 295 1;
#X msg 370 295 1;
#X obj 245 370 lop~ 1;
#X obj 312 256 t b b;
#X msg 337 295 0;
#X obj 303 276 del 30;
#X msg 303 295 0;
#X obj 168 239 t f f;
#X obj 106 349 *~;
#X obj 192 291 lop~ 1;
#X obj 84 158 vcf~;
#X obj 228 196 loadbang;
#X obj 193 265 * 1.8;
#X obj 105 47 inlet;
#X obj 168 187 inlet;
#X msg 227 223 160;
#X connect 0 0 17 0;
#X connect 1 0 2 0;
#X connect 3 0 4 0;
#X connect 4 0 10 0;
#X connect 4 1 6 0;
#X connect 6 0 8 0;
#X connect 6 1 7 0;
#X connect 7 0 5 0;
#X connect 8 0 9 0;
#X connect 9 0 1 1;
#X connect 10 0 12 0;
#X connect 10 1 11 0;
#X connect 11 0 9 0;
#X connect 12 0 13 0;
#X connect 13 0 5 0;
#X connect 14 0 17 2;
#X connect 14 1 19 0;
#X connect 15 0 1 0;
#X connect 16 0 15 1;
#X connect 17 0 15 0;
#X connect 18 0 22 0;
#X connect 19 0 16 0;
#X connect 20 0 17 1;
#X connect 21 0 14 0;
#X connect 22 0 14 0;
#X restore 392 372 pd sub1;
#N canvas 371 418 450 300 saw 0;
#X obj 27 -43 inlet;
#X obj 27 17 phasor~;
#X obj 170 165 *~;
#X obj 171 241 outlet~;
#X obj 240 -62 inlet;
#X obj 240 3 select 0 1;
#X obj 326 110 switch~;
#X obj 299 39 t b b;
#X msg 324 78 1;
#X msg 290 78 1;
#X obj 188 144 lop~ 1;
#X obj 232 39 t b b;
#X msg 257 78 0;
#X obj 223 59 del 30;
#X msg 223 78 0;
#X obj 300 149 \$0;
#X obj 302 188 print saw;
#X obj 120 49 phasor~;
#X obj 104 10 * 2;
#X obj 173 113 *~ 0.5;
#X obj 170 194 hip~ 5;
#X obj 27 46 *~ 2;
#X obj 27 70 -~ 1;
#X obj 121 70 *~ 2;
#X obj 121 94 -~ 1;
#X obj 171 217 *~ 0.2;
#X connect 0 0 1 0;
#X connect 0 0 18 0;
#X connect 1 0 21 0;
#X connect 2 0 20 0;
#X connect 4 0 5 0;
#X connect 5 0 11 0;
#X connect 5 1 7 0;
#X connect 5 1 15 0;
#X connect 7 0 9 0;
#X connect 7 1 8 0;
#X connect 8 0 6 0;
#X connect 9 0 10 0;
#X connect 10 0 2 1;
#X connect 11 0 13 0;
#X connect 11 1 12 0;
#X connect 12 0 10 0;
#X connect 13 0 14 0;
#X connect 14 0 6 0;
#X connect 15 0 16 0;
#X connect 17 0 23 0;
#X connect 18 0 17 0;
#X connect 19 0 2 0;
#X connect 20 0 25 0;
#X connect 21 0 22 0;
#X connect 22 0 2 0;
#X connect 23 0 24 0;
#X connect 24 0 19 0;
#X connect 25 0 3 0;
#X restore 573 374 pd saw;
#N canvas 378 177 901 641 sin1 0;
#X obj 248 165 inlet;
#X obj 250 243 select 0 1;
#X obj 336 350 switch~;
#X obj 309 279 t b b;
#X msg 334 318 1;
#X msg 300 318 1;
#X obj 174 439 lop~ 1;
#X obj 242 279 t b b;
#X msg 267 318 0;
#X obj 233 299 del 30;
#X msg 233 318 0;
#X obj 140 476 *~;
#X obj 135 238 osc~;
#X obj 143 576 outlet~;
#X obj 136 155 inlet;
#X obj 178 306 osc~;
#X obj 196 344 osc~;
#X obj 177 223 * 2;
#X obj 190 254 * 3;
#X obj 173 370 *~ 0.5;
#X obj 184 398 *~ 0.25;
#X obj 140 534 *~ 1.1;
#X connect 0 0 1 0;
#X connect 1 0 7 0;
#X connect 1 1 3 0;
#X connect 3 0 5 0;
#X connect 3 1 4 0;
#X connect 4 0 2 0;
#X connect 5 0 6 0;
#X connect 6 0 11 1;
#X connect 7 0 9 0;
#X connect 7 1 8 0;
#X connect 8 0 6 0;
#X connect 9 0 10 0;
#X connect 10 0 2 0;
#X connect 11 0 21 0;
#X connect 12 0 11 0;
#X connect 14 0 12 0;
#X connect 14 0 17 0;
#X connect 14 0 18 0;
#X connect 15 0 19 0;
#X connect 16 0 20 0;
#X connect 17 0 15 0;
#X connect 18 0 16 0;
#X connect 19 0 11 0;
#X connect 20 0 11 0;
#X connect 21 0 13 0;
#X restore 202 372 pd sin1;
#X obj 750 377 mm_string~;
#X obj 743 299 r~ theNoise;
#X obj 119 34 inlet;
#X obj 944 631 catch~ \$0-out1;
#X obj 120 63 s \$0-pitch1;
#X obj -10 236 r \$0-pitch1;
#X obj 200 218 r \$0-pitch1;
#X obj 204 405 throw~ \$0-out1;
#X obj -7 405 throw~ \$0-out1;
#X obj -68 611 throw~ \$0-out1;
#X obj -66 488 r \$0-pitch1;
#X obj 404 294 r \$0-pitch1;
#X obj 417 320 r \$0-sub1Q;
#X obj 572 405 throw~ \$0-out1;
#X obj 573 302 r \$0-pitch1;
#X obj 62 348 == 0;
#X obj 264 329 r \$0-wave1;
#X obj 263 357 == 1;
#X obj 483 353 == 2;
#X obj 854 294 r \$0-wave1;
#X msg 853 344 switch \$1;
#X obj 940 388 mm_xylo~;
#X obj 962 249 r \$0-pitch1;
#X msg 1038 272 switch \$1;
#X msg 1006 360 decay \$1;
#X msg 814 266 length \$1;
#X obj 818 191 * 0.01;
#X obj 815 216 *;
#X obj 814 241 * 100;
#X obj 943 221 r~ theNoise;
#X obj 1021 828 outlet~;
#X obj 652 361 == 3;
#X obj 854 320 == 4;
#X obj 1039 248 == 5;
#X msg 9 537 switch \$1;
#X obj 9 510 == 6;
#X obj 82 613 throw~ \$0-out1;
#X obj 84 490 r \$0-pitch1;
#X msg 163 533 switch \$1;
#X obj 163 506 == 7;
#X obj 238 607 throw~ \$0-out1;
#X obj 304 507 r \$0-wave1;
#X msg 306 556 switch \$1;
#X obj 306 529 == 8;
#X obj 398 605 throw~ \$0-out1;
#X obj 400 482 r \$0-pitch1;
#X msg 466 554 switch \$1;
#X obj 466 527 == 9;
#X obj -66 558 mm_blsine~;
#X obj -63 787 throw~ \$0-out1;
#X obj -61 664 r \$0-pitch1;
#X msg 5 736 switch \$1;
#X obj 117 783 throw~ \$0-out1;
#X msg 198 710 switch \$1;
#X obj 78 566 mm_blsaw~;
#X obj 234 580 mm_bltri~;
#X obj 399 570 mm_blsq4~;
#X obj -60 756 mm_blsq12~;
#X obj 125 739 mm_am~;
#X obj 304 781 throw~ \$0-out1;
#X obj 306 658 r \$0-pitch1;
#X msg 372 730 switch \$1;
#X obj 303 729 mm_pulse~;
#X obj 526 786 throw~ \$0-out1;
#X obj 520 619 r \$0-pitch1;
#X msg 604 733 switch \$1;
#X obj 529 736 mm_fm~;
#X obj 542 654 r \$0-mf;
#X obj 551 679 r \$0-ma;
#X obj 5 709 == 10;
#X obj 198 683 == 11;
#X obj 372 703 == 12;
#X obj 604 706 == 13;
#X obj 945 662 *~ 1.1;
#X obj 97 446 s \$0-theWave;
#X msg 95 427 square;
#X obj 94 404 sel 1;
#X obj 305 438 s \$0-theWave;
#X obj 302 396 sel 1;
#X msg 303 419 sine;
#X obj 498 442 s \$0-theWave;
#X obj 495 400 sel 1;
#X msg 496 423 subtractive;
#X obj 664 467 s \$0-theWave;
#X obj 675 416 sel 1;
#X msg 676 439 saw;
#X obj 848 459 s \$0-theWave;
#X msg 846 440 string;
#X obj 1081 455 s \$0-theWave;
#X msg 1079 436 xylo;
#X obj 556 577 s \$0-theWave;
#X obj 336 633 s \$0-theWave;
#X obj 164 626 s \$0-theWave;
#X msg 334 614 bl_triangle;
#X msg 162 607 bl_saw;
#X obj 0 611 s \$0-theWave;
#X msg -2 592 bl_sine;
#X msg 554 558 bl_square4;
#X obj 42 811 s \$0-theWave;
#X msg 40 792 bl_square12;
#X obj 845 417 sel 1;
#X obj 1078 413 sel 1;
#X obj -3 569 sel 1;
#X obj 161 584 sel 1;
#X obj 333 591 sel 1;
#X obj 553 535 sel 1;
#X obj 39 769 sel 1;
#X obj 225 801 s \$0-theWave;
#X obj 222 759 sel 1;
#X obj 408 802 s \$0-theWave;
#X obj 405 760 sel 1;
#X msg 223 782 AM;
#X msg 406 783 pulse;
#X obj 661 800 s \$0-theWave;
#X obj 658 758 sel 1;
#X msg 659 781 FM;
#X obj 751 421 *~ 0.8;
#X obj 1101 555 loadbang;
#X obj 1066 618 mm_compressor;
#X obj 387 462 throw~ \$0-out1_compression;
#X obj 1068 528 catch~ \$0-out1_compression;
#X obj 752 496 throw~ \$0-out1_compression;
#X obj 940 487 throw~ \$0-out1_compression;
#X obj 1069 642 *~ 1.4;
#X obj 1057 666 r \$0-wave1;
#X obj 1056 691 == 5;
#X obj 1081 740 swap 1;
#X obj 1054 718 t f f;
#X obj 1081 761 -;
#X obj 945 775 *~;
#X obj 963 751 lop~ 1;
#X obj 1003 790 *~;
#X obj 1081 784 lop~ 1;
#X obj 306 199 r \$0-wave2;
#X obj 306 224 == 0;
#X obj 304 255 sel 1;
#X msg 305 280 1;
#X obj 342 63 s $O-wave2;
#X obj 345 31 inlet;
#X obj 65 319 r \$0-wave2;
#X obj 486 324 r \$0-wave2;
#X obj 655 332 r \$0-wave2;
#X obj 771 322 r \$0-pitch2;
#X obj 1039 222 r \$0-wave2;
#X msg 1006 322 150;
#X obj 1003 299 loadbang;
#X obj 7 488 r \$0-wave2;
#X obj 161 484 r \$0-wave2;
#X obj 240 484 r \$0-pitch1;
#X obj 464 505 r \$0-wave2;
#X obj 3 687 r \$0-wave2;
#X obj 196 661 r \$0-wave2;
#X obj 119 660 r \$0-pitch1;
#X obj 370 681 r \$0-wave2;
#X obj 602 684 r \$0-wave2;
#X msg 824 140 0.5;
#X obj 822 92 loadbang;
#X obj 943 433 *~ 1.5;
#X msg 1100 586 switch 1 \, threshold 90 \, ratio 5;
#X connect 0 0 15 0;
#X connect 1 0 136 0;
#X connect 1 0 138 0;
#X connect 3 0 4 0;
#X connect 4 0 126 0;
#X connect 5 0 20 0;
#X connect 6 0 14 0;
#X connect 7 0 123 0;
#X connect 8 0 7 0;
#X connect 9 0 11 0;
#X connect 10 0 80 0;
#X connect 12 0 0 0;
#X connect 13 0 6 0;
#X connect 17 0 55 0;
#X connect 18 0 4 1;
#X connect 19 0 4 2;
#X connect 21 0 5 0;
#X connect 22 0 0 1;
#X connect 22 0 83 0;
#X connect 23 0 24 0;
#X connect 24 0 6 1;
#X connect 24 0 85 0;
#X connect 25 0 4 3;
#X connect 25 0 88 0;
#X connect 26 0 39 0;
#X connect 27 0 7 2;
#X connect 28 0 164 0;
#X connect 29 0 28 1;
#X connect 30 0 28 2;
#X connect 31 0 28 2;
#X connect 32 0 7 2;
#X connect 33 0 34 1;
#X connect 33 0 34 0;
#X connect 34 0 35 0;
#X connect 35 0 32 0;
#X connect 36 0 28 0;
#X connect 38 0 5 1;
#X connect 38 0 91 0;
#X connect 39 0 27 0;
#X connect 39 0 107 0;
#X connect 40 0 30 0;
#X connect 40 0 108 0;
#X connect 41 0 55 1;
#X connect 42 0 41 0;
#X connect 42 0 109 0;
#X connect 44 0 61 0;
#X connect 45 0 61 1;
#X connect 46 0 45 0;
#X connect 46 0 110 0;
#X connect 48 0 50 0;
#X connect 49 0 62 1;
#X connect 50 0 49 0;
#X connect 50 0 111 0;
#X connect 52 0 63 0;
#X connect 53 0 63 1;
#X connect 54 0 53 0;
#X connect 54 0 112 0;
#X connect 55 0 16 0;
#X connect 57 0 64 0;
#X connect 58 0 64 1;
#X connect 60 0 65 1;
#X connect 61 0 43 0;
#X connect 62 0 47 0;
#X connect 63 0 51 0;
#X connect 64 0 56 0;
#X connect 65 0 59 0;
#X connect 67 0 69 0;
#X connect 68 0 69 1;
#X connect 69 0 66 0;
#X connect 71 0 73 0;
#X connect 72 0 73 3;
#X connect 73 0 70 0;
#X connect 74 0 73 1;
#X connect 75 0 73 2;
#X connect 76 0 58 0;
#X connect 76 0 113 0;
#X connect 77 0 60 0;
#X connect 77 0 115 0;
#X connect 78 0 68 0;
#X connect 78 0 117 0;
#X connect 79 0 72 0;
#X connect 79 0 121 0;
#X connect 80 0 1 0;
#X connect 82 0 81 0;
#X connect 83 0 82 0;
#X connect 85 0 86 0;
#X connect 86 0 84 0;
#X connect 88 0 89 0;
#X connect 89 0 87 0;
#X connect 91 0 92 0;
#X connect 92 0 90 0;
#X connect 94 0 93 0;
#X connect 96 0 95 0;
#X connect 100 0 98 0;
#X connect 101 0 99 0;
#X connect 103 0 102 0;
#X connect 104 0 97 0;
#X connect 106 0 105 0;
#X connect 107 0 94 0;
#X connect 108 0 96 0;
#X connect 109 0 103 0;
#X connect 110 0 101 0;
#X connect 111 0 100 0;
#X connect 112 0 104 0;
#X connect 113 0 106 0;
#X connect 115 0 118 0;
#X connect 117 0 119 0;
#X connect 118 0 114 0;
#X connect 119 0 116 0;
#X connect 121 0 122 0;
#X connect 122 0 120 0;
#X connect 123 0 128 0;
#X connect 124 0 165 0;
#X connect 125 0 130 0;
#X connect 127 0 125 0;
#X connect 130 0 1 0;
#X connect 131 0 132 0;
#X connect 132 0 134 0;
#X connect 133 0 135 0;
#X connect 133 1 135 1;
#X connect 134 0 137 0;
#X connect 134 1 133 0;
#X connect 135 0 139 0;
#X connect 136 0 2 0;
#X connect 137 0 136 1;
#X connect 138 0 37 0;
#X connect 139 0 138 1;
#X connect 140 0 141 0;
#X connect 141 0 142 0;
#X connect 142 0 143 0;
#X connect 143 0 6 1;
#X connect 145 0 144 0;
#X connect 146 0 22 0;
#X connect 147 0 25 0;
#X connect 148 0 38 0;
#X connect 149 0 7 1;
#X connect 150 0 40 0;
#X connect 151 0 31 0;
#X connect 152 0 151 0;
#X connect 153 0 42 0;
#X connect 154 0 46 0;
#X connect 155 0 62 0;
#X connect 156 0 54 0;
#X connect 157 0 76 0;
#X connect 158 0 77 0;
#X connect 159 0 65 0;
#X connect 160 0 78 0;
#X connect 161 0 79 0;
#X connect 162 0 33 0;
#X connect 163 0 162 0;
#X connect 164 0 129 0;
#X connect 165 0 125 1;
