#N canvas 67 23 1440 757 10;
#X obj 347 333 tabwrite~ \$0-sampler;
#X obj 405 66 sel 0 1;
#X obj 561 117 s \$0-startSampling;
#X obj 406 115 s \$0-stopSampling;
#X obj 232 246 r \$0-startSampling;
#X obj 235 300 timer;
#X obj 404 40 spigot;
#X obj 447 -125 r \$0-arm;
#X obj 750 -23 s \$0-arm;
#X obj 240 499 t f b;
#X obj 270 543 samplerate~;
#X obj 237 588 * 0.001;
#X obj 237 613 *;
#X obj 348 -129 inlet~;
#X obj 758 -113 inlet;
#X obj 358 1188 outlet~;
#X obj 373 763 vline~;
#X obj 385 176 r \$0-startSampling;
#X obj 398 202 r \$0-stopSampling;
#X msg 423 265 stop;
#X obj 421 359 \$0;
#X msg 372 733 0 \, 0 3500;
#X obj 262 269 r \$0-stopSampling;
#X obj 316 634 bng 15 250 50 0 empty empty empty 17 7 0 10 -262144
-1 -1;
#X obj 403 539 r \$0-play;
#X obj 790 7 s \$0-play;
#X obj 237 708 pack f f;
#X msg 239 792 add2 \$1 \$2;
#X obj 367 896 *~;
#X obj 508 871 vline~;
#X obj 291 467 s \$0-duration;
#X msg 528 811 1 30 \, 0 30 3470;
#X msg 566 732 addcomma;
#X obj 550 653 r \$0-duration;
#X obj 551 679 t f b b b b;
#X obj 501 896 *~;
#X obj 404 602 t b b;
#X msg 858 -110 play;
#X obj 829 38 s \$0-timebase;
#X obj 868 68 s \$0-edge;
#X obj 493 -57 r \$0-edge;
#X obj 816 866 outlet;
#X obj 816 812 r \$0-stopSampling;
#X msg 506 7 1;
#X msg 538 5 reset;
#X msg 451 39 0;
#X obj 431 146 bng 15 250 50 0 empty empty empty 17 7 0 10 -262144
-1 -1;
#X obj 399 146 bng 15 250 50 0 empty empty empty 17 7 0 10 -262144
-1 -1;
#X msg 901 -114 arm;
#X floatatom 361 2 5 0 0 0 - - -;
#X obj 888 103 s \$0-tempo;
#X obj 960 125 s \$0-beats;
#X obj 1038 -20 s \$0-clear;
#X obj 1206 123 r \$0-clear;
#X obj 1208 162 \$0;
#X msg 1209 192 \; \$1-sampler const 0;
#X obj 508 -24 t b b b;
#X obj 600 94 s \$0-clear;
#X obj 564 67 t b b;
#X floatatom 156 428 5 0 0 0 - - -;
#X obj 961 -15 bng 15 250 50 0 empty empty empty 17 7 0 10 -262144
-1 -1;
#X msg 307 881 addcomma;
#X obj 232 327 t f f;
#X obj 236 638 int;
#X obj 282 641 int;
#X obj 282 669 t b f;
#X obj 263 421 t f f;
#X floatatom 177 334 5 0 0 0 - - -;
#N canvas 104 85 829 687 tempo 0;
#X obj 370 13 r \$0-tempo;
#X obj 371 38 swap 60000;
#X obj 372 66 /;
#X msg 455 3 120;
#X floatatom 396 -38 5 0 0 0 - - -;
#X floatatom 267 652 5 0 0 0 - - -;
#X obj 456 -30 loadbang;
#X obj 288 289 outlet;
#X obj 391 183 * 1;
#X obj 412 112 r \$0-beats;
#X obj 413 153 t b f;
#X floatatom 500 130 5 0 0 0 - - -;
#X floatatom 457 178 5 0 0 0 - - -;
#X floatatom 451 75 5 0 0 0 - - -;
#X obj 381 122 f;
#X obj 286 255 f;
#X obj 270 -13 inlet;
#X obj 269 14 t b;
#X connect 0 0 1 0;
#X connect 0 0 13 0;
#X connect 1 0 2 0;
#X connect 1 1 2 1;
#X connect 2 0 14 1;
#X connect 2 0 14 0;
#X connect 3 0 1 0;
#X connect 6 0 3 0;
#X connect 8 0 15 1;
#X connect 8 0 15 0;
#X connect 9 0 10 0;
#X connect 9 0 12 0;
#X connect 10 0 14 0;
#X connect 10 1 8 1;
#X connect 11 0 10 0;
#X connect 14 0 8 0;
#X connect 15 0 7 0;
#X connect 16 0 17 0;
#X connect 17 0 15 0;
#X restore 262 385 pd tempo;
#X obj 665 212 samplerate~;
#X obj 645 234 /;
#X obj 644 257 * 1000;
#X obj 599 277 del;
#X obj 615 157 t b b b b;
#X obj 401 227 t b b b;
#X msg 596 304 stop;
#X obj 559 327 spigot;
#X msg 613 189 1;
#X msg 458 265 0;
#X msg 597 708 set;
#X msg 532 776 add2 0 30 \$1;
#X msg 554 752 add2 1 30;
#X obj 533 721 - 30;
#N canvas 567 223 566 465 reverse 0;
#X obj -61 -64 inlet;
#X obj 145 175 unpack f f;
#X obj 235 27 inlet;
#X obj 78 432 outlet;
#X obj 210 433 outlet;
#X obj 198 241 s \$0-second;
#X obj 142 274 s \$0-first;
#X obj 143 149 spigot;
#X obj 236 84 s \$0-direction;
#X obj 176 112 r \$0-direction;
#X obj -55 70 s \$0-inputList;
#X obj -36 188 spigot;
#X obj 3 117 r \$0-direction;
#X obj 2 144 swap 1;
#X obj 10 165 -;
#X obj 296 18 loadbang;
#X msg 296 39 0;
#X msg 15 253 0;
#X obj 15 276 s \$0-first;
#X obj -37 304 s \$0-second;
#X obj -32 95 r \$0-inputList;
#X obj 129 84 r \$0-inputList;
#X obj 211 375 r \$0-first;
#X obj 76 374 r \$0-second;
#X obj 310 107 s \$0-readList;
#X obj 236 49 t b f;
#X obj 41 8 r \$0-readList;
#X msg -23 36 0 3500;
#X obj -23 -19 list prepend set;
#X obj -23 6 list trim;
#X obj 198 218 pack 0 f;
#X obj 212 196 t b a;
#X obj -36 218 t b a;
#X connect 0 0 10 0;
#X connect 0 0 28 0;
#X connect 1 0 6 0;
#X connect 1 1 31 0;
#X connect 2 0 25 0;
#X connect 7 0 1 0;
#X connect 9 0 7 1;
#X connect 11 0 32 0;
#X connect 12 0 13 0;
#X connect 13 0 14 0;
#X connect 13 1 14 1;
#X connect 14 0 11 1;
#X connect 15 0 16 0;
#X connect 16 0 25 0;
#X connect 17 0 18 0;
#X connect 20 0 11 0;
#X connect 21 0 7 0;
#X connect 22 0 4 0;
#X connect 23 0 3 0;
#X connect 25 0 24 0;
#X connect 25 1 8 0;
#X connect 26 0 27 0;
#X connect 27 0 10 0;
#X connect 28 0 29 0;
#X connect 29 0 27 0;
#X connect 30 0 5 0;
#X connect 31 0 30 0;
#X connect 31 1 30 1;
#X connect 32 0 17 0;
#X connect 32 1 19 0;
#X restore 238 736 pd reverse;
#X obj 393 705 tgl 15 0 empty empty empty 17 7 0 10 -262144 -1 -1 1
1;
#X msg 327 854 set \$1;
#X obj 133 824 list prepend set;
#X obj 133 848 list trim;
#X msg 132 875 add2 0 3500;
#X obj 295 831 t b b f;
#X obj 1078 71 s \$0-toDirection;
#X obj 376 651 r \$0-toDirection;
#X obj 1077 44 == 0;
#X obj 962 15 random 8;
#X obj 1055 197 + 1;
#X obj 1053 267 s \$0-pow;
#X obj 1105 201 loadbang;
#X msg 1106 224 1;
#X obj 1042 133 random 2;
#X obj 438 694 r \$0-sliceRead;
#X obj 491 841 r \$0-sliceEnv;
#X obj 386 816 s~ \$0-tableOut;
#X obj 756 -88 route arm play timebase edge tempo beats randomize clear
slice;
#X obj 1056 -48 s \$0-slice;
#N canvas 176 86 1440 754 slicer 0;
#X obj 175 535 outlet;
#X obj 178 560 inlet~;
#X obj 177 693 bonk~;
#X obj 822 741 timer;
#X obj 820 586 r \$0-beginSlicing;
#X obj 281 929 s \$0-newSlice;
#X obj 851 717 r \$0-newSlice;
#X obj 822 765 s \$0-sliceStartTime;
#X obj 43 644 r \$0-sliceStartTime;
#X obj 261 974 s \$0-sliceDuration;
#X obj -28 570 r \$0-sliceDuration;
#X obj 844 693 s \$0-resetCounter;
#X obj 327 948 s \$0-incrementCounter;
#X obj 449 604 r \$0-incrementCounter;
#X obj 483 641 r \$0-resetCounter;
#X obj 452 699 f;
#X obj 484 700 + 1;
#X msg 484 672 0;
#X obj 468 730 s \$0-sliceIndex;
#X obj 71 669 r \$0-sliceIndex;
#X obj 13 695 pack f f f;
#X obj 11 728 s \$0-sliceInfo;
#X obj 858 652 s \$0-clearBuffer;
#X obj -31 54 table \$0-sliceBuffer 100;
#X msg 622 703 \; \$1-sliceBuffer const 0 \;;
#X obj 623 672 \$0;
#X obj 622 642 r \$0-clearBuffer;
#X obj 1152 -14 r \$0-sliceInfo;
#X obj 1169 158 tabwrite \$0-sliceBuffer;
#X obj 1152 17 unpack f f f;
#X obj 1238 47 * 2;
#X obj 1229 91 f;
#X obj 1194 90 f;
#X obj 1193 115 + 1;
#X obj 1188 44 t f b;
#X obj 1151 45 t f b;
#X obj 701 -113 r \$0-readSlice;
#X obj 726 232 tabread \$0-sliceBuffer;
#X obj 821 624 t b b b;
#X obj 705 138 * 2;
#X msg 720 400 add2 \$1;
#X msg 693 475 15993 15993 \,;
#X msg 708 379 addcomma;
#X msg 737 425 set;
#X obj 1047 641 inlet;
#X obj 1044 695 s \$0-beginSlicing;
#X obj 1089 719 s \$0-readSlice;
#X obj 726 255 t f b;
#X obj 749 277 samplerate~;
#X obj 721 319 *;
#X obj 721 344 int;
#X obj 692 503 s \$0-playSlice;
#X obj 273 235 outlet;
#X obj 750 -81 r \$0-sliceIndex;
#X obj 702 -35 random;
#X obj 198 41 r \$0-playSlice;
#X obj 676 344 t b b;
#X obj 198 91 t a a b;
#X obj 277 146 samplerate~;
#X msg 219 169 \$2;
#X obj 262 206 /;
#X obj 231 620 loadbang;
#X obj 185 238 unpack f f;
#X obj 209 296 +;
#X obj 184 262 t f f;
#X obj 179 329 pack f f f;
#X msg 175 493 15993 \, 31986 362;
#X msg 223 398 addcomma;
#X msg 207 418 add2 \$2;
#X msg 187 448 add2 \$3;
#X obj 725 205 + 1;
#X obj 703 177 t b f f f;
#X obj 256 265 int;
#X obj 267 724 r \$0-clearBuffer;
#X obj 1046 669 route begin play sample;
#X obj 326 470 list trim;
#X obj 179 352 t b a a b a b;
#X obj 329 444 list append;
#X msg 240 376 set \$1;
#X obj 1138 749 s \$0-sampleToSlice;
#X obj 391 356 r \$0-sampleToSlice;
#X msg 329 414 1 set;
#X obj 328 496 list split 1;
#X obj 360 520 list trim;
#X obj 361 544 outlet;
#X obj 705 100 t f b b;
#X floatatom 762 -47 5 0 0 0 - - -;
#N canvas 363 264 450 300 db 0;
#X obj 86 8 inlet;
#X obj 87 237 outlet;
#X obj 87 51 spigot;
#X obj 87 94 t b b b;
#X msg 140 50 0;
#X obj 107 128 del 100;
#X msg 107 153 1;
#X obj 188 20 loadbang;
#X msg 186 43 1;
#X connect 0 0 2 0;
#X connect 2 0 3 0;
#X connect 3 0 1 0;
#X connect 3 1 5 0;
#X connect 3 2 4 0;
#X connect 4 0 2 1;
#X connect 5 0 6 0;
#X connect 6 0 2 1;
#X connect 7 0 8 0;
#X connect 8 0 2 1;
#X restore 203 726 pd db;
#X obj 177 617 *~;
#X obj 235 597 lop~ 1;
#X obj 233 554 r \$0-beginSlicing;
#X msg 234 576 1;
#X obj 288 575 r \$0-readSlice;
#X msg 288 600 0;
#X obj 748 298 * 0.001;
#X obj 277 167 * 0.001;
#X obj -27 622 moses 1;
#X floatatom 218 214 5 0 0 0 - - -;
#X floatatom 299 261 5 0 0 0 - - -;
#X floatatom 37 606 5 0 0 0 - - -;
#X obj 203 749 t b b;
#X obj 203 773 timer;
#X obj 202 795 t f f f;
#X obj 242 819 > 100;
#X obj 221 846 < 2000;
#X obj 228 871 &&;
#X obj 189 895 spigot;
#X obj 238 899 t b f b b;
#X msg 230 658 minvel 50;
#X msg 327 663 minvel \$1;
#X obj 325 629 r theAvgDB;
#X connect 1 0 88 0;
#X connect 2 1 87 0;
#X connect 3 0 7 0;
#X connect 4 0 38 0;
#X connect 6 0 3 1;
#X connect 8 0 20 1;
#X connect 10 0 96 0;
#X connect 10 0 99 0;
#X connect 13 0 15 0;
#X connect 14 0 17 0;
#X connect 15 0 16 0;
#X connect 15 0 18 0;
#X connect 16 0 15 1;
#X connect 17 0 15 1;
#X connect 19 0 20 2;
#X connect 20 0 21 0;
#X connect 25 0 24 0;
#X connect 26 0 25 0;
#X connect 27 0 29 0;
#X connect 29 0 35 0;
#X connect 29 1 34 0;
#X connect 29 2 30 0;
#X connect 30 0 31 1;
#X connect 30 0 32 1;
#X connect 31 0 28 1;
#X connect 32 0 33 0;
#X connect 33 0 28 1;
#X connect 34 0 28 0;
#X connect 34 1 31 0;
#X connect 35 0 28 0;
#X connect 35 1 32 0;
#X connect 36 0 54 0;
#X connect 37 0 47 0;
#X connect 38 0 3 0;
#X connect 38 1 11 0;
#X connect 38 2 22 0;
#X connect 39 0 71 0;
#X connect 40 0 41 0;
#X connect 41 0 51 0;
#X connect 42 0 41 0;
#X connect 43 0 41 0;
#X connect 44 0 74 0;
#X connect 47 0 49 0;
#X connect 47 1 48 0;
#X connect 48 0 94 0;
#X connect 49 0 50 0;
#X connect 50 0 40 0;
#X connect 53 0 54 1;
#X connect 53 0 86 0;
#X connect 54 0 85 0;
#X connect 55 0 57 0;
#X connect 56 0 41 0;
#X connect 56 1 42 0;
#X connect 57 0 62 0;
#X connect 57 1 59 0;
#X connect 57 2 58 0;
#X connect 58 0 95 0;
#X connect 59 0 60 0;
#X connect 59 0 97 0;
#X connect 60 0 52 0;
#X connect 60 0 72 0;
#X connect 60 0 98 0;
#X connect 61 0 108 0;
#X connect 62 0 64 0;
#X connect 62 1 63 1;
#X connect 63 0 65 1;
#X connect 64 0 65 0;
#X connect 64 1 63 0;
#X connect 65 0 76 0;
#X connect 66 0 0 0;
#X connect 67 0 66 0;
#X connect 68 0 66 0;
#X connect 69 0 66 0;
#X connect 70 0 37 0;
#X connect 71 0 56 0;
#X connect 71 1 70 0;
#X connect 71 2 37 0;
#X connect 72 0 65 2;
#X connect 73 0 101 0;
#X connect 74 0 45 0;
#X connect 74 1 46 0;
#X connect 74 2 79 0;
#X connect 75 0 82 0;
#X connect 76 0 66 0;
#X connect 76 1 69 0;
#X connect 76 2 68 0;
#X connect 76 3 67 0;
#X connect 76 4 78 0;
#X connect 76 5 81 0;
#X connect 77 0 75 0;
#X connect 78 0 66 0;
#X connect 80 0 77 1;
#X connect 81 0 77 0;
#X connect 82 1 83 0;
#X connect 83 0 84 0;
#X connect 85 0 39 0;
#X connect 85 1 43 0;
#X connect 87 0 100 0;
#X connect 88 0 2 0;
#X connect 89 0 88 1;
#X connect 90 0 91 0;
#X connect 91 0 89 0;
#X connect 92 0 93 0;
#X connect 93 0 89 0;
#X connect 94 0 49 1;
#X connect 95 0 60 1;
#X connect 96 1 20 0;
#X connect 100 0 101 0;
#X connect 100 1 101 1;
#X connect 101 0 102 0;
#X connect 102 0 106 0;
#X connect 102 1 104 0;
#X connect 102 2 103 0;
#X connect 103 0 105 1;
#X connect 104 0 105 0;
#X connect 105 0 106 1;
#X connect 106 0 107 0;
#X connect 107 1 9 0;
#X connect 107 2 5 0;
#X connect 107 3 12 0;
#X connect 108 0 2 0;
#X connect 109 0 2 0;
#X connect 110 0 109 0;
#X restore 944 435 pd slicer;
#X obj 995 367 r \$0-play;
#X msg 996 400 begin;
#X msg 1009 707 0 5 \, 1 10 \, 0 10 91.0998;
#X msg 1046 627 addcomma;
#X obj 1028 581 t f b b b b;
#X obj 1027 548 r \$0-sliceDuration;
#X obj 983 495 s \$0-sliceDuration;
#X obj 944 469 t a b;
#X obj 1045 524 s \$0-setSlice;
#X obj 1119 342 r \$0-doSlice;
#X msg 1055 402 play;
#X obj 939 522 s \$0-sliceRead;
#X obj 1009 732 s \$0-sliceEnv;
#X obj 933 287 r~ \$0-tableOut;
#X msg 1097 610 set 0 5;
#X msg 1046 651 add2 1 10;
#X msg 1008 679 add2 0 10 \$1;
#X obj 1012 630 - 25;
#X obj 981 94 + 4;
#X obj 372 789 tabread~ \$0-sampler;
#X obj 355 1157 hip~ 5;
#X obj 500 918 *~;
#X obj 1121 377 r \$0-stopSampling;
#X msg 1120 404 1;
#X obj 1096 426 spigot;
#X obj 1162 402 r \$0-startSampling;
#X msg 1165 428 0;
#X obj 1163 -64 table \$0-sampler 176400;
#X msg 654 185 176400;
#X msg 447 -105 on;
#X obj 517 -127 r \$0-stopSampling;
#X msg 515 -107 off;
#X msg 475 -94 0;
#X msg 550 -93 1;
#X obj 577 -71 s \$0-toVocoder;
#X obj 1112 812 r \$0-toSampler;
#X obj 1112 852 outlet;
#X obj 904 129 / 30;
#X obj 903 152 + 0.5;
#X obj 902 176 int;
#X floatatom 902 196 5 0 0 0 - - -;
#X floatatom 810 109 5 0 0 0 - - -;
#X obj 978 43 f;
#X obj 900 218 t b f;
#X obj 1053 19 random 2;
#X msg 469 1061 0 10 \, 1 \$1 10;
#X obj 569 925 random 10;
#X obj 570 953 < 3;
#X obj 569 977 sel 1;
#X obj 470 1034 f 0;
#X obj 443 1084 vline~;
#X obj 448 1112 *~;
#X obj 350 1130 *~;
#X obj 706 920 t f b;
#X obj 736 978 + 1;
#X obj 705 1004 *;
#X obj 740 943 random 4;
#X obj 349 -70 mm_noisecancel~;
#X obj 404 -21 mm_edge_detect~ 35 20;
#X msg 421 381 \; \$1-sampler normalize 1;
#X obj 704 849 r msPerBeat;
#X connect 1 0 3 0;
#X connect 1 0 45 0;
#X connect 1 0 47 0;
#X connect 1 1 46 0;
#X connect 1 1 58 0;
#X connect 4 0 5 0;
#X connect 5 0 62 0;
#X connect 5 0 67 0;
#X connect 6 0 1 0;
#X connect 7 0 134 0;
#X connect 7 0 137 0;
#X connect 9 0 11 0;
#X connect 9 1 10 0;
#X connect 10 0 12 1;
#X connect 11 0 12 0;
#X connect 12 0 63 0;
#X connect 13 0 162 0;
#X connect 13 0 163 0;
#X connect 14 0 102 0;
#X connect 16 0 124 0;
#X connect 17 0 0 0;
#X connect 18 0 74 0;
#X connect 19 0 0 0;
#X connect 20 0 164 0;
#X connect 21 0 16 0;
#X connect 22 0 5 1;
#X connect 23 0 21 0;
#X connect 24 0 36 0;
#X connect 26 0 83 0;
#X connect 27 0 86 0;
#X connect 28 0 157 0;
#X connect 29 0 35 1;
#X connect 29 0 35 0;
#X connect 31 0 29 0;
#X connect 32 0 31 0;
#X connect 33 0 34 0;
#X connect 34 0 82 0;
#X connect 34 1 32 0;
#X connect 34 2 81 0;
#X connect 34 3 79 0;
#X connect 35 0 126 1;
#X connect 35 0 126 0;
#X connect 36 0 21 0;
#X connect 36 1 31 0;
#X connect 36 1 151 0;
#X connect 37 0 102 0;
#X connect 40 0 163 1;
#X connect 42 0 41 0;
#X connect 43 0 6 1;
#X connect 44 0 163 1;
#X connect 45 0 6 1;
#X connect 48 0 102 0;
#X connect 53 0 54 0;
#X connect 54 0 55 0;
#X connect 56 0 43 0;
#X connect 56 1 44 0;
#X connect 58 0 2 0;
#X connect 58 0 73 0;
#X connect 58 1 57 0;
#X connect 60 0 93 0;
#X connect 60 0 98 0;
#X connect 60 0 149 0;
#X connect 61 0 21 0;
#X connect 62 0 9 0;
#X connect 62 1 68 0;
#X connect 63 0 26 0;
#X connect 64 0 65 0;
#X connect 65 0 26 0;
#X connect 65 1 26 1;
#X connect 66 0 64 0;
#X connect 66 1 30 0;
#X connect 68 0 66 0;
#X connect 69 0 70 1;
#X connect 70 0 71 0;
#X connect 71 0 72 1;
#X connect 72 0 75 0;
#X connect 73 0 77 0;
#X connect 73 1 72 0;
#X connect 73 2 133 0;
#X connect 73 3 69 0;
#X connect 74 0 20 0;
#X connect 74 1 19 0;
#X connect 74 2 78 0;
#X connect 75 0 76 0;
#X connect 76 0 0 0;
#X connect 77 0 76 1;
#X connect 78 0 76 1;
#X connect 79 0 31 0;
#X connect 80 0 31 0;
#X connect 81 0 31 0;
#X connect 82 0 80 0;
#X connect 83 0 27 0;
#X connect 83 1 89 0;
#X connect 85 0 21 0;
#X connect 86 0 87 0;
#X connect 87 0 88 0;
#X connect 88 0 21 0;
#X connect 89 0 88 0;
#X connect 89 1 61 0;
#X connect 89 2 85 0;
#X connect 91 0 83 1;
#X connect 91 0 84 0;
#X connect 92 0 90 0;
#X connect 93 0 147 1;
#X connect 93 0 147 0;
#X connect 94 0 95 0;
#X connect 96 0 97 0;
#X connect 97 0 95 0;
#X connect 98 0 94 0;
#X connect 99 0 16 0;
#X connect 100 0 29 0;
#X connect 102 0 8 0;
#X connect 102 1 25 0;
#X connect 102 2 38 0;
#X connect 102 3 39 0;
#X connect 102 4 50 0;
#X connect 102 4 142 0;
#X connect 102 5 51 0;
#X connect 102 6 60 0;
#X connect 102 7 52 0;
#X connect 102 8 103 0;
#X connect 104 0 112 0;
#X connect 104 1 111 0;
#X connect 104 2 113 0;
#X connect 105 0 106 0;
#X connect 106 0 104 1;
#X connect 107 0 117 0;
#X connect 108 0 107 0;
#X connect 109 0 122 0;
#X connect 109 1 108 0;
#X connect 109 2 120 0;
#X connect 109 3 108 0;
#X connect 109 4 119 0;
#X connect 110 0 109 0;
#X connect 112 0 116 0;
#X connect 112 1 107 0;
#X connect 114 0 115 0;
#X connect 115 0 129 0;
#X connect 118 0 104 0;
#X connect 119 0 107 0;
#X connect 120 0 107 0;
#X connect 121 0 107 0;
#X connect 122 0 121 0;
#X connect 123 0 51 0;
#X connect 124 0 28 0;
#X connect 124 0 101 0;
#X connect 125 0 15 0;
#X connect 126 0 28 1;
#X connect 127 0 128 0;
#X connect 128 0 129 1;
#X connect 129 0 104 1;
#X connect 130 0 131 0;
#X connect 131 0 129 1;
#X connect 133 0 70 0;
#X connect 134 0 162 1;
#X connect 135 0 136 0;
#X connect 135 0 138 0;
#X connect 136 0 162 1;
#X connect 137 0 139 0;
#X connect 138 0 139 0;
#X connect 140 0 141 0;
#X connect 142 0 143 0;
#X connect 143 0 144 0;
#X connect 144 0 145 0;
#X connect 144 0 148 0;
#X connect 146 0 142 0;
#X connect 147 0 123 0;
#X connect 148 0 147 0;
#X connect 148 1 123 1;
#X connect 149 0 92 0;
#X connect 150 0 155 0;
#X connect 151 0 152 0;
#X connect 152 0 153 0;
#X connect 153 0 154 0;
#X connect 154 0 150 0;
#X connect 155 0 156 1;
#X connect 155 0 156 0;
#X connect 156 0 157 1;
#X connect 157 0 125 0;
#X connect 158 0 160 0;
#X connect 158 1 161 0;
#X connect 159 0 160 1;
#X connect 160 0 154 1;
#X connect 161 0 159 0;
#X connect 162 0 0 0;
#X connect 162 1 56 0;
#X connect 163 0 6 0;
#X connect 163 0 49 0;
#X connect 165 0 158 0;
