#N canvas 4 52 1440 851 10;
#X obj 305 1281 r randomize1;
#X obj 553 1294 r randomize2;
#X obj 854 1273 r randomize3;
#X obj 260 733 inlet~;
#X obj 485 739 inlet~;
#X obj 772 756 inlet~;
#X obj 1185 776 inlet;
#X obj 526 1534 outlet~;
#X obj 597 1536 outlet~;
#X obj 792 827 r synthVolume;
#X obj 282 893 mm_scope~ synthScope1;
#X obj 525 895 mm_scope~ synthScope2;
#X obj 819 911 mm_scope~ synthScope3;
#X obj 261 791 *~ \$1;
#X obj 486 781 *~ \$2;
#X obj 265 1311 mm_pan~;
#X obj 511 1320 mm_pan~;
#X obj 811 1305 mm_pan~;
#X obj 1188 849 s \$0-detectedTempo;
#X msg 1185 827 tempo \$1;
#X obj 775 796 *~ \$3;
#X obj 661 1487 mm_scope~ synthScope;
#X obj 794 852 lop~ 1;
#X obj 778 877 *~;
#X obj 808 1230 mm_msync_delay~;
#X obj 549 1438 mm_schorus~;
#X obj 519 1250 mm_msync_delay~;
#X obj 262 1232 mm_msync_delay~;
#X obj 348 1210 r randomize1;
#X obj 609 1225 r randomize2;
#X obj 915 1203 r randomize3;
#X obj 899 1169 r \$0-detectedTempo;
#X obj 589 1194 r \$0-detectedTempo;
#X obj 339 1179 r \$0-detectedTempo;
#X obj 506 806 r synthVolume;
#X obj 508 831 lop~ 1;
#X obj 492 856 *~;
#X obj 276 816 r synthVolume;
#X obj 278 841 lop~ 1;
#X obj 262 866 *~;
#X obj 617 1368 r \$0-detectedTempo;
#X obj 633 1402 r randomize1;
#X obj 990 1052 r randomize3;
#X obj 442 1076 r randomize1;
#X obj 1246 878 s \$0-seed;
#X obj 1095 1053 r \$0-seed;
#X obj 1184 805 route tempo seed;
#X obj 818 1059 r \$0-seed;
#X obj 544 1077 r \$0-seed;
#X obj 689 1044 r randomize2;
#X obj 439 1102 mm_rbpfilter_parms 38;
#X obj 690 1090 mm_rbpfilter_parms 22;
#X obj 988 1094 mm_rbpfilter_parms 101;
#X obj 262 1134 mm_rbpfilter~ 2000 10000 4 1.5;
#X obj 519 1148 mm_rbpfilter~ 2000 10000 4 1.5;
#X obj 808 1132 mm_rbpfilter~ 2000 10000 4 1.5;
#X connect 0 0 15 1;
#X connect 1 0 16 1;
#X connect 2 0 17 1;
#X connect 3 0 13 0;
#X connect 4 0 14 0;
#X connect 5 0 20 0;
#X connect 6 0 46 0;
#X connect 9 0 22 0;
#X connect 13 0 39 0;
#X connect 14 0 36 0;
#X connect 15 0 25 0;
#X connect 15 1 25 1;
#X connect 16 0 25 0;
#X connect 16 1 25 1;
#X connect 17 0 25 0;
#X connect 17 1 25 1;
#X connect 19 0 18 0;
#X connect 20 0 23 0;
#X connect 22 0 23 1;
#X connect 23 0 12 0;
#X connect 23 0 55 0;
#X connect 24 0 17 0;
#X connect 25 0 7 0;
#X connect 25 0 21 0;
#X connect 25 1 8 0;
#X connect 25 1 21 0;
#X connect 26 0 16 0;
#X connect 27 0 15 0;
#X connect 28 0 27 1;
#X connect 29 0 26 1;
#X connect 30 0 24 1;
#X connect 31 0 24 1;
#X connect 32 0 26 1;
#X connect 33 0 27 1;
#X connect 34 0 35 0;
#X connect 35 0 36 1;
#X connect 36 0 11 0;
#X connect 36 0 54 0;
#X connect 37 0 38 0;
#X connect 38 0 39 1;
#X connect 39 0 10 0;
#X connect 39 0 53 0;
#X connect 40 0 25 2;
#X connect 41 0 25 2;
#X connect 42 0 52 0;
#X connect 43 0 50 0;
#X connect 45 0 52 1;
#X connect 46 0 19 0;
#X connect 46 1 44 0;
#X connect 47 0 51 1;
#X connect 48 0 50 1;
#X connect 49 0 51 0;
#X connect 50 0 53 1;
#X connect 51 0 54 1;
#X connect 52 0 55 1;
#X connect 53 0 27 0;
#X connect 54 0 26 0;
#X connect 55 0 24 0;
