#N canvas 415 170 450 300 10;
#X obj 38 215 *~;
#X obj 39 259 outlet~;
#X obj 129 -34 inlet;
#X obj 217 151 switch~;
#X obj 56 194 lop~ 1;
#X obj -100 104 expr~ if($v1<0.5 \, -1 \, 1);
#X obj -102 6 inlet;
#X obj -100 57 phasor~;
#X obj 134 52 t f f;
#X obj 127 15 route switch;
#X connect 0 0 1 0;
#X connect 2 0 9 0;
#X connect 4 0 0 1;
#X connect 5 0 0 0;
#X connect 6 0 7 0;
#X connect 7 0 5 0;
#X connect 8 0 3 0;
#X connect 8 1 4 0;
#X connect 9 0 8 0;
