#N canvas 6 113 1430 793 10;
#X msg 575 481 play;
#X obj 545 124 t b b;
#X obj 547 208 list-rot;
#X obj 553 42 loadbang;
#X obj 539 299 bng 15 250 50 0 empty empty empty 17 7 0 10 -262144
-1 -1;
#X obj 594 232 list prepend set;
#X obj 593 264 list trim;
#X obj 593 144 random 16;
#X obj 578 95 bng 15 250 50 0 empty empty empty 17 7 0 10 -262144 -1
-1;
#X msg 546 175 1 75 1 1 1 15 1 1 1 15 1 1 1 15 1 1;
#X obj 741 46 mod 70;
#X msg 741 70 seed \$1;
#X obj 574 515 mm_sample_slicer1~;
#X obj 740 -19 inlet;
#X obj 356 -11 inlet;
#X obj 740 5 route timer tempo slice clock randomize;
#X msg 788 41 tempo \$1;
#X obj 523 663 outlet~;
#X msg 832 79 slice;
#X obj 927 32 t b;
#X obj 639 407 r snareHits;
#X obj 524 570 *~ 3;
#X obj 572 447 mm_wrandom;
#X connect 0 0 12 0;
#X connect 1 0 9 0;
#X connect 1 1 7 0;
#X connect 2 0 5 0;
#X connect 2 0 22 1;
#X connect 3 0 1 0;
#X connect 5 0 6 0;
#X connect 6 0 9 0;
#X connect 7 0 2 1;
#X connect 8 0 1 0;
#X connect 9 0 2 0;
#X connect 10 0 11 0;
#X connect 11 0 7 0;
#X connect 12 0 21 0;
#X connect 13 0 15 0;
#X connect 14 0 12 1;
#X connect 15 0 10 0;
#X connect 15 1 16 0;
#X connect 15 2 18 0;
#X connect 15 3 22 0;
#X connect 15 4 19 0;
#X connect 16 0 12 1;
#X connect 18 0 12 1;
#X connect 19 0 1 0;
#X connect 20 0 0 0;
#X connect 21 0 17 0;
#X connect 22 0 4 0;
#X connect 22 0 0 0;
