#N canvas 445 196 450 300 10;
#N canvas 297 254 646 523 fft-analysis 0;
#X obj 115 409 *~;
#X obj 75 409 *~;
#X obj 76 114 *~;
#X obj 75 77 inlet~;
#X obj 76 137 rfft~;
#X obj 75 466 *~;
#X obj 171 177 *~;
#X obj 75 432 rifft~;
#X obj 75 489 outlet~;
#X obj 137 177 *~;
#X obj 137 200 +~;
#X obj 137 351 clip~;
#X obj 126 84 tabreceive~ \$0-hann;
#X obj 177 329 expr 0.01*$f1*$f1;
#X obj 461 71 loadbang;
#X obj 137 225 +~ 1e-20;
#X obj 136 262 q8_rsqrt~;
#X obj 120 451 tabreceive~ \$0-hann;
#X text 31 5 As in the previous patch \, this works by multiplying
each channel of the Fourier analysis by a real number computed from
the magnitude. If the magnutude is "m" \, the correction factor is
1/m \, but only to an upper limit controlled by the "squelch" parameter.
;
#X text 211 174 squared magnitude;
#X text 219 225 protect against divide-by-zero;
#X text 223 261 quick 8-bit-accurate reciprocal square root;
#X text 222 277 (done by table lookup - about 0.25% accurate);
#X text 193 351 limit the gain to squelch*squelch/100;
#X text 238 381 normalize for 1024-point \, overlap-4 Hann;
#X text 151 409 multiply gain by real and complex part;
#X text 152 429 of the amplitude;
#X text 130 137 outputs complex amplitudes;
#X obj 461 103 f \$0;
#X obj 538 87 bng 15 250 50 0 empty empty empty 17 7 0 10 -262144 -1
-1;
#X obj 178 306 r \$0-squelch;
#X obj 461 40 block~ 2048 2;
#X obj 137 381 *~ 0.00013;
#X msg 461 139 \; \$1-window-size 2048 \; \$1-squelch 5 \;;
#X connect 0 0 7 1;
#X connect 1 0 7 0;
#X connect 2 0 4 0;
#X connect 3 0 2 0;
#X connect 4 0 9 0;
#X connect 4 0 9 1;
#X connect 4 0 1 0;
#X connect 4 1 6 0;
#X connect 4 1 6 1;
#X connect 4 1 0 0;
#X connect 5 0 8 0;
#X connect 6 0 10 1;
#X connect 7 0 5 0;
#X connect 9 0 10 0;
#X connect 10 0 15 0;
#X connect 11 0 32 0;
#X connect 12 0 2 1;
#X connect 13 0 11 2;
#X connect 14 0 28 0;
#X connect 15 0 16 0;
#X connect 16 0 11 0;
#X connect 17 0 5 1;
#X connect 28 0 33 0;
#X connect 29 0 28 0;
#X connect 30 0 13 0;
#X connect 32 0 0 1;
#X connect 32 0 1 1;
#X restore 92 133 pd fft-analysis;
#N canvas 0 110 565 454 hann-window 0;
#N canvas 0 22 450 300 (subpatch) 0;
#X array \$0-hann 8192 float 0;
#X coords 0 1 8191 0 300 100 1;
#X restore 82 311 graph;
#X obj 378 165 osc~;
#X obj 378 190 *~ -0.5;
#X obj 378 214 +~ 0.5;
#X obj 331 247 tabwrite~ \$0-hann;
#X obj 38 173 /;
#X obj 127 142 samplerate~;
#X obj 177 204 swap;
#X obj 177 228 /;
#X obj 49 201 * 1000;
#X obj 38 115 t f b f;
#X msg 173 92 resize \$1;
#X obj 173 116 s \$0-hann;
#X msg 382 130 0;
#X obj 330 131 t f b;
#X text 15 8 calculate Hann window table (variable window size) and
constants window-hz (fundamental frequency of analysis) \, window-sec
and window-msec (analysis window size in seconds and msec).;
#X obj 37 77 r \$0-window-size;
#X obj 330 105 r \$0-window-hz;
#X obj 177 252 s \$0-window-hz;
#X obj 38 251 s \$0-window-sec;
#X obj 49 228 s \$0-window-msec;
#X connect 1 0 2 0;
#X connect 2 0 3 0;
#X connect 3 0 4 0;
#X connect 5 0 9 0;
#X connect 5 0 19 0;
#X connect 6 0 5 1;
#X connect 6 0 7 1;
#X connect 7 0 8 0;
#X connect 7 1 8 1;
#X connect 8 0 18 0;
#X connect 9 0 20 0;
#X connect 10 0 5 0;
#X connect 10 0 7 0;
#X connect 10 1 6 0;
#X connect 10 2 11 0;
#X connect 11 0 12 0;
#X connect 13 0 1 1;
#X connect 14 0 1 0;
#X connect 14 1 4 0;
#X connect 14 1 13 0;
#X connect 16 0 10 0;
#X connect 17 0 14 0;
#X restore 248 125 pd hann-window;
#X obj 93 23 inlet~;
#X obj 282 20 inlet;
#X obj 278 90 s \$0-squelch;
#X obj 92 192 outlet~;
#X connect 0 0 5 0;
#X connect 2 0 0 0;
#X connect 3 0 4 0;
