#N canvas 0 22 1155 638 10;
#X obj 207 299 mm_uke~;
#X obj 206 376 mm_pan~;
#X obj 164 455 outlet~;
#X obj 266 459 outlet~;
#N canvas 440 241 784 439 theChord 0;
#X obj 280 124 r note0;
#X floatatom 280 147 5 0 0 0 - - -;
#X obj 337 122 r note1;
#X floatatom 338 146 5 0 0 0 - - -;
#X obj 401 124 r note2;
#X floatatom 402 150 5 0 0 0 - - -;
#X obj 457 122 r note3;
#X floatatom 458 152 5 0 0 0 - - -;
#X obj 279 168 change;
#X obj 338 170 change;
#X obj 402 171 change;
#X obj 457 171 change;
#X obj 277 205 f;
#X obj 278 269 pack f f f f;
#X obj 457 200 t b f;
#X obj 401 197 t b f;
#X obj 340 193 t b f;
#X obj 278 300 outlet;
#X connect 0 0 1 0;
#X connect 1 0 8 0;
#X connect 2 0 3 0;
#X connect 3 0 9 0;
#X connect 4 0 5 0;
#X connect 5 0 10 0;
#X connect 6 0 7 0;
#X connect 7 0 11 0;
#X connect 8 0 12 1;
#X connect 8 0 12 0;
#X connect 9 0 16 0;
#X connect 10 0 15 0;
#X connect 11 0 14 0;
#X connect 12 0 13 0;
#X connect 13 0 17 0;
#X connect 14 0 12 0;
#X connect 14 1 13 3;
#X connect 15 0 12 0;
#X connect 15 1 13 2;
#X connect 16 0 12 0;
#X connect 16 1 13 1;
#X restore 254 250 pd theChord;
#X obj 223 85 inlet;
#X obj 345 132 inlet;
#X connect 0 0 1 0;
#X connect 1 0 2 0;
#X connect 1 1 3 0;
#X connect 4 0 0 1;
#X connect 5 0 0 0;
#X connect 6 0 1 1;
