#N canvas 321 27 1440 851 10;
#X obj 396 -410 outlet~;
#X obj 264 -408 outlet~;
#X obj 705 -1170 inlet;
#X obj 71 -1157 inlet~;
#X obj 70 -1114 *~ \$1;
#X obj 705 -1132 s \$0-control_messages;
#X obj 295 -468 mm_schorus~;
#X obj 67 -1034 *~;
#X obj 111 -1060 lop~ 1;
#X obj 108 -1091 r samplerVolume;
#X obj 390 -520 r randomize0;
#X obj 372 -555 r \$0-control_messages;
#X obj 19 -1160 inlet~;
#X obj 18 -1117 *~ \$1;
#X obj 15 -1037 *~;
#X obj 18 -996 throw~ \$0-outL;
#X obj 66 -962 throw~ \$0-outR;
#X obj 320 -1153 inlet~;
#X obj 316 -1030 *~;
#X obj 360 -1056 lop~ 1;
#X obj 357 -1087 r samplerVolume;
#X obj 268 -1156 inlet~;
#X obj 264 -1033 *~;
#X obj 260 -992 throw~ \$0-outL;
#X obj 304 -947 throw~ \$0-outR;
#X obj 267 -1113 *~ \$2;
#X obj 319 -1110 *~ \$2;
#X obj 554 -1146 inlet~;
#X obj 550 -1023 *~;
#X obj 594 -1049 lop~ 1;
#X obj 591 -1080 r samplerVolume;
#X obj 502 -1149 inlet~;
#X obj 498 -1026 *~;
#X obj 494 -985 throw~ \$0-outL;
#X obj 538 -940 throw~ \$0-outR;
#X obj 501 -1106 *~ \$3;
#X obj 553 -1103 *~ \$3;
#X obj 284 -632 catch~ \$0-outL;
#X obj 328 -587 catch~ \$0-outR;
#X connect 2 0 5 0;
#X connect 3 0 4 0;
#X connect 4 0 7 0;
#X connect 6 0 1 0;
#X connect 6 1 0 0;
#X connect 7 0 16 0;
#X connect 8 0 7 1;
#X connect 8 0 14 1;
#X connect 9 0 8 0;
#X connect 10 0 6 2;
#X connect 11 0 6 2;
#X connect 12 0 13 0;
#X connect 13 0 14 0;
#X connect 14 0 15 0;
#X connect 17 0 26 0;
#X connect 18 0 24 0;
#X connect 19 0 18 1;
#X connect 19 0 22 1;
#X connect 20 0 19 0;
#X connect 21 0 25 0;
#X connect 22 0 23 0;
#X connect 25 0 22 0;
#X connect 26 0 18 0;
#X connect 27 0 36 0;
#X connect 28 0 34 0;
#X connect 29 0 28 1;
#X connect 29 0 32 1;
#X connect 30 0 29 0;
#X connect 31 0 35 0;
#X connect 32 0 33 0;
#X connect 35 0 32 0;
#X connect 36 0 28 0;
#X connect 37 0 6 0;
#X connect 38 0 6 1;
