#N canvas 510 59 1071 573 10;
#N canvas 143 180 1211 609 scope 1;
#X obj 46 553 clip~ -1 1;
#X obj 289 210 r clearScopes;
#X obj 93 598 r updateScopes;
#X obj 38 703 tabwrite~ \$1;
#X obj 50 52 inlet~;
#X msg 298 404 \; \$1 const 0 \;;
#X obj 668 157 loadbang;
#X obj 669 181 symbol \$1;
#X obj 672 312 print scopeName;
#X obj 291 280 symbol \$1;
#X obj 297 362 pack s;
#X obj 425 176 bng 15 250 50 0 empty empty empty 17 7 0 10 -262144
-1 -1;
#X obj 296 322 list trim;
#X obj 668 245 list trim;
#X obj 838 188 bng 15 250 50 0 empty empty empty 17 7 0 10 -262144
-1 -1;
#X obj 43 404 *~ 1;
#X obj 240 50 table \$1 2048;
#X connect 0 0 3 0;
#X connect 1 0 9 0;
#X connect 2 0 3 0;
#X connect 4 0 15 0;
#X connect 6 0 7 0;
#X connect 7 0 13 0;
#X connect 9 0 12 0;
#X connect 10 0 5 0;
#X connect 11 0 9 0;
#X connect 12 0 10 0;
#X connect 13 0 8 0;
#X connect 14 0 7 0;
#X connect 15 0 0 0;
#X restore 439 202 pd scope;
#X obj 429 54 inlet~;
#X connect 1 0 0 0;
