#N canvas 561 105 712 489 10;
#X obj 126 473 dac~;
#X obj 125 408 mm_asr_odb~;
#X obj 123 144 t b f;
#N canvas 768 383 450 300 eight 0;
#X obj 136 97 osc~;
#X obj 133 32 inlet;
#X obj 135 250 outlet~;
#X obj 207 43 loadbang;
#X obj 138 217 *~;
#X obj 230 185 lop~ 1;
#X obj 295 45 inlet;
#X obj 137 129 8bit~;
#X msg 212 96 1024;
#X connect 0 0 7 0;
#X connect 1 0 0 0;
#X connect 3 0 8 0;
#X connect 4 0 2 0;
#X connect 5 0 4 1;
#X connect 6 0 5 0;
#X connect 7 0 4 0;
#X connect 8 0 7 1;
#X restore 126 304 pd eight bit;
#N canvas 883 461 450 300 notez 0;
#X floatatom 87 29 5 0 0 0 - - -;
#X obj 131 128 mtof;
#X msg 248 29 60 63 60 63 67 63 67 72 67 72 67 72 67 63 67 63 60 63
60 59 60;
#X obj 168 101 list-dripslow;
#X obj 249 124 bng 15 250 50 0 empty empty empty 17 7 0 10 -262144
-1 -1;
#X floatatom 179 133 5 0 0 0 - - -;
#X obj 170 72 bng 15 250 50 0 empty empty empty 17 7 0 10 -262144 -1
-1;
#X obj 166 48 metro 250;
#X obj 133 187 outlet;
#X obj 163 16 inlet;
#X connect 0 0 1 0;
#X connect 1 0 8 0;
#X connect 2 0 3 1;
#X connect 3 0 5 0;
#X connect 3 0 1 0;
#X connect 3 1 4 0;
#X connect 4 0 2 0;
#X connect 6 0 3 0;
#X connect 7 0 6 0;
#X connect 9 0 7 0;
#X restore 128 111 pd notez;
#X obj 132 88 tgl 15 0 empty empty empty 17 7 0 10 -262144 -1 -1 0
1;
#N canvas 804 506 450 300 lowfi 0;
#X obj 88 5 inlet;
#X obj 91 34 osc~;
#X obj 129 276 outlet~;
#X obj 110 195 *~;
#X obj 296 195 lop~ 1;
#X obj 305 55 inlet;
#X obj 90 81 lowfxi~ 16;
#X connect 0 0 1 0;
#X connect 1 0 6 0;
#X connect 3 0 2 0;
#X connect 4 0 3 1;
#X connect 5 0 4 0;
#X connect 6 0 3 0;
#X restore 219 307 pd lowfi;
#X obj 191 278 tgl 15 0 empty empty empty 17 7 0 10 -262144 -1 -1 0
1;
#X obj 268 277 tgl 15 0 empty empty empty 17 7 0 10 -262144 -1 -1 1
1;
#X connect 1 0 0 0;
#X connect 1 0 0 1;
#X connect 2 0 1 1;
#X connect 2 1 3 0;
#X connect 2 1 6 0;
#X connect 3 0 1 0;
#X connect 4 0 2 0;
#X connect 5 0 4 0;
#X connect 6 0 1 0;
#X connect 7 0 3 1;
#X connect 8 0 6 1;
