#N canvas 321 27 1440 851 10;
#X obj 405 -634 outlet~;
#X obj 273 -632 outlet~;
#X obj 642 -1170 inlet;
#X obj 71 -1157 inlet~;
#X obj 295 -1160 inlet~;
#X obj 522 -1165 inlet~;
#X obj 70 -1114 *~ \$1;
#X obj 299 -1115 *~ \$2;
#X obj 523 -1124 *~ \$3;
#X obj 710 -1110 s \$0-control_messages;
#X obj 662 -1000 r \$0-control_messages;
#X obj 373 -949 r \$0-control_messages;
#X obj 108 -909 r \$0-control_messages;
#X obj 304 -692 mm_schorus~;
#X obj 550 -791 r \$0-control_messages;
#X obj 73 -850 mm_msync_delay~;
#X obj 303 -875 mm_msync_delay~;
#X obj 527 -860 mm_msync_delay~;
#X obj 74 -819 mm_pan~;
#X obj 302 -842 mm_pan~;
#X obj 526 -829 mm_pan~;
#X obj 530 -1010 *~;
#X obj 546 -1036 lop~ 1;
#X obj 543 -1067 r samplerVolume;
#X obj 324 -994 *~;
#X obj 340 -1020 lop~ 1;
#X obj 337 -1051 r samplerVolume;
#X obj 65 -975 *~;
#X obj 81 -1001 lop~ 1;
#X obj 78 -1032 r samplerVolume;
#X obj 525 -899 mm_rbpfilter~ 500 10000 3 2;
#X obj 639 -1137 route seed;
#X obj 642 -1109 s \$0-seed;
#X obj 824 -988 r \$0-seed;
#X obj 300 -902 mm_rbpfilter~ 2000 8000 3 2;
#X obj 330 -970 r \$0-seed;
#X obj 71 -881 mm_rbpfilter~ 2000 8000 3 2;
#X obj 680 -1043 r randomize3;
#X obj 600 -972 r \$0-seed;
#X obj 453 -1007 r randomize2;
#X obj 228 -994 r randomize1;
#X obj 379 -744 r randomize0;
#X obj 549 -767 route randomize;
#X obj 221 -945 mm_rbpfilter_parms 39;
#X obj 459 -932 mm_rbpfilter_parms 79;
#X obj 684 -945 mm_rbpfilter_parms 33;
#X connect 2 0 31 0;
#X connect 3 0 6 0;
#X connect 4 0 7 0;
#X connect 5 0 8 0;
#X connect 6 0 27 0;
#X connect 7 0 24 0;
#X connect 8 0 21 0;
#X connect 10 0 17 1;
#X connect 10 0 20 1;
#X connect 11 0 16 1;
#X connect 11 0 19 1;
#X connect 12 0 15 1;
#X connect 12 0 18 1;
#X connect 13 0 1 0;
#X connect 13 1 0 0;
#X connect 14 0 42 0;
#X connect 15 0 18 0;
#X connect 16 0 19 0;
#X connect 17 0 20 0;
#X connect 18 0 13 0;
#X connect 18 1 13 1;
#X connect 19 0 13 0;
#X connect 19 1 13 1;
#X connect 20 0 13 0;
#X connect 20 1 13 1;
#X connect 21 0 30 0;
#X connect 22 0 21 1;
#X connect 23 0 22 0;
#X connect 24 0 34 0;
#X connect 25 0 24 1;
#X connect 26 0 25 0;
#X connect 27 0 36 0;
#X connect 28 0 27 1;
#X connect 29 0 28 0;
#X connect 30 0 17 0;
#X connect 31 0 32 0;
#X connect 31 1 9 0;
#X connect 33 0 45 1;
#X connect 34 0 16 0;
#X connect 35 0 43 1;
#X connect 36 0 15 0;
#X connect 37 0 45 0;
#X connect 38 0 44 1;
#X connect 39 0 44 0;
#X connect 40 0 43 0;
#X connect 41 0 13 2;
#X connect 42 1 13 2;
#X connect 43 0 36 1;
#X connect 44 0 34 1;
#X connect 45 0 30 1;
