#N canvas 0 22 770 732 10;
#X obj 283 33 loadbang;
#X obj 360 135 timer;
#X obj 384 32 inlet;
#X floatatom 359 164 5 0 0 0 - - -;
#X obj 386 79 bng 15 250 50 0 empty empty empty 17 7 0 10 -262144 -1
-1;
#X obj 359 254 mod;
#X obj 357 192 t f b;
#X floatatom 419 185 5 0 0 0 - - -;
#X obj 427 348 f \$1;
#X obj 566 34 inlet;
#X obj 361 443 outlet;
#X floatatom 428 400 5 0 0 0 - - -;
#X floatatom 420 254 5 0 0 0 - - -;
#X obj 384 225 f \$2;
#X msg 400 314 seed \$1;
#X obj 361 289 t b f;
#X obj 361 375 random \$1;
#X connect 0 0 1 0;
#X connect 1 0 3 0;
#X connect 2 0 4 0;
#X connect 3 0 6 0;
#X connect 4 0 1 1;
#X connect 5 0 15 0;
#X connect 6 0 5 0;
#X connect 6 1 13 0;
#X connect 7 0 13 1;
#X connect 8 0 11 0;
#X connect 8 0 16 1;
#X connect 9 0 8 1;
#X connect 9 0 8 0;
#X connect 13 0 5 1;
#X connect 13 0 12 0;
#X connect 14 0 16 0;
#X connect 15 0 16 0;
#X connect 15 1 14 0;
#X connect 16 0 10 0;
