#N canvas 357 45 1023 760 10;
#X obj 346 -22 list prepend set;
#X obj 347 2 list trim;
#X obj 287 462 list;
#X obj 277 256 bng 15 250 50 0 empty empty empty 17 7 0 10 -262144
-1 -1;
#X obj 259 -335 inlet;
#X obj 377 -178 mm_invert 1;
#X obj 344 -128 spigot;
#X obj 403 -154 loadbang;
#X msg 405 -129 1;
#X obj 339 -339 r notes;
#X obj 349 -275 t b;
#X obj 286 635 outlet;
#X obj 261 -225 t b b b;
#X obj 257 -191 del 1;
#X msg 301 -202 1;
#X obj 335 -225 f 0;
#X obj 276 53 t b b;
#X obj 360 517 f \$1;
#X obj 288 495 t a b;
#X floatatom 370 546 5 0 0 0 - - -;
#X obj 284 540 list prepend;
#X obj 356 208 list length;
#X floatatom 357 243 5 0 0 0 - - -;
#X msg 352 141 33 0 0 0 0 0 0 0 33 0 0 0 0 0 0 0 33 0 0 0 0 0 0 0 33
0 0 0 0 0 0 0 29 0 0 0 0 0 0 0 31 0 0 0 0 0 0 0;
#X obj 378 -76 f \$1;
#X obj 345 -46 route;
#X obj 344 -104 t a b;
#X obj 377 293 f;
#X msg 332 440 set;
#X obj 394 379 s \$0-toList;
#X obj 417 275 t b b;
#X obj 359 112 r \$0-toList;
#X msg 446 338 set;
#X obj 377 323 until;
#X msg 379 349 add2 0;
#X obj 543 637 outlet;
#X obj 285 565 t a a;
#X obj 480 240 r \$0-zero;
#X msg 568 19 set;
#X obj 348 24 t a a;
#X obj 424 52 s \$0-original;
#X obj 733 -308 r \$0-original;
#X msg 651 -218 set;
#X obj 594 -189 r \$0-revert;
#X obj 658 -65 list prepend set;
#X obj 659 -44 list trim;
#X obj 659 -19 t b a;
#X obj 393 238 r theLength;
#X obj 380 -277 s \$0-zero;
#X obj 441 -252 s \$0-revert;
#X obj 743 -209 spigot;
#X obj 820 -289 loadbang;
#X msg 820 -263 1;
#X obj 350 -253 s \$0-reset;
#X obj 652 -294 r \$0-reset;
#X obj 567 -10 r \$0-reset;
#X obj 336 409 r \$0-reset;
#X obj 744 -182 t a b;
#X msg 683 -245 1;
#X obj 652 -259 t b b;
#X msg 771 -155 0;
#X obj 259 -305 route send lock reset zero revert change;
#X obj 687 16 s \$0-toList;
#X obj 570 44 s \$0-toList;
#X obj 349 81 s \$0-toList;
#X obj 541 604 r \$0-toList;
#X msg 657 -120 33 0 0 0 0 0 0 0 33 0 0 0 0 0 0 0 33 0 0 0 0 0 0 0
33 0 0 0 0 0 0 0 29 0 0 0 0 0 0 0 31 0 0 0 0 0 0 0;
#X obj 146 -250 print in;
#X obj 177 -41 print in;
#X obj 482 -222 list prepend set;
#X obj 483 -198 list trim;
#X connect 0 0 1 0;
#X connect 1 0 39 0;
#X connect 2 0 18 0;
#X connect 3 0 2 0;
#X connect 4 0 61 0;
#X connect 4 0 67 0;
#X connect 5 0 6 1;
#X connect 6 0 26 0;
#X connect 7 0 8 0;
#X connect 8 0 6 1;
#X connect 9 0 6 0;
#X connect 10 0 53 0;
#X connect 12 0 13 0;
#X connect 12 1 16 0;
#X connect 12 2 14 0;
#X connect 13 0 15 0;
#X connect 14 0 5 0;
#X connect 15 0 5 0;
#X connect 16 0 3 0;
#X connect 16 1 23 0;
#X connect 17 0 19 0;
#X connect 17 0 20 1;
#X connect 18 0 20 0;
#X connect 18 1 17 0;
#X connect 20 0 36 0;
#X connect 21 0 22 0;
#X connect 22 0 27 1;
#X connect 23 0 2 1;
#X connect 23 0 21 0;
#X connect 24 0 25 1;
#X connect 25 0 0 0;
#X connect 26 0 25 0;
#X connect 26 1 24 0;
#X connect 27 0 33 0;
#X connect 28 0 2 1;
#X connect 30 0 27 0;
#X connect 30 1 32 0;
#X connect 31 0 23 0;
#X connect 32 0 29 0;
#X connect 33 0 34 0;
#X connect 34 0 29 0;
#X connect 36 0 11 0;
#X connect 37 0 30 0;
#X connect 38 0 63 0;
#X connect 39 0 64 0;
#X connect 39 1 40 0;
#X connect 41 0 50 0;
#X connect 42 0 66 0;
#X connect 43 0 66 0;
#X connect 44 0 45 0;
#X connect 45 0 46 0;
#X connect 46 0 12 0;
#X connect 46 1 62 0;
#X connect 47 0 27 1;
#X connect 50 0 57 0;
#X connect 51 0 52 0;
#X connect 52 0 50 1;
#X connect 54 0 59 0;
#X connect 55 0 38 0;
#X connect 56 0 28 0;
#X connect 57 0 66 0;
#X connect 57 1 60 0;
#X connect 58 0 50 1;
#X connect 59 0 42 0;
#X connect 59 1 58 0;
#X connect 60 0 50 1;
#X connect 61 0 12 0;
#X connect 61 1 15 1;
#X connect 61 1 15 0;
#X connect 61 2 10 0;
#X connect 61 3 48 0;
#X connect 61 4 49 0;
#X connect 61 5 69 0;
#X connect 65 0 35 0;
#X connect 66 0 44 0;
#X connect 69 0 70 0;
#X connect 70 0 23 0;
