#N canvas 471 149 1022 799 10;
#X obj 479 213 f \$1;
#X obj 499 292 f \$2;
#X obj 500 323 s \$0-mix;
#X obj 479 248 s \$0-squelch;
#X obj 185 230 r \$0-squelch;
#X obj 300 236 r \$0-squelch;
#X obj 449 153 loadbang;
#X obj 478 88 inlet;
#X obj 193 337 *~;
#X obj 86 335 *~;
#X obj 119 335 *~;
#X obj 252 336 *~;
#X obj 100 193 r \$0-mix;
#X obj 100 222 mm_invert 1;
#X obj 98 251 lop~ 1;
#X obj 351 262 r \$0-mix;
#X obj 352 291 lop~ 1;
#X obj 484 20 loadbang;
#X obj 224 132 *~;
#X obj 91 134 *~;
#X obj 224 92 lop~ 1;
#X obj 253 28 r \$0-pregain;
#X obj 574 391 s \$0-pregain;
#X obj 608 447 s \$0-postgain;
#X obj 571 358 f \$3;
#X obj 610 416 f \$4;
#X obj 91 22 inlet~;
#X obj 206 25 inlet~;
#X obj 214 410 *~;
#X obj 93 408 *~;
#X obj 272 354 r \$0-postgain;
#X obj 273 375 lop~ 1;
#X obj 101 453 outlet~;
#X obj 224 446 outlet~;
#X obj 131 286 mm_squeeze~;
#X obj 478 116 route amt mix pregain postgain;
#X obj 242 293 mm_squeeze~;
#X msg 485 48 amt 5 \, mix 0.8 \, pregain 1.3 \, postgain 3;
#X connect 0 0 3 0;
#X connect 1 0 2 0;
#X connect 4 0 34 1;
#X connect 5 0 36 1;
#X connect 6 0 0 0;
#X connect 6 0 1 0;
#X connect 7 0 35 0;
#X connect 8 0 28 0;
#X connect 9 0 29 0;
#X connect 10 0 29 0;
#X connect 11 0 28 0;
#X connect 12 0 13 0;
#X connect 13 0 14 0;
#X connect 14 0 9 1;
#X connect 14 0 8 1;
#X connect 15 0 16 0;
#X connect 16 0 11 1;
#X connect 16 0 10 1;
#X connect 17 0 37 0;
#X connect 18 0 8 0;
#X connect 18 0 36 0;
#X connect 19 0 9 0;
#X connect 19 0 34 0;
#X connect 20 0 18 1;
#X connect 20 0 19 1;
#X connect 21 0 20 0;
#X connect 24 0 22 0;
#X connect 25 0 23 0;
#X connect 26 0 19 0;
#X connect 27 0 18 0;
#X connect 28 0 33 0;
#X connect 29 0 32 0;
#X connect 30 0 31 0;
#X connect 31 0 28 1;
#X connect 31 0 29 1;
#X connect 34 0 10 0;
#X connect 35 0 0 1;
#X connect 35 0 0 0;
#X connect 35 1 1 1;
#X connect 35 1 1 0;
#X connect 35 2 24 1;
#X connect 35 2 24 0;
#X connect 35 3 25 1;
#X connect 35 3 25 0;
#X connect 36 0 11 0;
#X connect 37 0 35 0;
