#N canvas 135 23 1250 835 10;
#X obj 451 142 mod 12;
#X obj 518 298 mod 12;
#X obj 604 416 mod 12;
#X obj 452 112 +;
#X obj 470 82 r \$0-theRoot;
#X obj 515 273 +;
#X obj 558 237 r \$0-theRoot;
#X obj 635 376 +;
#X obj 655 344 r \$0-theRoot;
#X obj 997 -73 route 1 2 3;
#X obj 453 467 spigot;
#X obj 523 509 spigot;
#X obj 585 512 spigot;
#N canvas 552 254 450 300 inv 0;
#X obj 93 21 inlet;
#X obj 91 56 swap 1;
#X obj 89 89 -;
#X obj 87 130 outlet;
#X connect 0 0 1 0;
#X connect 1 0 2 0;
#X connect 1 1 2 1;
#X connect 2 0 3 0;
#X restore 486 444 pd inv;
#N canvas 552 254 450 300 inv 0;
#X obj 93 21 inlet;
#X obj 91 56 swap 1;
#X obj 89 89 -;
#X obj 87 130 outlet;
#X connect 0 0 1 0;
#X connect 1 0 2 0;
#X connect 1 1 2 1;
#X connect 2 0 3 0;
#X restore 551 467 pd inv;
#N canvas 552 254 450 300 inv 0;
#X obj 93 21 inlet;
#X obj 91 56 swap 1;
#X obj 89 89 -;
#X obj 87 130 outlet;
#X connect 0 0 1 0;
#X connect 1 0 2 0;
#X connect 1 1 2 1;
#X connect 2 0 3 0;
#X restore 640 489 pd inv;
#X floatatom 684 397 5 0 0 0 - - -;
#X obj 993 44 spigot;
#X obj 1066 55 spigot;
#X obj 1128 58 spigot;
#X floatatom 404 245 5 0 0 0 - - -;
#X floatatom 541 360 5 0 0 0 - - -;
#X floatatom 723 428 5 0 0 0 - - -;
#X obj 452 615 t f b;
#X obj 479 671 + 3;
#X obj 478 692 * 12;
#X obj 456 765 +;
#X floatatom 454 806 5 0 0 0 - - -;
#X obj 477 719 t f f;
#X obj 550 740 f;
#X obj 532 702 t f b;
#X obj 531 802 +;
#X obj 549 764 t f f;
#X obj 611 788 f;
#X obj 598 737 t f b;
#X obj 596 811 +;
#X obj 991 82 s \$0-randomNote1;
#X obj 1070 106 s \$0-randomNote2;
#X obj 1135 133 s \$0-randomNote3;
#X obj 450 581 r \$0-randomNote1;
#X obj 576 645 r \$0-randomNote2;
#X obj 622 703 r \$0-randomNote3;
#N canvas 403 454 450 300 wr 0;
#X obj 85 42 inlet;
#X obj 84 72 random 100;
#X obj 84 99 moses 50;
#X obj 128 137 moses 85;
#X obj 50 137 moses 15;
#X obj 51 165 bng 15 250 50 0 empty empty empty 17 7 0 10 -262144 -1
-1;
#X obj 93 163 bng 15 250 50 0 empty empty empty 17 7 0 10 -262144 -1
-1;
#X obj 130 166 bng 15 250 50 0 empty empty empty 17 7 0 10 -262144
-1 -1;
#X obj 172 164 bng 15 250 50 0 empty empty empty 17 7 0 10 -262144
-1 -1;
#X msg 49 189 0;
#X msg 91 189 1;
#X msg 131 190 2;
#X msg 172 189 3;
#X obj 71 247 outlet;
#X connect 0 0 1 0;
#X connect 1 0 2 0;
#X connect 2 0 4 0;
#X connect 2 1 3 0;
#X connect 3 0 7 0;
#X connect 3 1 8 0;
#X connect 4 0 5 0;
#X connect 4 1 6 0;
#X connect 5 0 9 0;
#X connect 6 0 10 0;
#X connect 7 0 11 0;
#X connect 8 0 12 0;
#X connect 9 0 13 0;
#X connect 10 0 13 0;
#X connect 11 0 13 0;
#X connect 12 0 13 0;
#X restore 478 646 pd wr;
#X obj 536 -254 moses 1;
#X obj 516 211 moses 1;
#X obj 594 324 moses 1;
#X obj 606 555 spigot;
#X obj 530 542 spigot;
#X obj 471 494 spigot;
#X obj 553 -449 list prepend read;
#X obj 552 -426 list trim;
#X obj 553 -471 route 1 2 3;
#X obj 670 -462 r alterPattern1;
#X obj 592 -315 list prepend read;
#X obj 591 -292 list trim;
#X obj 649 51 list prepend read;
#X obj 648 74 list trim;
#X obj 477 -394 t f f f;
#X obj 603 -87 r alterPattern3;
#X obj 478 -278 mm_pattern;
#X obj 512 -116 mm_pattern;
#X obj 571 120 mm_pattern;
#X obj 1016 -462 inlet;
#X obj 233 -472 inlet;
#X obj 553 -514 inlet;
#X obj 233 -437 route clock tempo root timer;
#X obj 327 -386 s \$0-theRoot;
#X obj 237 -396 s \$0-clock;
#X obj 290 -353 s \$0-detectedTempo;
#X obj 468 -448 r \$0-clock;
#X obj 597 866 outlet;
#X obj 530 870 outlet;
#X obj 448 870 outlet;
#X obj 387 -326 s \$0-timer;
#X obj 519 -43 s note2;
#X obj 639 181 s note3;
#X obj 1029 -15 r 1shouldImprovise;
#X obj 1103 6 r 2shouldImprovise;
#X obj 1164 28 r 3shouldImprovise;
#X obj 487 419 r 1shouldImprovise;
#X obj 552 442 r 2shouldImprovise;
#X obj 640 464 r 3shouldImprovise;
#X obj 477 -307 mm_alt_clock;
#X obj 511 -153 mm_alt_clock;
#X obj 565 87 mm_alt_clock;
#X obj 604 -39 mm_srandom 3 157;
#X obj 603 -62 t b b;
#X obj 635 -13 mm_srandom 2 158;
#X obj 732 -36 r divisions;
#X floatatom 634 15 5 0 0 0 - - -;
#X floatatom 601 -13 5 0 0 0 - - -;
#X obj 605 -238 t b b;
#X obj 734 -212 r divisions;
#X floatatom 636 -161 5 0 0 0 - - -;
#X floatatom 603 -189 5 0 0 0 - - -;
#X obj 605 -263 r alterPattern2;
#X obj 606 -215 mm_srandom 3 156;
#X obj 637 -189 mm_srandom 2 155;
#X obj 670 -436 t b b;
#X obj 799 -410 r divisions;
#X floatatom 701 -359 5 0 0 0 - - -;
#X floatatom 668 -387 5 0 0 0 - - -;
#X obj 671 -413 mm_srandom 3 152;
#X obj 702 -387 mm_srandom 2 149;
#X obj 637 149 mod 12;
#X obj 521 -78 mod 12;
#X obj 396 -193 mod 12;
#X obj 399 -163 s note1;
#X connect 0 0 10 0;
#X connect 1 0 21 0;
#X connect 1 0 11 0;
#X connect 2 0 12 0;
#X connect 3 0 0 0;
#X connect 3 0 20 0;
#X connect 4 0 3 1;
#X connect 5 0 1 0;
#X connect 6 0 5 1;
#X connect 7 0 2 0;
#X connect 7 0 22 0;
#X connect 8 0 7 1;
#X connect 9 0 17 0;
#X connect 9 1 18 0;
#X connect 9 2 19 0;
#X connect 10 0 23 0;
#X connect 11 0 30 0;
#X connect 12 0 34 0;
#X connect 13 0 10 1;
#X connect 13 0 48 1;
#X connect 14 0 11 1;
#X connect 14 0 47 1;
#X connect 15 0 12 1;
#X connect 15 0 46 1;
#X connect 17 0 36 0;
#X connect 18 0 37 0;
#X connect 19 0 38 0;
#X connect 23 0 26 0;
#X connect 23 1 42 0;
#X connect 24 0 25 0;
#X connect 25 0 28 0;
#X connect 26 0 27 0;
#X connect 26 0 72 0;
#X connect 28 0 26 1;
#X connect 28 1 29 1;
#X connect 29 0 32 0;
#X connect 30 0 31 0;
#X connect 30 1 29 0;
#X connect 31 0 71 0;
#X connect 32 0 31 1;
#X connect 32 1 33 1;
#X connect 33 0 35 1;
#X connect 34 0 35 0;
#X connect 34 1 33 0;
#X connect 35 0 70 0;
#X connect 39 0 23 0;
#X connect 40 0 30 0;
#X connect 41 0 34 0;
#X connect 42 0 24 0;
#X connect 43 0 48 0;
#X connect 43 1 3 0;
#X connect 43 1 106 0;
#X connect 44 0 47 0;
#X connect 44 1 5 0;
#X connect 45 0 46 0;
#X connect 45 1 7 0;
#X connect 46 0 34 0;
#X connect 47 0 30 0;
#X connect 48 0 23 0;
#X connect 49 0 50 0;
#X connect 50 0 59 1;
#X connect 51 0 49 0;
#X connect 51 1 53 0;
#X connect 51 2 55 0;
#X connect 52 0 98 0;
#X connect 53 0 54 0;
#X connect 54 0 60 1;
#X connect 55 0 56 0;
#X connect 56 0 61 1;
#X connect 57 0 82 0;
#X connect 57 1 83 0;
#X connect 57 2 84 0;
#X connect 58 0 86 0;
#X connect 59 1 43 0;
#X connect 60 1 44 0;
#X connect 60 1 105 0;
#X connect 61 1 45 0;
#X connect 61 1 104 0;
#X connect 62 0 9 0;
#X connect 63 0 65 0;
#X connect 64 0 51 0;
#X connect 65 0 67 0;
#X connect 65 1 68 0;
#X connect 65 2 66 0;
#X connect 65 3 73 0;
#X connect 69 0 57 0;
#X connect 76 0 17 1;
#X connect 77 0 18 1;
#X connect 78 0 19 1;
#X connect 79 0 13 0;
#X connect 80 0 14 0;
#X connect 81 0 15 0;
#X connect 82 0 59 0;
#X connect 83 0 60 0;
#X connect 84 0 61 0;
#X connect 85 0 90 0;
#X connect 86 0 85 0;
#X connect 86 1 87 0;
#X connect 87 0 89 0;
#X connect 88 0 87 1;
#X connect 90 0 84 1;
#X connect 91 0 96 0;
#X connect 91 1 97 0;
#X connect 92 0 97 1;
#X connect 94 0 83 1;
#X connect 95 0 91 0;
#X connect 96 0 94 0;
#X connect 97 0 93 0;
#X connect 98 0 102 0;
#X connect 98 1 103 0;
#X connect 99 0 103 1;
#X connect 101 0 82 1;
#X connect 102 0 101 0;
#X connect 103 0 100 0;
#X connect 104 0 75 0;
#X connect 105 0 74 0;
#X connect 106 0 107 0;
