#N canvas 62 118 875 615 10;
#X obj -92 5 inlet~;
#X obj 50 730 outlet~;
#X obj 361 29 inlet;
#X obj 465 167 s \$0-randomize;
#X obj 530 207 s \$0-feedback;
#X obj -63 131 *~;
#X obj -41 98 lop~ 1;
#X obj -42 74 r \$0-feedback;
#X obj 583 242 s \$0-mix;
#X obj 28 686 *~;
#X obj 85 687 *~;
#X obj 46 658 lop~ 1;
#X obj 107 657 lop~ 1;
#X obj 629 275 s \$0-switch;
#X obj 510 341 r \$0-switch;
#X obj 510 386 switch~;
#X obj 107 603 r \$0-mix;
#N canvas 753 377 450 300 inv 0;
#X obj 202 105 swap 1;
#X obj 207 129 -;
#X obj 201 41 inlet;
#X obj 209 181 outlet;
#X connect 0 0 1 0;
#X connect 0 1 1 1;
#X connect 1 0 3 0;
#X connect 2 0 0 0;
#X restore 45 629 pd inv;
#X obj 431 8 loadbang;
#X obj 208 231 + 1;
#X obj 360 98 s \$0-tempo;
#X obj 244 244 r \$0-tempo;
#X obj 101 -3 inlet~;
#X obj 130 123 *~;
#X obj 152 90 lop~ 1;
#X obj 151 66 r \$0-feedback;
#X obj -54 29 r~ \$0-toFeedbackL;
#X obj 139 21 r~ \$0-toFeedbackR;
#X obj -95 158 delwrite~ \$0-delayL 100;
#X obj 70 557 vd~ \$0-delayL;
#X obj 98 583 s~ \$0-toFeedbackL;
#X obj 412 130 s \$0-rate;
#X obj 362 68 route tempo rate randomize feedback mix switch depth
;
#X obj 671 306 s \$0-depth;
#X msg 432 31 switch 1 \, tempo 120 \, rate 1 \, feedback 0.75 \, mix
0.5 \, depth 0.2;
#X obj 125 182 r \$0-rate;
#X obj 244 267 / 60;
#X obj -24 551 r~ \$0-dryL;
#X obj 4 577 r~ \$0-dryR;
#X obj 170 735 outlet~;
#X obj 166 683 *~;
#X obj 201 687 *~;
#X obj 205 555 vd~ \$0-delayR;
#X obj 225 582 s~ \$0-toFeedbackR;
#X obj 176 350 + 1;
#X obj 128 317 *;
#X obj 147 247 * 0.25;
#X obj 128 373 osc~;
#X obj 176 373 osc~;
#X obj 127 406 +~ 1;
#X obj 176 405 +~ 1;
#X obj 126 428 *~ 0.5;
#X obj 176 428 *~ 0.5;
#X obj 217 451 lop~ 1;
#X obj 179 474 *~;
#X obj 127 474 *~;
#X obj 179 505 +~;
#X obj 128 505 +~;
#X obj 231 482 lop~ 1;
#X obj 287 385 r \$0-depth;
#X obj 282 310 * 0.01;
#X obj 281 332 *;
#X obj -130 42 s~ \$0-dryL;
#X obj 63 34 s~ \$0-dryR;
#X obj 138 44 *~ 0.35;
#X obj -55 52 *~ 0.35;
#X obj 98 150 delwrite~ \$0-delayR 100;
#X obj 352 242 * 0.01;
#X obj 351 264 *;
#X obj 355 292 s \$0-mix;
#X obj 444 259 r \$0-randomize;
#X obj 456 360 loadbang;
#X obj 455 386 timer;
#X obj 448 412 f;
#X obj 448 433 mod 200;
#X msg 447 460 seed \$1;
#X obj 444 297 t b b b b;
#X obj 243 418 * 3;
#X msg 245 357 \$1 2000;
#X obj 246 383 line;
#X obj 208 210 mm_srandom 8 129;
#X obj 282 289 mm_srandom 100 116;
#X obj 351 219 mm_srandom 75 97;
#X connect 0 0 28 0;
#X connect 0 0 62 0;
#X connect 2 0 32 0;
#X connect 5 0 28 0;
#X connect 6 0 5 1;
#X connect 7 0 6 0;
#X connect 9 0 1 0;
#X connect 10 0 1 0;
#X connect 11 0 9 1;
#X connect 11 0 40 1;
#X connect 12 0 10 1;
#X connect 12 0 41 1;
#X connect 14 0 15 0;
#X connect 16 0 12 0;
#X connect 16 0 17 0;
#X connect 17 0 11 0;
#X connect 18 0 34 0;
#X connect 19 0 46 0;
#X connect 21 0 36 0;
#X connect 22 0 63 0;
#X connect 22 0 66 0;
#X connect 23 0 66 0;
#X connect 24 0 23 1;
#X connect 25 0 24 0;
#X connect 26 0 65 0;
#X connect 27 0 64 0;
#X connect 29 0 10 0;
#X connect 29 0 30 0;
#X connect 32 0 20 0;
#X connect 32 1 31 0;
#X connect 32 2 3 0;
#X connect 32 3 4 0;
#X connect 32 4 8 0;
#X connect 32 5 13 0;
#X connect 32 6 33 0;
#X connect 34 0 32 0;
#X connect 35 0 45 0;
#X connect 36 0 45 1;
#X connect 37 0 9 0;
#X connect 38 0 40 0;
#X connect 40 0 39 0;
#X connect 41 0 39 0;
#X connect 42 0 43 0;
#X connect 42 0 41 0;
#X connect 44 0 48 0;
#X connect 45 0 47 0;
#X connect 45 0 44 0;
#X connect 46 0 45 0;
#X connect 47 0 49 0;
#X connect 48 0 50 0;
#X connect 49 0 51 0;
#X connect 50 0 52 0;
#X connect 51 0 55 0;
#X connect 52 0 54 0;
#X connect 53 0 54 1;
#X connect 53 0 55 1;
#X connect 54 0 56 0;
#X connect 55 0 57 0;
#X connect 56 0 42 0;
#X connect 57 0 29 0;
#X connect 58 0 56 1;
#X connect 58 0 57 1;
#X connect 59 0 77 0;
#X connect 60 0 61 1;
#X connect 60 0 61 0;
#X connect 61 0 78 0;
#X connect 64 0 23 0;
#X connect 65 0 5 0;
#X connect 67 0 68 1;
#X connect 67 0 68 0;
#X connect 68 0 69 0;
#X connect 70 0 76 0;
#X connect 71 0 72 0;
#X connect 72 0 73 1;
#X connect 73 0 74 0;
#X connect 74 0 75 0;
#X connect 75 0 80 0;
#X connect 75 0 81 0;
#X connect 75 0 82 0;
#X connect 76 0 80 0;
#X connect 76 0 81 0;
#X connect 76 0 82 0;
#X connect 76 1 72 0;
#X connect 76 2 73 0;
#X connect 76 3 72 1;
#X connect 77 0 53 0;
#X connect 77 0 58 0;
#X connect 78 0 79 0;
#X connect 79 0 77 0;
#X connect 80 0 19 0;
#X connect 81 0 60 0;
#X connect 82 0 67 0;
