#N canvas 107 22 1135 787 10;
#X obj 751 -76 inlet;
#X obj 544 1248 outlet~;
#X obj 551 982 vline~;
#X obj 602 530 r \$0-play;
#X obj 545 1182 *~;
#X obj 624 1133 vline~;
#X msg 699 921 0 10 \, 1 10 10 \, 0 30 -50;
#X msg 734 846 addcomma;
#X obj 716 778 r \$0-duration;
#X obj 716 800 t f b b b b;
#X obj 617 1158 *~;
#X obj 600 596 t b b;
#X obj 795 1 s \$0-tempo;
#N canvas 324 22 684 631 tempo 0;
#X obj 348 100 swap 60000;
#X obj 348 125 /;
#X obj 344 318 swap 1;
#X obj 345 343 /;
#X obj 320 372 *;
#X obj 293 13 inlet;
#X obj 349 462 outlet;
#X obj 295 63 unpack f f f;
#X obj 348 154 *;
#X obj 294 155 t f f b;
#X obj 337 189 samplerate~;
#X obj 316 214 /;
#X obj 316 235 * 0.001;
#X obj 317 261 t f f;
#X obj 344 285 /;
#X obj 321 403 t f f;
#X obj 274 433 pack f f;
#X obj 274 464 outlet;
#X connect 0 0 1 0;
#X connect 0 1 1 1;
#X connect 1 0 8 0;
#X connect 2 0 3 0;
#X connect 2 1 3 1;
#X connect 3 0 4 1;
#X connect 4 0 15 0;
#X connect 5 0 7 0;
#X connect 7 0 9 0;
#X connect 7 1 0 0;
#X connect 7 2 8 1;
#X connect 8 0 14 1;
#X connect 9 0 16 0;
#X connect 9 1 11 0;
#X connect 9 2 10 0;
#X connect 10 0 11 1;
#X connect 11 0 12 0;
#X connect 12 0 13 0;
#X connect 13 0 4 0;
#X connect 13 1 14 0;
#X connect 14 0 2 0;
#X connect 15 0 16 1;
#X connect 15 1 6 0;
#X connect 16 0 17 0;
#X restore 501 479 pd tempo;
#X obj 1218 513 soundfiler;
#X obj 1219 571 \$0;
#X obj 748 -24 s \$0-sample;
#X obj 1239 143 r \$0-sample;
#X obj 1219 540 t b f;
#X obj 502 286 r \$0-length;
#X obj 554 504 s \$0-duration;
#X obj 519 321 r \$0-tempo;
#X obj 519 353 t b f;
#X obj 502 447 t a b;
#X obj 783 -132 loadbang;
#X obj 192 -109 inlet;
#X obj 501 420 pack f f f;
#X obj 573 154 r \$0-beats;
#X obj 783 1072 del;
#X obj 799 1028 r \$0-duration;
#X obj 782 975 r \$0-play;
#X obj 783 1097 outlet;
#X obj 783 1003 t b;
#X obj 665 545 bng 15 250 50 0 empty empty empty 17 7 0 10 -262144
-1 -1;
#X msg 785 829 set 0 10;
#X msg 737 868 add2 1 10 10;
#X msg 699 887 add2 0 30 \$1;
#X obj 700 849 - 50;
#X obj 1276 -80 table \$0-sampler-0;
#X obj 1278 -48 table \$0-sampler-1;
#X msg 1219 483 read -resize rasta21.aif 1927-sampler-2;
#X obj 1239 170 list split 1;
#X obj 1238 204 list prepend set read -resize;
#X obj 1218 416 list append;
#X obj 1277 251 pack f \$0;
#X obj 1218 438 list trim;
#X msg 1276 275 \$2-sampler-\$1;
#X obj 1277 296 t a a;
#X obj 1304 346 list prepend;
#X obj 1303 370 list trim;
#X obj 1303 396 s \$0-sampleID;
#X obj 1304 325 list prepend set set;
#N canvas 630 134 810 515 samples 0;
#X obj 59 72 r \$0-sampleID;
#X obj 58 100 route 0 1 2;
#X msg 58 127 set 1927-sampler-0;
#X msg 76 147 set 1927-sampler-1;
#X msg 99 169 set 1927-sampler-2;
#X obj 197 64 r \$0-sampleLength;
#X obj 197 93 route 0 1 2;
#X obj 347 91 route 0 1 2;
#X obj 348 67 r \$0-sampleBeats;
#X obj 37 17 inlet;
#X obj 37 40 t f f f;
#X obj 63 243 outlet;
#X obj 207 252 outlet;
#X obj 383 246 outlet;
#X msg 196 119 0;
#X msg 211 143 110282;
#X msg 229 166 150528;
#X msg 349 116 2;
#X msg 364 140 2;
#X msg 388 166 6;
#X connect 0 0 1 0;
#X connect 1 0 2 0;
#X connect 1 1 3 0;
#X connect 1 2 4 0;
#X connect 2 0 11 0;
#X connect 3 0 11 0;
#X connect 4 0 11 0;
#X connect 5 0 6 0;
#X connect 6 0 14 0;
#X connect 6 1 15 0;
#X connect 6 2 16 0;
#X connect 7 0 17 0;
#X connect 7 1 18 0;
#X connect 7 2 19 0;
#X connect 8 0 7 0;
#X connect 9 0 10 0;
#X connect 10 0 1 0;
#X connect 10 1 6 0;
#X connect 10 2 7 0;
#X connect 14 0 12 0;
#X connect 15 0 12 0;
#X connect 16 0 12 0;
#X connect 17 0 13 0;
#X connect 18 0 13 0;
#X connect 19 0 13 0;
#X restore 890 220 pd samples;
#X obj 1288 593 list prepend;
#X obj 1288 621 list trim;
#X obj 1288 646 s \$0-sampleLength;
#X floatatom 1161 551 5 0 0 0 - - -;
#X obj 1287 566 list prepend set;
#X obj 1219 458 t b a;
#X obj 947 249 s \$0-beats;
#X obj 918 273 s \$0-length;
#X obj 889 307 s \$0-setSample;
#X obj 841 25 list split 1;
#X obj 840 49 list prepend set;
#X obj 838 70 list prepend;
#X obj 838 94 list trim;
#X obj 836 118 s \$0-sampleBeats;
#X msg 777 -96 tempo 120;
#X obj 886 175 change;
#X obj 193 61 s \$0-loadSample;
#X obj 1022 100 r \$0-loadSample;
#X obj 147 38 s \$0-play;
#X obj 1280 -17 table \$0-sampler-2;
#X obj 153 -39 random 3;
#X obj 628 978 r \$0-setSample;
#X obj 1274 226 t f f f;
#X obj 1354 535 t f f;
#X obj 1224 703 pack f f;
#X msg 1223 758 \; \$1-sampler-\$2 normalize 1;
#X msg 554 879 0 \, 0 0;
#X msg 507 706 add2 \$1 \$2;
#X msg 615 831 addcomma;
#N canvas 567 223 566 465 reverse 0;
#X obj -61 -64 inlet;
#X obj 145 175 unpack f f;
#X obj 235 27 inlet;
#X obj 78 432 outlet;
#X obj 210 433 outlet;
#X obj 198 241 s \$0-second;
#X obj 142 274 s \$0-first;
#X obj 143 149 spigot;
#X obj 236 84 s \$0-direction;
#X obj 176 112 r \$0-direction;
#X obj -55 70 s \$0-inputList;
#X obj -36 188 spigot;
#X obj 3 117 r \$0-direction;
#X obj 2 144 swap 1;
#X obj 10 165 -;
#X obj 296 18 loadbang;
#X msg 296 39 0;
#X msg 15 253 0;
#X obj 15 276 s \$0-first;
#X obj -37 304 s \$0-second;
#X obj -32 95 r \$0-inputList;
#X obj 129 84 r \$0-inputList;
#X obj 211 375 r \$0-first;
#X obj 76 374 r \$0-second;
#X obj 310 107 s \$0-readList;
#X obj 236 49 t b f;
#X obj 41 8 r \$0-readList;
#X msg -23 36 0 0;
#X obj -23 -19 list prepend set;
#X obj -23 6 list trim;
#X obj 198 218 pack 0 f;
#X obj 212 196 t b a;
#X obj -36 218 t b a;
#X connect 0 0 10 0;
#X connect 0 0 28 0;
#X connect 1 0 6 0;
#X connect 1 1 31 0;
#X connect 2 0 25 0;
#X connect 7 0 1 0;
#X connect 9 0 7 1;
#X connect 11 0 32 0;
#X connect 12 0 13 0;
#X connect 13 0 14 0;
#X connect 13 1 14 1;
#X connect 14 0 11 1;
#X connect 15 0 16 0;
#X connect 16 0 25 0;
#X connect 17 0 18 0;
#X connect 20 0 11 0;
#X connect 21 0 7 0;
#X connect 22 0 4 0;
#X connect 23 0 3 0;
#X connect 25 0 24 0;
#X connect 25 1 8 0;
#X connect 26 0 27 0;
#X connect 27 0 10 0;
#X connect 28 0 29 0;
#X connect 29 0 27 0;
#X connect 30 0 5 0;
#X connect 31 0 30 0;
#X connect 31 1 30 1;
#X connect 32 0 17 0;
#X connect 32 1 19 0;
#X restore 508 677 pd reverse;
#X msg 644 765 set \$1;
#X obj 506 732 list prepend set;
#X obj 506 756 list trim;
#X msg 508 802 add2 0 0;
#X obj 599 744 t b b f;
#X obj 569 632 r \$0-toDirection;
#X obj 160 133 s \$0-toDirection;
#X obj 161 80 random 3;
#X obj 162 106 == 0;
#X obj 578 187 +;
#X obj 597 123 r \$0-changeBeats;
#X obj 151 -8 t b b f b;
#X obj 280 132 s \$0-changeBeats;
#X obj 580 344 t b f;
#X obj 308 68 random 5;
#X obj 281 110 - 2;
#N canvas 68 22 1440 754 slicer 0;
#X obj 175 535 outlet;
#X obj 178 560 inlet~;
#X obj 177 693 bonk~;
#X obj 822 741 timer;
#X obj 820 586 r \$0-beginSlicing;
#X obj 281 929 s \$0-newSlice;
#X obj 851 717 r \$0-newSlice;
#X obj 822 765 s \$0-sliceStartTime;
#X obj 43 644 r \$0-sliceStartTime;
#X obj 261 974 s \$0-sliceDuration;
#X obj -28 570 r \$0-sliceDuration;
#X obj 844 693 s \$0-resetCounter;
#X obj 327 948 s \$0-incrementCounter;
#X obj 449 604 r \$0-incrementCounter;
#X obj 483 641 r \$0-resetCounter;
#X obj 452 699 f;
#X obj 484 700 + 1;
#X msg 484 672 0;
#X obj 468 730 s \$0-sliceIndex;
#X obj 71 669 r \$0-sliceIndex;
#X obj 13 695 pack f f f;
#X obj 11 728 s \$0-sliceInfo;
#X obj 858 652 s \$0-clearBuffer;
#X obj -31 54 table \$0-sliceBuffer 100;
#X msg 622 703 \; \$1-sliceBuffer const 0 \;;
#X obj 623 672 \$0;
#X obj 622 642 r \$0-clearBuffer;
#X obj 1152 -14 r \$0-sliceInfo;
#X obj 1169 158 tabwrite \$0-sliceBuffer;
#X obj 1152 17 unpack f f f;
#X obj 1238 47 * 2;
#X obj 1229 91 f;
#X obj 1194 90 f;
#X obj 1193 115 + 1;
#X obj 1188 44 t f b;
#X obj 1151 45 t f b;
#X obj 701 -113 r \$0-readSlice;
#X obj 726 232 tabread \$0-sliceBuffer;
#X obj 821 624 t b b b;
#X obj 705 138 * 2;
#X msg 720 400 add2 \$1;
#X msg 693 475 16511 16511 \,;
#X msg 708 379 addcomma;
#X msg 737 425 set;
#X obj 1047 641 inlet;
#X obj 1044 695 s \$0-beginSlicing;
#X obj 1089 719 s \$0-readSlice;
#X obj 726 255 t f b;
#X obj 749 277 samplerate~;
#X obj 721 319 *;
#X obj 721 344 int;
#X obj 692 503 s \$0-playSlice;
#X obj 273 235 outlet;
#X obj 750 -81 r \$0-sliceIndex;
#X obj 702 -35 random;
#X obj 198 66 r \$0-playSlice;
#X obj 676 344 t b b;
#X obj 198 116 t a a b;
#X obj 279 160 samplerate~;
#X msg 219 169 \$2;
#X obj 262 206 /;
#X obj 231 620 loadbang;
#X obj 185 238 unpack f f;
#X obj 209 296 +;
#X obj 184 262 t f f;
#X obj 179 329 pack f f f;
#X msg 175 493 16511 \, 33022 374;
#X msg 223 398 addcomma;
#X msg 207 418 add2 \$2;
#X msg 187 448 add2 \$3;
#X obj 725 205 + 1;
#X obj 703 177 t b f f f;
#X obj 256 265 int;
#X obj 267 724 r \$0-clearBuffer;
#X obj 1046 669 route begin play sample;
#X obj 326 470 list trim;
#X obj 179 352 t b a a b a b;
#X obj 329 444 list append;
#X msg 240 376 set \$1;
#X obj 1138 749 s \$0-sampleToSlice;
#X obj 391 356 r \$0-sampleToSlice;
#X msg 329 414 1 set;
#X obj 328 496 list split 1;
#X obj 360 520 list trim;
#X obj 361 544 outlet;
#X obj 705 100 t f b b;
#X floatatom 762 -47 5 0 0 0 - - -;
#X msg 230 658 minvel 85;
#N canvas 363 264 450 300 db 0;
#X obj 86 8 inlet;
#X obj 87 237 outlet;
#X obj 87 51 spigot;
#X obj 87 94 t b b b;
#X msg 140 50 0;
#X obj 107 128 del 100;
#X msg 107 153 1;
#X obj 188 20 loadbang;
#X msg 186 43 1;
#X connect 0 0 2 0;
#X connect 2 0 3 0;
#X connect 3 0 1 0;
#X connect 3 1 5 0;
#X connect 3 2 4 0;
#X connect 4 0 2 1;
#X connect 5 0 6 0;
#X connect 6 0 2 1;
#X connect 7 0 8 0;
#X connect 8 0 2 1;
#X restore 203 726 pd db;
#X obj 177 617 *~;
#X obj 235 597 lop~ 1;
#X obj 233 554 r \$0-beginSlicing;
#X msg 234 576 1;
#X obj 288 575 r \$0-readSlice;
#X msg 288 600 0;
#X obj 748 298 * 0.001;
#X obj 279 181 * 0.001;
#X obj -27 622 moses 1;
#X floatatom 218 214 5 0 0 0 - - -;
#X floatatom 299 261 5 0 0 0 - - -;
#X floatatom 37 606 5 0 0 0 - - -;
#X obj 203 749 t b b;
#X obj 203 773 timer;
#X obj 202 795 t f f f;
#X obj 242 819 > 100;
#X obj 221 846 < 2000;
#X obj 228 871 &&;
#X obj 189 895 spigot;
#X obj 238 899 t b f b b;
#X connect 1 0 89 0;
#X connect 2 1 88 0;
#X connect 3 0 7 0;
#X connect 4 0 38 0;
#X connect 6 0 3 1;
#X connect 8 0 20 1;
#X connect 10 0 97 0;
#X connect 10 0 100 0;
#X connect 13 0 15 0;
#X connect 14 0 17 0;
#X connect 15 0 16 0;
#X connect 15 0 18 0;
#X connect 16 0 15 1;
#X connect 17 0 15 1;
#X connect 19 0 20 2;
#X connect 20 0 21 0;
#X connect 25 0 24 0;
#X connect 26 0 25 0;
#X connect 27 0 29 0;
#X connect 29 0 35 0;
#X connect 29 1 34 0;
#X connect 29 2 30 0;
#X connect 30 0 31 1;
#X connect 30 0 32 1;
#X connect 31 0 28 1;
#X connect 32 0 33 0;
#X connect 33 0 28 1;
#X connect 34 0 28 0;
#X connect 34 1 31 0;
#X connect 35 0 28 0;
#X connect 35 1 32 0;
#X connect 36 0 54 0;
#X connect 37 0 47 0;
#X connect 38 0 3 0;
#X connect 38 1 11 0;
#X connect 38 2 22 0;
#X connect 39 0 71 0;
#X connect 40 0 41 0;
#X connect 41 0 51 0;
#X connect 42 0 41 0;
#X connect 43 0 41 0;
#X connect 44 0 74 0;
#X connect 47 0 49 0;
#X connect 47 1 48 0;
#X connect 48 0 95 0;
#X connect 49 0 50 0;
#X connect 50 0 40 0;
#X connect 53 0 54 1;
#X connect 53 0 86 0;
#X connect 54 0 85 0;
#X connect 55 0 57 0;
#X connect 56 0 41 0;
#X connect 56 1 42 0;
#X connect 57 0 62 0;
#X connect 57 1 59 0;
#X connect 57 2 58 0;
#X connect 58 0 96 0;
#X connect 59 0 60 0;
#X connect 59 0 98 0;
#X connect 60 0 52 0;
#X connect 60 0 72 0;
#X connect 60 0 99 0;
#X connect 61 0 87 0;
#X connect 62 0 64 0;
#X connect 62 1 63 1;
#X connect 63 0 65 1;
#X connect 64 0 65 0;
#X connect 64 1 63 0;
#X connect 65 0 76 0;
#X connect 66 0 0 0;
#X connect 67 0 66 0;
#X connect 68 0 66 0;
#X connect 69 0 66 0;
#X connect 70 0 37 0;
#X connect 71 0 56 0;
#X connect 71 1 70 0;
#X connect 71 2 37 0;
#X connect 72 0 65 2;
#X connect 73 0 102 0;
#X connect 74 0 45 0;
#X connect 74 1 46 0;
#X connect 74 2 79 0;
#X connect 75 0 82 0;
#X connect 76 0 66 0;
#X connect 76 1 69 0;
#X connect 76 2 68 0;
#X connect 76 3 67 0;
#X connect 76 4 78 0;
#X connect 76 5 81 0;
#X connect 77 0 75 0;
#X connect 78 0 66 0;
#X connect 80 0 77 1;
#X connect 81 0 77 0;
#X connect 82 1 83 0;
#X connect 83 0 84 0;
#X connect 85 0 39 0;
#X connect 85 1 43 0;
#X connect 87 0 2 0;
#X connect 88 0 101 0;
#X connect 89 0 2 0;
#X connect 90 0 89 1;
#X connect 91 0 92 0;
#X connect 92 0 90 0;
#X connect 93 0 94 0;
#X connect 94 0 90 0;
#X connect 95 0 49 1;
#X connect 96 0 60 1;
#X connect 97 1 20 0;
#X connect 101 0 102 0;
#X connect 101 1 102 1;
#X connect 102 0 103 0;
#X connect 103 0 107 0;
#X connect 103 1 105 0;
#X connect 103 2 104 0;
#X connect 104 0 106 1;
#X connect 105 0 106 0;
#X connect 106 0 107 1;
#X connect 107 0 108 0;
#X connect 108 1 9 0;
#X connect 108 2 5 0;
#X connect 108 3 12 0;
#X restore 1117 920 pd slicer;
#X obj 1168 852 r \$0-play;
#X msg 1169 885 begin;
#X msg 1182 1192 0 5 \, 1 10 \, 0 10 105.612;
#X msg 1219 1112 addcomma;
#X obj 1201 1066 t f b b b b;
#X obj 1200 1033 r \$0-sliceDuration;
#X obj 1156 980 s \$0-sliceDuration;
#X obj 1117 954 t a b;
#X obj 1343 827 r \$0-setSample;
#X obj 1218 1009 s \$0-setSlice;
#X obj 628 952 r \$0-setSlice;
#X obj 1342 876 route set;
#X obj 1342 903 list prepend sample;
#X obj 1341 927 list trim;
#X obj 749 -51 route sample tempo beats;
#X obj 192 -79 route play slice;
#X obj 1247 813 r \$0-doSlice;
#X obj 258 -46 s \$0-doSlice;
#X msg 1228 887 play;
#X obj 1112 1007 s \$0-sliceRead;
#X obj 570 915 r \$0-sliceRead;
#X obj 1182 1217 s \$0-sliceEnv;
#X obj 657 1090 r \$0-sliceEnv;
#X obj 562 1065 s~ \$0-tableOut;
#X obj 1106 806 r~ \$0-tableOut;
#X msg 1270 1095 set 0 5;
#X msg 1219 1136 add2 1 10;
#X msg 1181 1164 add2 0 10 \$1;
#X obj 1185 1115 - 25;
#X obj 611 1185 *~;
#X obj 550 1040 tabread~;
#X obj 543 1217 hip~ 5;
#X obj 1238 856 spigot;
#X msg 1283 856 1;
#X obj 579 298 max 4;
#X obj 678 169 / 30;
#X obj 677 192 + 0.5;
#X obj 676 216 int;
#X floatatom 676 236 5 0 0 0 - - -;
#X obj 674 258 t b f;
#X obj 679 144 r \$0-tempo;
#X obj 576 242 f;
#X obj 1014 216 print load_sample;
#N canvas 846 99 450 300 db 0;
#X obj 99 84 inlet;
#X obj 97 140 spigot;
#X obj 98 187 t f b b;
#X obj 157 92 loadbang;
#X msg 156 116 1;
#X msg 138 213 0;
#X obj 119 246 del 30000;
#X obj 102 276 outlet;
#X connect 0 0 1 0;
#X connect 1 0 2 0;
#X connect 2 0 7 0;
#X connect 2 1 6 0;
#X connect 2 2 5 0;
#X connect 3 0 4 0;
#X connect 4 0 1 1;
#X connect 5 0 1 1;
#X connect 6 0 4 0;
#X restore 890 196 pd db;
#X obj 137 -69 t b;
#X connect 0 0 114 0;
#X connect 2 0 130 0;
#X connect 3 0 11 0;
#X connect 4 0 131 0;
#X connect 5 0 10 1;
#X connect 5 0 10 0;
#X connect 6 0 5 0;
#X connect 7 0 6 0;
#X connect 8 0 9 0;
#X connect 9 0 37 0;
#X connect 9 1 7 0;
#X connect 9 2 35 0;
#X connect 9 3 7 0;
#X connect 9 4 34 0;
#X connect 10 0 129 1;
#X connect 10 0 129 0;
#X connect 11 0 79 0;
#X connect 11 1 6 0;
#X connect 13 0 82 0;
#X connect 13 1 20 0;
#X connect 14 0 18 0;
#X connect 14 0 56 0;
#X connect 15 0 77 0;
#X connect 17 0 41 0;
#X connect 18 0 15 0;
#X connect 18 1 57 0;
#X connect 19 0 26 0;
#X connect 21 0 22 0;
#X connect 22 0 26 0;
#X connect 22 1 26 1;
#X connect 23 0 13 0;
#X connect 24 0 67 0;
#X connect 25 0 115 0;
#X connect 26 0 23 0;
#X connect 27 0 92 0;
#X connect 28 0 31 0;
#X connect 29 0 28 1;
#X connect 30 0 32 0;
#X connect 32 0 28 0;
#X connect 33 0 11 0;
#X connect 34 0 6 0;
#X connect 35 0 6 0;
#X connect 36 0 6 0;
#X connect 37 0 36 0;
#X connect 40 0 14 0;
#X connect 41 0 42 0;
#X connect 41 1 75 0;
#X connect 42 0 43 0;
#X connect 43 0 45 0;
#X connect 44 0 46 0;
#X connect 45 0 58 0;
#X connect 46 0 47 0;
#X connect 47 0 43 1;
#X connect 47 1 51 0;
#X connect 48 0 49 0;
#X connect 49 0 50 0;
#X connect 51 0 48 0;
#X connect 52 0 61 0;
#X connect 52 1 60 0;
#X connect 52 2 59 0;
#X connect 53 0 54 0;
#X connect 54 0 55 0;
#X connect 57 0 53 0;
#X connect 58 0 40 0;
#X connect 58 1 40 0;
#X connect 62 0 63 0;
#X connect 62 1 64 1;
#X connect 63 0 64 0;
#X connect 64 0 65 0;
#X connect 65 0 66 0;
#X connect 67 0 114 0;
#X connect 68 0 143 0;
#X connect 70 0 68 0;
#X connect 73 0 94 0;
#X connect 74 0 130 0;
#X connect 75 0 44 0;
#X connect 75 1 48 1;
#X connect 75 2 76 0;
#X connect 76 0 53 1;
#X connect 76 1 77 1;
#X connect 77 0 78 0;
#X connect 79 0 2 0;
#X connect 80 0 84 0;
#X connect 81 0 79 0;
#X connect 82 0 80 0;
#X connect 82 1 87 0;
#X connect 83 0 79 0;
#X connect 84 0 85 0;
#X connect 85 0 86 0;
#X connect 86 0 79 0;
#X connect 87 0 86 0;
#X connect 87 1 81 0;
#X connect 87 2 83 0;
#X connect 88 0 82 1;
#X connect 90 0 91 0;
#X connect 91 0 89 0;
#X connect 92 0 141 1;
#X connect 92 0 141 0;
#X connect 93 0 92 1;
#X connect 94 0 71 0;
#X connect 94 1 90 0;
#X connect 94 2 69 0;
#X connect 94 3 97 0;
#X connect 96 0 26 0;
#X connect 96 1 26 2;
#X connect 97 0 98 0;
#X connect 98 0 95 0;
#X connect 99 0 107 0;
#X connect 99 1 106 0;
#X connect 99 2 109 0;
#X connect 100 0 101 0;
#X connect 101 0 99 1;
#X connect 102 0 121 0;
#X connect 103 0 102 0;
#X connect 104 0 128 0;
#X connect 104 1 103 0;
#X connect 104 2 126 0;
#X connect 104 3 103 0;
#X connect 104 4 125 0;
#X connect 105 0 104 0;
#X connect 107 0 119 0;
#X connect 107 1 102 0;
#X connect 108 0 111 0;
#X connect 110 0 130 0;
#X connect 111 0 112 0;
#X connect 112 0 113 0;
#X connect 113 0 99 1;
#X connect 113 0 133 0;
#X connect 114 0 16 0;
#X connect 114 1 12 0;
#X connect 114 2 62 0;
#X connect 115 0 144 0;
#X connect 115 1 117 0;
#X connect 116 0 132 0;
#X connect 118 0 99 1;
#X connect 120 0 2 0;
#X connect 122 0 5 0;
#X connect 124 0 99 0;
#X connect 125 0 102 0;
#X connect 126 0 102 0;
#X connect 127 0 102 0;
#X connect 128 0 127 0;
#X connect 129 0 4 1;
#X connect 130 0 4 0;
#X connect 130 0 123 0;
#X connect 131 0 1 0;
#X connect 132 0 118 0;
#X connect 133 0 132 1;
#X connect 134 0 96 0;
#X connect 135 0 136 0;
#X connect 136 0 137 0;
#X connect 137 0 138 0;
#X connect 137 0 139 0;
#X connect 139 0 141 0;
#X connect 139 1 134 1;
#X connect 140 0 135 0;
#X connect 141 0 134 0;
#X connect 143 0 52 0;
#X connect 144 0 73 0;
