#N canvas 179 24 1440 806 10;
#X obj 36 539 list-enumerate;
#X obj 570 30 t b f;
#X obj 571 110 f;
#X obj 763 41 t b f;
#X obj 764 121 f;
#X obj 571 83 del 4;
#X obj 764 94 del 6;
#X obj 926 32 t b f;
#X obj 927 112 f;
#X obj 1083 44 t b f;
#X obj 1084 124 f;
#X obj 927 85 del 8;
#X obj 1084 97 del 10;
#X obj 181 516 list-enumerate;
#X obj 230 416 list-rev;
#X obj 43 323 t b b;
#X obj 226 486 spigot;
#X obj 181 486 spigot;
#X obj 621 235 *~;
#X obj 624 212 lop~ 1;
#X obj 578 248 *~;
#X obj 801 238 *~;
#X obj 804 215 lop~ 1;
#X obj 735 251 *~;
#X obj 899 247 *~;
#X obj 941 237 *~;
#X obj 944 214 lop~ 1;
#X obj 1123 231 *~;
#X obj 1126 208 lop~ 1;
#X obj 1055 255 *~;
#X obj -126 184 t b f f;
#X obj -88 206 * 0.05;
#X obj -88 327 + 0.5;
#X obj -89 229 t f b;
#X obj -60 282 * 0.0015;
#X obj -62 304 + 0.5;
#X obj 49 195 t b b;
#X obj 81 256 * 0.00333;
#X obj 43 295 del;
#X obj 176 10 s~ \$0-theNoise;
#X obj 578 275 throw~ \$0-out;
#X obj 739 276 throw~ \$0-out;
#X obj 902 276 throw~ \$0-out;
#X obj 636 612 catch~ \$0-out;
#X obj 640 687 outlet~;
#X obj 637 132 r~ \$0-theNoise;
#X obj 799 125 r~ \$0-theNoise;
#X obj 960 142 r~ \$0-theNoise;
#X obj 1139 95 r~ \$0-theNoise;
#X obj 38 -17 inlet;
#X obj 37 10 s \$0-theChord;
#X obj 60 371 r \$0-theChord;
#X obj 47 154 r \$0-doStrum;
#X obj 289 415 r \$0-strumDirection;
#X obj -88 353 s \$0-vol;
#X obj -105 375 s \$0-strumDirection;
#X obj -124 398 s \$0-doStrum;
#X obj 568 0 r \$0-string4;
#X obj 761 11 r \$0-string3;
#X obj 924 2 r \$0-string2;
#X obj 1081 14 r \$0-string1;
#X obj 584 51 r \$0-del4;
#X obj 777 62 r \$0-del3;
#X obj 940 53 r \$0-del2;
#X obj 1097 65 r \$0-del1;
#X obj 1054 281 throw~ \$0-out;
#X obj 1126 133 r \$0-vol;
#X obj 805 192 r \$0-vol;
#X obj 945 191 r \$0-vol;
#X obj 625 189 r \$0-vol;
#X obj 36 571 route 0 1 2 3;
#X obj 35 600 s \$0-string4;
#X obj 50 623 s \$0-string3;
#X obj 66 645 s \$0-string2;
#X obj 81 668 s \$0-string1;
#X msg 181 364 0 20 35 50;
#X obj 186 547 route 0 1 2 3;
#X obj 187 582 s \$0-del4;
#X obj 202 605 s \$0-del3;
#X obj 218 627 s \$0-del2;
#X obj 233 650 s \$0-del1;
#X obj -128 -12 inlet;
#X obj 62 397 list prepend set;
#X obj 33 505 list-map;
#X msg 36 463 0 4 4 4;
#X obj 579 166 mm_string~;
#X floatatom 601 137 5 0 0 0 - - -;
#X obj 736 178 mm_string~;
#X floatatom 767 145 5 0 0 0 - - -;
#X obj 899 169 mm_string~;
#X floatatom 924 137 5 0 0 0 - - -;
#X obj 1056 181 mm_string~;
#X floatatom 1090 147 5 0 0 0 - - -;
#X obj 174 -20 noise~;
#X obj 212 464 mm_invert 1;
#X obj -126 110 mod 2;
#X obj 61 426 list trim;
#X floatatom -10 346 5 0 0 0 - - -;
#X obj 174 180 bng 15 250 50 0 empty empty empty 17 7 0 10 -262144
-1 -1;
#X obj -61 251 mm_srandom 100 137;
#X obj 81 225 mm_srandom 158;
#X obj 637 647 hip~ 5;
#X obj 94 505 + 60;
#X connect 0 0 70 0;
#X connect 1 0 5 0;
#X connect 1 1 2 1;
#X connect 2 0 86 0;
#X connect 2 0 85 0;
#X connect 3 0 6 0;
#X connect 3 1 4 1;
#X connect 4 0 88 0;
#X connect 4 0 87 0;
#X connect 5 0 2 0;
#X connect 6 0 4 0;
#X connect 7 0 11 0;
#X connect 7 1 8 1;
#X connect 8 0 90 0;
#X connect 9 0 12 0;
#X connect 9 1 10 1;
#X connect 10 0 92 0;
#X connect 11 0 8 0;
#X connect 12 0 10 0;
#X connect 13 0 76 0;
#X connect 14 0 16 0;
#X connect 15 0 84 0;
#X connect 15 1 75 0;
#X connect 16 0 13 0;
#X connect 17 0 13 0;
#X connect 18 0 20 1;
#X connect 19 0 18 1;
#X connect 19 0 18 0;
#X connect 20 0 40 0;
#X connect 21 0 23 1;
#X connect 22 0 21 1;
#X connect 22 0 21 0;
#X connect 23 0 41 0;
#X connect 24 0 42 0;
#X connect 25 0 24 1;
#X connect 26 0 25 1;
#X connect 26 0 25 0;
#X connect 27 0 29 1;
#X connect 28 0 27 1;
#X connect 28 0 27 0;
#X connect 29 0 65 0;
#X connect 30 0 56 0;
#X connect 30 1 55 0;
#X connect 30 2 31 0;
#X connect 31 0 33 0;
#X connect 32 0 54 0;
#X connect 32 0 97 0;
#X connect 33 0 32 0;
#X connect 33 1 99 0;
#X connect 34 0 35 0;
#X connect 35 0 32 1;
#X connect 36 0 38 0;
#X connect 36 1 100 0;
#X connect 37 0 38 1;
#X connect 38 0 15 0;
#X connect 43 0 101 0;
#X connect 45 0 85 1;
#X connect 46 0 87 1;
#X connect 47 0 89 1;
#X connect 48 0 91 1;
#X connect 49 0 50 0;
#X connect 51 0 82 0;
#X connect 52 0 36 0;
#X connect 52 0 98 0;
#X connect 53 0 16 1;
#X connect 53 0 94 0;
#X connect 57 0 1 0;
#X connect 58 0 3 0;
#X connect 59 0 7 0;
#X connect 60 0 9 0;
#X connect 61 0 5 1;
#X connect 62 0 6 1;
#X connect 63 0 11 1;
#X connect 64 0 12 1;
#X connect 66 0 28 0;
#X connect 67 0 22 0;
#X connect 68 0 26 0;
#X connect 69 0 19 0;
#X connect 70 0 71 0;
#X connect 70 1 72 0;
#X connect 70 2 73 0;
#X connect 70 3 74 0;
#X connect 75 0 14 0;
#X connect 75 0 17 0;
#X connect 76 0 77 0;
#X connect 76 1 78 0;
#X connect 76 2 79 0;
#X connect 76 3 80 0;
#X connect 81 0 95 0;
#X connect 82 0 96 0;
#X connect 83 0 0 0;
#X connect 83 1 102 0;
#X connect 84 0 83 0;
#X connect 85 0 20 0;
#X connect 87 0 23 0;
#X connect 89 0 24 0;
#X connect 90 0 89 0;
#X connect 91 0 29 0;
#X connect 92 0 91 0;
#X connect 93 0 39 0;
#X connect 94 0 17 1;
#X connect 95 0 30 0;
#X connect 96 0 84 0;
#X connect 99 0 34 0;
#X connect 100 0 37 0;
#X connect 101 0 44 0;
#X connect 102 0 83 1;
