#N canvas 140 33 1440 806 10;
#X obj 69 738 list-enumerate;
#X obj 566 11 t b f;
#X obj 567 91 f;
#X obj 731 17 t b f;
#X obj 732 97 f;
#X obj 567 64 del 4;
#X obj 732 70 del 6;
#X obj 899 -2 t b f;
#X obj 900 78 f;
#X obj 1078 26 t b f;
#X obj 1079 106 f;
#X obj 900 51 del 8;
#X obj 1079 79 del 10;
#X obj 219 695 list-enumerate;
#X obj 268 595 list-rev;
#X obj 63 304 t b b;
#X obj 264 665 spigot;
#X obj 219 665 spigot;
#X obj 621 305 *~;
#X obj 624 282 lop~ 1;
#X obj 578 318 *~;
#X obj 801 238 *~;
#X obj 804 215 lop~ 1;
#X obj 735 251 *~;
#X obj 899 247 *~;
#X obj 941 237 *~;
#X obj 944 214 lop~ 1;
#X obj 1123 231 *~;
#X obj 1126 208 lop~ 1;
#X obj 1055 255 *~;
#X obj -131 151 t b f f;
#X obj -92 176 * 0.05;
#X obj -91 199 t f b;
#X obj 69 186 t b b;
#X obj 63 276 del;
#X obj 176 10 s~ \$0-theNoise;
#X obj 578 374 throw~ \$0-out;
#X obj 743 371 throw~ \$0-out;
#X obj 906 371 throw~ \$0-out;
#X obj 642 671 catch~ \$0-out;
#X obj 641 870 outlet~;
#X obj 633 183 r~ \$0-theNoise;
#X obj 799 125 r~ \$0-theNoise;
#X obj 960 142 r~ \$0-theNoise;
#X obj 1134 77 r~ \$0-theNoise;
#X obj 38 -17 inlet;
#X obj 37 10 s \$0-theChord;
#X obj 103 285 r \$0-theChord;
#X obj 71 42 r \$0-doStrum;
#X obj 326 589 r \$0-strumDirection;
#X obj -80 352 s \$0-vol;
#X obj -110 384 s \$0-strumDirection;
#X obj -129 423 s \$0-doStrum;
#X obj 564 -19 r \$0-string4;
#X obj 729 -13 r \$0-string3;
#X obj 897 -32 r \$0-string2;
#X obj 1076 -4 r \$0-string1;
#X obj 580 32 r \$0-del4;
#X obj 745 38 r \$0-del3;
#X obj 943 16 r \$0-del2;
#X obj 1092 47 r \$0-del1;
#X obj 1058 373 throw~ \$0-out;
#X obj 1121 115 r \$0-vol;
#X obj 805 192 r \$0-vol;
#X obj 945 191 r \$0-vol;
#X obj 625 259 r \$0-vol;
#X obj 68 799 s \$0-string4;
#X obj 83 822 s \$0-string3;
#X obj 99 844 s \$0-string2;
#X obj 114 867 s \$0-string1;
#X obj 225 761 s \$0-del4;
#X obj 240 784 s \$0-del3;
#X obj 256 806 s \$0-del2;
#X obj 271 829 s \$0-del1;
#X obj -114 -28 inlet;
#X obj 575 217 mm_string~;
#X floatatom 597 188 5 0 0 0 - - -;
#X obj 736 178 mm_string~;
#X floatatom 735 121 5 0 0 0 - - -;
#X obj 899 169 mm_string~;
#X floatatom 898 105 5 0 0 0 - - -;
#X obj 1056 181 mm_string~;
#X floatatom 1078 129 5 0 0 0 - - -;
#X obj 174 -20 noise~;
#X obj 255 639 mm_invert 1;
#X floatatom -15 346 5 0 0 0 - - -;
#X obj -65 245 mm_srandom 100 137;
#X obj 641 846 hip~ 5;
#X obj 1260 -6 t b f;
#X obj 1261 74 f;
#X obj 1300 234 *~;
#X obj 1303 211 lop~ 1;
#X obj 1232 258 *~;
#X obj 1316 45 r~ \$0-theNoise;
#X obj 1235 376 throw~ \$0-out;
#X obj 1303 83 r \$0-vol;
#X obj 1233 184 mm_string~;
#X floatatom 1260 97 5 0 0 0 - - -;
#X obj 1258 -36 r \$0-string0;
#X obj 1261 47 del 12;
#X obj 1274 15 r \$0-del0;
#X obj 101 213 mm_srandom 100 534;
#X obj -112 116 mod 2;
#X obj 289 854 s \$0-del0;
#X obj 224 726 route 0 1 2 3 4;
#X obj 69 770 route 0 1 2 3 4;
#X obj 137 886 s \$0-string0;
#X obj 62 412 list split 2;
#X obj 100 501 list split 2;
#X obj 66 475 list-map;
#X obj 127 475 + 48;
#X obj 99 525 list-map;
#X obj 160 525 + 60;
#X obj 136 554 list-map;
#X obj 197 554 + 72;
#X obj 82 599 list append;
#X obj 82 624 list append;
#X obj 79 647 list prepend set;
#X obj 76 674 list trim;
#X msg 68 711 50 46 81 81 98;
#X obj 108 311 t a a;
#X obj 109 373 list append;
#X obj 143 336 list split 1;
#X obj 460 440 list-map;
#X obj 554 445 t f b;
#X obj 581 470 mm_srandom 20 166;
#X obj 581 495 - 10;
#X obj 558 521 +;
#X obj 460 546 list prepend set;
#X obj 461 570 list trim;
#X msg 461 590 13 28 43 58 73;
#N canvas 634 317 450 300 jit 0;
#X obj 322 93 t f b;
#X obj 349 118 mm_srandom 20 166;
#X obj 349 143 - 10;
#X obj 327 229 +;
#X obj 324 21 inlet;
#X obj 331 264 outlet;
#X obj 349 164 * 0.005;
#X connect 0 0 3 0;
#X connect 0 1 1 0;
#X connect 1 0 2 0;
#X connect 2 0 6 0;
#X connect 3 0 5 0;
#X connect 4 0 0 0;
#X connect 6 0 3 1;
#X restore 567 135 pd jit pitch;
#N canvas 634 317 450 300 jit 0;
#X obj 322 93 t f b;
#X obj 349 143 - 10;
#X obj 327 229 +;
#X obj 324 21 inlet;
#X obj 331 264 outlet;
#X obj 349 118 mm_srandom 20 167;
#X obj 349 164 * 0.0035;
#X connect 0 0 2 0;
#X connect 0 1 5 0;
#X connect 1 0 6 0;
#X connect 2 0 4 0;
#X connect 3 0 0 0;
#X connect 5 0 1 0;
#X connect 6 0 2 1;
#X restore 733 150 pd jit pitch;
#N canvas 634 317 450 300 jit 0;
#X obj 322 93 t f b;
#X obj 349 143 - 10;
#X obj 327 229 +;
#X obj 324 21 inlet;
#X obj 331 264 outlet;
#X obj 349 118 mm_srandom 20 134;
#X obj 349 164 * 0.003;
#X connect 0 0 2 0;
#X connect 0 1 5 0;
#X connect 1 0 6 0;
#X connect 2 0 4 0;
#X connect 3 0 0 0;
#X connect 5 0 1 0;
#X connect 6 0 2 1;
#X restore 901 125 pd jit pitch;
#N canvas 634 317 450 300 jit 0;
#X obj 322 93 t f b;
#X obj 349 143 - 10;
#X obj 327 229 +;
#X obj 324 21 inlet;
#X obj 331 264 outlet;
#X obj 349 164 * 0.0025;
#X obj 349 118 mm_srandom 20 139;
#X connect 0 0 2 0;
#X connect 0 1 6 0;
#X connect 1 0 5 0;
#X connect 2 0 4 0;
#X connect 3 0 0 0;
#X connect 5 0 2 1;
#X connect 6 0 1 0;
#X restore 1055 154 pd jit pitch;
#N canvas 634 317 450 300 jit 0;
#X obj 322 93 t f b;
#X obj 349 143 - 10;
#X obj 327 229 +;
#X obj 324 21 inlet;
#X obj 331 264 outlet;
#X obj 349 164 * 0.0025;
#X obj 349 118 mm_srandom 20 122;
#X connect 0 0 2 0;
#X connect 0 1 6 0;
#X connect 1 0 5 0;
#X connect 2 0 4 0;
#X connect 3 0 0 0;
#X connect 5 0 2 1;
#X connect 6 0 1 0;
#X restore 1232 149 pd jit pitch;
#X obj 741 340 mm_bpfilter~ 2500 2;
#X obj 578 347 mm_bpfilter~ 750 2;
#X obj 900 338 mm_bpfilter~ 4200 1;
#X obj 1061 339 mm_bpfilter~ 6500 1;
#X obj 1232 337 mm_bpfilter~ 8500 1;
#X obj -80 324 + 0.33;
#X floatatom 0 324 5 0 0 0 - - -;
#X obj -62 270 * 0.00333;
#X obj -48 295 + 0.33;
#X obj 72 79 t b b;
#X obj 101 104 mm_srandom 100 532;
#X obj 69 162 spigot;
#X obj 223 345 loadbang;
#X obj 222 411 f \$1;
#X obj 237 448 f \$2;
#X obj 243 489 f \$3;
#X obj 243 515 * 12;
#X obj 237 468 * 12;
#X obj 220 431 * 12;
#X obj 222 369 t b b b;
#X obj 646 703 *~ 1.01;
#X obj -63 -28 r divisions;
#X obj -63 -5 mod 2;
#X obj -82 81 + 2;
#X obj 102 131 > 85;
#X obj 101 237 * 0.1;
#X obj 643 740 mm_shfilter~ 1100 2 9000 1;
#X floatatom 491 196 5 0 0 0 - - -;
#X obj 320 35 r onOff;
#X obj 324 126 s \$0-vol;
#X obj 321 65 sel 0;
#X msg 322 95 0;
#X connect 0 0 105 0;
#X connect 1 0 5 0;
#X connect 1 1 2 1;
#X connect 2 0 76 0;
#X connect 2 0 131 0;
#X connect 3 0 6 0;
#X connect 3 1 4 1;
#X connect 4 0 78 0;
#X connect 4 0 132 0;
#X connect 5 0 2 0;
#X connect 6 0 4 0;
#X connect 7 0 11 0;
#X connect 7 1 8 1;
#X connect 8 0 80 0;
#X connect 9 0 12 0;
#X connect 9 1 10 1;
#X connect 10 0 82 0;
#X connect 11 0 8 0;
#X connect 12 0 10 0;
#X connect 13 0 104 0;
#X connect 14 0 16 0;
#X connect 15 0 119 0;
#X connect 15 1 130 0;
#X connect 16 0 13 0;
#X connect 17 0 13 0;
#X connect 18 0 20 1;
#X connect 19 0 18 1;
#X connect 19 0 18 0;
#X connect 20 0 137 0;
#X connect 21 0 23 1;
#X connect 22 0 21 1;
#X connect 22 0 21 0;
#X connect 23 0 136 0;
#X connect 24 0 138 0;
#X connect 25 0 24 1;
#X connect 26 0 25 1;
#X connect 26 0 25 0;
#X connect 27 0 29 1;
#X connect 28 0 27 1;
#X connect 28 0 27 0;
#X connect 29 0 139 0;
#X connect 30 0 52 0;
#X connect 30 1 51 0;
#X connect 30 2 31 0;
#X connect 31 0 32 0;
#X connect 32 0 141 0;
#X connect 32 1 86 0;
#X connect 33 0 34 0;
#X connect 33 1 101 0;
#X connect 34 0 15 0;
#X connect 39 0 156 0;
#X connect 41 0 75 1;
#X connect 42 0 77 1;
#X connect 43 0 79 1;
#X connect 44 0 81 1;
#X connect 45 0 46 0;
#X connect 47 0 120 0;
#X connect 48 0 145 0;
#X connect 49 0 16 1;
#X connect 49 0 84 0;
#X connect 53 0 1 0;
#X connect 54 0 3 0;
#X connect 55 0 7 0;
#X connect 56 0 9 0;
#X connect 57 0 5 1;
#X connect 58 0 6 1;
#X connect 59 0 11 1;
#X connect 60 0 12 1;
#X connect 62 0 28 0;
#X connect 63 0 22 0;
#X connect 64 0 26 0;
#X connect 65 0 19 0;
#X connect 74 0 102 0;
#X connect 75 0 20 0;
#X connect 77 0 23 0;
#X connect 79 0 24 0;
#X connect 80 0 133 0;
#X connect 81 0 29 0;
#X connect 82 0 134 0;
#X connect 83 0 35 0;
#X connect 84 0 17 1;
#X connect 86 0 143 0;
#X connect 87 0 40 0;
#X connect 88 0 99 0;
#X connect 88 1 89 1;
#X connect 89 0 97 0;
#X connect 90 0 92 1;
#X connect 91 0 90 1;
#X connect 91 0 90 0;
#X connect 92 0 140 0;
#X connect 93 0 96 1;
#X connect 95 0 91 0;
#X connect 96 0 92 0;
#X connect 97 0 135 0;
#X connect 98 0 88 0;
#X connect 99 0 89 0;
#X connect 100 0 99 1;
#X connect 101 0 161 0;
#X connect 102 0 30 0;
#X connect 104 0 70 0;
#X connect 104 1 71 0;
#X connect 104 2 72 0;
#X connect 104 3 73 0;
#X connect 104 4 103 0;
#X connect 105 0 66 0;
#X connect 105 1 67 0;
#X connect 105 2 68 0;
#X connect 105 3 69 0;
#X connect 105 4 106 0;
#X connect 107 0 109 0;
#X connect 107 1 108 0;
#X connect 108 0 111 0;
#X connect 108 1 113 0;
#X connect 109 0 115 0;
#X connect 109 1 110 0;
#X connect 110 0 109 1;
#X connect 111 0 115 1;
#X connect 111 1 112 0;
#X connect 112 0 111 1;
#X connect 113 0 116 1;
#X connect 113 1 114 0;
#X connect 114 0 113 1;
#X connect 115 0 116 0;
#X connect 116 0 117 0;
#X connect 117 0 118 0;
#X connect 118 0 119 0;
#X connect 119 0 0 0;
#X connect 120 0 121 0;
#X connect 120 1 122 0;
#X connect 121 0 107 0;
#X connect 122 0 121 1;
#X connect 123 0 128 0;
#X connect 123 1 124 0;
#X connect 124 0 127 0;
#X connect 124 1 125 0;
#X connect 125 0 126 0;
#X connect 126 0 127 1;
#X connect 127 0 123 1;
#X connect 128 0 129 0;
#X connect 129 0 130 0;
#X connect 130 0 14 0;
#X connect 130 0 17 0;
#X connect 131 0 75 0;
#X connect 131 0 163 0;
#X connect 132 0 77 0;
#X connect 133 0 79 0;
#X connect 134 0 81 0;
#X connect 135 0 96 0;
#X connect 136 0 37 0;
#X connect 137 0 36 0;
#X connect 138 0 38 0;
#X connect 139 0 61 0;
#X connect 140 0 94 0;
#X connect 141 0 50 0;
#X connect 141 0 142 0;
#X connect 143 0 144 0;
#X connect 144 0 141 1;
#X connect 145 0 147 0;
#X connect 145 1 146 0;
#X connect 146 0 160 0;
#X connect 147 0 33 0;
#X connect 148 0 155 0;
#X connect 149 0 154 0;
#X connect 150 0 153 0;
#X connect 151 0 152 0;
#X connect 152 0 114 1;
#X connect 153 0 112 1;
#X connect 154 0 110 1;
#X connect 155 0 149 0;
#X connect 155 1 150 0;
#X connect 155 2 151 0;
#X connect 156 0 162 0;
#X connect 157 0 158 0;
#X connect 158 0 159 0;
#X connect 159 0 102 1;
#X connect 160 0 147 1;
#X connect 161 0 34 1;
#X connect 162 0 87 0;
#X connect 164 0 166 0;
#X connect 166 0 167 0;
#X connect 167 0 165 0;
