#N canvas 274 23 1440 806 10;
#X obj 36 547 list-enumerate;
#X obj 606 133 mtof;
#X obj 606 29 t b f;
#X obj 607 109 f;
#X obj 763 145 mtof;
#X obj 763 41 t b f;
#X obj 764 121 f;
#X obj 607 82 del 4;
#X obj 764 94 del 6;
#X obj 926 136 mtof;
#X obj 926 32 t b f;
#X obj 927 112 f;
#X obj 1083 148 mtof;
#X obj 1083 44 t b f;
#X obj 1084 124 f;
#X obj 927 85 del 8;
#X obj 1084 97 del 10;
#X obj 181 516 list-enumerate;
#X obj 230 416 list-rev;
#X obj 43 323 t b b;
#X obj 226 486 spigot;
#X obj 181 486 spigot;
#N canvas 632 452 450 300 inv 0;
#X obj 108 48 inlet;
#X obj 108 87 swap 1;
#X obj 109 122 -;
#X obj 107 159 outlet;
#X connect 0 0 1 0;
#X connect 1 0 2 0;
#X connect 1 1 2 1;
#X connect 2 0 3 0;
#X restore 212 464 pd inv;
#X obj 621 235 *~;
#X obj 624 212 lop~ 1;
#X obj 578 248 *~;
#X obj 801 238 *~;
#X obj 804 215 lop~ 1;
#X obj 735 251 *~;
#X obj 899 247 *~;
#X obj 941 237 *~;
#X obj 944 214 lop~ 1;
#X obj 1123 231 *~;
#X obj 1126 208 lop~ 1;
#X obj 1055 255 *~;
#X obj -126 184 t b f f;
#X obj -88 206 * 0.05;
#X obj -88 313 + 0.5;
#X obj -89 229 t f b;
#X obj -61 251 random 100;
#X obj -61 270 * 0.0015;
#X obj -62 290 + 0.5;
#X obj 49 195 t b b;
#X obj 72 234 random 100;
#X obj 73 255 * 0.00333;
#X obj 43 295 del;
#X obj 579 166 mm_guitar_string~;
#X obj 736 178 mm_guitar_string~;
#X obj 899 169 mm_guitar_string~;
#X obj 1056 181 mm_guitar_string~;
#X obj 796 649 loadbang;
#X msg 795 675 switch 1 \, length 25 \, feedback 0.1 \, lopfreq 1000
;
#X obj 174 -20 inlet~;
#X obj 176 10 s~ \$0-theNoise;
#X obj 578 275 throw~ \$0-out;
#X obj 739 276 throw~ \$0-out;
#X obj 795 706 s \$0-stringParms;
#X obj 636 143 r \$0-stringParms;
#X obj 793 155 r \$0-stringParms;
#X obj 956 146 r \$0-stringParms;
#X obj 902 276 throw~ \$0-out;
#X obj 633 375 catch~ \$0-out;
#X obj 634 418 lop~ 150;
#X obj 640 687 outlet~;
#X obj 577 -24 r~ \$0-theNoise;
#X obj 734 -12 r~ \$0-theNoise;
#X obj 897 -21 r~ \$0-theNoise;
#X obj 1054 -9 r~ \$0-theNoise;
#X obj 1174 139 r \$0-stringParms;
#X obj 38 -17 inlet;
#X obj 37 10 s \$0-theChord;
#X obj 60 371 r \$0-theChord;
#X obj 52 154 r \$0-doStrum;
#X obj 289 415 r \$0-strumDirection;
#X obj -88 339 s \$0-vol;
#X obj -105 361 s \$0-strumDirection;
#X obj -124 384 s \$0-doStrum;
#X obj 604 -1 r \$0-string4;
#X obj 761 11 r \$0-string3;
#X obj 924 2 r \$0-string2;
#X obj 1081 14 r \$0-string1;
#X obj 620 50 r \$0-del4;
#X obj 777 62 r \$0-del3;
#X obj 940 53 r \$0-del2;
#X obj 1097 65 r \$0-del1;
#X obj 1054 281 throw~ \$0-out;
#X obj 1126 133 r \$0-vol;
#X obj 805 192 r \$0-vol;
#X obj 945 191 r \$0-vol;
#X obj 625 189 r \$0-vol;
#X obj 36 571 route 0 1 2 3;
#X obj 35 600 s \$0-string4;
#X obj 50 623 s \$0-string3;
#X obj 66 645 s \$0-string2;
#X obj 81 668 s \$0-string1;
#X msg 181 364 0 20 35 50;
#X obj 186 547 route 0 1 2 3;
#X obj 187 582 s \$0-del4;
#X obj 202 605 s \$0-del3;
#X obj 218 627 s \$0-del2;
#X obj 233 650 s \$0-del1;
#X obj -128 -12 inlet;
#X obj 62 397 list prepend set;
#X obj 33 505 list-map;
#X obj 94 505 + 60;
#X msg 36 463;
#X connect 0 0 90 0;
#X connect 1 0 46 1;
#X connect 2 0 7 0;
#X connect 2 1 3 1;
#X connect 3 0 1 0;
#X connect 4 0 47 1;
#X connect 5 0 8 0;
#X connect 5 1 6 1;
#X connect 6 0 4 0;
#X connect 7 0 3 0;
#X connect 8 0 6 0;
#X connect 9 0 48 1;
#X connect 10 0 15 0;
#X connect 10 1 11 1;
#X connect 11 0 9 0;
#X connect 12 0 49 1;
#X connect 13 0 16 0;
#X connect 13 1 14 1;
#X connect 14 0 12 0;
#X connect 15 0 11 0;
#X connect 16 0 14 0;
#X connect 17 0 96 0;
#X connect 18 0 20 0;
#X connect 19 0 105 0;
#X connect 19 1 95 0;
#X connect 20 0 17 0;
#X connect 21 0 17 0;
#X connect 22 0 21 1;
#X connect 23 0 25 1;
#X connect 24 0 23 1;
#X connect 24 0 23 0;
#X connect 25 0 54 0;
#X connect 26 0 28 1;
#X connect 27 0 26 1;
#X connect 27 0 26 0;
#X connect 28 0 55 0;
#X connect 29 0 60 0;
#X connect 30 0 29 1;
#X connect 31 0 30 1;
#X connect 31 0 30 0;
#X connect 32 0 34 1;
#X connect 33 0 32 1;
#X connect 33 0 32 0;
#X connect 34 0 85 0;
#X connect 35 0 76 0;
#X connect 35 1 75 0;
#X connect 35 2 36 0;
#X connect 36 0 38 0;
#X connect 37 0 74 0;
#X connect 38 0 37 0;
#X connect 38 1 39 0;
#X connect 39 0 40 0;
#X connect 40 0 41 0;
#X connect 41 0 37 1;
#X connect 42 0 45 0;
#X connect 42 1 43 0;
#X connect 43 0 44 0;
#X connect 44 0 45 1;
#X connect 45 0 19 0;
#X connect 46 0 25 0;
#X connect 47 0 28 0;
#X connect 48 0 29 0;
#X connect 49 0 34 0;
#X connect 50 0 51 0;
#X connect 51 0 56 0;
#X connect 52 0 53 0;
#X connect 57 0 46 2;
#X connect 58 0 47 2;
#X connect 59 0 48 2;
#X connect 61 0 62 0;
#X connect 62 0 63 0;
#X connect 64 0 46 0;
#X connect 65 0 47 0;
#X connect 66 0 48 0;
#X connect 67 0 49 0;
#X connect 68 0 49 2;
#X connect 69 0 70 0;
#X connect 71 0 102 0;
#X connect 72 0 42 0;
#X connect 73 0 20 1;
#X connect 73 0 22 0;
#X connect 77 0 2 0;
#X connect 78 0 5 0;
#X connect 79 0 10 0;
#X connect 80 0 13 0;
#X connect 81 0 7 1;
#X connect 82 0 8 1;
#X connect 83 0 15 1;
#X connect 84 0 16 1;
#X connect 86 0 33 0;
#X connect 87 0 27 0;
#X connect 88 0 31 0;
#X connect 89 0 24 0;
#X connect 90 0 91 0;
#X connect 90 1 92 0;
#X connect 90 2 93 0;
#X connect 90 3 94 0;
#X connect 95 0 18 0;
#X connect 95 0 21 0;
#X connect 96 0 97 0;
#X connect 96 1 98 0;
#X connect 96 2 99 0;
#X connect 96 3 100 0;
#X connect 101 0 35 0;
#X connect 102 0 105 0;
#X connect 103 0 0 0;
#X connect 103 1 104 0;
#X connect 104 0 103 1;
#X connect 105 0 103 0;
