#N canvas 89 99 1440 806 10;
#X obj 64 785 list-enumerate;
#X obj 570 30 t b f;
#X obj 571 110 f;
#X obj 731 17 t b f;
#X obj 732 97 f;
#X obj 571 83 del 4;
#X obj 732 70 del 6;
#X obj 899 -2 t b f;
#X obj 900 78 f;
#X obj 1078 26 t b f;
#X obj 1079 106 f;
#X obj 900 51 del 8;
#X obj 1079 79 del 10;
#X obj 211 518 list-enumerate;
#X obj 260 418 list-rev;
#X obj 63 304 t b b;
#X obj 256 488 spigot;
#X obj 211 488 spigot;
#X obj 621 305 *~;
#X obj 624 282 lop~ 1;
#X obj 578 318 *~;
#X obj 801 238 *~;
#X obj 804 215 lop~ 1;
#X obj 735 251 *~;
#X obj 899 247 *~;
#X obj 941 237 *~;
#X obj 944 214 lop~ 1;
#X obj 1123 231 *~;
#X obj 1126 208 lop~ 1;
#X obj 1055 255 *~;
#X obj -126 184 t b f f;
#X obj -87 209 * 0.05;
#X obj -86 232 t f b;
#X obj 69 176 t b b;
#X obj 101 237 * 0.00333;
#X obj 63 276 del;
#X obj 176 10 s~ \$0-theNoise;
#X obj 578 374 throw~ \$0-out;
#X obj 743 371 throw~ \$0-out;
#X obj 906 371 throw~ \$0-out;
#X obj 636 688 catch~ \$0-out;
#X obj 640 763 outlet~;
#X obj 637 202 r~ \$0-theNoise;
#X obj 799 125 r~ \$0-theNoise;
#X obj 960 142 r~ \$0-theNoise;
#X obj 1134 77 r~ \$0-theNoise;
#X obj 38 -17 inlet;
#X obj 37 10 s \$0-theChord;
#X obj 103 285 r \$0-theChord;
#X obj 67 135 r \$0-doStrum;
#X obj 318 412 r \$0-strumDirection;
#X obj -75 385 s \$0-vol;
#X obj -105 408 s \$0-strumDirection;
#X obj -124 431 s \$0-doStrum;
#X obj 568 0 r \$0-string4;
#X obj 729 -13 r \$0-string3;
#X obj 897 -32 r \$0-string2;
#X obj 1076 -4 r \$0-string1;
#X obj 584 51 r \$0-del4;
#X obj 745 38 r \$0-del3;
#X obj 943 16 r \$0-del2;
#X obj 1092 47 r \$0-del1;
#X obj 1058 373 throw~ \$0-out;
#X obj 1121 115 r \$0-vol;
#X obj 805 192 r \$0-vol;
#X obj 945 191 r \$0-vol;
#X obj 625 259 r \$0-vol;
#X obj 63 846 s \$0-string4;
#X obj 78 869 s \$0-string3;
#X obj 94 891 s \$0-string2;
#X obj 109 914 s \$0-string1;
#X obj 217 584 s \$0-del4;
#X obj 232 607 s \$0-del3;
#X obj 248 629 s \$0-del2;
#X obj 263 652 s \$0-del1;
#X obj -128 -12 inlet;
#X obj 579 236 mm_string~;
#X floatatom 601 207 5 0 0 0 - - -;
#X obj 736 178 mm_string~;
#X floatatom 735 121 5 0 0 0 - - -;
#X obj 899 169 mm_string~;
#X floatatom 898 105 5 0 0 0 - - -;
#X obj 1056 181 mm_string~;
#X floatatom 1078 129 5 0 0 0 - - -;
#X obj 174 -20 noise~;
#X obj 247 462 mm_invert 1;
#X floatatom -10 379 5 0 0 0 - - -;
#X obj 194 161 bng 15 250 50 0 empty empty empty 17 7 0 10 -262144
-1 -1;
#X obj -60 272 mm_srandom 100 137;
#X obj 637 723 hip~ 5;
#X obj 1260 -6 t b f;
#X obj 1261 74 f;
#X obj 1300 234 *~;
#X obj 1303 211 lop~ 1;
#X obj 1232 258 *~;
#X obj 1316 45 r~ \$0-theNoise;
#X obj 1235 376 throw~ \$0-out;
#X obj 1303 83 r \$0-vol;
#X obj 1233 184 mm_string~;
#X floatatom 1260 97 5 0 0 0 - - -;
#X obj 1258 -36 r \$0-string0;
#X obj 1261 47 del 12;
#X obj 1274 15 r \$0-del0;
#X obj 101 206 mm_srandom 100 534;
#X obj -122 147 mod 2;
#X obj -129 45 mod 2;
#X obj -117 91 sel 0;
#X obj -121 113 f;
#X obj -89 116 + 1;
#X obj 281 677 s \$0-del0;
#X obj 216 549 route 0 1 2 3 4;
#X obj 64 817 route 0 1 2 3 4;
#X obj 132 933 s \$0-string0;
#X obj 62 412 list split 2;
#X obj 96 461 list split 2;
#X obj 62 435 list-map;
#X obj 123 435 + 48;
#X obj 95 485 list-map;
#X obj 156 485 + 60;
#X obj 127 542 list-map;
#X obj 188 542 + 72;
#X obj 63 515 list append;
#X obj 71 565 list append;
#X obj 68 588 list prepend set;
#X obj 65 615 list trim;
#X msg 68 711 58 58 62 62 82;
#X obj 108 311 t a a;
#X obj 109 373 list append;
#X obj 143 336 list split 1;
#X obj 460 440 list-map;
#X obj 554 445 t f b;
#X obj 581 470 mm_srandom 20 166;
#X obj 581 495 - 10;
#X obj 558 521 +;
#X obj 460 546 list prepend set;
#X obj 461 570 list trim;
#X msg 461 590 13 28 43 58 73;
#N canvas 634 317 450 300 jit 0;
#X obj 322 93 t f b;
#X obj 349 118 mm_srandom 20 166;
#X obj 349 143 - 10;
#X obj 327 229 +;
#X obj 324 21 inlet;
#X obj 331 264 outlet;
#X obj 349 164 * 0.0025;
#X connect 0 0 3 0;
#X connect 0 1 1 0;
#X connect 1 0 2 0;
#X connect 2 0 6 0;
#X connect 3 0 5 0;
#X connect 4 0 0 0;
#X connect 6 0 3 1;
#X restore 571 154 pd jit pitch;
#N canvas 634 317 450 300 jit 0;
#X obj 322 93 t f b;
#X obj 349 143 - 10;
#X obj 327 229 +;
#X obj 324 21 inlet;
#X obj 331 264 outlet;
#X obj 349 164 * 0.0025;
#X obj 349 118 mm_srandom 20 167;
#X connect 0 0 2 0;
#X connect 0 1 6 0;
#X connect 1 0 5 0;
#X connect 2 0 4 0;
#X connect 3 0 0 0;
#X connect 5 0 2 1;
#X connect 6 0 1 0;
#X restore 733 150 pd jit pitch;
#N canvas 634 317 450 300 jit 0;
#X obj 322 93 t f b;
#X obj 349 143 - 10;
#X obj 327 229 +;
#X obj 324 21 inlet;
#X obj 331 264 outlet;
#X obj 349 164 * 0.0025;
#X obj 349 118 mm_srandom 20 134;
#X connect 0 0 2 0;
#X connect 0 1 6 0;
#X connect 1 0 5 0;
#X connect 2 0 4 0;
#X connect 3 0 0 0;
#X connect 5 0 2 1;
#X connect 6 0 1 0;
#X restore 901 125 pd jit pitch;
#N canvas 634 317 450 300 jit 0;
#X obj 322 93 t f b;
#X obj 349 143 - 10;
#X obj 327 229 +;
#X obj 324 21 inlet;
#X obj 331 264 outlet;
#X obj 349 164 * 0.0025;
#X obj 349 118 mm_srandom 20 139;
#X connect 0 0 2 0;
#X connect 0 1 6 0;
#X connect 1 0 5 0;
#X connect 2 0 4 0;
#X connect 3 0 0 0;
#X connect 5 0 2 1;
#X connect 6 0 1 0;
#X restore 1055 154 pd jit pitch;
#N canvas 634 317 450 300 jit 1;
#X obj 322 93 t f b;
#X obj 349 143 - 10;
#X obj 327 229 +;
#X obj 324 21 inlet;
#X obj 331 264 outlet;
#X obj 349 164 * 0.0025;
#X obj 349 118 mm_srandom 20 122;
#X connect 0 0 2 0;
#X connect 0 1 6 0;
#X connect 1 0 5 0;
#X connect 2 0 4 0;
#X connect 3 0 0 0;
#X connect 5 0 2 1;
#X connect 6 0 1 0;
#X restore 1232 149 pd jit pitch;
#X obj 741 340 mm_bpfilter~ 2500 2;
#X obj 578 347 mm_bpfilter~ 750 2;
#X obj 900 338 mm_bpfilter~ 4200 1;
#X obj 1061 339 mm_bpfilter~ 6500 1;
#X obj 1232 337 mm_bpfilter~ 8500 1;
#X obj -75 357 + 0.33;
#X floatatom 1 351 5 0 0 0 - - -;
#X obj -57 297 * 0.00333;
#X obj -43 328 + 0.33;
#X connect 0 0 111 0;
#X connect 1 0 5 0;
#X connect 1 1 2 1;
#X connect 2 0 77 0;
#X connect 2 0 137 0;
#X connect 3 0 6 0;
#X connect 3 1 4 1;
#X connect 4 0 79 0;
#X connect 4 0 138 0;
#X connect 5 0 2 0;
#X connect 6 0 4 0;
#X connect 7 0 11 0;
#X connect 7 1 8 1;
#X connect 8 0 81 0;
#X connect 9 0 12 0;
#X connect 9 1 10 1;
#X connect 10 0 83 0;
#X connect 11 0 8 0;
#X connect 12 0 10 0;
#X connect 13 0 110 0;
#X connect 14 0 16 0;
#X connect 15 0 125 0;
#X connect 15 1 136 0;
#X connect 16 0 13 0;
#X connect 17 0 13 0;
#X connect 18 0 20 1;
#X connect 19 0 18 1;
#X connect 19 0 18 0;
#X connect 20 0 143 0;
#X connect 21 0 23 1;
#X connect 22 0 21 1;
#X connect 22 0 21 0;
#X connect 23 0 142 0;
#X connect 24 0 144 0;
#X connect 25 0 24 1;
#X connect 26 0 25 1;
#X connect 26 0 25 0;
#X connect 27 0 29 1;
#X connect 28 0 27 1;
#X connect 28 0 27 0;
#X connect 29 0 145 0;
#X connect 30 0 53 0;
#X connect 30 1 52 0;
#X connect 30 2 31 0;
#X connect 31 0 32 0;
#X connect 32 0 147 0;
#X connect 32 1 88 0;
#X connect 33 0 35 0;
#X connect 33 1 103 0;
#X connect 34 0 35 1;
#X connect 35 0 15 0;
#X connect 40 0 89 0;
#X connect 42 0 76 1;
#X connect 43 0 78 1;
#X connect 44 0 80 1;
#X connect 45 0 82 1;
#X connect 46 0 47 0;
#X connect 48 0 126 0;
#X connect 49 0 33 0;
#X connect 49 0 87 0;
#X connect 50 0 16 1;
#X connect 50 0 85 0;
#X connect 54 0 1 0;
#X connect 55 0 3 0;
#X connect 56 0 7 0;
#X connect 57 0 9 0;
#X connect 58 0 5 1;
#X connect 59 0 6 1;
#X connect 60 0 11 1;
#X connect 61 0 12 1;
#X connect 63 0 28 0;
#X connect 64 0 22 0;
#X connect 65 0 26 0;
#X connect 66 0 19 0;
#X connect 75 0 105 0;
#X connect 76 0 20 0;
#X connect 78 0 23 0;
#X connect 80 0 24 0;
#X connect 81 0 139 0;
#X connect 82 0 29 0;
#X connect 83 0 140 0;
#X connect 84 0 36 0;
#X connect 85 0 17 1;
#X connect 88 0 149 0;
#X connect 89 0 41 0;
#X connect 90 0 101 0;
#X connect 90 1 91 1;
#X connect 91 0 99 0;
#X connect 92 0 94 1;
#X connect 93 0 92 1;
#X connect 93 0 92 0;
#X connect 94 0 146 0;
#X connect 95 0 98 1;
#X connect 97 0 93 0;
#X connect 98 0 94 0;
#X connect 99 0 141 0;
#X connect 100 0 90 0;
#X connect 101 0 91 0;
#X connect 102 0 101 1;
#X connect 103 0 34 0;
#X connect 104 0 30 0;
#X connect 105 0 106 0;
#X connect 106 0 107 0;
#X connect 107 0 108 0;
#X connect 107 0 104 0;
#X connect 108 0 107 1;
#X connect 110 0 71 0;
#X connect 110 1 72 0;
#X connect 110 2 73 0;
#X connect 110 3 74 0;
#X connect 110 4 109 0;
#X connect 111 0 67 0;
#X connect 111 1 68 0;
#X connect 111 2 69 0;
#X connect 111 3 70 0;
#X connect 111 4 112 0;
#X connect 113 0 115 0;
#X connect 113 1 114 0;
#X connect 114 0 117 0;
#X connect 114 1 119 0;
#X connect 115 0 121 0;
#X connect 115 1 116 0;
#X connect 116 0 115 1;
#X connect 117 0 121 1;
#X connect 117 1 118 0;
#X connect 118 0 117 1;
#X connect 119 0 122 1;
#X connect 119 1 120 0;
#X connect 120 0 119 1;
#X connect 121 0 122 0;
#X connect 122 0 123 0;
#X connect 123 0 124 0;
#X connect 124 0 125 0;
#X connect 125 0 0 0;
#X connect 126 0 127 0;
#X connect 126 1 128 0;
#X connect 127 0 113 0;
#X connect 128 0 127 1;
#X connect 129 0 134 0;
#X connect 129 1 130 0;
#X connect 130 0 133 0;
#X connect 130 1 131 0;
#X connect 131 0 132 0;
#X connect 132 0 133 1;
#X connect 133 0 129 1;
#X connect 134 0 135 0;
#X connect 135 0 136 0;
#X connect 136 0 14 0;
#X connect 136 0 17 0;
#X connect 137 0 76 0;
#X connect 138 0 78 0;
#X connect 139 0 80 0;
#X connect 140 0 82 0;
#X connect 141 0 98 0;
#X connect 142 0 38 0;
#X connect 143 0 37 0;
#X connect 144 0 39 0;
#X connect 145 0 62 0;
#X connect 146 0 96 0;
#X connect 147 0 51 0;
#X connect 147 0 148 0;
#X connect 149 0 150 0;
#X connect 150 0 147 1;
