#N canvas 272 182 1097 682 10;
#N canvas 175 88 1017 596 vocoder 0;
#X obj -153 -164 inlet~;
#X obj 149 422 outlet~;
#X obj 149 386 hip~ 4;
#X floatatom 149 238 5 0 0 0 - - -;
#X floatatom 49 233 5 0 0 0 - - -;
#X obj 149 363 lop~ 8000;
#X obj 70 -155 inlet;
#X obj 151 333 mm_timbre_stamp~;
#X obj 152 287 *~ 0.25;
#X obj 26 193 mm_square~;
#X obj 98 192 mm_square~;
#X obj 172 192 mm_square~;
#X obj 249 192 mm_square~;
#X obj 340 108 r onOff;
#X msg 340 134 switch \$1;
#X obj 76 -112 unpack f f f f;
#X connect 0 0 7 1;
#X connect 2 0 1 0;
#X connect 5 0 2 0;
#X connect 6 0 15 0;
#X connect 7 0 5 0;
#X connect 8 0 7 0;
#X connect 9 0 8 0;
#X connect 10 0 8 0;
#X connect 11 0 8 0;
#X connect 12 0 8 0;
#X connect 13 0 14 0;
#X connect 14 0 12 1;
#X connect 14 0 11 1;
#X connect 14 0 10 1;
#X connect 14 0 9 1;
#X connect 15 0 9 0;
#X connect 15 1 10 0;
#X connect 15 2 11 0;
#X connect 15 3 12 0;
#X restore 522 477 pd vocoder;
#X obj 562 145 inlet;
#X obj 526 632 outlet~;
#X obj 492 10 inlet~;
#X obj 523 555 hip~ 5;
#X obj 564 236 list-map;
#X obj 625 237 +;
#X obj 572 321 list-map;
#X obj 634 320 + 48;
#X obj 642 183 inlet;
#X obj 527 602 *~ 2;
#X connect 0 0 4 0;
#X connect 1 0 5 0;
#X connect 3 0 0 0;
#X connect 4 0 10 0;
#X connect 5 0 7 0;
#X connect 5 1 6 0;
#X connect 6 0 5 1;
#X connect 7 0 0 1;
#X connect 7 1 8 0;
#X connect 8 0 7 1;
#X connect 9 0 6 1;
#X connect 10 0 2 0;
