#N canvas 0 22 1097 682 10;
#N canvas 339 167 1017 596 vocoder 0;
#X obj 207 297 phasor~;
#X obj 115 -110 mtof;
#X obj -337 6 inlet~;
#X obj 351 568 outlet~;
#X floatatom 415 370 5 0 0 0 - - -;
#X obj 351 532 hip~ 4;
#X obj 279 296 phasor~;
#X obj 206 -109 mtof;
#X obj 353 296 phasor~;
#X obj 307 -97 mtof;
#X floatatom 330 342 5 0 0 0 - - -;
#X floatatom 230 337 5 0 0 0 - - -;
#X obj 111 -227 t f b;
#X obj 143 -159 * 12;
#X obj 109 -190 + 60;
#X obj 113 -136 +;
#X obj 203 -228 t f b;
#X obj 235 -160 * 12;
#X obj 201 -191 + 60;
#X obj 205 -137 +;
#X obj 305 -227 t f b;
#X obj 337 -143 * 12;
#X obj 303 -174 + 60;
#X obj 307 -120 +;
#X obj 408 -214 t f b;
#X obj 440 -146 * 12;
#X obj 406 -177 + 60;
#X obj 410 -123 +;
#X obj 410 296 phasor~;
#X obj 410 -101 mtof;
#X obj 206 273 lop~ 20;
#X obj 275 271 lop~ 20;
#X obj 352 270 lop~ 20;
#X obj 410 273 lop~ 20;
#X obj 143 -182 - 2;
#X obj 143 -204 random 5;
#X obj 235 -205 random 5;
#X obj 235 -183 - 2;
#X obj 337 -188 random 5;
#X obj 337 -166 - 2;
#X obj 440 -191 random 5;
#X obj 440 -169 - 2;
#X obj -198 87 change;
#X obj -197 110 t f b;
#X obj -170 166 + 3;
#X obj -171 187 * 12;
#X obj -193 260 +;
#X obj -172 214 t f f;
#N canvas 403 454 450 300 wr 0;
#X obj 85 42 inlet;
#X obj 84 72 random 100;
#X obj 84 99 moses 50;
#X obj 128 137 moses 85;
#X obj 50 137 moses 15;
#X obj 51 165 bng 15 250 50 0 empty empty empty 17 7 0 10 -262144 -1
-1;
#X obj 93 163 bng 15 250 50 0 empty empty empty 17 7 0 10 -262144 -1
-1;
#X obj 130 166 bng 15 250 50 0 empty empty empty 17 7 0 10 -262144
-1 -1;
#X obj 172 164 bng 15 250 50 0 empty empty empty 17 7 0 10 -262144
-1 -1;
#X msg 49 189 0;
#X msg 91 189 1;
#X msg 131 190 2;
#X msg 172 189 3;
#X obj 71 247 outlet;
#X connect 0 0 1 0;
#X connect 1 0 2 0;
#X connect 2 0 4 0;
#X connect 2 1 3 0;
#X connect 3 0 7 0;
#X connect 3 1 8 0;
#X connect 4 0 5 0;
#X connect 4 1 6 0;
#X connect 5 0 9 0;
#X connect 6 0 10 0;
#X connect 7 0 11 0;
#X connect 8 0 12 0;
#X connect 9 0 13 0;
#X connect 10 0 13 0;
#X connect 11 0 13 0;
#X connect 12 0 13 0;
#X restore -171 141 pd wr;
#X obj -194 286 mtof;
#X obj -180 314 * 2;
#X obj -162 371 * 3;
#X obj -139 388 * 0.5;
#X obj -136 425 s \$0-monoVocoder3;
#X obj -162 408 s \$0-monoVocoder2;
#X obj -174 335 s \$0-monoVocoder1;
#X obj -150 314 s \$0-monoVocoder0;
#X obj 113 -87 s \$0-polyVocoder0;
#X obj 207 -68 s \$0-polyVocoder1;
#X obj 310 -68 s \$0-polyVocoder2;
#X obj 424 -74 s \$0-polyVocoder3;
#X obj 110 141 spigot;
#X obj 137 163 spigot;
#N canvas 461 105 450 300 inv 0;
#X obj 163 0 inlet;
#X obj 163 39 swap 1;
#X obj 166 64 -;
#X obj 164 100 outlet;
#X connect 0 0 1 0;
#X connect 1 0 2 0;
#X connect 1 1 2 1;
#X connect 2 0 3 0;
#X restore 167 139 pd inv;
#X obj 145 83 r vocoderStyle;
#X obj 143 107 t f f;
#X msg 149 59 1;
#X obj 147 32 loadbang;
#X obj 236 139 spigot;
#X obj 263 161 spigot;
#N canvas 461 105 450 300 inv 0;
#X obj 163 0 inlet;
#X obj 163 39 swap 1;
#X obj 166 64 -;
#X obj 164 100 outlet;
#X connect 0 0 1 0;
#X connect 1 0 2 0;
#X connect 1 1 2 1;
#X connect 2 0 3 0;
#X restore 293 137 pd inv;
#X obj 271 81 r vocoderStyle;
#X obj 269 105 t f f;
#X msg 275 57 1;
#X obj 273 30 loadbang;
#X obj 364 138 spigot;
#X obj 391 160 spigot;
#N canvas 461 105 450 300 inv 0;
#X obj 163 0 inlet;
#X obj 163 39 swap 1;
#X obj 166 64 -;
#X obj 164 100 outlet;
#X connect 0 0 1 0;
#X connect 1 0 2 0;
#X connect 1 1 2 1;
#X connect 2 0 3 0;
#X restore 421 136 pd inv;
#X obj 399 80 r vocoderStyle;
#X obj 397 104 t f f;
#X msg 403 56 1;
#X obj 401 29 loadbang;
#X obj 489 138 spigot;
#X obj 516 160 spigot;
#N canvas 461 105 450 300 inv 0;
#X obj 163 0 inlet;
#X obj 163 39 swap 1;
#X obj 166 64 -;
#X obj 164 100 outlet;
#X connect 0 0 1 0;
#X connect 1 0 2 0;
#X connect 1 1 2 1;
#X connect 2 0 3 0;
#X restore 546 136 pd inv;
#X obj 524 80 r vocoderStyle;
#X obj 522 104 t f f;
#X msg 528 56 1;
#X obj 526 29 loadbang;
#X obj 107 -21 r \$0-polyVocoder0;
#X obj 130 6 r \$0-monoVocoder0;
#X obj 234 6 r \$0-polyVocoder1;
#X obj 265 -22 r \$0-monoVocoder1;
#X obj 375 -19 r \$0-polyVocoder2;
#X obj 394 2 r \$0-monoVocoder2;
#X obj 503 -24 r \$0-polyVocoder3;
#X obj 528 -2 r \$0-monoVocoder3;
#X obj 494 415 r onOff;
#X obj 485 456 t b;
#X obj 333 391 *~ 0.25;
#X obj 351 509 lop~ 8000;
#X obj 134 -311 inlet;
#X obj 213 -311 inlet;
#X obj 290 -311 inlet;
#X obj 426 -306 inlet;
#X obj 353 479 mm_timbre_stamp~;
#X obj 427 390 loadbang;
#X obj 472 408 bng 15 250 50 0 empty empty empty 17 7 0 10 -262144
-1 -1;
#X msg 426 431 30;
#X connect 0 0 99 0;
#X connect 1 0 57 0;
#X connect 2 0 105 1;
#X connect 4 0 105 2;
#X connect 5 0 3 0;
#X connect 6 0 99 0;
#X connect 7 0 58 0;
#X connect 8 0 99 0;
#X connect 9 0 59 0;
#X connect 12 0 14 0;
#X connect 12 1 35 0;
#X connect 13 0 15 1;
#X connect 14 0 15 0;
#X connect 15 0 1 0;
#X connect 16 0 18 0;
#X connect 16 1 36 0;
#X connect 17 0 19 1;
#X connect 18 0 19 0;
#X connect 19 0 7 0;
#X connect 20 0 22 0;
#X connect 20 1 38 0;
#X connect 21 0 23 1;
#X connect 22 0 23 0;
#X connect 23 0 9 0;
#X connect 24 0 26 0;
#X connect 24 1 40 0;
#X connect 25 0 27 1;
#X connect 26 0 27 0;
#X connect 27 0 29 0;
#X connect 28 0 99 0;
#X connect 29 0 60 0;
#X connect 30 0 0 0;
#X connect 31 0 6 0;
#X connect 32 0 8 0;
#X connect 33 0 28 0;
#X connect 34 0 13 0;
#X connect 35 0 34 0;
#X connect 36 0 37 0;
#X connect 37 0 17 0;
#X connect 38 0 39 0;
#X connect 39 0 21 0;
#X connect 40 0 41 0;
#X connect 41 0 25 0;
#X connect 42 0 43 0;
#X connect 43 0 46 0;
#X connect 43 1 48 0;
#X connect 44 0 45 0;
#X connect 45 0 47 0;
#X connect 46 0 49 0;
#X connect 47 0 46 1;
#X connect 48 0 44 0;
#X connect 49 0 50 0;
#X connect 49 0 51 0;
#X connect 49 0 52 0;
#X connect 49 0 56 0;
#X connect 50 0 55 0;
#X connect 51 0 54 0;
#X connect 52 0 53 0;
#X connect 61 0 30 0;
#X connect 62 0 30 0;
#X connect 63 0 62 1;
#X connect 64 0 65 0;
#X connect 65 0 61 1;
#X connect 65 1 63 0;
#X connect 66 0 65 0;
#X connect 67 0 66 0;
#X connect 68 0 31 0;
#X connect 69 0 31 0;
#X connect 70 0 69 1;
#X connect 71 0 72 0;
#X connect 72 0 68 1;
#X connect 72 1 70 0;
#X connect 73 0 72 0;
#X connect 74 0 73 0;
#X connect 75 0 32 0;
#X connect 76 0 32 0;
#X connect 77 0 76 1;
#X connect 78 0 79 0;
#X connect 79 0 75 1;
#X connect 79 1 77 0;
#X connect 80 0 79 0;
#X connect 81 0 80 0;
#X connect 82 0 33 0;
#X connect 83 0 33 0;
#X connect 84 0 83 1;
#X connect 85 0 86 0;
#X connect 86 0 82 1;
#X connect 86 1 84 0;
#X connect 87 0 86 0;
#X connect 88 0 87 0;
#X connect 89 0 61 0;
#X connect 90 0 62 0;
#X connect 91 0 68 0;
#X connect 92 0 69 0;
#X connect 93 0 75 0;
#X connect 94 0 76 0;
#X connect 95 0 82 0;
#X connect 96 0 83 0;
#X connect 97 0 98 0;
#X connect 98 0 105 3;
#X connect 99 0 105 0;
#X connect 100 0 5 0;
#X connect 101 0 12 0;
#X connect 101 0 42 0;
#X connect 102 0 16 0;
#X connect 102 0 42 0;
#X connect 103 0 20 0;
#X connect 103 0 42 0;
#X connect 104 0 24 0;
#X connect 104 0 42 0;
#X connect 105 0 100 0;
#X connect 106 0 108 0;
#X connect 106 0 98 0;
#X connect 107 0 98 0;
#X connect 108 0 105 2;
#X restore 522 481 pd vocoder;
#X obj 539 15 inlet;
#X obj 526 632 outlet~;
#X obj 696 156 s vocoderStyle;
#X obj 698 83 inlet;
#X obj 458 84 inlet~;
#X obj 536 51 unpack f f f f;
#X msg 765 97 1;
#X obj 765 72 loadbang;
#X obj 627 200 +;
#X obj 586 196 +;
#X obj 552 189 +;
#X obj 685 46 r \$0-theRoot;
#X obj 523 186 +;
#X obj 527 602 *~ 4;
#X obj 523 555 hip~ 5;
#X obj 522 516 lop~ 10000;
#X msg 798 114 0;
#X obj 639 297 + 12;
#X obj 611 326 + 12;
#X obj 567 319 + 12;
#X obj 537 271 + 12;
#X connect 0 0 16 0;
#X connect 1 0 6 0;
#X connect 4 0 3 0;
#X connect 5 0 0 0;
#X connect 6 0 13 0;
#X connect 6 1 11 0;
#X connect 6 2 10 0;
#X connect 6 3 9 0;
#X connect 7 0 3 0;
#X connect 8 0 7 0;
#X connect 9 0 18 0;
#X connect 10 0 19 0;
#X connect 11 0 20 0;
#X connect 12 0 11 1;
#X connect 12 0 13 1;
#X connect 12 0 10 1;
#X connect 12 0 9 1;
#X connect 13 0 21 0;
#X connect 14 0 2 0;
#X connect 15 0 14 0;
#X connect 16 0 15 0;
#X connect 17 0 3 0;
#X connect 18 0 0 4;
#X connect 19 0 0 3;
#X connect 20 0 0 2;
#X connect 21 0 0 1;
