#N canvas 226 185 1101 412 10;
#X obj 312 11 inlet;
#X obj 398 5 inlet;
#X obj 331 194 random 100;
#X obj 375 116 list prepend set;
#X obj 375 136 list trim;
#X obj 371 224 list-idx;
#X obj 314 148 t b b b f;
#X obj 316 298 spigot;
#X obj 314 336 outlet;
#X obj 350 260 <;
#X obj 398 52 t a a;
#X obj 312 81 mod 8;
#X obj 423 75 list length;
#X floatatom 368 295 5 0 0 0 - - -;
#X msg 378 169 1 1 1 25;
#X connect 0 0 11 0;
#X connect 1 0 10 0;
#X connect 2 0 9 0;
#X connect 3 0 4 0;
#X connect 4 0 14 0;
#X connect 5 0 9 1;
#X connect 6 0 7 0;
#X connect 6 1 2 0;
#X connect 6 2 14 0;
#X connect 6 3 5 1;
#X connect 7 0 8 0;
#X connect 9 0 7 1;
#X connect 9 0 13 0;
#X connect 10 0 3 0;
#X connect 10 1 12 0;
#X connect 11 0 6 0;
#X connect 12 0 11 1;
#X connect 14 0 5 0;
