#N canvas 338 120 834 521 10;
#X obj 101 9 inlet~;
#X obj 105 271 vcf~;
#X obj 285 34 inlet;
#X obj 173 -11 inlet;
#X obj 173 57 t f b;
#X obj 326 111 s \$0-Q;
#X obj 161 389 lop~ 1;
#X obj 106 420 *~;
#X obj 105 564 *~;
#X obj 103 809 outlet~;
#X obj 153 503 vline~;
#X obj 153 532 *~;
#X obj 285 87 s \$0-switch;
#X obj 200 85 s \$0-doEnv;
#X obj 218 263 r \$0-doEnv;
#X obj 410 164 s \$0-decay;
#X obj 364 133 s \$0-attack;
#X obj 285 60 route switch Q attack decay randomlist;
#X obj 210 347 f;
#X obj 227 285 r \$0-attack;
#X obj 276 309 r \$0-decay;
#X obj 227 309 t f f;
#X obj 211 404 pack f f f;
#X obj 405 475 r \$0-switch;
#X obj 404 508 switch~;
#X obj 253 371 +;
#X obj 274 335 t b f f;
#X obj 357 -2 loadbang;
#X obj 214 534 delread~ \$0-buf1 35;
#X obj 282 564 delread~ \$0-buf1 100;
#X obj 214 564 lop~ 5000;
#X obj 106 592 +~;
#X obj 284 588 lop~ 1200;
#X obj 286 610 *~ 0.6;
#X obj 214 589 *~ 0.8;
#X obj 214 685 delwrite~ \$0-buf1 250;
#X msg 155 476 0 3 \, 1 \$1 5 \, 0 \$3 \$2;
#X floatatom 34 172 5 0 0 0 - - -;
#X obj 327 402 s \$0-debounceTime;
#X obj 40 346 env~;
#X floatatom 39 382 5 0 0 0 - - -;
#X floatatom 21 107 5 0 0 0 - - -;
#X obj 147 237 r \$0-Q;
#X obj 162 363 * 1.8;
#X obj 106 480 +~;
#X obj 174 124 osc~;
#X obj 214 661 *~ 0.3;
#X obj 103 448 *~ 0.5;
#X msg 358 29 Q 2e+07 \, attack 2 \, decay 200 \, switch 1;
#X obj 102 747 mm_compressor~;
#X msg 188 709 switch 1 \, threshold 98 \, ratio 2;
#X obj 185 688 loadbang;
#X connect 0 0 1 0;
#X connect 1 0 7 0;
#X connect 1 0 39 0;
#X connect 2 0 17 0;
#X connect 3 0 4 0;
#X connect 4 0 1 1;
#X connect 4 0 37 0;
#X connect 4 0 45 0;
#X connect 4 1 13 0;
#X connect 6 0 7 1;
#X connect 7 0 47 0;
#X connect 8 0 31 0;
#X connect 10 0 11 1;
#X connect 10 0 11 0;
#X connect 11 0 8 1;
#X connect 14 0 18 0;
#X connect 17 0 12 0;
#X connect 17 1 5 0;
#X connect 17 2 16 0;
#X connect 17 3 15 0;
#X connect 18 0 22 0;
#X connect 19 0 21 0;
#X connect 20 0 26 0;
#X connect 21 0 18 1;
#X connect 21 1 25 0;
#X connect 22 0 36 0;
#X connect 23 0 24 0;
#X connect 25 0 22 1;
#X connect 25 0 38 0;
#X connect 26 0 25 0;
#X connect 26 1 25 1;
#X connect 26 2 22 2;
#X connect 27 0 48 0;
#X connect 28 0 30 0;
#X connect 29 0 32 0;
#X connect 30 0 34 0;
#X connect 31 0 46 0;
#X connect 31 0 49 0;
#X connect 32 0 33 0;
#X connect 33 0 31 1;
#X connect 34 0 31 1;
#X connect 36 0 10 0;
#X connect 39 0 40 0;
#X connect 42 0 1 2;
#X connect 42 0 43 0;
#X connect 43 0 6 0;
#X connect 44 0 8 0;
#X connect 45 0 44 1;
#X connect 46 0 35 0;
#X connect 47 0 44 0;
#X connect 48 0 17 0;
#X connect 49 0 9 0;
#X connect 50 0 49 1;
#X connect 51 0 50 0;
