#N canvas 12 168 1440 851 10;
#X declare;
#N canvas 344 23 903 680 clock 0;
#X msg 156 109 play;
#X obj 292 292 s~ metro;
#X obj 152 268 route clock;
#X obj 117 -400 r onOff;
#X obj 117 -207 sel 0 1;
#X msg 256 146 stop;
#X obj 152 301 t f f;
#X obj 227 107 t b b;
#X msg 220 173 reset;
#X obj 296 36 int;
#X msg 295 67 tempo \$1;
#X obj 289 -326 r setNewTempo;
#X obj 425 77 s detectedTempo;
#X obj 440 -35 r setTempo;
#N canvas 695 279 450 300 inv 0;
#X obj 98 49 inlet;
#X obj 100 88 swap 1;
#X obj 102 115 -;
#X obj 97 145 outlet;
#X connect 0 0 1 0;
#X connect 1 0 2 0;
#X connect 1 1 2 1;
#X connect 2 0 3 0;
#X restore 354 -169 pd inv;
#X obj 294 -139 spigot;
#X obj 362 -245 r lockTempo;
#X obj 448 -247 loadbang;
#X obj 283 381 s clock;
#X obj 449 -129 r minTempo;
#X obj 360 -126 r maxTempo;
#X obj 673 56 r divisions;
#X msg 669 170 divisions \$1;
#X obj 767 60 r beats;
#X msg 762 174 beats \$1;
#X obj 837 60 r measures;
#X msg 829 174 measures \$1;
#X obj 671 118 t b f;
#X obj 763 116 t b f;
#X obj 834 115 t b f;
#X obj 586 53 r swing;
#X obj 586 87 t b f;
#X obj 67 384 outlet;
#X obj 417 384 outlet;
#X msg 610 171 swing \$1;
#X obj 294 96 t b a a;
#X msg 518 -88 seed \$1;
#X obj 518 -133 r \$0-timer;
#X obj 519 -109 mod 34;
#X obj 138 -182 t b b;
#X obj 154 240 mm_bclock~ 8 4 2 120 1;
#X obj 302 -51 mm_runif 1 300;
#X msg 364 -103 max \$1;
#X msg 451 -108 min \$1;
#X obj 295 -106 bng 15 250 50 0 empty empty empty 17 7 0 10 -262144
-1 -1;
#X msg 449 -225 0;
#X connect 0 0 40 0;
#X connect 2 0 6 0;
#X connect 3 0 4 0;
#X connect 4 0 7 0;
#X connect 4 1 39 0;
#X connect 5 0 40 0;
#X connect 6 0 32 0;
#X connect 6 1 18 0;
#X connect 7 0 8 0;
#X connect 7 1 5 0;
#X connect 8 0 40 0;
#X connect 9 0 10 0;
#X connect 9 0 12 0;
#X connect 10 0 35 0;
#X connect 11 0 15 0;
#X connect 13 0 9 0;
#X connect 14 0 15 1;
#X connect 15 0 44 0;
#X connect 16 0 14 0;
#X connect 17 0 45 0;
#X connect 19 0 43 0;
#X connect 20 0 42 0;
#X connect 21 0 27 0;
#X connect 22 0 40 1;
#X connect 23 0 28 0;
#X connect 24 0 40 1;
#X connect 25 0 29 0;
#X connect 26 0 40 1;
#X connect 27 0 0 0;
#X connect 27 1 22 0;
#X connect 28 0 0 0;
#X connect 28 1 24 0;
#X connect 29 0 0 0;
#X connect 29 1 26 0;
#X connect 30 0 31 0;
#X connect 31 0 0 0;
#X connect 31 1 34 0;
#X connect 34 0 40 1;
#X connect 35 0 0 0;
#X connect 35 1 40 1;
#X connect 35 2 33 0;
#X connect 36 0 41 1;
#X connect 37 0 38 0;
#X connect 38 0 36 0;
#X connect 39 0 0 0;
#X connect 39 1 15 0;
#X connect 40 0 2 0;
#X connect 40 1 1 0;
#X connect 41 0 9 0;
#X connect 42 0 41 1;
#X connect 43 0 41 1;
#X connect 44 0 41 0;
#X connect 45 0 14 0;
#X restore 816 98 pd clock;
#N canvas 484 163 914 637 out 0;
#X obj 108 514 dac~;
#X obj 158 340 hip~ 4;
#X obj 79 341 hip~ 4;
#X obj 158 363 clip~ -1 1;
#X obj 80 363 clip~ -1 1;
#X msg 205 0 \$1 30;
#X obj 207 29 vline~;
#X obj 210 57 *~;
#X obj 162 259 *~;
#X obj 69 244 *~;
#X obj 205 -43 r audioOn;
#X obj 87 426 *~ 1;
#X obj 143 430 *~ 1;
#X obj 30 -127 inlet~;
#X obj 177 -133 inlet~;
#X obj 239 188 r outputVolume;
#X obj 75 314 *~;
#X obj 97 283 lop~ 1;
#X obj 151 316 *~;
#X obj 173 285 lop~ 1;
#X obj 200 468 env~;
#X obj 201 496 s outputDB;
#X obj 639 342 mm_sigtest~;
#X connect 1 0 3 0;
#X connect 2 0 4 0;
#X connect 3 0 12 0;
#X connect 4 0 11 0;
#X connect 5 0 6 0;
#X connect 6 0 7 1;
#X connect 6 0 7 0;
#X connect 7 0 8 1;
#X connect 7 0 9 1;
#X connect 8 0 18 0;
#X connect 9 0 16 0;
#X connect 10 0 5 0;
#X connect 11 0 0 0;
#X connect 11 0 20 0;
#X connect 12 0 0 1;
#X connect 12 0 20 0;
#X connect 13 0 9 0;
#X connect 14 0 8 0;
#X connect 15 0 17 0;
#X connect 15 0 19 0;
#X connect 16 0 2 0;
#X connect 17 0 16 1;
#X connect 18 0 1 0;
#X connect 19 0 18 1;
#X connect 20 0 21 0;
#X restore 15 451 pd out;
#N canvas 805 219 556 476 taptempo 0;
#X obj 184 -203 r tapTempo;
#X obj 182 -39 timer;
#X obj 182 -63 t b b;
#X obj 181 -18 t f f;
#X obj 208 26 t f f;
#X obj 235 53 sel 1;
#X obj 159 74 spigot;
#N canvas 695 279 450 300 inv 0;
#X obj 98 49 inlet;
#X obj 100 88 swap 1;
#X obj 102 115 -;
#X obj 97 145 outlet;
#X connect 0 0 1 0;
#X connect 1 0 2 0;
#X connect 1 1 2 1;
#X connect 2 0 3 0;
#X restore 193 53 pd inv;
#X obj 159 121 swap 60000;
#X obj 178 145 /;
#X obj 183 201 int;
#X obj 317 266 s \$0-detectedTempo;
#X obj 181 278 s detectedTempo;
#X msg 318 235 tempo \$1;
#N canvas 695 279 450 300 inv 0;
#X obj 98 49 inlet;
#X obj 100 88 swap 1;
#X obj 102 115 -;
#X obj 97 145 outlet;
#X connect 0 0 1 0;
#X connect 1 0 2 0;
#X connect 1 1 2 1;
#X connect 2 0 3 0;
#X restore 224 -141 pd inv;
#X obj 186 -110 spigot;
#X obj 223 -172 r lockTempo;
#X msg 340 -161 0;
#X obj 358 -190 loadbang;
#X obj 208 3 > 5000;
#X obj 206 242 s setTempo;
#X obj 159 95 mm_ravg;
#X connect 0 0 15 0;
#X connect 1 0 3 0;
#X connect 2 0 1 0;
#X connect 2 1 1 1;
#X connect 3 0 6 0;
#X connect 3 1 19 0;
#X connect 4 0 7 0;
#X connect 4 1 5 0;
#X connect 5 0 21 1;
#X connect 6 0 21 0;
#X connect 7 0 6 1;
#X connect 8 0 9 0;
#X connect 8 1 9 1;
#X connect 9 0 10 0;
#X connect 10 0 12 0;
#X connect 10 0 13 0;
#X connect 10 0 20 0;
#X connect 13 0 11 0;
#X connect 14 0 15 1;
#X connect 15 0 2 0;
#X connect 16 0 14 0;
#X connect 17 0 14 0;
#X connect 18 0 17 0;
#X connect 19 0 4 0;
#X connect 21 0 8 0;
#X restore 810 28 pd taptempo;
#N canvas 44 23 1440 754 fx 0;
#X obj 409 381 r \$0-detectedTempo;
#X obj 395 345 r randomize;
#N canvas 801 22 581 617 fuzz 0;
#N canvas 420 196 721 606 fuzz 0;
#X obj 63 -146 inlet~;
#X obj 64 162 expr~ atan($v1);
#X obj 64 131 *~;
#X obj 102 -59 t f f b;
#X obj 99 98 vline~;
#X msg 101 74 \$2 \, \$1 \$3;
#X obj 192 -108 r \$0-detectedTempo;
#X obj 191 -47 swap 60000;
#X obj 210 -21 /;
#X obj 209 11 * 4;
#X obj 102 49 pack f f f;
#X obj 125 -20 f 10;
#X obj 110 -162 random 100;
#X obj 210 84 r \$0-clock;
#X obj 207 166 sel 0;
#X msg 206 190 randomize;
#X obj 192 -69 route tempo;
#X obj 110 -187 t b;
#X obj 111 -139 * 0.01;
#X obj 110 -114 *;
#X obj 104 -85 * 100;
#X obj 209 143 mod 16;
#X obj 63 195 *~ 0.055;
#X obj 46 300 outlet~;
#X obj 163 296 outlet~;
#X obj 240 112 r ticksPerMeasure;
#X obj 109 -212 r randomize1;
#X obj 62 243 mm_pan~;
#X connect 0 0 2 0;
#X connect 1 0 22 0;
#X connect 2 0 1 0;
#X connect 3 0 10 0;
#X connect 3 1 11 1;
#X connect 3 2 11 0;
#X connect 4 0 2 1;
#X connect 5 0 4 0;
#X connect 6 0 16 0;
#X connect 7 0 8 0;
#X connect 7 1 8 1;
#X connect 8 0 9 0;
#X connect 9 0 10 2;
#X connect 10 0 5 0;
#X connect 11 0 10 1;
#X connect 12 0 18 0;
#X connect 13 0 21 0;
#X connect 14 0 15 0;
#X connect 15 0 27 1;
#X connect 16 0 7 0;
#X connect 17 0 12 0;
#X connect 18 0 19 1;
#X connect 18 0 19 0;
#X connect 19 0 20 0;
#X connect 20 0 3 0;
#X connect 21 0 14 0;
#X connect 22 0 27 0;
#X connect 25 0 21 1;
#X connect 26 0 17 0;
#X connect 27 0 23 0;
#X connect 27 1 24 0;
#X restore 119 166 pd fuzz;
#X obj 148 -103 r \$0-clock;
#X obj 263 -10 < 5;
#X obj 119 128 *~;
#X obj 165 101 vline~;
#X obj 159 124 *~;
#X obj 259 -33 random 10;
#X obj 156 16 list;
#X obj 230 -99 t f b;
#X obj 260 -76 random 2;
#X obj 260 -55 + 1;
#X obj 229 -38 * 1;
#X obj 266 17 sel 1 0;
#X obj 144 -27 t b b;
#X obj 230 -142 r msPerRep;
#X obj 356 -205 r \$0-timer;
#X msg 355 -148 seed \$1;
#X obj 356 -178 mod 53;
#X msg 351 -53 seed \$1;
#X obj 352 -83 mod 52;
#X obj 125 -246 inlet~;
#X obj 179 213 outlet~;
#X obj 93 216 outlet~;
#X msg 239 55 0 30 \, 0.5 \$1 60;
#X msg 164 53 0.5 100;
#X obj 146 -66 sel 0;
#X connect 0 0 22 0;
#X connect 0 1 21 0;
#X connect 1 0 25 0;
#X connect 2 0 12 0;
#X connect 3 0 0 0;
#X connect 4 0 5 1;
#X connect 4 0 5 0;
#X connect 5 0 3 1;
#X connect 6 0 2 0;
#X connect 7 0 23 0;
#X connect 8 0 11 0;
#X connect 8 1 9 0;
#X connect 9 0 10 0;
#X connect 10 0 11 1;
#X connect 11 0 7 1;
#X connect 12 0 7 0;
#X connect 12 1 24 0;
#X connect 13 0 7 0;
#X connect 13 1 6 0;
#X connect 14 0 8 0;
#X connect 15 0 17 0;
#X connect 15 0 19 0;
#X connect 16 0 9 0;
#X connect 17 0 16 0;
#X connect 18 0 6 0;
#X connect 19 0 18 0;
#X connect 20 0 3 0;
#X connect 23 0 4 0;
#X connect 24 0 4 0;
#X connect 25 0 13 0;
#X restore 436 460 pd fuzz;
#N canvas 30 44 869 774 tremelo 0;
#N canvas 154 77 1286 797 tremelo 0;
#X obj 47 -549 inlet~;
#X obj 52 -41 *~;
#X obj 127 -469 r \$0-detectedTempo;
#X obj 332 50 r \$0-clock;
#X obj 330 171 sel 0;
#X msg 329 195 randomize;
#X obj 125 -404 route tempo;
#X obj 332 148 mod 16;
#X obj 121 -215 osc~;
#X obj 126 -375 / 60;
#X obj 121 -301 * 1;
#X obj 122 -271 t f b;
#X msg 146 -241 0;
#X obj 159 -341 t b f;
#X floatatom 171 -371 5 0 0 0 - - -;
#X obj 249 -500 r \$0-clock;
#X obj 237 -415 mod 32;
#X obj 237 -391 sel 0;
#X obj 121 -191 +~ 1;
#X obj 120 -167 *~ 0.5;
#X obj 119 -77 pow~ 2;
#X obj 181 -108 sig~;
#X obj 182 -283 r \$0-clock;
#X obj 181 -206 mod 32;
#X obj 181 -177 sel 0;
#X obj 180 -157 random 8;
#X obj 180 -132 + 1;
#X obj 236 -369 random 8;
#X obj 236 -344 + 1;
#X obj 103 411 outlet~;
#X obj 55 441 outlet~;
#X obj 367 86 r ticksPerMeasure;
#X obj 270 -252 r ticksPerMeasure;
#X obj 272 -222 * 2;
#X obj 336 -491 r ticksPerMeasure;
#X obj 338 -461 * 2;
#X obj 57 316 mm_pan~;
#X connect 0 0 1 0;
#X connect 1 0 36 0;
#X connect 2 0 6 0;
#X connect 3 0 7 0;
#X connect 4 0 5 0;
#X connect 5 0 36 1;
#X connect 6 0 9 0;
#X connect 7 0 4 0;
#X connect 8 0 18 0;
#X connect 9 0 10 0;
#X connect 10 0 11 0;
#X connect 11 0 8 0;
#X connect 11 1 12 0;
#X connect 12 0 8 1;
#X connect 13 0 10 0;
#X connect 13 1 10 1;
#X connect 14 0 13 0;
#X connect 15 0 16 0;
#X connect 16 0 17 0;
#X connect 17 0 27 0;
#X connect 18 0 19 0;
#X connect 19 0 20 0;
#X connect 20 0 1 1;
#X connect 21 0 20 1;
#X connect 22 0 23 0;
#X connect 23 0 24 0;
#X connect 24 0 25 0;
#X connect 25 0 26 0;
#X connect 26 0 21 0;
#X connect 27 0 28 0;
#X connect 28 0 13 0;
#X connect 31 0 7 1;
#X connect 32 0 33 0;
#X connect 33 0 23 1;
#X connect 34 0 35 0;
#X connect 35 0 16 1;
#X connect 36 0 30 0;
#X connect 36 1 29 0;
#X restore -131 515 pd tremelo;
#X obj -104 184 r \$0-clock;
#X obj -4 315 < 5;
#X obj -132 470 *~;
#X obj -88 416 vline~;
#X obj -94 439 *~;
#X obj 13 293 random 10;
#X obj -49 331 list;
#X obj -50 291 bng 15 250 50 0 empty empty empty 17 7 0 10 -262144
-1 -1;
#X obj -23 152 t f b;
#X obj 7 195 random 2;
#X obj 7 227 + 1;
#X obj -24 292 * 1;
#X obj -5 338 sel 1 0;
#X obj -96 261 t b b;
#X obj 115 66 r \$0-timer;
#X msg 114 123 seed \$1;
#X msg 110 218 seed \$1;
#X obj 115 93 mod 50;
#X obj 111 188 mod 51;
#X obj -22 114 r msPerRep;
#X obj -130 102 inlet~;
#X obj -73 592 outlet~;
#X obj -124 636 outlet~;
#X msg -88 371 0.5 100;
#X obj -105 235 sel 0;
#X msg -20 377 0 30 \, 1 \$1 60;
#X connect 0 0 23 0;
#X connect 0 1 22 0;
#X connect 1 0 25 0;
#X connect 2 0 13 0;
#X connect 3 0 0 0;
#X connect 4 0 5 1;
#X connect 4 0 5 0;
#X connect 5 0 3 1;
#X connect 6 0 2 0;
#X connect 7 0 26 0;
#X connect 8 0 7 0;
#X connect 9 0 12 0;
#X connect 9 1 10 0;
#X connect 10 0 11 0;
#X connect 11 0 12 1;
#X connect 12 0 7 1;
#X connect 13 0 7 0;
#X connect 13 1 24 0;
#X connect 14 0 8 0;
#X connect 14 1 6 0;
#X connect 15 0 18 0;
#X connect 15 0 19 0;
#X connect 16 0 10 0;
#X connect 17 0 6 0;
#X connect 18 0 16 0;
#X connect 19 0 17 0;
#X connect 20 0 9 0;
#X connect 21 0 3 0;
#X connect 24 0 4 0;
#X connect 25 0 14 0;
#X connect 26 0 4 0;
#X restore 531 462 pd tremelo;
#X obj 435 428 catch~ toFuzz;
#X obj 530 427 catch~ toTremelo;
#X obj 290 118 inlet~;
#X obj 378 119 inlet~;
#N canvas 819 298 450 300 verb 0;
#N canvas 92 310 634 321 vfreeverb~ 0;
#N canvas 261 41 778 367 combfilters-left1 0;
#X obj 46 244 +~;
#X obj 61 219 *~ 0.3;
#X obj 61 194 lop~ 1000;
#X obj 231 244 +~;
#X obj 246 219 *~ 0.3;
#X obj 246 194 lop~ 1000;
#X obj 429 218 *~ 0.3;
#X obj 429 193 lop~ 1000;
#X obj 414 241 +~;
#X obj 610 218 *~ 0.3;
#X obj 610 193 lop~ 1000;
#X obj 595 241 +~;
#X obj 61 141 delread~ \$0-comb1left;
#X obj 246 142 delread~ \$0-comb2left;
#X obj 429 141 delread~ \$0-comb3left;
#X obj 610 141 delread~ \$0-comb4left;
#X obj 46 268 delwrite~ \$0-comb1left 100;
#X obj 231 268 delwrite~ \$0-comb2left 100;
#X obj 414 267 delwrite~ \$0-comb3left 100;
#X obj 595 267 delwrite~ \$0-comb4left 100;
#X obj 61 97 r \$0-comb1left;
#X obj 246 97 r \$0-comb2left;
#X obj 429 95 r \$0-comb3left;
#X obj 610 96 r \$0-comb4left;
#X obj 112 170 r \$0-frequency;
#X obj 297 170 r \$0-frequency;
#X obj 480 167 r \$0-frequency;
#X obj 661 167 r \$0-frequency;
#X obj 46 28 inlet~;
#X obj 338 326 outlet~;
#X floatatom 70 119 5 0 0 0 - - -;
#X floatatom 255 121 5 0 0 0 - - -;
#X floatatom 439 119 5 0 0 0 - - -;
#X floatatom 622 121 5 0 0 0 - - -;
#X obj 279 58 clip 0 0.99;
#X obj 279 29 r \$0-room;
#X connect 0 0 16 0;
#X connect 1 0 0 1;
#X connect 2 0 1 0;
#X connect 2 0 29 0;
#X connect 3 0 17 0;
#X connect 4 0 3 1;
#X connect 5 0 4 0;
#X connect 5 0 29 0;
#X connect 6 0 8 1;
#X connect 7 0 6 0;
#X connect 7 0 29 0;
#X connect 8 0 18 0;
#X connect 9 0 11 1;
#X connect 10 0 9 0;
#X connect 10 0 29 0;
#X connect 11 0 19 0;
#X connect 12 0 2 0;
#X connect 13 0 5 0;
#X connect 14 0 7 0;
#X connect 15 0 10 0;
#X connect 20 0 12 0;
#X connect 20 0 30 0;
#X connect 21 0 13 0;
#X connect 21 0 31 0;
#X connect 22 0 14 0;
#X connect 22 0 32 0;
#X connect 23 0 15 0;
#X connect 23 0 33 0;
#X connect 24 0 2 1;
#X connect 25 0 5 1;
#X connect 26 0 7 1;
#X connect 27 0 10 1;
#X connect 28 0 0 0;
#X connect 28 0 3 0;
#X connect 28 0 8 0;
#X connect 28 0 11 0;
#X connect 34 0 1 1;
#X connect 34 0 4 1;
#X connect 34 0 6 1;
#X connect 34 0 9 1;
#X connect 35 0 34 0;
#X restore 15 100 pd combfilters-left1;
#N canvas 27 56 358 650 diffusor-left 0;
#X obj 51 107 *~ 0.5;
#X obj 36 132 +~;
#X obj 66 132 -~;
#X obj 36 26 inlet~;
#X obj 81 238 *~ 0.5;
#X obj 66 263 +~;
#X obj 96 263 -~;
#X obj 111 368 *~ 0.5;
#X obj 96 393 +~;
#X obj 126 393 -~;
#X obj 141 498 *~ 0.5;
#X obj 126 523 +~;
#X obj 156 523 -~;
#X obj 156 605 outlet~;
#X text 95 28 freeverb's diffusor;
#X obj 156 576 hip~ 5;
#X floatatom 214 70 5 0 0 0 - - -;
#X floatatom 246 203 5 0 0 0 - - -;
#X floatatom 280 334 5 0 0 0 - - -;
#X floatatom 304 464 5 0 0 0 - - -;
#X obj 51 53 r \$0-allpass1left;
#X obj 51 80 delread~ \$0-allpass1left;
#X obj 36 158 delwrite~ \$0-allpass1left 40;
#X obj 81 186 r \$0-allpass2left;
#X obj 81 211 delread~ \$0-allpass2left;
#X obj 66 290 delwrite~ \$0-allpass2left 40;
#X obj 111 317 r \$0-allpass3left;
#X obj 111 341 delread~ \$0-allpass3left;
#X obj 96 420 delwrite~ \$0-allpass3left 40;
#X obj 141 447 r \$0-allpass4left;
#X obj 141 471 delread~ \$0-allpass4left;
#X obj 126 550 delwrite~ \$0-allpass4left 40;
#X connect 0 0 1 1;
#X connect 1 0 22 0;
#X connect 2 0 5 0;
#X connect 2 0 6 1;
#X connect 3 0 1 0;
#X connect 3 0 2 1;
#X connect 4 0 5 1;
#X connect 5 0 25 0;
#X connect 6 0 8 0;
#X connect 6 0 9 1;
#X connect 7 0 8 1;
#X connect 8 0 28 0;
#X connect 9 0 11 0;
#X connect 9 0 12 1;
#X connect 10 0 11 1;
#X connect 11 0 31 0;
#X connect 12 0 15 0;
#X connect 15 0 13 0;
#X connect 20 0 16 0;
#X connect 20 0 21 0;
#X connect 21 0 0 0;
#X connect 21 0 2 0;
#X connect 23 0 17 0;
#X connect 23 0 24 0;
#X connect 24 0 4 0;
#X connect 24 0 6 0;
#X connect 26 0 18 0;
#X connect 26 0 27 0;
#X connect 27 0 7 0;
#X connect 27 0 9 0;
#X connect 29 0 19 0;
#X connect 29 0 30 0;
#X connect 30 0 10 0;
#X connect 30 0 12 0;
#X restore 15 168 pd diffusor-left;
#N canvas 312 366 778 367 combfilters-left2 0;
#X obj 46 244 +~;
#X obj 61 219 *~ 0.3;
#X obj 61 194 lop~ 1000;
#X obj 231 244 +~;
#X obj 246 219 *~ 0.3;
#X obj 246 194 lop~ 1000;
#X obj 429 218 *~ 0.3;
#X obj 429 193 lop~ 1000;
#X obj 414 241 +~;
#X obj 610 218 *~ 0.3;
#X obj 610 193 lop~ 1000;
#X obj 595 241 +~;
#X obj 112 170 r \$0-frequency;
#X obj 297 170 r \$0-frequency;
#X obj 480 167 r \$0-frequency;
#X obj 661 167 r \$0-frequency;
#X obj 46 28 inlet~;
#X obj 338 326 outlet~;
#X obj 61 90 r \$0-comb5left;
#X obj 61 141 delread~ \$0-comb5left;
#X obj 46 268 delwrite~ \$0-comb5left 100;
#X obj 246 90 r \$0-comb6left;
#X obj 246 142 delread~ \$0-comb6left;
#X obj 231 268 delwrite~ \$0-comb6left 100;
#X obj 429 88 r \$0-comb7left;
#X obj 429 141 delread~ \$0-comb7left;
#X obj 414 267 delwrite~ \$0-comb7left 100;
#X obj 610 89 r \$0-comb8left;
#X obj 610 141 delread~ \$0-comb8left;
#X obj 595 267 delwrite~ \$0-comb8left 100;
#X floatatom 70 116 5 0 0 0 - - -;
#X floatatom 261 118 5 0 0 0 - - -;
#X floatatom 440 117 5 0 0 0 - - -;
#X floatatom 620 116 5 0 0 0 - - -;
#X obj 279 58 clip 0 0.99;
#X obj 279 28 r \$0-room;
#X connect 0 0 20 0;
#X connect 1 0 0 1;
#X connect 2 0 1 0;
#X connect 2 0 17 0;
#X connect 3 0 23 0;
#X connect 4 0 3 1;
#X connect 5 0 4 0;
#X connect 5 0 17 0;
#X connect 6 0 8 1;
#X connect 7 0 6 0;
#X connect 7 0 17 0;
#X connect 8 0 26 0;
#X connect 9 0 11 1;
#X connect 10 0 9 0;
#X connect 10 0 17 0;
#X connect 11 0 29 0;
#X connect 12 0 2 1;
#X connect 13 0 5 1;
#X connect 14 0 7 1;
#X connect 15 0 10 1;
#X connect 16 0 0 0;
#X connect 16 0 3 0;
#X connect 16 0 8 0;
#X connect 16 0 11 0;
#X connect 18 0 19 0;
#X connect 18 0 30 0;
#X connect 19 0 2 0;
#X connect 21 0 22 0;
#X connect 21 0 31 0;
#X connect 22 0 5 0;
#X connect 24 0 25 0;
#X connect 24 0 32 0;
#X connect 25 0 7 0;
#X connect 27 0 28 0;
#X connect 27 0 33 0;
#X connect 28 0 10 0;
#X connect 34 0 1 1;
#X connect 34 0 4 1;
#X connect 34 0 6 1;
#X connect 34 0 9 1;
#X connect 35 0 34 0;
#X restore 36 134 pd combfilters-left2;
#N canvas 261 41 778 367 combfilters-right1 0;
#X obj 46 244 +~;
#X obj 61 219 *~ 0.3;
#X obj 61 194 lop~ 1000;
#X obj 231 244 +~;
#X obj 246 219 *~ 0.3;
#X obj 246 194 lop~ 1000;
#X obj 429 218 *~ 0.3;
#X obj 429 193 lop~ 1000;
#X obj 414 241 +~;
#X obj 610 218 *~ 0.3;
#X obj 610 193 lop~ 1000;
#X obj 595 241 +~;
#X obj 112 170 r \$0-frequency;
#X obj 297 170 r \$0-frequency;
#X obj 480 167 r \$0-frequency;
#X obj 661 167 r \$0-frequency;
#X obj 46 28 inlet~;
#X obj 338 326 outlet~;
#X floatatom 70 119 5 0 0 0 - - -;
#X floatatom 255 121 5 0 0 0 - - -;
#X floatatom 439 119 5 0 0 0 - - -;
#X floatatom 622 121 5 0 0 0 - - -;
#X obj 61 141 delread~ \$0-comb1right;
#X obj 246 142 delread~ \$0-comb2right;
#X obj 429 141 delread~ \$0-comb3right;
#X obj 610 141 delread~ \$0-comb4right;
#X obj 61 97 r \$0-comb1right;
#X obj 246 97 r \$0-comb2right;
#X obj 429 95 r \$0-comb3right;
#X obj 610 97 r \$0-comb4right;
#X obj 46 268 delwrite~ \$0-comb1right 100;
#X obj 231 268 delwrite~ \$0-comb2right 100;
#X obj 414 267 delwrite~ \$0-comb3right 100;
#X obj 595 267 delwrite~ \$0-comb4right 100;
#X obj 279 58 clip 0 0.99;
#X obj 279 28 r \$0-room;
#X connect 0 0 30 0;
#X connect 1 0 0 1;
#X connect 2 0 1 0;
#X connect 2 0 17 0;
#X connect 3 0 31 0;
#X connect 4 0 3 1;
#X connect 5 0 4 0;
#X connect 5 0 17 0;
#X connect 6 0 8 1;
#X connect 7 0 6 0;
#X connect 7 0 17 0;
#X connect 8 0 32 0;
#X connect 9 0 11 1;
#X connect 10 0 9 0;
#X connect 10 0 17 0;
#X connect 11 0 33 0;
#X connect 12 0 2 1;
#X connect 13 0 5 1;
#X connect 14 0 7 1;
#X connect 15 0 10 1;
#X connect 16 0 0 0;
#X connect 16 0 3 0;
#X connect 16 0 8 0;
#X connect 16 0 11 0;
#X connect 22 0 2 0;
#X connect 23 0 5 0;
#X connect 24 0 7 0;
#X connect 25 0 10 0;
#X connect 26 0 18 0;
#X connect 26 0 22 0;
#X connect 27 0 19 0;
#X connect 27 0 23 0;
#X connect 28 0 20 0;
#X connect 28 0 24 0;
#X connect 29 0 21 0;
#X connect 29 0 25 0;
#X connect 34 0 1 1;
#X connect 34 0 4 1;
#X connect 34 0 6 1;
#X connect 34 0 9 1;
#X connect 35 0 34 0;
#X restore 208 99 pd combfilters-right1;
#N canvas 312 366 778 367 combfilters-right2 0;
#X obj 46 244 +~;
#X obj 61 219 *~ 0.3;
#X obj 61 194 lop~ 1000;
#X obj 231 244 +~;
#X obj 246 219 *~ 0.3;
#X obj 246 194 lop~ 1000;
#X obj 429 218 *~ 0.3;
#X obj 429 193 lop~ 1000;
#X obj 414 241 +~;
#X obj 610 218 *~ 0.3;
#X obj 610 193 lop~ 1000;
#X obj 595 241 +~;
#X obj 112 170 r \$0-frequency;
#X obj 297 170 r \$0-frequency;
#X obj 480 167 r \$0-frequency;
#X obj 661 167 r \$0-frequency;
#X obj 46 28 inlet~;
#X obj 338 326 outlet~;
#X floatatom 70 116 5 0 0 0 - - -;
#X floatatom 261 118 5 0 0 0 - - -;
#X floatatom 440 117 5 0 0 0 - - -;
#X floatatom 620 116 5 0 0 0 - - -;
#X obj 279 58 clip 0 0.99;
#X obj 61 90 r \$0-comb5right;
#X obj 246 90 r \$0-comb6right;
#X obj 429 88 r \$0-comb7right;
#X obj 610 89 r \$0-comb8right;
#X obj 61 141 delread~ \$0-comb5right;
#X obj 246 142 delread~ \$0-comb6right;
#X obj 429 141 delread~ \$0-comb7right;
#X obj 610 141 delread~ \$0-comb8right;
#X obj 46 268 delwrite~ \$0-comb5right 100;
#X obj 231 268 delwrite~ \$0-comb6right 100;
#X obj 414 267 delwrite~ \$0-comb7right 100;
#X obj 595 267 delwrite~ \$0-comb8right 100;
#X obj 279 28 r \$0-room;
#X connect 0 0 31 0;
#X connect 1 0 0 1;
#X connect 2 0 1 0;
#X connect 2 0 17 0;
#X connect 3 0 32 0;
#X connect 4 0 3 1;
#X connect 5 0 4 0;
#X connect 5 0 17 0;
#X connect 6 0 8 1;
#X connect 7 0 6 0;
#X connect 7 0 17 0;
#X connect 8 0 33 0;
#X connect 9 0 11 1;
#X connect 10 0 9 0;
#X connect 10 0 17 0;
#X connect 11 0 34 0;
#X connect 12 0 2 1;
#X connect 13 0 5 1;
#X connect 14 0 7 1;
#X connect 15 0 10 1;
#X connect 16 0 0 0;
#X connect 16 0 3 0;
#X connect 16 0 8 0;
#X connect 16 0 11 0;
#X connect 22 0 1 1;
#X connect 22 0 4 1;
#X connect 22 0 6 1;
#X connect 22 0 9 1;
#X connect 23 0 18 0;
#X connect 23 0 27 0;
#X connect 24 0 19 0;
#X connect 24 0 28 0;
#X connect 25 0 20 0;
#X connect 25 0 29 0;
#X connect 26 0 21 0;
#X connect 26 0 30 0;
#X connect 27 0 2 0;
#X connect 28 0 5 0;
#X connect 29 0 7 0;
#X connect 30 0 10 0;
#X connect 35 0 22 0;
#X restore 225 133 pd combfilters-right2;
#N canvas 27 56 358 650 diffusor-right 0;
#X obj 51 107 *~ 0.5;
#X obj 36 132 +~;
#X obj 66 132 -~;
#X obj 36 26 inlet~;
#X obj 81 238 *~ 0.5;
#X obj 66 263 +~;
#X obj 96 263 -~;
#X obj 111 368 *~ 0.5;
#X obj 96 393 +~;
#X obj 126 393 -~;
#X obj 141 498 *~ 0.5;
#X obj 126 523 +~;
#X obj 156 523 -~;
#X obj 156 605 outlet~;
#X text 95 28 freeverb's diffusor;
#X obj 156 576 hip~ 5;
#X floatatom 214 70 5 0 0 0 - - -;
#X floatatom 244 203 5 0 0 0 - - -;
#X floatatom 280 334 5 0 0 0 - - -;
#X floatatom 304 464 5 0 0 0 - - -;
#X obj 51 53 r \$0-allpass1right;
#X obj 51 80 delread~ \$0-allpass1right;
#X obj 36 158 delwrite~ \$0-allpass1right 40;
#X obj 81 186 r \$0-allpass2right;
#X obj 81 211 delread~ \$0-allpass2right;
#X obj 66 290 delwrite~ \$0-allpass2right 40;
#X obj 111 317 r \$0-allpass3right;
#X obj 111 341 delread~ \$0-allpass3right;
#X obj 96 420 delwrite~ \$0-allpass3right 40;
#X obj 141 447 r \$0-allpass4right;
#X obj 141 471 delread~ \$0-allpass4right;
#X obj 126 550 delwrite~ \$0-allpass4right 40;
#X connect 0 0 1 1;
#X connect 1 0 22 0;
#X connect 2 0 5 0;
#X connect 2 0 6 1;
#X connect 3 0 1 0;
#X connect 3 0 2 1;
#X connect 4 0 5 1;
#X connect 5 0 25 0;
#X connect 6 0 8 0;
#X connect 6 0 9 1;
#X connect 7 0 8 1;
#X connect 8 0 28 0;
#X connect 9 0 11 0;
#X connect 9 0 12 1;
#X connect 10 0 11 1;
#X connect 11 0 31 0;
#X connect 12 0 15 0;
#X connect 15 0 13 0;
#X connect 20 0 16 0;
#X connect 20 0 21 0;
#X connect 21 0 0 0;
#X connect 21 0 2 0;
#X connect 23 0 17 0;
#X connect 23 0 24 0;
#X connect 24 0 4 0;
#X connect 24 0 6 0;
#X connect 26 0 18 0;
#X connect 26 0 27 0;
#X connect 27 0 7 0;
#X connect 27 0 9 0;
#X connect 29 0 19 0;
#X connect 29 0 30 0;
#X connect 30 0 10 0;
#X connect 30 0 12 0;
#X restore 208 169 pd diffusor-right;
#X obj 208 61 *~ 0.015;
#X obj 15 226 *~ 1;
#X obj 208 228 *~ 1;
#X obj 94 228 *~ 1;
#X obj 169 228 *~ 1;
#X obj 115 202 r \$0-dry;
#X obj 229 203 r \$0-wet;
#X obj 36 201 r \$0-wet;
#X obj 94 14 inlet~;
#X obj 208 14 inlet~;
#X obj 15 268 outlet~;
#X obj 169 269 outlet~;
#X obj 312 14 inlet;
#X obj 374 14 inlet;
#X obj 462 14 inlet;
#X obj 544 16 inlet;
#N canvas 0 22 207 207 room 0;
#X obj 32 35 inlet;
#X obj 32 63 * 0.28;
#X obj 32 94 + 0.7;
#X obj 32 160 outlet;
#X text 80 65 scaleroom;
#X text 76 94 offsetroom;
#X obj 47 126 s \$0-room;
#X connect 0 0 1 0;
#X connect 1 0 2 0;
#X connect 2 0 3 0;
#X connect 2 0 6 0;
#X restore 312 45 pd room;
#N canvas 684 169 244 376 frequency 0;
#X obj 60 222 samplerate~;
#X obj 33 8 inlet;
#X obj 33 194 t f b;
#X obj 33 249 *;
#X obj 53 303 s \$0-frequency;
#X obj 33 327 outlet;
#X obj 33 64 * 0.4;
#X text 76 66 scaledamp;
#X obj 33 90 t b f;
#X obj 33 141 -;
#X msg 33 116 1;
#X obj 33 168 abs;
#X obj 33 275 * 0.5;
#X text 153 303 for [lop~];
#X obj 33 38 clip 0 2.4;
#X connect 0 0 3 1;
#X connect 1 0 14 0;
#X connect 2 0 3 0;
#X connect 2 1 0 0;
#X connect 3 0 12 0;
#X connect 6 0 8 0;
#X connect 8 0 10 0;
#X connect 8 1 9 1;
#X connect 9 0 11 0;
#X connect 10 0 9 0;
#X connect 11 0 2 0;
#X connect 12 0 5 0;
#X connect 12 0 4 0;
#X connect 14 0 6 0;
#X restore 374 45 pd frequency;
#N canvas 0 22 170 187 scalewet 0;
#X obj 22 42 inlet;
#X obj 22 143 outlet;
#X obj 22 73 * 3;
#X text 49 74 scalewet;
#X obj 40 112 s \$0-wet;
#X connect 0 0 2 0;
#X connect 2 0 1 0;
#X connect 2 0 4 0;
#X restore 544 45 pd scalewet;
#N canvas 0 22 220 198 scaledry 0;
#X obj 32 74 * 2;
#X obj 32 40 inlet;
#X obj 32 141 outlet;
#X text 58 75 scaledry;
#X obj 41 105 s \$0-dry;
#X connect 0 0 2 0;
#X connect 0 0 4 0;
#X connect 1 0 0 0;
#X restore 462 45 pd scaledry;
#X floatatom 312 70 5 0 0 0 - - -;
#X floatatom 374 70 10 0 0 0 - - -;
#X floatatom 462 69 5 0 0 0 - - -;
#X floatatom 544 69 5 0 0 0 - - -;
#N canvas 405 27 635 684 tuning 0;
#X msg 332 81 1139 \, 1211 \, 1300 \, 1379 \, 1445 \, 1514 \, 1580
\, 1640;
#X text 72 57 combfilter tunings left;
#X text 377 56 combfilter tunings right;
#X text 71 360 allpass tunings left;
#X text 383 355 allpass tunings right;
#N canvas 243 170 195 233 sampstoms 0;
#X obj 27 21 inlet;
#X obj 54 86 samplerate~;
#X obj 27 111 /;
#X obj 27 57 t f b;
#X obj 27 136 * 1000;
#X obj 27 162 outlet;
#X connect 0 0 3 0;
#X connect 1 0 2 1;
#X connect 2 0 4 0;
#X connect 3 0 2 0;
#X connect 3 1 1 0;
#X connect 4 0 5 0;
#X restore 30 107 pd sampstoms;
#X msg 30 82 1116 \, 1188 \, 1277 \, 1356 \, 1422 \, 1491 \, 1557 \,
1617;
#X obj 57 188 +;
#X msg 57 159 1;
#X obj 30 135 t f b;
#X obj 87 188 f;
#X obj 30 56 t b b;
#X msg 87 159 0;
#X obj 57 212 pack f \$0;
#X msg 57 238 \$2-comb\$1left;
#X obj 30 282 s;
#X obj 57 265 symbol;
#N canvas 0 22 195 233 sampstoms 0;
#X obj 27 21 inlet;
#X obj 54 86 samplerate~;
#X obj 27 111 /;
#X obj 27 57 t f b;
#X obj 27 136 * 1000;
#X obj 27 162 outlet;
#X connect 0 0 3 0;
#X connect 1 0 2 1;
#X connect 2 0 4 0;
#X connect 3 0 2 0;
#X connect 3 1 1 0;
#X connect 4 0 5 0;
#X restore 332 107 pd sampstoms;
#X obj 359 188 +;
#X msg 359 159 1;
#X obj 332 135 t f b;
#X obj 389 188 f;
#X msg 389 159 0;
#X obj 359 212 pack f \$0;
#X obj 332 282 s;
#X obj 359 265 symbol;
#X obj 332 56 t b b;
#X msg 359 238 \$2-comb\$1right;
#X obj 30 360 t b b;
#N canvas 0 22 195 233 sampstoms 0;
#X obj 27 21 inlet;
#X obj 54 86 samplerate~;
#X obj 27 111 /;
#X obj 27 57 t f b;
#X obj 27 136 * 1000;
#X obj 27 162 outlet;
#X connect 0 0 3 0;
#X connect 1 0 2 1;
#X connect 2 0 4 0;
#X connect 3 0 2 0;
#X connect 3 1 1 0;
#X connect 4 0 5 0;
#X restore 30 411 pd sampstoms;
#X obj 57 492 +;
#X msg 57 463 1;
#X obj 30 439 t f b;
#X obj 87 492 f;
#X msg 87 463 0;
#X obj 57 516 pack f \$0;
#X obj 30 586 s;
#X obj 57 569 symbol;
#X obj 334 356 t b b;
#N canvas 0 22 195 233 sampstoms 0;
#X obj 27 21 inlet;
#X obj 54 86 samplerate~;
#X obj 27 111 /;
#X obj 27 57 t f b;
#X obj 27 136 * 1000;
#X obj 27 162 outlet;
#X connect 0 0 3 0;
#X connect 1 0 2 1;
#X connect 2 0 4 0;
#X connect 3 0 2 0;
#X connect 3 1 1 0;
#X connect 4 0 5 0;
#X restore 334 407 pd sampstoms;
#X obj 361 488 +;
#X msg 361 459 1;
#X obj 334 435 t f b;
#X obj 391 488 f;
#X msg 391 459 0;
#X obj 361 512 pack f \$0;
#X obj 334 582 s;
#X obj 361 565 symbol;
#X obj 30 22 loadbang;
#X obj 332 27 loadbang;
#X obj 30 334 loadbang;
#X obj 334 331 loadbang;
#X obj 268 41 bng 15 250 50 0 empty empty empty 17 7 0 10 -262144 -1
-1;
#X msg 30 386 225 \, 556 \, 441 \, 341;
#X msg 334 380 248 \, 579 \, 464 \, 364;
#X msg 57 542 \$2-allpass\$1left;
#X msg 361 539 \$2-allpass\$1right;
#X text 27 624 Original Freeverb delay line lengths are converted to
milliseconds \, based on samplerate.;
#X connect 0 0 17 0;
#X connect 5 0 9 0;
#X connect 6 0 5 0;
#X connect 7 0 10 0;
#X connect 7 0 13 0;
#X connect 8 0 7 0;
#X connect 9 0 15 0;
#X connect 9 1 8 0;
#X connect 10 0 7 1;
#X connect 11 0 6 0;
#X connect 11 1 12 0;
#X connect 12 0 10 0;
#X connect 13 0 14 0;
#X connect 14 0 16 0;
#X connect 16 0 15 1;
#X connect 17 0 20 0;
#X connect 18 0 21 0;
#X connect 18 0 23 0;
#X connect 19 0 18 0;
#X connect 20 0 24 0;
#X connect 20 1 19 0;
#X connect 21 0 18 1;
#X connect 22 0 21 0;
#X connect 23 0 27 0;
#X connect 25 0 24 1;
#X connect 26 0 0 0;
#X connect 26 1 22 0;
#X connect 27 0 25 0;
#X connect 28 0 53 0;
#X connect 28 1 34 0;
#X connect 29 0 32 0;
#X connect 30 0 33 0;
#X connect 30 0 35 0;
#X connect 31 0 30 0;
#X connect 32 0 36 0;
#X connect 32 1 31 0;
#X connect 33 0 30 1;
#X connect 34 0 33 0;
#X connect 35 0 55 0;
#X connect 37 0 36 1;
#X connect 38 0 54 0;
#X connect 38 1 44 0;
#X connect 39 0 42 0;
#X connect 40 0 43 0;
#X connect 40 0 45 0;
#X connect 41 0 40 0;
#X connect 42 0 46 0;
#X connect 42 1 41 0;
#X connect 43 0 40 1;
#X connect 44 0 43 0;
#X connect 45 0 56 0;
#X connect 47 0 46 1;
#X connect 48 0 11 0;
#X connect 49 0 26 0;
#X connect 50 0 28 0;
#X connect 51 0 38 0;
#X connect 52 0 11 0;
#X connect 52 0 28 0;
#X connect 52 0 26 0;
#X connect 52 0 38 0;
#X connect 53 0 29 0;
#X connect 54 0 39 0;
#X connect 55 0 37 0;
#X connect 56 0 47 0;
#X restore 410 141 pd tuning;
#X connect 0 0 1 0;
#X connect 1 0 7 0;
#X connect 2 0 1 0;
#X connect 3 0 5 0;
#X connect 4 0 5 0;
#X connect 5 0 8 0;
#X connect 6 0 3 0;
#X connect 6 0 0 0;
#X connect 6 0 4 0;
#X connect 6 0 2 0;
#X connect 7 0 16 0;
#X connect 8 0 17 0;
#X connect 9 0 16 0;
#X connect 10 0 17 0;
#X connect 11 0 10 1;
#X connect 11 0 9 1;
#X connect 12 0 8 1;
#X connect 13 0 7 1;
#X connect 14 0 6 0;
#X connect 14 0 9 0;
#X connect 15 0 6 0;
#X connect 15 0 10 0;
#X connect 18 0 22 0;
#X connect 19 0 23 0;
#X connect 20 0 25 0;
#X connect 21 0 24 0;
#X connect 22 0 26 0;
#X connect 23 0 27 0;
#X connect 24 0 29 0;
#X connect 25 0 28 0;
#X restore 9 173 pd vfreeverb~;
#X obj 89 7 loadbang;
#X msg 109 130 0;
#X msg 118 156 1;
#X obj 52 61 inlet~;
#X obj -5 65 inlet~;
#X obj 86 210 outlet~;
#X obj 9 215 outlet~;
#X msg 81 85 0.6;
#X msg 104 104 0.4;
#X connect 0 0 7 0;
#X connect 0 1 6 0;
#X connect 1 0 8 0;
#X connect 1 0 9 0;
#X connect 1 0 2 0;
#X connect 1 0 3 0;
#X connect 2 0 0 4;
#X connect 3 0 0 5;
#X connect 4 0 0 1;
#X connect 5 0 0 0;
#X connect 8 0 0 2;
#X connect 9 0 0 3;
#X restore 667 458 pd verb;
#X obj 664 423 catch~ toVerbL;
#X obj 704 397 catch~ toVerbR;
#X obj 479 577 loadbang;
#X obj 288 695 outlet~;
#X obj 408 690 outlet~;
#X obj 270 560 *~ 0.6;
#X obj 318 565 *~ 0.4;
#X obj 438 556 *~ 0.4;
#X obj 390 554 *~ 0.6;
#X msg 479 601 switch 1 \, threshold 98 \, ratio 1.2;
#X obj 306 468 mm_schorus~;
#X obj 285 642 mm_compressor~;
#X obj 405 643 mm_compressor~;
#X connect 0 0 19 2;
#X connect 1 0 19 2;
#X connect 2 0 15 0;
#X connect 2 1 16 0;
#X connect 3 0 15 0;
#X connect 3 1 16 0;
#X connect 4 0 2 0;
#X connect 5 0 3 0;
#X connect 6 0 14 0;
#X connect 6 0 19 0;
#X connect 7 0 17 0;
#X connect 7 0 19 1;
#X connect 8 0 15 0;
#X connect 8 1 16 0;
#X connect 9 0 8 0;
#X connect 10 0 8 1;
#X connect 11 0 18 0;
#X connect 14 0 20 0;
#X connect 15 0 20 0;
#X connect 16 0 21 0;
#X connect 17 0 21 0;
#X connect 18 0 20 1;
#X connect 18 0 21 1;
#X connect 19 0 15 0;
#X connect 19 1 16 0;
#X connect 20 0 12 0;
#X connect 21 0 13 0;
#X restore 15 405 pd fx;
#N canvas 345 23 1429 845 bass 0;
#X obj 503 213 mm_bass_notes;
#X obj 541 172 r notes;
#X obj 599 172 r \$0-randomNotes;
#X obj 417 -56 r \$0-clock;
#X obj 479 17 r \$0-theRoot;
#X msg 415 -16 clock \$1;
#X msg 480 38 root \$1;
#X obj 520 146 r \$0-detectedTempo;
#X obj 508 91 r \$0-timer;
#X msg 509 117 timer \$1;
#N canvas 710 242 450 300 toFuzz 0;
#X obj 75 -66 inlet~;
#X obj 76 197 throw~ toFuzz;
#X obj 76 167 *~;
#X obj 101 144 lop~ 1;
#X obj 154 44 random 100;
#X obj 152 91 *;
#X obj 99 22 r onOff;
#X obj 99 49 sel 0;
#X msg 98 76 0;
#X obj 155 18 t b;
#X obj 157 -7 r randomize2;
#X obj 152 67 * 0.0075;
#X connect 0 0 2 0;
#X connect 2 0 1 0;
#X connect 3 0 2 1;
#X connect 4 0 11 0;
#X connect 5 0 3 0;
#X connect 6 0 7 0;
#X connect 7 0 8 0;
#X connect 8 0 3 0;
#X connect 9 0 4 0;
#X connect 10 0 9 0;
#X connect 11 0 5 1;
#X connect 11 0 5 0;
#X restore 577 840 pd toFuzz;
#X obj 544 928 throw~ toVerbL;
#X obj 649 928 throw~ toVerbR;
#X obj 651 901 *~ 0.2;
#X obj 546 895 *~ 0.2;
#X obj 529 789 mm_bass_mixer~;
#X obj 624 749 r \$0-detectedTempo;
#X obj 446 910 outlet~;
#X obj 758 902 outlet~;
#X obj 828 887 s bassDB;
#X obj 824 851 env~;
#X floatatom 566 263 5 0 0 0 - - -;
#X text 758 199 bass goes here;
#X obj 527 742 mm_compressor~;
#X obj 518 473 mm_8bit~;
#X obj 509 262 mtof;
#X obj 529 588 mm_asr~;
#X obj 519 355 t f b;
#X msg 569 706 switch 1 \, threshold 90 \, ratio 1.4;
#X obj 566 677 loadbang;
#X obj 671 417 r randomize1;
#X obj 731 462 r randomize2;
#X obj 789 526 r randomize3;
#X obj 731 169 r randomize0;
#X obj 580 391 loadbang;
#X msg 582 414 1024;
#X obj 527 645 mm_shfilter~ 250 3500 2 0.9;
#X obj 671 436 mm_runif 50 1000;
#X msg 666 458 s \$1;
#X obj 634 233 random 4;
#X obj 634 258 sel 0 1 2 3;
#X msg 633 286 512;
#X msg 651 306 1024;
#X msg 667 330 2048;
#X msg 681 358 4096;
#X obj 731 487 mm_runif 5 50;
#X msg 731 511 a \$1;
#X obj 790 552 mm_runif 2 500;
#X msg 790 576 r \$1;
#X obj 731 194 t b;
#X obj 794 322 r \$0-timer;
#X obj 793 348 mod 33;
#X msg 793 373 seed \$1;
#N canvas 722 199 690 579 harms 0;
#X obj 112 37 inlet;
#X obj 112 128 osc~;
#X obj 159 156 osc~;
#X obj 264 154 osc~;
#X obj 209 156 osc~;
#X obj 208 130 * 3;
#X obj 264 188 *~ 0.2;
#X obj 115 66 t f f f f;
#X obj 126 243 outlet~;
#X obj 158 130 * 0.5;
#X obj 263 128 * 2;
#X obj 159 190 *~ 0.4;
#X obj 209 190 *~ 0.2;
#X connect 0 0 7 0;
#X connect 1 0 8 0;
#X connect 2 0 11 0;
#X connect 3 0 6 0;
#X connect 4 0 12 0;
#X connect 5 0 4 0;
#X connect 6 0 8 0;
#X connect 7 0 1 0;
#X connect 7 1 9 0;
#X connect 7 2 5 0;
#X connect 7 3 10 0;
#X connect 9 0 2 0;
#X connect 10 0 3 0;
#X connect 11 0 8 0;
#X connect 12 0 8 0;
#X restore 517 418 pd harms;
#X connect 0 0 21 0;
#X connect 0 0 25 0;
#X connect 1 0 0 1;
#X connect 2 0 0 2;
#X connect 3 0 5 0;
#X connect 4 0 6 0;
#X connect 5 0 0 0;
#X connect 6 0 0 0;
#X connect 7 0 0 0;
#X connect 8 0 9 0;
#X connect 9 0 0 0;
#X connect 13 0 12 0;
#X connect 14 0 11 0;
#X connect 15 0 14 0;
#X connect 15 0 10 0;
#X connect 15 0 17 0;
#X connect 15 0 20 0;
#X connect 15 1 13 0;
#X connect 15 1 10 0;
#X connect 15 1 18 0;
#X connect 15 1 20 0;
#X connect 16 0 15 2;
#X connect 20 0 19 0;
#X connect 23 0 15 0;
#X connect 23 0 15 1;
#X connect 24 0 26 0;
#X connect 25 0 27 0;
#X connect 26 0 36 0;
#X connect 27 0 53 0;
#X connect 27 1 26 1;
#X connect 28 0 23 1;
#X connect 29 0 28 0;
#X connect 30 0 37 0;
#X connect 31 0 45 0;
#X connect 32 0 47 0;
#X connect 33 0 49 0;
#X connect 34 0 35 0;
#X connect 35 0 24 1;
#X connect 36 0 23 0;
#X connect 37 0 38 0;
#X connect 38 0 26 2;
#X connect 39 0 40 0;
#X connect 40 0 41 0;
#X connect 40 1 42 0;
#X connect 40 2 43 0;
#X connect 40 3 44 0;
#X connect 41 0 24 1;
#X connect 42 0 24 1;
#X connect 43 0 24 1;
#X connect 44 0 24 1;
#X connect 45 0 46 0;
#X connect 46 0 26 2;
#X connect 47 0 48 0;
#X connect 48 0 26 2;
#X connect 49 0 39 0;
#X connect 50 0 51 0;
#X connect 51 0 52 0;
#X connect 52 0 37 1;
#X connect 52 0 45 1;
#X connect 52 0 47 1;
#X connect 52 0 39 0;
#X connect 53 0 24 0;
#X restore 14 165 pd bass;
#N canvas 96 135 1332 748 randomness 0;
#X obj 1143 -222 loadbang;
#X obj 1146 -106 timer;
#X obj 1172 -137 sel 1;
#X obj 674 -552 r \$0-clock;
#X obj 685 -387 t b;
#X obj 687 -320 f;
#X obj 721 -319 + 1;
#X obj 641 -85 sel 0;
#X msg 565 129 randomize;
#X obj 752 -257 sel 0;
#X obj 721 -418 r onOff;
#X obj 723 -392 sel 1;
#X msg 725 -367 0;
#X obj 1171 -159 r onOff;
#X obj 866 -183 mod 1024;
#X obj 867 -161 sel 0;
#X obj 846 39 s setNewTempo;
#X obj 943 12 random 12;
#X obj 943 39 s \$0-theRoot;
#X msg 641 147 \$1 randomize;
#X obj 643 188 route 0 1 2 3;
#X obj 606 275 s randomize1;
#X obj 629 302 s randomize2;
#X obj 649 328 s randomize3;
#X obj 807 402 == 0;
#X obj 805 188 sel 0;
#X obj 803 165 mod 256;
#X obj 567 103 bng 15 250 50 0 empty empty empty 17 7 0 10 -262144
-1 -1;
#X obj 562 50 r onOff;
#X obj 805 241 until;
#X obj 804 266 f;
#X obj 833 268 + 1;
#X obj 806 348 t b f;
#X obj 807 429 list prepend;
#X obj 806 452 list trim;
#X obj 806 322 + 1;
#X obj 806 484 route 1 2 3 0;
#X msg 941 -355 seed \$1;
#X obj 940 -380 mod 130;
#X msg 943 -56 seed \$1;
#X obj 942 -79 mod 125;
#X obj 1146 -67 s \$0-timer;
#X obj 560 -250 r \$0-timer;
#X msg 562 -188 seed \$1;
#X obj 561 -210 mod 110;
#X obj 654 17 s \$0-willRandomize;
#X msg 1017 449 0;
#X obj 805 292 mod 4;
#X msg 805 216 4;
#X obj 893 289 r \$0-timer;
#X obj 894 312 mod 60;
#X msg 895 334 seed \$1;
#X obj 977 -12 bng 15 250 50 0 empty empty empty 17 7 0 10 -262144
-1 -1;
#X obj 807 378 random 8;
#X obj 564 70 t b;
#X obj 680 -444 spigot;
#X msg 740 -477 1;
#X obj 746 -506 loadbang;
#X obj 746 -542 r allowRandom;
#X obj 639 -139 mod 16;
#X obj 805 512 s 1shouldImprovise;
#X obj 828 535 s 2shouldImprovise;
#X obj 849 556 s 3shouldImprovise;
#X obj 878 583 s 0shouldImprovise;
#X obj 594 247 s randomize0;
#X obj 640 56 t f b;
#X obj 669 110 s randomize;
#X msg 668 88 randomize;
#X obj 672 -185 r ticksPerMeasure;
#X obj 796 -391 r ticksPerRep;
#X obj 1017 389 r onOff;
#X obj 1019 419 t b;
#X obj 940 -406 r \$0-timer;
#X obj 939 -103 r \$0-timer;
#X obj 914 -242 r ticksPerRep;
#X obj 913 -213 * 20;
#X obj 641 -44 random 4;
#X obj 866 -136 t b b;
#X obj 940 -275 s alterPattern;
#X obj 780 -337 * 2;
#X obj 739 -292 mod 128;
#X obj 839 101 r ticksPerRep;
#X obj 840 134 * 4;
#X obj 945 -330 random 2;
#X obj 944 -304 sel 0;
#X connect 0 0 1 0;
#X connect 1 0 41 0;
#X connect 2 0 1 1;
#X connect 3 0 55 0;
#X connect 4 0 5 0;
#X connect 5 0 6 0;
#X connect 5 0 14 0;
#X connect 5 0 26 0;
#X connect 5 0 59 0;
#X connect 5 0 80 0;
#X connect 6 0 5 1;
#X connect 7 0 76 0;
#X connect 8 0 21 0;
#X connect 8 0 22 0;
#X connect 8 0 23 0;
#X connect 8 0 64 0;
#X connect 9 0 83 0;
#X connect 10 0 11 0;
#X connect 11 0 12 0;
#X connect 12 0 5 1;
#X connect 13 0 2 0;
#X connect 14 0 15 0;
#X connect 15 0 77 0;
#X connect 17 0 18 0;
#X connect 19 0 20 0;
#X connect 20 0 64 0;
#X connect 20 1 21 0;
#X connect 20 2 22 0;
#X connect 20 3 23 0;
#X connect 24 0 33 0;
#X connect 25 0 48 0;
#X connect 26 0 25 0;
#X connect 27 0 8 0;
#X connect 28 0 54 0;
#X connect 29 0 30 0;
#X connect 30 0 31 0;
#X connect 30 0 47 0;
#X connect 31 0 30 1;
#X connect 32 0 53 0;
#X connect 32 1 33 1;
#X connect 33 0 34 0;
#X connect 34 0 36 0;
#X connect 35 0 32 0;
#X connect 36 0 60 0;
#X connect 36 1 61 0;
#X connect 36 2 62 0;
#X connect 36 3 63 0;
#X connect 37 0 83 0;
#X connect 38 0 37 0;
#X connect 39 0 17 0;
#X connect 40 0 39 0;
#X connect 42 0 44 0;
#X connect 43 0 76 0;
#X connect 44 0 43 0;
#X connect 46 0 60 0;
#X connect 46 0 61 0;
#X connect 46 0 62 0;
#X connect 46 0 63 0;
#X connect 47 0 35 0;
#X connect 48 0 29 0;
#X connect 49 0 50 0;
#X connect 50 0 51 0;
#X connect 51 0 53 0;
#X connect 52 0 17 0;
#X connect 53 0 24 0;
#X connect 54 0 27 0;
#X connect 55 0 4 0;
#X connect 56 0 55 1;
#X connect 57 0 56 0;
#X connect 58 0 55 1;
#X connect 59 0 7 0;
#X connect 65 0 19 0;
#X connect 65 1 67 0;
#X connect 67 0 66 0;
#X connect 68 0 59 1;
#X connect 69 0 79 0;
#X connect 70 0 71 0;
#X connect 71 0 46 0;
#X connect 72 0 38 0;
#X connect 73 0 40 0;
#X connect 74 0 75 0;
#X connect 75 0 14 1;
#X connect 76 0 45 0;
#X connect 76 0 65 0;
#X connect 77 0 16 0;
#X connect 77 1 17 0;
#X connect 79 0 80 1;
#X connect 80 0 9 0;
#X connect 81 0 82 0;
#X connect 82 0 26 1;
#X connect 83 0 84 0;
#X connect 84 0 78 0;
#X restore 812 0 pd randomness;
#X obj 908 314 r \$0-timer;
#X obj 816 128 s \$0-clock;
#X obj 862 154 s \$0-detectedTempo;
#X obj 78 52 throw~ outputL;
#X obj 14 28 throw~ outputR;
#N canvas 73 23 1288 822 samplers 0;
#X obj 149 148 mm_audio_input;
#X obj 252 343 mm_audio_input_filter~;
#X obj 345 241 mm_half_floor~;
#X obj 163 432 mm_double_audio_input_sampler~;
#X obj 448 183 r \$0-clock;
#X obj 446 209 sel 0;
#X floatatom 329 308 5 0 0 0 - - -;
#X msg 376 409 threshold \$1;
#X obj 466 287 r onOff;
#X msg 465 310 on \$1;
#X obj 398 605 r \$0-detectedTempo;
#X msg 146 96 play1;
#X msg 165 121 play2;
#X msg 583 93 slice1;
#X msg 598 127 slice2;
#X obj 145 67 sel 0 1 2;
#X obj 583 64 sel 0 1 2;
#X obj 229 860 outlet~;
#X obj 311 865 outlet~;
#X floatatom 387 265 5 0 0 0 - - -;
#X obj 423 122 bng 15 250 50 0 empty empty empty 17 7 0 10 -262144
-1 -1;
#X obj 143 -9 r snareHits;
#X obj 143 31 random 2;
#X obj 263 779 env~;
#X obj 314 49 env~;
#X obj 318 85 s inputDB;
#X obj 267 815 s sampsDB;
#X obj 293 611 mm_vocoder~;
#N canvas 455 69 938 793 sample 0;
#X obj 525 227 r loadOtherSample;
#X obj 289 529 mm_sample_slicer_revised~;
#X obj 293 416 r snareHits;
#X msg 621 509 direction \$1;
#X msg 293 444 play;
#X obj 528 255 list split 2;
#X obj 527 283 list prepend set;
#X obj 528 308 list trim;
#X msg 555 376 sample /Users/travishenspeter/mm_lib/samples/VOCALS and SPOKEN WORD/FEMALE SUNG/hindi_woman.aif
;
#N canvas 866 243 450 300 db 0;
#X obj 51 37 inlet;
#X obj 220 27 inlet;
#X obj 52 81 spigot;
#X msg 107 138 0;
#X obj 52 221 outlet;
#X msg 132 57 1;
#X obj 130 27 loadbang;
#X obj 54 139 t a b;
#X obj 224 58 bng 15 250 50 0 empty empty empty 17 7 0 10 -262144 -1
-1;
#X msg 224 82 1;
#X connect 0 0 2 0;
#X connect 1 0 8 0;
#X connect 2 0 7 0;
#X connect 3 0 2 1;
#X connect 5 0 2 1;
#X connect 6 0 5 0;
#X connect 7 0 4 0;
#X connect 7 1 3 0;
#X connect 8 0 9 0;
#X connect 9 0 2 1;
#X restore 289 470 pd db;
#X obj 437 557 bng 15 250 50 0 empty empty empty 17 7 0 10 -262144
-1 -1;
#X obj 464 195 r beatsPerRep;
#X msg 439 398 beats \$1;
#X obj 431 87 random 4;
#X obj 432 110 + 1;
#X obj 432 135 swap 1;
#X obj 431 158 /;
#X obj 438 254 int;
#X floatatom 462 306 5 0 0 0 - - -;
#X obj 437 228 * 16;
#X obj 432 64 bng 15 250 50 0 empty empty empty 17 7 0 10 -262144 -1
-1;
#X obj 431 37 r randomize3;
#X obj 615 437 bng 15 250 50 0 empty empty empty 17 7 0 10 -262144
-1 -1;
#X obj 619 486 random 2;
#X obj 610 410 r randomize0;
#X obj 356 442 bng 15 250 50 0 empty empty empty 17 7 0 10 -262144
-1 -1;
#X obj 233 361 r kickHits;
#X msg 234 386 slice;
#X obj 533 330 t b a;
#X obj 288 581 outlet~;
#X connect 0 0 5 0;
#X connect 1 0 29 0;
#X connect 1 1 10 0;
#X connect 2 0 4 0;
#X connect 3 0 1 1;
#X connect 4 0 9 0;
#X connect 5 0 6 0;
#X connect 6 0 7 0;
#X connect 7 0 28 0;
#X connect 8 0 1 1;
#X connect 9 0 1 0;
#X connect 10 0 9 1;
#X connect 11 0 19 1;
#X connect 12 0 1 1;
#X connect 13 0 14 0;
#X connect 14 0 15 0;
#X connect 15 0 16 0;
#X connect 15 1 16 1;
#X connect 16 0 19 0;
#X connect 17 0 18 0;
#X connect 17 0 12 0;
#X connect 19 0 17 0;
#X connect 20 0 13 0;
#X connect 21 0 20 0;
#X connect 22 0 23 0;
#X connect 23 0 3 0;
#X connect 24 0 22 0;
#X connect 26 0 27 0;
#X connect 27 0 1 0;
#X connect 28 0 8 0;
#X connect 28 1 8 0;
#X restore 293 543 pd sample player redux;
#X obj 428 631 r randomize;
#X obj 323 576 r \$0-theChord;
#X obj 210 717 mm_sampler_mixer~ 0 0 1;
#X obj 183 254 mm_scope~ rawInputScope;
#X obj 159 305 mm_audio_input_filter~;
#X obj 411 658 r \$0-timer;
#X msg 414 681 seed \$1;
#X connect 0 0 2 0;
#X connect 0 0 24 0;
#X connect 0 0 32 0;
#X connect 0 0 33 0;
#X connect 0 1 1 0;
#X connect 0 1 2 0;
#X connect 0 1 24 0;
#X connect 0 1 32 0;
#X connect 1 0 3 0;
#X connect 2 0 7 0;
#X connect 2 0 1 1;
#X connect 2 0 19 0;
#X connect 2 0 33 1;
#X connect 4 0 5 0;
#X connect 5 0 2 1;
#X connect 7 0 3 1;
#X connect 8 0 9 0;
#X connect 9 0 3 1;
#X connect 10 0 31 3;
#X connect 11 0 3 1;
#X connect 12 0 3 1;
#X connect 13 0 3 1;
#X connect 14 0 3 1;
#X connect 15 0 11 0;
#X connect 15 1 12 0;
#X connect 16 0 13 0;
#X connect 16 1 14 0;
#X connect 20 0 2 1;
#X connect 21 0 22 0;
#X connect 22 0 15 0;
#X connect 23 0 26 0;
#X connect 24 0 25 0;
#X connect 27 0 31 2;
#X connect 28 0 27 0;
#X connect 29 0 31 3;
#X connect 30 0 27 1;
#X connect 31 0 17 0;
#X connect 31 0 23 0;
#X connect 31 1 18 0;
#X connect 31 1 23 0;
#X connect 33 0 3 0;
#X connect 34 0 35 0;
#X connect 35 0 31 3;
#X restore 14 1 pd samplers;
#N canvas 207 161 1021 614 synths 0;
#N canvas 124 25 1440 851 synth 0;
#X obj 605 577 outlet~;
#X obj 280 584 outlet~;
#X obj 14 564 outlet~;
#X obj 14 117 inlet;
#X obj 280 169 inlet;
#X obj 587 73 inlet;
#X obj 14 209 mtof;
#X obj 16 421 mm_asr~;
#X obj 15 240 t f b;
#X obj 283 278 mtof;
#X obj 285 453 mm_asr~;
#X obj 284 309 t f b;
#X obj 577 175 mtof;
#X obj 579 434 mm_asr~;
#X obj 578 206 t f b;
#X obj 15 464 hip~ 5;
#X obj 283 488 hip~ 5;
#X obj 584 474 hip~ 5;
#X obj 283 402 mm_chip~ 16;
#X obj 577 383 mm_chip~ 8;
#X obj 14 382 mm_chip~ 32;
#N canvas 385 103 762 574 rand 0;
#X obj 201 242 mm_runif 50 1000;
#X msg 201 277 s \$1;
#X obj 277 338 mm_runif 5 50;
#X msg 275 364 a \$1;
#X obj 354 424 mm_runif 2 500;
#X msg 354 448 r \$1;
#X obj 209 505 outlet;
#X obj 341 38 r \$0-timer;
#X obj 343 62 t f f f;
#X msg 390 132 seed \$1;
#X msg 361 181 seed \$1;
#X obj 388 88 mod 36;
#X obj 359 159 mod 37;
#X msg 295 132 seed \$1;
#X obj 293 110 mod 38;
#X obj 205 23 inlet;
#X obj 207 64 t b b b;
#X connect 0 0 1 0;
#X connect 1 0 6 0;
#X connect 2 0 3 0;
#X connect 3 0 6 0;
#X connect 4 0 5 0;
#X connect 5 0 6 0;
#X connect 7 0 8 0;
#X connect 8 0 14 0;
#X connect 8 1 12 0;
#X connect 8 2 11 0;
#X connect 9 0 4 1;
#X connect 10 0 2 1;
#X connect 11 0 9 0;
#X connect 12 0 10 0;
#X connect 13 0 0 1;
#X connect 14 0 13 0;
#X connect 15 0 16 0;
#X connect 16 0 0 0;
#X connect 16 1 2 0;
#X connect 16 2 4 0;
#X restore 885 348 pd rand asr;
#X obj 884 325 r randomize3;
#N canvas 385 103 762 574 rand 0;
#X obj 201 242 mm_runif 50 1000;
#X msg 201 277 s \$1;
#X obj 277 338 mm_runif 5 50;
#X msg 275 364 a \$1;
#X obj 354 424 mm_runif 2 500;
#X msg 354 448 r \$1;
#X obj 209 505 outlet;
#X obj 341 38 r \$0-timer;
#X obj 343 62 t f f f;
#X msg 390 132 seed \$1;
#X msg 361 181 seed \$1;
#X obj 388 88 mod 36;
#X obj 359 159 mod 37;
#X msg 295 132 seed \$1;
#X obj 293 110 mod 38;
#X obj 205 23 inlet;
#X obj 207 64 t b b b;
#X connect 0 0 1 0;
#X connect 1 0 6 0;
#X connect 2 0 3 0;
#X connect 3 0 6 0;
#X connect 4 0 5 0;
#X connect 5 0 6 0;
#X connect 7 0 8 0;
#X connect 8 0 14 0;
#X connect 8 1 12 0;
#X connect 8 2 11 0;
#X connect 9 0 4 1;
#X connect 10 0 2 1;
#X connect 11 0 9 0;
#X connect 12 0 10 0;
#X connect 13 0 0 1;
#X connect 14 0 13 0;
#X connect 15 0 16 0;
#X connect 16 0 0 0;
#X connect 16 1 2 0;
#X connect 16 2 4 0;
#X restore 322 362 pd rand asr;
#X obj 321 339 r randomize2;
#N canvas 385 103 762 574 rand 0;
#X obj 201 242 mm_runif 50 1000;
#X msg 201 277 s \$1;
#X obj 277 338 mm_runif 5 50;
#X msg 275 364 a \$1;
#X obj 354 424 mm_runif 2 500;
#X msg 354 448 r \$1;
#X obj 209 505 outlet;
#X obj 341 38 r \$0-timer;
#X obj 343 62 t f f f;
#X msg 390 132 seed \$1;
#X msg 361 181 seed \$1;
#X obj 388 88 mod 36;
#X obj 359 159 mod 37;
#X msg 295 132 seed \$1;
#X obj 205 23 inlet;
#X obj 207 64 t b b b;
#X obj 293 110 mod 38;
#X connect 0 0 1 0;
#X connect 1 0 6 0;
#X connect 2 0 3 0;
#X connect 3 0 6 0;
#X connect 4 0 5 0;
#X connect 5 0 6 0;
#X connect 7 0 8 0;
#X connect 8 0 16 0;
#X connect 8 1 12 0;
#X connect 8 2 11 0;
#X connect 9 0 4 1;
#X connect 10 0 2 1;
#X connect 11 0 9 0;
#X connect 12 0 10 0;
#X connect 13 0 0 1;
#X connect 14 0 15 0;
#X connect 15 0 0 0;
#X connect 15 1 2 0;
#X connect 15 2 4 0;
#X connect 16 0 13 0;
#X restore 54 308 pd rand asr;
#X obj 53 285 r randomize1;
#N canvas 868 175 548 502 rand 0;
#X obj 67 22 inlet;
#X obj 68 59 t b;
#X obj 66 116 sel 0 1 2 3 4;
#X obj 69 86 random 5;
#X obj 66 147 f 4;
#X obj 77 174 f 8;
#X obj 90 207 f 16;
#X obj 105 235 f 32;
#X obj 122 262 f 64;
#X obj 60 297 outlet;
#X obj 141 23 r \$0-timer;
#X msg 144 77 seed \$1;
#X obj 143 53 mod \$1;
#X connect 0 0 1 0;
#X connect 1 0 3 0;
#X connect 2 0 4 0;
#X connect 2 1 5 0;
#X connect 2 2 6 0;
#X connect 2 3 7 0;
#X connect 2 4 8 0;
#X connect 3 0 2 0;
#X connect 4 0 9 0;
#X connect 5 0 9 0;
#X connect 6 0 9 0;
#X connect 7 0 9 0;
#X connect 8 0 9 0;
#X connect 10 0 12 0;
#X connect 11 0 3 0;
#X connect 12 0 11 0;
#X restore 129 310 pd rand chip 43;
#N canvas 868 175 548 502 rand 0;
#X obj 67 22 inlet;
#X obj 68 59 t b;
#X obj 66 116 sel 0 1 2 3 4;
#X obj 69 86 random 5;
#X obj 66 147 f 4;
#X obj 77 174 f 8;
#X obj 90 207 f 16;
#X obj 105 235 f 32;
#X obj 122 262 f 64;
#X obj 60 297 outlet;
#X obj 141 23 r \$0-timer;
#X msg 144 77 seed \$1;
#X obj 143 53 mod \$1;
#X connect 0 0 1 0;
#X connect 1 0 3 0;
#X connect 2 0 4 0;
#X connect 2 1 5 0;
#X connect 2 2 6 0;
#X connect 2 3 7 0;
#X connect 2 4 8 0;
#X connect 3 0 2 0;
#X connect 4 0 9 0;
#X connect 5 0 9 0;
#X connect 6 0 9 0;
#X connect 7 0 9 0;
#X connect 8 0 9 0;
#X connect 10 0 12 0;
#X connect 11 0 3 0;
#X connect 12 0 11 0;
#X restore 398 362 pd rand chip 21;
#N canvas 868 175 548 502 rand 0;
#X obj 67 22 inlet;
#X obj 68 59 t b;
#X obj 66 116 sel 0 1 2 3 4;
#X obj 69 86 random 5;
#X obj 66 147 f 4;
#X obj 77 174 f 8;
#X obj 90 207 f 16;
#X obj 105 235 f 32;
#X obj 122 262 f 64;
#X obj 60 297 outlet;
#X obj 141 23 r \$0-timer;
#X msg 144 77 seed \$1;
#X obj 143 53 mod \$1;
#X connect 0 0 1 0;
#X connect 1 0 3 0;
#X connect 2 0 4 0;
#X connect 2 1 5 0;
#X connect 2 2 6 0;
#X connect 2 3 7 0;
#X connect 2 4 8 0;
#X connect 3 0 2 0;
#X connect 4 0 9 0;
#X connect 5 0 9 0;
#X connect 6 0 9 0;
#X connect 7 0 9 0;
#X connect 8 0 9 0;
#X connect 10 0 12 0;
#X connect 11 0 3 0;
#X connect 12 0 11 0;
#X restore 967 347 pd rand chip 29;
#N canvas 722 199 690 579 harms 0;
#X obj 112 37 inlet;
#X obj 112 128 osc~;
#X obj 158 130 * 2;
#X obj 159 156 osc~;
#X obj 264 154 osc~;
#X obj 263 128 * 4;
#X obj 209 156 osc~;
#X obj 208 130 * 3;
#X obj 159 190 *~ 0.7;
#X obj 209 190 *~ 0.4;
#X obj 264 188 *~ 0.2;
#X obj 115 66 t f f f f;
#X obj 126 243 outlet~;
#X connect 0 0 11 0;
#X connect 1 0 12 0;
#X connect 2 0 3 0;
#X connect 3 0 8 0;
#X connect 4 0 10 0;
#X connect 5 0 4 0;
#X connect 6 0 9 0;
#X connect 7 0 6 0;
#X connect 8 0 12 0;
#X connect 9 0 12 0;
#X connect 10 0 12 0;
#X connect 11 0 1 0;
#X connect 11 1 2 0;
#X connect 11 2 7 0;
#X connect 11 3 5 0;
#X restore 575 297 pd harms;
#N canvas 722 199 690 579 harms 0;
#X obj 112 37 inlet;
#X obj 112 128 osc~;
#X obj 158 130 * 2;
#X obj 159 156 osc~;
#X obj 264 154 osc~;
#X obj 263 128 * 4;
#X obj 209 156 osc~;
#X obj 208 130 * 3;
#X obj 159 190 *~ 0.7;
#X obj 209 190 *~ 0.4;
#X obj 264 188 *~ 0.2;
#X obj 115 66 t f f f f;
#X obj 126 243 outlet~;
#X connect 0 0 11 0;
#X connect 1 0 12 0;
#X connect 2 0 3 0;
#X connect 3 0 8 0;
#X connect 4 0 10 0;
#X connect 5 0 4 0;
#X connect 6 0 9 0;
#X connect 7 0 6 0;
#X connect 8 0 12 0;
#X connect 9 0 12 0;
#X connect 10 0 12 0;
#X connect 11 0 1 0;
#X connect 11 1 2 0;
#X connect 11 2 7 0;
#X connect 11 3 5 0;
#X restore 262 347 pd harms;
#N canvas 722 199 690 579 harms 0;
#X obj 112 37 inlet;
#X obj 112 128 osc~;
#X obj 158 130 * 2;
#X obj 159 156 osc~;
#X obj 264 154 osc~;
#X obj 263 128 * 4;
#X obj 209 156 osc~;
#X obj 208 130 * 3;
#X obj 159 190 *~ 0.7;
#X obj 209 190 *~ 0.4;
#X obj 264 188 *~ 0.2;
#X obj 115 66 t f f f f;
#X obj 126 243 outlet~;
#X connect 0 0 11 0;
#X connect 1 0 12 0;
#X connect 2 0 3 0;
#X connect 3 0 8 0;
#X connect 4 0 10 0;
#X connect 5 0 4 0;
#X connect 6 0 9 0;
#X connect 7 0 6 0;
#X connect 8 0 12 0;
#X connect 9 0 12 0;
#X connect 10 0 12 0;
#X connect 11 0 1 0;
#X connect 11 1 2 0;
#X connect 11 2 7 0;
#X connect 11 3 5 0;
#X restore 12 341 pd harms;
#X connect 3 0 6 0;
#X connect 4 0 9 0;
#X connect 5 0 12 0;
#X connect 6 0 8 0;
#X connect 7 0 15 0;
#X connect 8 0 32 0;
#X connect 8 1 7 1;
#X connect 9 0 11 0;
#X connect 10 0 16 0;
#X connect 11 0 31 0;
#X connect 11 1 10 1;
#X connect 12 0 14 0;
#X connect 13 0 17 0;
#X connect 14 0 30 0;
#X connect 14 1 13 1;
#X connect 15 0 2 0;
#X connect 16 0 1 0;
#X connect 17 0 0 0;
#X connect 18 0 10 0;
#X connect 19 0 13 0;
#X connect 20 0 7 0;
#X connect 21 0 13 2;
#X connect 22 0 21 0;
#X connect 22 0 29 0;
#X connect 23 0 10 2;
#X connect 24 0 23 0;
#X connect 24 0 28 0;
#X connect 25 0 7 2;
#X connect 26 0 25 0;
#X connect 26 0 27 0;
#X connect 27 0 20 1;
#X connect 28 0 18 1;
#X connect 29 0 19 1;
#X connect 30 0 19 0;
#X connect 31 0 18 0;
#X connect 32 0 20 0;
#X restore 410 125 pd synth;
#X obj 665 133 r \$0-detectedTempo;
#X obj 510 49 r \$0-randomNotes;
#X obj 395 11 r \$0-clock;
#X obj 450 45 r notes;
#X obj 384 -38 r \$0-theRoot;
#X msg 395 33 clock \$1;
#X msg 385 -17 root \$1;
#X obj 403 80 mm_synth_notes;
#X obj 486 -21 r \$0-detectedTempo;
#X obj 752 377 outlet~;
#X obj 410 375 outlet~;
#X obj 641 370 throw~ toVerbR;
#X obj 438 338 throw~ toVerbL;
#N canvas 710 242 450 300 toTremelo 0;
#X obj 75 -66 inlet~;
#X obj 76 167 *~;
#X obj 101 144 lop~ 1;
#X obj 154 44 random 100;
#X obj 152 67 * 0.01;
#X obj 152 91 *;
#X obj 155 15 t b;
#X obj 76 197 throw~ toTremelo;
#X obj 156 -9 r randomize3;
#X connect 0 0 1 0;
#X connect 1 0 7 0;
#X connect 2 0 1 1;
#X connect 3 0 4 0;
#X connect 4 0 5 1;
#X connect 4 0 5 0;
#X connect 5 0 2 0;
#X connect 6 0 3 0;
#X connect 8 0 6 0;
#X restore 540 336 pd toTremelo;
#N canvas 710 242 450 300 toTremelo 0;
#X obj 75 -66 inlet~;
#X obj 76 167 *~;
#X obj 101 144 lop~ 1;
#X obj 154 44 random 100;
#X obj 152 67 * 0.01;
#X obj 152 91 *;
#X obj 155 15 t b;
#X obj 76 197 throw~ toTremelo;
#X obj 156 -9 r randomize;
#X connect 0 0 1 0;
#X connect 1 0 7 0;
#X connect 2 0 1 1;
#X connect 3 0 4 0;
#X connect 4 0 5 1;
#X connect 4 0 5 0;
#X connect 5 0 2 0;
#X connect 6 0 3 0;
#X connect 8 0 6 0;
#X restore 705 304 pd toTremelo;
#N canvas 710 242 450 300 toFuzz 0;
#X obj 75 -66 inlet~;
#X obj 76 197 throw~ toFuzz;
#X obj 76 167 *~;
#X obj 101 144 lop~ 1;
#X obj 154 44 random 100;
#X obj 152 67 * 0.01;
#X obj 152 91 *;
#X obj 37 36 r onOff;
#X obj 37 63 sel 0;
#X msg 36 90 0;
#X obj 155 15 t b;
#X obj 156 -9 r randomize1;
#X connect 0 0 2 0;
#X connect 2 0 1 0;
#X connect 3 0 2 1;
#X connect 4 0 5 0;
#X connect 5 0 6 1;
#X connect 5 0 6 0;
#X connect 6 0 3 0;
#X connect 7 0 8 0;
#X connect 8 0 9 0;
#X connect 9 0 3 0;
#X connect 10 0 4 0;
#X connect 11 0 10 0;
#X restore 672 434 pd toFuzz;
#N canvas 710 242 450 300 toFuzz 0;
#X obj 75 -66 inlet~;
#X obj 76 197 throw~ toFuzz;
#X obj 76 167 *~;
#X obj 101 144 lop~ 1;
#X obj 154 44 random 100;
#X obj 152 67 * 0.01;
#X obj 152 91 *;
#X obj 37 36 r onOff;
#X obj 37 63 sel 0;
#X msg 36 90 0;
#X obj 155 15 t b;
#X obj 156 -9 r randomize1;
#X connect 0 0 2 0;
#X connect 2 0 1 0;
#X connect 3 0 2 1;
#X connect 4 0 5 0;
#X connect 5 0 6 1;
#X connect 5 0 6 0;
#X connect 6 0 3 0;
#X connect 7 0 8 0;
#X connect 8 0 9 0;
#X connect 9 0 3 0;
#X connect 10 0 4 0;
#X connect 11 0 10 0;
#X restore 478 400 pd toFuzz;
#X obj 492 438 env~;
#X obj 496 474 s synthDB;
#X obj 406 253 *~ 1;
#X obj 680 241 *~ 1;
#X obj 756 211 loadbang;
#X obj 452 223 loadbang;
#X obj 411 285 mm_compressor~;
#X obj 683 273 mm_compressor~;
#X obj 588 111 r \$0-timer;
#X msg 589 134 seed \$1;
#X obj 404 189 mm_synth_mixer~ 1 1 1;
#X msg 450 251 switch 1 \, threshold 90 \, ratio 1.3;
#X msg 753 240 switch 1 \, threshold 90 \, ratio 1.3;
#X obj 441 308 *~ 0.2;
#X obj 637 346 *~ 0.2;
#X obj 672 407 *~ 0.6;
#X obj 478 373 *~ 0.6;
#X connect 0 0 28 0;
#X connect 0 1 28 1;
#X connect 0 2 28 2;
#X connect 1 0 28 3;
#X connect 2 0 8 2;
#X connect 3 0 6 0;
#X connect 4 0 8 1;
#X connect 5 0 7 0;
#X connect 6 0 8 0;
#X connect 7 0 8 0;
#X connect 8 0 0 0;
#X connect 8 1 0 1;
#X connect 8 2 0 2;
#X connect 9 0 8 0;
#X connect 18 0 19 0;
#X connect 20 0 24 0;
#X connect 21 0 25 0;
#X connect 22 0 30 0;
#X connect 23 0 29 0;
#X connect 24 0 11 0;
#X connect 24 0 14 0;
#X connect 24 0 18 0;
#X connect 24 0 31 0;
#X connect 24 0 34 0;
#X connect 25 0 10 0;
#X connect 25 0 15 0;
#X connect 25 0 18 0;
#X connect 25 0 32 0;
#X connect 25 0 33 0;
#X connect 26 0 27 0;
#X connect 27 0 28 3;
#X connect 28 0 20 0;
#X connect 28 1 21 0;
#X connect 29 0 24 1;
#X connect 30 0 25 1;
#X connect 31 0 13 0;
#X connect 32 0 12 0;
#X connect 33 0 16 0;
#X connect 34 0 17 0;
#X restore 14 84 pd synths;
#X obj 13 109 throw~ outputR;
#X obj 64 129 throw~ outputL;
#X obj 847 622 s \$0-theChord;
#X obj 940 609 s \$0-randomNotes;
#X obj 846 524 r \$0-clock;
#X obj 14 192 throw~ outputR;
#X obj 56 220 throw~ outputL;
#X obj 15 364 catch~ outputR;
#X obj 42 337 catch~ outputL;
#N canvas 229 23 1440 851 globals 0;
#X obj 1008 55 noise~;
#X obj 1008 83 s~ theNoise;
#X obj 1044 133 r audioSwitch;
#X obj 1050 410 switch~;
#X obj 991 354 s audioOn;
#X obj 1083 186 == 0;
#X obj 1051 385 f;
#X obj 1051 326 del;
#X obj 1080 215 sel 1 0;
#X obj 1077 241 f 1;
#X obj 1113 242 f 0;
#X obj 1044 158 t f f f;
#X obj 989 285 t f b;
#X obj 1079 279 * 50;
#X obj 795 252 loadbang;
#X obj 797 285 \$0;
#X obj 797 313 s dollarZero;
#X obj 1003 458 r \$0-detectedTempo;
#X obj 1001 493 route tempo;
#X obj 1001 518 swap 60000;
#X obj 1002 539 /;
#X obj 1001 562 * 2;
#X obj 1002 588 s halfMS;
#X obj 1092 586 s quarterMS;
#X obj 792 79 r beats;
#X obj 851 80 r divisions;
#X obj 850 114 t b f;
#X obj 787 150 f 4;
#X obj 787 172 * 4;
#X obj 789 196 s ticksPerMeasure;
#X obj 691 83 r beats;
#X obj 625 60 r measures;
#X obj 691 118 t b f;
#X obj 628 154 f 4;
#X obj 628 176 * 4;
#X obj 630 200 s beatsPerRep;
#X obj 626 245 r \$0-detectedTempo;
#X obj 626 268 route tempo;
#X obj 627 293 swap 60000;
#X obj 625 315 /;
#X obj 650 337 r beatsPerRep;
#X obj 626 410 *;
#X obj 625 388 f;
#X obj 649 361 t b f;
#X obj 627 439 s msPerRep;
#X obj 638 489 r measures;
#X obj 643 568 f 4;
#X obj 722 515 r ticksPerMeasure;
#X obj 721 550 t b f;
#X obj 644 601 * 16;
#X obj 647 638 s ticksPerRep;
#X obj 875 238 bng 15 250 50 0 empty empty empty 17 7 0 10 -262144
-1 -1;
#X obj 79 26 r appendPath;
#X obj 77 72 path;
#X obj 76 113 print path;
#X obj 410 260 r \$0-detectedTempo;
#X obj 410 283 route tempo;
#X obj 411 308 swap 60000;
#X obj 409 330 /;
#X obj 409 426 f;
#X obj 449 388 t b f;
#X obj 450 364 r beats;
#X obj 411 502 s msPerMeasure;
#X obj 212 270 r \$0-detectedTempo;
#X obj 212 293 route tempo;
#X obj 213 318 swap 60000;
#X obj 211 340 /;
#X obj 210 463 f;
#X obj 238 423 t b f;
#X obj 240 349 r divisions;
#X obj 211 485 /;
#X obj 240 392 max 1;
#X obj 212 510 s msPerDiv;
#X obj 900 235 r onOff;
#X obj 899 261 t b;
#X obj 410 473 * 4;
#X obj 417 540 print msPerMeasure;
#X obj 252 34 r onOff;
#X obj 251 155 timer;
#X obj 254 70 t f f;
#X obj 303 97 metro 1000;
#X obj 251 121 sel 1;
#X obj 250 212 s elapsedTime;
#X obj 250 182 * 0.001;
#X connect 0 0 1 0;
#X connect 2 0 11 0;
#X connect 5 0 8 0;
#X connect 6 0 3 0;
#X connect 7 0 6 0;
#X connect 8 0 9 0;
#X connect 8 1 10 0;
#X connect 9 0 13 0;
#X connect 10 0 13 0;
#X connect 11 0 12 0;
#X connect 11 1 6 1;
#X connect 11 2 5 0;
#X connect 12 0 4 0;
#X connect 12 1 7 0;
#X connect 13 0 7 1;
#X connect 14 0 15 0;
#X connect 15 0 16 0;
#X connect 17 0 18 0;
#X connect 18 0 19 0;
#X connect 19 0 20 0;
#X connect 19 1 20 1;
#X connect 20 0 21 0;
#X connect 20 0 23 0;
#X connect 21 0 22 0;
#X connect 24 0 27 1;
#X connect 24 0 27 0;
#X connect 25 0 26 0;
#X connect 26 0 27 0;
#X connect 26 1 28 1;
#X connect 27 0 28 0;
#X connect 28 0 29 0;
#X connect 30 0 32 0;
#X connect 31 0 33 1;
#X connect 31 0 33 0;
#X connect 32 0 33 0;
#X connect 32 1 34 1;
#X connect 33 0 34 0;
#X connect 34 0 35 0;
#X connect 36 0 37 0;
#X connect 37 0 38 0;
#X connect 38 0 39 0;
#X connect 38 1 39 1;
#X connect 39 0 42 1;
#X connect 39 0 42 0;
#X connect 40 0 43 0;
#X connect 41 0 44 0;
#X connect 42 0 41 0;
#X connect 43 0 42 0;
#X connect 43 1 41 1;
#X connect 45 0 46 1;
#X connect 45 0 46 0;
#X connect 46 0 49 0;
#X connect 47 0 48 0;
#X connect 48 0 46 0;
#X connect 48 1 49 1;
#X connect 49 0 50 0;
#X connect 51 0 15 0;
#X connect 52 0 53 0;
#X connect 53 0 54 0;
#X connect 53 1 54 0;
#X connect 55 0 56 0;
#X connect 56 0 57 0;
#X connect 57 0 58 0;
#X connect 57 1 58 1;
#X connect 58 0 59 1;
#X connect 58 0 59 0;
#X connect 59 0 75 0;
#X connect 60 0 59 0;
#X connect 60 1 75 1;
#X connect 61 0 60 0;
#X connect 63 0 64 0;
#X connect 64 0 65 0;
#X connect 65 0 66 0;
#X connect 65 1 66 1;
#X connect 66 0 67 1;
#X connect 66 0 67 0;
#X connect 67 0 70 0;
#X connect 68 0 67 0;
#X connect 68 1 70 1;
#X connect 69 0 71 0;
#X connect 70 0 72 0;
#X connect 71 0 68 0;
#X connect 73 0 74 0;
#X connect 74 0 15 0;
#X connect 75 0 62 0;
#X connect 75 0 76 0;
#X connect 77 0 79 0;
#X connect 78 0 83 0;
#X connect 79 0 81 0;
#X connect 79 1 80 0;
#X connect 80 0 78 1;
#X connect 81 0 78 0;
#X connect 83 0 82 0;
#X restore 810 54 pd globals;
#X obj 816 202 r alterPattern;
#X obj 818 343 mm_alter_pattern;
#X obj 846 574 mm_improvise;
#X obj 860 228 r elapsedTime;
#X floatatom 860 255 5 0 0 0 - - -;
#X obj 816 309 spigot;
#X obj 859 277 > 60;
#N canvas 383 99 911 714 drums 0;
#N canvas 501 222 450 300 toFuzz 0;
#X obj 75 -66 inlet~;
#X obj 76 197 throw~ toFuzz;
#X obj 76 167 *~;
#X obj 101 144 lop~ 1;
#X obj 154 44 random 100;
#X obj 152 67 * 0.01;
#X obj 152 91 *;
#X obj 37 36 r onOff;
#X obj 37 63 sel 0;
#X msg 36 90 0;
#X obj 152 -20 r randomize;
#X obj 154 13 t b;
#X connect 0 0 2 0;
#X connect 2 0 1 0;
#X connect 3 0 2 1;
#X connect 4 0 5 0;
#X connect 5 0 6 1;
#X connect 5 0 6 0;
#X connect 6 0 3 0;
#X connect 7 0 8 0;
#X connect 8 0 9 0;
#X connect 9 0 3 0;
#X connect 10 0 11 0;
#X connect 11 0 4 0;
#X restore 437 486 pd toFuzz;
#X obj 170 22 r \$0-clock;
#N canvas 710 242 450 300 toTremelo 0;
#X obj 75 -66 inlet~;
#X obj 76 167 *~;
#X obj 101 144 lop~ 1;
#X obj 154 44 random 100;
#X obj 152 67 * 0.01;
#X obj 152 91 *;
#X obj 37 36 r onOff;
#X obj 37 63 sel 0;
#X obj 155 15 t b;
#X obj 156 -9 r randomize2;
#X obj 76 208 throw~ toTremelo;
#X msg 39 92 0;
#X connect 0 0 1 0;
#X connect 1 0 10 0;
#X connect 2 0 1 1;
#X connect 3 0 4 0;
#X connect 4 0 5 1;
#X connect 4 0 5 0;
#X connect 5 0 2 0;
#X connect 6 0 7 0;
#X connect 7 0 11 0;
#X connect 8 0 3 0;
#X connect 9 0 8 0;
#X connect 11 0 2 0;
#X restore 347 491 pd toTremelo;
#N canvas 710 242 450 300 toTremelo 0;
#X obj 75 -66 inlet~;
#X obj 76 167 *~;
#X obj 101 144 lop~ 1;
#X obj 154 44 random 100;
#X obj 152 67 * 0.01;
#X obj 152 91 *;
#X obj 37 36 r onOff;
#X obj 37 63 sel 0;
#X obj 155 15 t b;
#X obj 76 208 throw~ toTremelo;
#X msg 39 92 0;
#X obj 156 -9 r randomize3;
#X connect 0 0 1 0;
#X connect 1 0 9 0;
#X connect 2 0 1 1;
#X connect 3 0 4 0;
#X connect 4 0 5 1;
#X connect 4 0 5 0;
#X connect 5 0 2 0;
#X connect 6 0 7 0;
#X connect 7 0 10 0;
#X connect 8 0 3 0;
#X connect 10 0 2 0;
#X connect 11 0 8 0;
#X restore 203 482 pd toTremelo;
#N canvas 501 222 450 300 toFuzz 0;
#X obj 75 -66 inlet~;
#X obj 76 197 throw~ toFuzz;
#X obj 76 167 *~;
#X obj 101 144 lop~ 1;
#X obj 154 44 random 100;
#X obj 152 67 * 0.01;
#X obj 152 91 *;
#X obj 37 36 r onOff;
#X obj 37 63 sel 0;
#X msg 36 90 0;
#X obj 154 13 t b;
#X obj 152 -20 r randomize2;
#X connect 0 0 2 0;
#X connect 2 0 1 0;
#X connect 3 0 2 1;
#X connect 4 0 5 0;
#X connect 5 0 6 1;
#X connect 5 0 6 0;
#X connect 6 0 3 0;
#X connect 7 0 8 0;
#X connect 8 0 9 0;
#X connect 9 0 3 0;
#X connect 10 0 4 0;
#X connect 11 0 10 0;
#X restore 127 483 pd toFuzz;
#X obj 34 415 throw~ toVerbL;
#X obj 375 433 throw~ toVerbR;
#X obj 170 58 t f f f;
#X obj 439 169 r \$0-detectedTempo;
#X obj 247 417 outlet~;
#X obj 160 418 outlet~;
#X obj 536 408 env~;
#X obj 539 434 s drumsDB;
#X obj 36 381 *~ 0.25;
#X obj 374 370 *~ 0.25;
#X obj 184 364 mm_scope~ drumScope;
#X obj 165 295 mm_drum_mixer~ 1.5 1.5 0.8 0.8;
#X obj 357 171 r \$0-timer;
#X msg 359 195 seed \$1;
#N canvas 359 77 1440 752 snare 0;
#X obj 162 -140 inlet;
#X obj 158 -45 pack f f;
#X obj 159 -12 t a a a a;
#X obj 316 47 r \$0-timer;
#X obj 370 208 r \$0-timer;
#X obj 429 307 r \$0-timer;
#X obj 494 400 r \$0-timer;
#X obj 190 492 outlet~;
#X obj 314 -165 r \$0-timer;
#X msg 317 -119 seed \$1;
#X obj 316 -141 mod 27;
#X obj 235 23 r loadSnareSample;
#X obj 294 175 r loadSnareSample;
#X obj 346 277 r loadSnareSample;
#X obj 415 372 r loadSnareSample;
#X obj 164 73 mm_drum~ snareArray 0 5 64;
#X obj 223 231 mm_drum~ snareArray 1 5 104;
#X obj 273 327 mm_drum~ snareArray 2 5 13;
#X obj 340 425 mm_drum~ snareArray 3 5 53;
#X obj 493 452 s snareHits;
#X obj 426 350 s snareHits;
#X obj 379 254 s snareHits;
#X obj 316 105 s snareHits;
#X obj 213 -148 r randomize2;
#X obj 213 -84 random \$1;
#X obj 215 -115 t b;
#X connect 0 0 1 0;
#X connect 1 0 2 0;
#X connect 2 0 15 0;
#X connect 2 1 16 0;
#X connect 2 2 17 0;
#X connect 2 3 18 0;
#X connect 3 0 15 2;
#X connect 4 0 16 2;
#X connect 5 0 17 2;
#X connect 6 0 18 2;
#X connect 8 0 10 0;
#X connect 9 0 24 0;
#X connect 10 0 9 0;
#X connect 11 0 15 1;
#X connect 12 0 16 1;
#X connect 13 0 17 1;
#X connect 14 0 18 1;
#X connect 15 0 7 0;
#X connect 15 1 22 0;
#X connect 16 0 7 0;
#X connect 16 1 21 0;
#X connect 17 0 7 0;
#X connect 17 1 20 0;
#X connect 18 0 7 0;
#X connect 18 1 19 0;
#X connect 23 0 25 0;
#X connect 24 0 1 1;
#X connect 25 0 24 0;
#X restore 207 138 pd snare 1;
#N canvas 20 23 1440 752 perc 0;
#X obj 239 762 outlet~;
#X obj 284 -225 inlet;
#X obj 446 76 s percHits;
#X obj 546 774 outlet~;
#X obj 201 487 mm_pan~;
#X obj 302 493 mm_pan~;
#X obj 421 492 mm_pan~;
#X obj 576 492 mm_pan~;
#X obj 248 459 r randomize0;
#X obj 345 466 r randomize1;
#X obj 465 459 r randomize2;
#X obj 630 463 r randomize3;
#X obj 286 -87 pack f f;
#X obj 286 -47 t a a a a;
#X obj 443 17 r \$0-timer;
#X obj 497 151 r \$0-timer;
#X obj 556 250 r \$0-timer;
#X obj 621 343 r \$0-timer;
#X obj 443 -204 r \$0-timer;
#X msg 446 -158 seed \$1;
#X obj 506 197 s percHits;
#X obj 553 293 s percHits;
#X obj 620 395 s percHits;
#X obj 349 -208 r randomize3;
#X obj 362 -7 r loadPercSample;
#X obj 421 118 r loadPercSample;
#X obj 473 220 r loadPercSample;
#X obj 541 322 r loadPercSample;
#X obj 291 43 mm_drum~ percArray 0 6 14;
#X obj 350 174 mm_drum~ percArray 1 6 39;
#X obj 400 270 mm_drum~ percArray 2 6 113;
#X obj 467 368 mm_drum~ percArray 3 6 126;
#X obj 445 -180 mod 85;
#X obj 348 -179 t b;
#X obj 346 -116 random \$1;
#X connect 1 0 12 0;
#X connect 4 0 0 0;
#X connect 4 1 3 0;
#X connect 5 0 0 0;
#X connect 5 1 3 0;
#X connect 6 0 0 0;
#X connect 6 1 3 0;
#X connect 7 0 0 0;
#X connect 7 1 3 0;
#X connect 8 0 4 1;
#X connect 9 0 5 1;
#X connect 10 0 6 1;
#X connect 11 0 7 1;
#X connect 12 0 13 0;
#X connect 13 0 28 0;
#X connect 13 1 29 0;
#X connect 13 2 30 0;
#X connect 13 3 31 0;
#X connect 14 0 28 2;
#X connect 15 0 29 2;
#X connect 16 0 30 2;
#X connect 17 0 31 2;
#X connect 18 0 32 0;
#X connect 19 0 34 0;
#X connect 23 0 33 0;
#X connect 24 0 28 1;
#X connect 25 0 29 1;
#X connect 26 0 30 1;
#X connect 27 0 31 1;
#X connect 28 0 4 0;
#X connect 28 1 2 0;
#X connect 29 0 5 0;
#X connect 29 1 20 0;
#X connect 30 0 6 0;
#X connect 30 1 21 0;
#X connect 31 0 7 0;
#X connect 31 1 22 0;
#X connect 32 0 19 0;
#X connect 33 0 34 0;
#X connect 34 0 12 1;
#X restore 249 168 pd perc 1;
#N canvas 359 77 1440 752 kick 0;
#X obj 158 -60 inlet;
#X obj 233 151 r loadKickSample;
#X obj 298 240 r loadKickSample;
#X obj 348 329 r loadKickSample;
#X obj 409 420 r loadKickSample;
#X obj 158 43 pack f f;
#X obj 157 116 t a a a a;
#X obj 309 175 r \$0-timer;
#X obj 368 256 r \$0-timer;
#X obj 424 355 r \$0-timer;
#X obj 488 446 r \$0-timer;
#X obj 192 555 outlet~;
#X obj 207 -77 r randomize1;
#X obj 303 -85 r \$0-timer;
#X obj 305 -61 mod 113;
#X msg 306 -39 seed \$1;
#X obj 162 201 mm_drum~ kickArray 0 4 37;
#X obj 342 473 mm_drum~ kickArray 3 4 84;
#X obj 225 279 mm_drum~ kickArray 1 4 15;
#X obj 275 379 mm_drum~ kickArray 2 4 110;
#X obj 490 500 s kickHits;
#X obj 427 400 s kickHits;
#X obj 373 302 s kickHits;
#X obj 309 223 s kickHits;
#X obj 209 -4 random \$1;
#X obj 212 -36 t b;
#X connect 0 0 5 0;
#X connect 1 0 16 1;
#X connect 2 0 18 1;
#X connect 3 0 19 1;
#X connect 4 0 17 1;
#X connect 5 0 6 0;
#X connect 6 0 16 0;
#X connect 6 1 18 0;
#X connect 6 2 19 0;
#X connect 6 3 17 0;
#X connect 7 0 16 2;
#X connect 8 0 18 2;
#X connect 9 0 19 2;
#X connect 10 0 17 2;
#X connect 12 0 25 0;
#X connect 13 0 14 0;
#X connect 14 0 15 0;
#X connect 15 0 24 0;
#X connect 16 0 11 0;
#X connect 16 1 23 0;
#X connect 17 0 11 0;
#X connect 17 1 20 0;
#X connect 18 0 11 0;
#X connect 18 1 22 0;
#X connect 19 0 11 0;
#X connect 19 1 21 0;
#X connect 24 0 5 1;
#X connect 25 0 24 0;
#X restore 172 102 pd kick 1;
#X connect 1 0 7 0;
#X connect 7 0 21 0;
#X connect 7 1 19 0;
#X connect 7 2 20 0;
#X connect 8 0 16 4;
#X connect 11 0 12 0;
#X connect 13 0 5 0;
#X connect 14 0 6 0;
#X connect 16 0 10 0;
#X connect 16 0 3 0;
#X connect 16 0 4 0;
#X connect 16 0 11 0;
#X connect 16 0 13 0;
#X connect 16 0 15 0;
#X connect 16 1 9 0;
#X connect 16 1 2 0;
#X connect 16 1 0 0;
#X connect 16 1 11 0;
#X connect 16 1 14 0;
#X connect 16 1 15 0;
#X connect 17 0 18 0;
#X connect 18 0 16 4;
#X connect 19 0 16 1;
#X connect 20 0 16 2;
#X connect 20 1 16 3;
#X connect 21 0 16 0;
#X restore 23 247 pd drums;
#X obj 23 273 throw~ outputR;
#X obj 69 295 throw~ outputL;
#X connect 0 0 7 0;
#X connect 0 1 8 0;
#X connect 3 0 1 0;
#X connect 3 1 1 1;
#X connect 4 0 18 0;
#X connect 4 1 19 0;
#X connect 6 0 24 1;
#X connect 11 0 10 0;
#X connect 11 1 9 0;
#X connect 12 0 13 0;
#X connect 12 1 14 0;
#X connect 17 0 25 0;
#X connect 20 0 3 0;
#X connect 21 0 3 1;
#X connect 23 0 28 0;
#X connect 25 0 15 0;
#X connect 25 1 16 0;
#X connect 26 0 27 0;
#X connect 27 0 29 0;
#X connect 28 0 24 0;
#X connect 29 0 28 1;
#X connect 30 0 31 0;
#X connect 30 1 32 0;
