#N canvas 0 22 1290 342 10;
#N canvas 49 87 1332 748 randomness 0;
#X obj 1143 -222 loadbang;
#X obj 1146 -106 timer;
#X obj 1172 -137 sel 1;
#X obj 674 -552 r \$0-clock;
#X obj 707 -306 t b;
#X obj 709 -239 f;
#X obj 743 -238 + 1;
#X obj 602 -116 sel 0;
#X msg 526 98 randomize;
#X obj 743 -337 r onOff;
#X obj 745 -311 sel 1;
#X msg 747 -286 0;
#X obj 1171 -159 r onOff;
#X obj 867 -161 sel 0;
#X obj 892 78 s setNewTempo;
#X obj 1007 38 s \$0-theRoot;
#X msg 602 116 \$1 randomize;
#X obj 604 157 route 0 1 2 3;
#X obj 567 244 s randomize1;
#X obj 597 285 s randomize2;
#X obj 617 311 s randomize3;
#X obj 807 402 == 0;
#X obj 805 188 sel 0;
#X obj 512 74 bng 15 250 50 0 empty empty empty 17 7 0 10 -262144 -1
-1;
#X obj 523 19 r onOff;
#X obj 805 241 until;
#X obj 804 266 f;
#X obj 833 268 + 1;
#X obj 806 348 t b f;
#X obj 807 429 list prepend;
#X obj 806 452 list trim;
#X obj 806 322 + 1;
#X obj 806 484 route 1 2 3 0;
#X msg 1007 -57 seed \$1;
#X obj 1006 -80 mod 125;
#X obj 1146 -67 s \$0-timer;
#X obj 644 -25 s \$0-willRandomize;
#X msg 1017 449 0;
#X obj 805 292 mod 4;
#X msg 805 216 4;
#X obj 1041 -13 bng 15 250 50 0 empty empty empty 17 7 0 10 -262144
-1 -1;
#X obj 525 39 t b;
#X obj 680 -444 spigot;
#X msg 740 -477 1;
#X obj 756 -506 loadbang;
#X obj 753 -542 r allowRandom;
#X obj 600 -170 mod 16;
#X obj 805 512 s 1shouldImprovise;
#X obj 828 535 s 2shouldImprovise;
#X obj 849 556 s 3shouldImprovise;
#X obj 878 583 s 0shouldImprovise;
#X obj 555 216 s randomize0;
#X obj 601 25 t f b;
#X obj 630 79 s randomize;
#X msg 629 57 randomize;
#X obj 1017 389 r onOff;
#X obj 1019 419 t b;
#X obj 1003 -104 r \$0-timer;
#X obj 922 -304 r ticksPerRep;
#X obj 866 -136 t b b;
#X obj 839 106 r ticksPerRep;
#X obj 869 -90 mm_db;
#X obj 874 -52 bng 15 250 50 0 empty empty empty 17 7 0 10 -262144
-1 -1;
#X obj 874 -28 t b b;
#X obj 877 -3 timer;
#X floatatom 924 18 10 0 0 0 - - -;
#X obj 928 -161 loadbang;
#X obj 796 -95 bng 15 250 50 0 empty empty empty 17 7 0 10 -262144
-1 -1;
#X obj 801 -69 t b b;
#X obj 799 -43 timer;
#X floatatom 754 -18 10 0 0 0 - - -;
#X obj 1007 11 mm_srandom 12 197;
#X obj 840 134 * 32;
#X obj 602 -75 mm_srandom 4 530;
#X obj 807 378 mm_srandom 8 191;
#X msg 927 -128 300000;
#X obj 584 -240 moses 0;
#X obj 922 -263 moses;
#X obj 972 -214 * 32;
#X floatatom 916 -332 5 0 0 0 - - -;
#X obj 868 -417 r patternLength;
#X obj 866 -388 moses 0;
#X floatatom 878 -447 5 0 0 0 - - -;
#X obj 903 -358 * 256;
#X obj 423 -513 r \$0-clock;
#X obj 423 -458 sel 0;
#X obj 422 -487 change;
#X obj 423 -385 s alterPattern;
#X obj 420 -407 sel 0;
#X obj 421 -435 mm_srandom 10 414;
#X obj 588 -267 r patternLength;
#X floatatom 1001 223 5 0 0 0 - - -;
#X obj 953 138 r patternLength;
#X obj 951 167 moses 0;
#X floatatom 963 108 5 0 0 0 - - -;
#X obj 988 197 * 32;
#X obj 803 165 mod 8192;
#X obj 866 -183 mod 8192;
#X obj 466 27 loadbang;
#X obj 680 -414 change;
#X connect 0 0 1 0;
#X connect 1 0 35 0;
#X connect 2 0 1 1;
#X connect 3 0 42 0;
#X connect 4 0 5 0;
#X connect 5 0 6 0;
#X connect 5 0 96 0;
#X connect 5 0 97 0;
#X connect 5 0 46 0;
#X connect 6 0 5 1;
#X connect 7 0 73 0;
#X connect 8 0 18 0;
#X connect 8 0 19 0;
#X connect 8 0 20 0;
#X connect 8 0 51 0;
#X connect 9 0 10 0;
#X connect 10 0 11 0;
#X connect 11 0 5 1;
#X connect 12 0 2 0;
#X connect 13 0 59 0;
#X connect 16 0 17 0;
#X connect 17 0 51 0;
#X connect 17 1 18 0;
#X connect 17 2 19 0;
#X connect 17 3 20 0;
#X connect 21 0 29 0;
#X connect 22 0 39 0;
#X connect 23 0 8 0;
#X connect 24 0 41 0;
#X connect 25 0 26 0;
#X connect 26 0 27 0;
#X connect 26 0 38 0;
#X connect 27 0 26 1;
#X connect 28 0 74 0;
#X connect 28 1 29 1;
#X connect 29 0 30 0;
#X connect 30 0 32 0;
#X connect 31 0 28 0;
#X connect 32 0 47 0;
#X connect 32 1 48 0;
#X connect 32 2 49 0;
#X connect 32 3 50 0;
#X connect 33 0 71 0;
#X connect 34 0 33 0;
#X connect 37 0 47 0;
#X connect 37 0 48 0;
#X connect 37 0 49 0;
#X connect 37 0 50 0;
#X connect 38 0 31 0;
#X connect 39 0 25 0;
#X connect 40 0 71 0;
#X connect 42 0 99 0;
#X connect 43 0 42 1;
#X connect 44 0 43 0;
#X connect 45 0 42 1;
#X connect 46 0 7 0;
#X connect 52 0 16 0;
#X connect 52 1 54 0;
#X connect 54 0 53 0;
#X connect 55 0 56 0;
#X connect 56 0 37 0;
#X connect 57 0 34 0;
#X connect 59 0 61 0;
#X connect 59 0 67 0;
#X connect 59 1 71 0;
#X connect 60 0 72 0;
#X connect 61 0 62 0;
#X connect 62 0 63 0;
#X connect 62 0 14 0;
#X connect 63 0 64 0;
#X connect 63 1 64 1;
#X connect 64 0 65 0;
#X connect 66 0 75 0;
#X connect 67 0 68 0;
#X connect 68 0 69 0;
#X connect 68 1 69 1;
#X connect 69 0 70 0;
#X connect 71 0 15 0;
#X connect 73 0 36 0;
#X connect 73 0 52 0;
#X connect 74 0 21 0;
#X connect 75 0 61 1;
#X connect 76 1 46 1;
#X connect 80 0 81 0;
#X connect 81 1 83 0;
#X connect 82 0 81 0;
#X connect 83 0 79 0;
#X connect 83 0 97 1;
#X connect 84 0 86 0;
#X connect 85 0 89 0;
#X connect 86 0 85 0;
#X connect 88 0 87 0;
#X connect 89 0 88 0;
#X connect 90 0 76 0;
#X connect 92 0 93 0;
#X connect 93 1 95 0;
#X connect 94 0 93 0;
#X connect 95 0 91 0;
#X connect 95 0 96 1;
#X connect 96 0 22 0;
#X connect 97 0 13 0;
#X connect 98 0 23 0;
#X connect 99 0 4 0;
#X restore 675 -30 pd randomness;
#N canvas 163 23 1440 851 globals 0;
#X obj 1008 55 noise~;
#X obj 1008 83 s~ theNoise;
#X obj 1044 133 r audioSwitch;
#X obj 1050 410 switch~;
#X obj 991 354 s audioOn;
#X obj 1083 186 == 0;
#X obj 1051 385 f;
#X obj 1051 326 del;
#X obj 1080 215 sel 1 0;
#X obj 1077 241 f 1;
#X obj 1113 242 f 0;
#X obj 1044 158 t f f f;
#X obj 989 285 t f b;
#X obj 1079 279 * 50;
#X obj 999 465 r \$0-detectedTempo;
#X obj 1001 493 route tempo;
#X obj 1001 518 swap 60000;
#X obj 1002 539 /;
#X obj 1001 562 * 2;
#X obj 1002 588 s halfMS;
#X obj 1092 586 s quarterMS;
#X obj 792 79 r beats;
#X obj 851 80 r divisions;
#X obj 850 114 t b f;
#X obj 787 150 f 4;
#X obj 787 172 * 4;
#X obj 769 206 s ticksPerMeasure;
#X obj 691 83 r beats;
#X obj 625 60 r measures;
#X obj 691 118 t b f;
#X obj 628 154 f 4;
#X obj 628 176 * 4;
#X obj 582 205 s beatsPerRep;
#X obj 626 245 r \$0-detectedTempo;
#X obj 626 268 route tempo;
#X obj 627 293 swap 60000;
#X obj 625 315 /;
#X obj 663 337 r beatsPerRep;
#X obj 626 410 *;
#X obj 625 388 f;
#X obj 649 361 t b f;
#X obj 587 454 s msPerRep;
#X obj 638 489 r measures;
#X obj 643 568 f 4;
#X obj 722 515 r ticksPerMeasure;
#X obj 721 550 t b f;
#X obj 644 601 * 16;
#X obj 598 640 s ticksPerRep;
#X obj 410 260 r \$0-detectedTempo;
#X obj 410 283 route tempo;
#X obj 411 308 swap 60000;
#X obj 409 330 /;
#X obj 409 426 f;
#X obj 449 388 t b f;
#X obj 450 364 r beats;
#X obj 476 547 s msPerMeasure;
#X obj 212 270 r \$0-detectedTempo;
#X obj 212 293 route tempo;
#X obj 213 318 swap 60000;
#X obj 211 340 /;
#X obj 210 463 f;
#X obj 238 423 t b f;
#X obj 240 349 r divisions;
#X obj 211 485 /;
#X obj 240 392 max 1;
#X obj 150 536 s msPerDiv;
#X obj 410 473 * 4;
#X obj 587 431 f;
#X obj 582 345 r onOff;
#X obj 583 369 sel 1;
#X obj 154 493 f;
#X obj 149 407 r onOff;
#X obj 150 431 sel 1;
#X obj 582 179 f;
#X obj 577 93 r onOff;
#X obj 578 117 sel 1;
#X obj 746 167 f;
#X obj 741 81 r onOff;
#X obj 742 105 sel 1;
#X obj 598 618 f;
#X obj 593 532 r onOff;
#X obj 594 556 sel 1;
#X obj 475 525 f;
#X obj 470 439 r onOff;
#X obj 471 463 sel 1;
#X obj 126 585 r onOff;
#X obj 127 671 metro 1000;
#X obj 126 616 t f b;
#X obj 129 698 f;
#X obj 154 697 + 1;
#X obj 153 641 f 0;
#X obj 131 724 s elapsedTime;
#X obj 322 37 r beats;
#X obj 296 75 f;
#X obj 403 46 r measures;
#X obj 387 75 f;
#X obj 200 45 r divisions;
#X obj 183 77 f;
#X obj 181 107 s divisions;
#X obj 295 105 s beats;
#X obj 385 102 s measures;
#X obj 171 -49 r onOff;
#X obj 172 -25 sel 1;
#X obj 171 4 t b b b b;
#X floatatom 188 131 5 0 0 0 - - -;
#X floatatom 301 135 5 0 0 0 - - -;
#X floatatom 395 139 5 0 0 0 - - -;
#X obj 195 165 pack f f f;
#X obj 199 242 s patternLength;
#X obj 197 191 mm_listprod;
#X obj 198 215 change;
#X connect 0 0 1 0;
#X connect 2 0 11 0;
#X connect 5 0 8 0;
#X connect 6 0 3 0;
#X connect 7 0 6 0;
#X connect 8 0 9 0;
#X connect 8 1 10 0;
#X connect 9 0 13 0;
#X connect 10 0 13 0;
#X connect 11 0 12 0;
#X connect 11 1 6 1;
#X connect 11 2 5 0;
#X connect 12 0 4 0;
#X connect 12 1 7 0;
#X connect 13 0 7 1;
#X connect 14 0 15 0;
#X connect 15 0 16 0;
#X connect 16 0 17 0;
#X connect 16 1 17 1;
#X connect 17 0 18 0;
#X connect 17 0 20 0;
#X connect 18 0 19 0;
#X connect 21 0 24 1;
#X connect 21 0 24 0;
#X connect 22 0 23 0;
#X connect 23 0 24 0;
#X connect 23 1 25 1;
#X connect 24 0 25 0;
#X connect 25 0 76 1;
#X connect 25 0 76 0;
#X connect 27 0 29 0;
#X connect 28 0 30 1;
#X connect 28 0 30 0;
#X connect 29 0 30 0;
#X connect 29 1 31 1;
#X connect 30 0 31 0;
#X connect 31 0 73 1;
#X connect 31 0 73 0;
#X connect 33 0 34 0;
#X connect 34 0 35 0;
#X connect 35 0 36 0;
#X connect 35 1 36 1;
#X connect 36 0 39 1;
#X connect 36 0 39 0;
#X connect 37 0 40 0;
#X connect 38 0 67 1;
#X connect 38 0 67 0;
#X connect 39 0 38 0;
#X connect 40 0 39 0;
#X connect 40 1 38 1;
#X connect 42 0 43 1;
#X connect 42 0 43 0;
#X connect 43 0 46 0;
#X connect 44 0 45 0;
#X connect 45 0 43 0;
#X connect 45 1 46 1;
#X connect 46 0 79 1;
#X connect 46 0 79 0;
#X connect 48 0 49 0;
#X connect 49 0 50 0;
#X connect 50 0 51 0;
#X connect 50 1 51 1;
#X connect 51 0 52 1;
#X connect 51 0 52 0;
#X connect 52 0 66 0;
#X connect 53 0 52 0;
#X connect 53 1 66 1;
#X connect 54 0 53 0;
#X connect 56 0 57 0;
#X connect 57 0 58 0;
#X connect 58 0 59 0;
#X connect 58 1 59 1;
#X connect 59 0 60 1;
#X connect 59 0 60 0;
#X connect 60 0 63 0;
#X connect 61 0 60 0;
#X connect 61 1 63 1;
#X connect 62 0 64 0;
#X connect 63 0 70 1;
#X connect 63 0 70 0;
#X connect 64 0 61 0;
#X connect 66 0 82 1;
#X connect 66 0 82 0;
#X connect 67 0 41 0;
#X connect 68 0 69 0;
#X connect 69 0 67 0;
#X connect 70 0 65 0;
#X connect 71 0 72 0;
#X connect 72 0 70 0;
#X connect 73 0 32 0;
#X connect 74 0 75 0;
#X connect 75 0 73 0;
#X connect 76 0 26 0;
#X connect 77 0 78 0;
#X connect 78 0 76 0;
#X connect 79 0 47 0;
#X connect 80 0 81 0;
#X connect 81 0 79 0;
#X connect 82 0 55 0;
#X connect 83 0 84 0;
#X connect 84 0 82 0;
#X connect 85 0 87 0;
#X connect 86 0 88 0;
#X connect 87 0 86 0;
#X connect 87 1 90 0;
#X connect 88 0 89 0;
#X connect 88 0 91 0;
#X connect 89 0 88 1;
#X connect 90 0 88 1;
#X connect 92 0 93 1;
#X connect 93 0 99 0;
#X connect 93 0 105 0;
#X connect 94 0 95 1;
#X connect 95 0 100 0;
#X connect 95 0 106 0;
#X connect 96 0 97 1;
#X connect 97 0 98 0;
#X connect 97 0 104 0;
#X connect 101 0 102 0;
#X connect 102 0 103 0;
#X connect 103 0 97 0;
#X connect 103 1 93 0;
#X connect 103 2 95 0;
#X connect 104 0 107 0;
#X connect 105 0 107 1;
#X connect 106 0 107 2;
#X connect 107 0 109 0;
#X connect 109 0 110 0;
#X connect 110 0 108 0;
#X restore 682 104 pd globals;
#N canvas 104 23 1192 851 clock 0;
#X msg 156 109 play;
#X obj 317 292 s~ metro;
#X obj 152 268 route clock;
#X obj 117 -400 r onOff;
#X obj 117 -207 sel 0 1;
#X msg 256 146 stop;
#X obj 154 420 t f f;
#X obj 227 107 t b b;
#X msg 220 173 reset;
#X obj 296 36 int;
#X msg 295 67 tempo \$1;
#X obj 291 -355 r setNewTempo;
#X obj 425 77 s detectedTempo;
#X obj 416 -58 r setTempo;
#X obj 294 -139 spigot;
#X obj 355 -271 r lockTempo;
#X obj 448 -247 loadbang;
#X obj 207 504 s clock;
#X obj 449 -129 r minTempo;
#X obj 380 -132 r maxTempo;
#X obj 673 56 r divisions;
#X msg 669 170 divisions \$1;
#X obj 767 60 r beats;
#X msg 762 174 beats \$1;
#X obj 837 60 r measures;
#X msg 829 174 measures \$1;
#X obj 671 118 t b f;
#X obj 763 116 t b f;
#X obj 834 115 t b f;
#X obj 586 70 r swing;
#X obj 585 114 t b f;
#X obj 142 501 outlet;
#X obj 417 438 outlet;
#X msg 610 171 swing \$1;
#X obj 294 96 t b a a;
#X msg 520 -92 seed \$1;
#X obj 520 -137 r \$0-timer;
#X obj 154 240 mm_bclock~ 8 4 2 120 1;
#X msg 384 -109 max \$1;
#X msg 451 -108 min \$1;
#X obj 295 -106 bng 15 250 50 0 empty empty empty 17 7 0 10 -262144
-1 -1;
#X msg 449 -225 0;
#X obj 298 -60 mm_runif 1 300;
#X obj 154 365 mm_rev_clock;
#X obj 246 350 hradio 15 1 0 2 empty empty empty 0 -8 0 10 -262144
-1 -1 0;
#X floatatom 81 385 5 0 0 0 - - -;
#X obj 246 326 r reverseClock;
#X obj 201 447 change;
#X obj 354 -169 mm_invert 1;
#X obj 521 -113 mod 179;
#X obj 297 -21 clip 20 200;
#X obj 138 -182 t b;
#X obj 414 42 spigot;
#X obj 449 -38 r lockTempo;
#X obj 449 13 mm_invert 1;
#X obj 546 -21 loadbang;
#X msg 548 4 1;
#X obj 152 325 mm_revbeat;
#X obj 214 296 r revBeat;
#X obj 341 157 r resetTheClock;
#X connect 0 0 37 0;
#X connect 2 0 57 0;
#X connect 3 0 4 0;
#X connect 4 0 7 0;
#X connect 4 1 51 0;
#X connect 5 0 37 0;
#X connect 6 0 31 0;
#X connect 6 1 47 0;
#X connect 7 0 8 0;
#X connect 7 1 5 0;
#X connect 8 0 37 0;
#X connect 9 0 10 0;
#X connect 9 0 12 0;
#X connect 10 0 34 0;
#X connect 11 0 14 0;
#X connect 13 0 52 0;
#X connect 14 0 40 0;
#X connect 15 0 48 0;
#X connect 16 0 41 0;
#X connect 18 0 39 0;
#X connect 19 0 38 0;
#X connect 20 0 26 0;
#X connect 21 0 37 1;
#X connect 22 0 27 0;
#X connect 23 0 37 1;
#X connect 24 0 28 0;
#X connect 25 0 37 1;
#X connect 26 0 0 0;
#X connect 26 1 21 0;
#X connect 27 0 0 0;
#X connect 27 1 23 0;
#X connect 28 0 0 0;
#X connect 28 1 25 0;
#X connect 29 0 30 0;
#X connect 30 0 0 0;
#X connect 30 1 33 0;
#X connect 33 0 37 1;
#X connect 34 0 0 0;
#X connect 34 1 37 1;
#X connect 34 2 32 0;
#X connect 35 0 42 1;
#X connect 36 0 49 0;
#X connect 37 0 2 0;
#X connect 37 1 1 0;
#X connect 38 0 42 1;
#X connect 39 0 42 1;
#X connect 40 0 42 0;
#X connect 41 0 48 0;
#X connect 42 0 50 0;
#X connect 43 0 45 0;
#X connect 43 0 6 0;
#X connect 44 0 43 1;
#X connect 46 0 43 1;
#X connect 47 0 17 0;
#X connect 48 0 14 1;
#X connect 49 0 35 0;
#X connect 50 0 9 0;
#X connect 51 0 0 0;
#X connect 52 0 10 0;
#X connect 53 0 54 0;
#X connect 54 0 52 1;
#X connect 55 0 56 0;
#X connect 56 0 54 0;
#X connect 57 0 43 0;
#X connect 58 0 57 1;
#X connect 59 0 8 0;
#X restore 686 133 pd clock;
#X obj 686 163 s \$0-clock;
#X obj 732 189 s \$0-detectedTempo;
#N canvas 486 77 951 524 alter 0;
#X obj 480 266 mm_srandom 2 136;
#X obj 483 337 s reverseClock;
#X obj 611 240 r goBackToNormal;
#X msg 612 270 0;
#X obj 373 340 s revBeat;
#X obj 440 37 r patternLength;
#X obj 440 70 > 0;
#X obj 372 190 spigot;
#X floatatom 432 187 5 0 0 0 - - -;
#X obj 372 234 t b b;
#X obj 369 265 mm_srandom 4 486;
#X obj 372 -4 r onOff;
#X obj 295 212 bng 15 250 50 0 empty empty empty 17 7 0 10 -262144
-1 -1;
#X floatatom 398 294 5 0 0 0 - - -;
#X floatatom 502 296 5 0 0 0 - - -;
#X obj 374 138 t b;
#X obj 465 140 &&;
#X obj 522 86 r allowRandom;
#X obj 435 103 f;
#X obj 554 17 loadbang;
#X msg 554 42 1;
#X obj 510 116 t b f;
#X floatatom 430 141 5 0 0 0 - - -;
#X floatatom 511 152 5 0 0 0 - - -;
#X obj 327 39 r alterPattern;
#X connect 0 0 1 0;
#X connect 0 0 14 0;
#X connect 2 0 3 0;
#X connect 3 0 1 0;
#X connect 3 0 4 0;
#X connect 5 0 6 0;
#X connect 6 0 18 1;
#X connect 6 0 18 0;
#X connect 7 0 9 0;
#X connect 8 0 7 1;
#X connect 9 0 10 0;
#X connect 9 1 0 0;
#X connect 10 0 4 0;
#X connect 10 0 13 0;
#X connect 11 0 15 0;
#X connect 12 0 9 0;
#X connect 15 0 7 0;
#X connect 16 0 8 0;
#X connect 17 0 21 0;
#X connect 18 0 16 0;
#X connect 18 0 22 0;
#X connect 19 0 20 0;
#X connect 20 0 21 0;
#X connect 21 0 18 0;
#X connect 21 0 23 0;
#X connect 21 1 16 1;
#X connect 24 0 15 0;
#X restore 673 -1 pd alter pattern;
#X obj 757 104 mm_scompress~ 3 0.8 1.2 2;
#X obj 673 72 s loadPatternWithPath;
#X msg 672 47 read \$1-mega.csv;
#X obj 673 24 r loadSection;
#X connect 2 0 3 0;
#X connect 2 1 4 0;
#X connect 8 0 7 0;
#X connect 9 0 8 0;
