#N canvas 0 22 1421 606 10;
#N canvas 49 87 1332 748 randomness 0;
#X obj 1143 -222 loadbang;
#X obj 1146 -106 timer;
#X obj 1172 -137 sel 1;
#X obj 674 -552 r \$0-clock;
#X obj 684 -379 t b;
#X obj 709 -239 f;
#X obj 743 -238 + 1;
#X obj 602 -116 sel 0;
#X msg 526 98 randomize;
#X obj 743 -337 r onOff;
#X msg 747 -286 0;
#X obj 1171 -159 r onOff;
#X obj 867 -161 sel 0;
#X obj 837 114 s setNewTempo;
#X obj 1021 -35 s \$0-theRoot;
#X msg 602 116 \$1 randomize;
#X obj 604 157 route 0 1 2 3;
#X obj 567 244 s randomize1;
#X obj 597 285 s randomize2;
#X obj 617 311 s randomize3;
#X obj 807 503 == 0;
#X obj 805 289 sel 0;
#X obj 512 74 bng 15 250 50 0 empty empty empty 17 7 0 10 -262144 -1
-1;
#X obj 805 342 until;
#X obj 804 367 f;
#X obj 833 369 + 1;
#X obj 806 449 t b f;
#X obj 807 530 list prepend;
#X obj 806 553 list trim;
#X obj 806 423 + 1;
#X obj 806 484 route 1 2 3 0;
#X obj 1146 -67 s \$0-timer;
#X obj 644 -25 s \$0-willRandomize;
#X msg 1017 550 0;
#X obj 805 393 mod 4;
#X msg 805 317 4;
#X obj 1055 -86 bng 15 250 50 0 empty empty empty 17 7 0 10 -262144
-1 -1;
#X obj 680 -444 spigot;
#X msg 740 -477 1;
#X obj 738 -503 loadbang;
#X obj 753 -542 r allowRandom;
#X obj 600 -170 mod 16;
#X obj 805 512 s 1shouldImprovise;
#X obj 828 535 s 2shouldImprovise;
#X obj 849 556 s 3shouldImprovise;
#X obj 878 583 s 0shouldImprovise;
#X obj 555 216 s randomize0;
#X obj 601 25 t f b;
#X obj 630 79 s randomize;
#X msg 629 57 randomize;
#X obj 1017 490 r onOff;
#X obj 1019 520 t b;
#X obj 866 -136 t b b;
#X obj 868 -106 mm_db;
#X obj 873 -82 bng 15 250 50 0 empty empty empty 17 7 0 10 -262144
-1 -1;
#X obj 874 -28 t b b;
#X obj 877 -3 timer;
#X floatatom 924 18 10 0 0 0 - - -;
#X obj 925 -149 loadbang;
#X obj 796 -95 bng 15 250 50 0 empty empty empty 17 7 0 10 -262144
-1 -1;
#X obj 801 -69 t b b;
#X obj 799 -43 timer;
#X floatatom 754 -18 10 0 0 0 - - -;
#X obj 1021 -62 mm_srandom 12 197;
#X obj 602 -75 mm_srandom 4 530;
#X obj 807 479 mm_srandom 8 191;
#X msg 927 -128 300000;
#X obj 584 -240 moses 0;
#X floatatom 920 -249 5 0 0 0 - - -;
#X obj 868 -449 r patternLength;
#X obj 866 -388 moses 0;
#X floatatom 866 -485 5 0 0 0 - - -;
#X obj 423 -513 r \$0-clock;
#X obj 423 -458 sel 0;
#X obj 421 -485 change;
#X obj 414 -329 s alterPattern;
#X obj 417 -356 sel 0;
#X obj 588 -267 r patternLength;
#X floatatom 1001 324 5 0 0 0 - - -;
#X obj 953 138 r patternLength;
#X obj 951 268 moses 0;
#X floatatom 963 108 5 0 0 0 - - -;
#X obj 466 27 loadbang;
#X obj 680 -414 change;
#X obj 745 -311 t b;
#X obj 907 -275 * 64;
#X obj 840 39 mm_srandom 2 134;
#X obj 838 75 sel 1;
#X obj 733 -198 t f f f;
#X obj 1013 -158 sel 0;
#X obj 1012 -133 t b b;
#X obj 1014 -103 mm_db;
#X obj 1071 -146 loadbang;
#X msg 1073 -125 300000;
#X floatatom 1066 -246 5 0 0 0 - - -;
#X obj 866 -183 mod 2048;
#X obj 1012 -180 mod 2048;
#X obj 906 -363 t f f;
#X obj 1053 -272 * 16;
#X obj 988 298 * 16;
#X obj 803 266 mod 2048;
#X obj 1100 -531 loadbang;
#X obj 1111 -429 s allowRandom;
#X obj 1121 -400 s lockTempo;
#X obj 1100 -502 t b b;
#X msg 1095 -474 1;
#X msg 1126 -473 0;
#X obj 418 -384 mm_srandom 8 414;
#X obj 331 -488 r onOff;
#X obj 329 -462 sel 1;
#X obj 329 -403 sel 0;
#X obj 330 -431 mm_srandom 6 413;
#X connect 0 0 1 0;
#X connect 1 0 31 0;
#X connect 2 0 1 1;
#X connect 3 0 37 0;
#X connect 4 0 5 0;
#X connect 5 0 6 0;
#X connect 5 0 41 0;
#X connect 5 0 88 0;
#X connect 6 0 5 1;
#X connect 7 0 64 0;
#X connect 8 0 17 0;
#X connect 8 0 18 0;
#X connect 8 0 19 0;
#X connect 8 0 46 0;
#X connect 9 0 84 0;
#X connect 10 0 5 1;
#X connect 11 0 2 0;
#X connect 12 0 52 0;
#X connect 15 0 16 0;
#X connect 16 0 46 0;
#X connect 16 1 17 0;
#X connect 16 2 18 0;
#X connect 16 3 19 0;
#X connect 20 0 27 0;
#X connect 21 0 35 0;
#X connect 22 0 8 0;
#X connect 23 0 24 0;
#X connect 24 0 25 0;
#X connect 24 0 34 0;
#X connect 25 0 24 1;
#X connect 26 0 65 0;
#X connect 26 1 27 1;
#X connect 27 0 28 0;
#X connect 28 0 30 0;
#X connect 29 0 26 0;
#X connect 30 0 42 0;
#X connect 30 1 43 0;
#X connect 30 2 44 0;
#X connect 30 3 45 0;
#X connect 33 0 42 0;
#X connect 33 0 43 0;
#X connect 33 0 44 0;
#X connect 33 0 45 0;
#X connect 34 0 29 0;
#X connect 35 0 23 0;
#X connect 36 0 63 0;
#X connect 37 0 83 0;
#X connect 38 0 37 1;
#X connect 39 0 38 0;
#X connect 40 0 37 1;
#X connect 41 0 7 0;
#X connect 47 0 15 0;
#X connect 47 1 49 0;
#X connect 49 0 48 0;
#X connect 50 0 51 0;
#X connect 51 0 33 0;
#X connect 52 0 53 0;
#X connect 52 0 59 0;
#X connect 53 0 54 0;
#X connect 54 0 55 0;
#X connect 54 0 86 0;
#X connect 55 0 56 0;
#X connect 55 1 56 1;
#X connect 56 0 57 0;
#X connect 58 0 66 0;
#X connect 59 0 60 0;
#X connect 60 0 61 0;
#X connect 60 1 61 1;
#X connect 61 0 62 0;
#X connect 63 0 14 0;
#X connect 64 0 32 0;
#X connect 64 0 47 0;
#X connect 65 0 20 0;
#X connect 66 0 53 1;
#X connect 67 1 41 1;
#X connect 69 0 70 0;
#X connect 70 1 97 0;
#X connect 71 0 70 0;
#X connect 72 0 74 0;
#X connect 73 0 107 0;
#X connect 74 0 73 0;
#X connect 76 0 75 0;
#X connect 77 0 67 0;
#X connect 79 0 80 0;
#X connect 80 1 99 0;
#X connect 81 0 80 0;
#X connect 82 0 22 0;
#X connect 83 0 4 0;
#X connect 84 0 10 0;
#X connect 85 0 68 0;
#X connect 85 0 95 1;
#X connect 86 0 87 0;
#X connect 87 0 13 0;
#X connect 88 0 100 0;
#X connect 88 1 95 0;
#X connect 88 2 96 0;
#X connect 89 0 90 0;
#X connect 90 0 91 0;
#X connect 91 0 63 0;
#X connect 92 0 93 0;
#X connect 93 0 91 1;
#X connect 95 0 12 0;
#X connect 96 0 89 0;
#X connect 97 0 85 0;
#X connect 97 1 98 0;
#X connect 98 0 94 0;
#X connect 98 0 96 1;
#X connect 99 0 78 0;
#X connect 99 0 100 1;
#X connect 100 0 21 0;
#X connect 101 0 104 0;
#X connect 104 0 105 0;
#X connect 104 1 106 0;
#X connect 105 0 102 0;
#X connect 106 0 103 0;
#X connect 107 0 76 0;
#X connect 108 0 109 0;
#X connect 109 0 111 0;
#X connect 110 0 75 0;
#X connect 111 0 110 0;
#X restore 821 229 pd randomness;
#N canvas 213 23 1192 851 clock 0;
#X msg 156 109 play;
#X obj 317 292 s~ metro;
#X obj 154 263 route clock;
#X obj 117 -400 r onOff;
#X obj 117 -207 sel 0 1;
#X msg 256 146 stop;
#X obj 154 420 t f f;
#X obj 227 107 t b b;
#X msg 220 173 reset;
#X obj 296 36 int;
#X msg 295 67 tempo \$1;
#X obj 291 -355 r setNewTempo;
#X obj 425 89 s detectedTempo;
#X obj 416 -58 r setTempo;
#X obj 294 -139 spigot;
#X obj 438 -274 r lockTempo;
#X obj 448 -247 loadbang;
#X obj 271 606 s clock;
#X obj 449 -129 r minTempo;
#X obj 380 -132 r maxTempo;
#X obj 673 56 r divisions;
#X msg 669 170 divisions \$1;
#X obj 767 60 r beats;
#X msg 762 174 beats \$1;
#X obj 837 60 r measures;
#X msg 829 174 measures \$1;
#X obj 671 118 t b f;
#X obj 763 116 t b f;
#X obj 834 115 t b f;
#X obj 586 70 r swing;
#X obj 585 114 t b f;
#X obj 152 545 outlet;
#X obj 417 438 outlet;
#X msg 610 171 swing \$1;
#X obj 294 96 t b a a;
#X msg 520 -92 seed \$1;
#X obj 520 -137 r \$0-timer;
#X obj 154 240 mm_bclock~ 8 4 2 120 1;
#X msg 384 -109 max \$1;
#X msg 451 -108 min \$1;
#X obj 295 -106 bng 15 250 50 0 empty empty empty 17 7 0 10 -262144
-1 -1;
#X msg 449 -225 0;
#X obj 154 365 mm_rev_clock;
#X obj 246 350 hradio 15 1 0 2 empty empty empty 0 -8 0 10 -262144
-1 -1 0;
#X floatatom 191 392 5 0 0 0 - - -;
#X obj 229 326 r reverseClock;
#X obj 269 379 change;
#X obj 354 -169 mm_invert 1;
#X obj 521 -113 mod 179;
#X obj 138 -182 t b;
#X obj 414 42 spigot;
#X obj 449 -23 r lockTempo;
#X obj 449 13 mm_invert 1;
#X obj 546 -21 loadbang;
#X msg 548 4 1;
#X obj 152 325 mm_revbeat;
#X obj 208 300 r revBeat;
#X obj 189 71 r resetTheClock;
#X obj 335 -269 loadbang;
#X msg 336 -247 1;
#X obj 298 -60 mm_runif 50 180;
#X obj 297 -21 clip 50 180;
#X obj 430 125 s \$0-detectedTempo;
#X msg 243 -13 120;
#X obj 239 -37 loadbang;
#X obj 151 284 t f f;
#X obj 269 400 t f f;
#X obj 296 423 sel 0;
#X obj 299 504 bng 15 250 50 0 empty empty empty 17 7 0 10 -262144
-1 -1;
#X obj 298 525 mm_srandom 100 124;
#X obj 299 550 moses 66;
#X obj 343 572 moses 96;
#X obj 344 597 bng 15 250 50 0 empty empty empty 17 7 0 10 -262144
-1 -1;
#X obj 387 599 bng 15 250 50 0 empty empty empty 17 7 0 10 -262144
-1 -1;
#X obj 346 647 s changeSectionIndex;
#X obj 346 622 f 1;
#X obj 390 621 f -1;
#X obj 295 464 mm_db;
#X floatatom 114 315 5 0 0 0 - - -;
#X connect 0 0 37 0;
#X connect 2 0 65 0;
#X connect 3 0 4 0;
#X connect 4 0 7 0;
#X connect 4 1 49 0;
#X connect 5 0 37 0;
#X connect 6 0 31 0;
#X connect 7 0 8 0;
#X connect 7 1 5 0;
#X connect 8 0 37 0;
#X connect 9 0 10 0;
#X connect 9 0 12 0;
#X connect 10 0 34 0;
#X connect 10 0 62 0;
#X connect 11 0 14 0;
#X connect 13 0 50 0;
#X connect 14 0 40 0;
#X connect 15 0 47 0;
#X connect 16 0 41 0;
#X connect 18 0 39 0;
#X connect 19 0 38 0;
#X connect 20 0 26 0;
#X connect 21 0 37 1;
#X connect 22 0 27 0;
#X connect 23 0 37 1;
#X connect 24 0 28 0;
#X connect 25 0 37 1;
#X connect 26 0 0 0;
#X connect 26 1 21 0;
#X connect 27 0 0 0;
#X connect 27 1 23 0;
#X connect 28 0 0 0;
#X connect 28 1 25 0;
#X connect 29 0 30 0;
#X connect 30 0 0 0;
#X connect 30 1 33 0;
#X connect 33 0 37 1;
#X connect 34 0 0 0;
#X connect 34 1 37 1;
#X connect 34 2 32 0;
#X connect 35 0 60 1;
#X connect 36 0 48 0;
#X connect 37 0 2 0;
#X connect 37 1 1 0;
#X connect 38 0 60 1;
#X connect 39 0 60 1;
#X connect 40 0 60 0;
#X connect 41 0 47 0;
#X connect 42 0 44 0;
#X connect 42 0 6 0;
#X connect 43 0 42 1;
#X connect 45 0 42 1;
#X connect 46 0 66 0;
#X connect 47 0 14 1;
#X connect 48 0 35 0;
#X connect 49 0 0 0;
#X connect 50 0 9 0;
#X connect 51 0 52 0;
#X connect 52 0 50 1;
#X connect 53 0 54 0;
#X connect 54 0 50 1;
#X connect 55 0 42 0;
#X connect 56 0 55 1;
#X connect 57 0 8 0;
#X connect 58 0 59 0;
#X connect 59 0 14 1;
#X connect 60 0 61 0;
#X connect 61 0 9 0;
#X connect 63 0 9 0;
#X connect 64 0 63 0;
#X connect 65 0 55 0;
#X connect 65 0 78 0;
#X connect 65 1 46 0;
#X connect 66 0 17 0;
#X connect 66 1 67 0;
#X connect 67 0 77 0;
#X connect 68 0 69 0;
#X connect 69 0 70 0;
#X connect 70 1 71 0;
#X connect 71 0 72 0;
#X connect 71 1 73 0;
#X connect 72 0 75 0;
#X connect 73 0 76 0;
#X connect 75 0 74 0;
#X connect 76 0 74 0;
#X connect 77 0 68 0;
#X restore 833 410 pd clock;
#X obj 833 440 s \$0-clock;
#X obj 879 466 s \$0-detectedTempo;
#X obj 829 320 s path;
#X msg 827 255 Users/travishenspeter/mm_lib/patterns/mario/;
#X obj 827 289 symbol;
#X msg 830 346 drumsVolume 0.5 \, bassVolume 0.5 \, synthVolume 0.5
\, samplerVolume 0.5 \, inputVolume 1 \, allowRandom 1 \, setTempo
100 \, lockTempo 0 \, loadSection 0 \, audioSwitch 1 \, outputVolume
1 \, onOff 1;
#X obj 903 289 r changeSectionIndex;
#X floatatom 901 313 5 0 0 0 - - -;
#X connect 1 0 2 0;
#X connect 1 1 3 0;
#X connect 5 0 6 0;
#X connect 6 0 4 0;
#X connect 8 0 9 0;
