#N canvas 64 29 1015 785 10;
#X obj 414 106 r \$0-detectedTempo;
#X obj 678 217 r \$0-detectedTempo;
#X obj 460 167 r \$0-detectedTempo;
#X obj 473 194 r randomize1;
#X obj 561 437 mm_monoSyncDelay;
#X obj 712 377 r \$0-detectedTempo;
#X obj 702 343 r randomize2;
#X msg 450 253 feedback 0.6;
#X obj 452 224 loadbang;
#X obj 686 282 r randomize1;
#X obj 310 314 mm_monoSyncDelay;
#X obj 324 542 birdPan~;
#X obj 110 131 inlet~;
#X obj 311 90 inlet~;
#X obj 566 130 inlet~;
#X msg 708 442 feedback 0.6;
#X obj 710 413 loadbang;
#X obj 972 264 r \$0-detectedTempo;
#X obj 857 473 mm_monoSyncDelay;
#X obj 1006 381 r \$0-detectedTempo;
#X obj 996 347 r randomize2;
#X obj 980 286 r randomize1;
#X msg 1002 446 feedback 0.6;
#X obj 1004 417 loadbang;
#X obj 866 126 inlet~;
#X obj 333 769 outlet~;
#X obj 516 771 outlet~;
#X obj 978 127 inlet;
#X obj 978 158 route tempo;
#X msg 975 185 tempo \$1;
#X obj 974 213 s \$0-detectedTempo;
#X obj 535 580 r drumsVolume;
#X obj 484 689 *~;
#X obj 545 635 lop~ 1;
#X obj 333 701 *~;
#X obj 363 648 lop~ 1;
#X obj 178 202 loadbang;
#X obj 123 265 mm_compressor;
#X obj 123 303 *~ 1.5;
#X obj 330 353 loadbang;
#X obj 317 411 mm_compressor;
#X obj 309 189 mm_rfilter~;
#X obj 564 407 mm_rfilter~;
#X obj 858 393 mm_rfilter~;
#X obj 436 140 r randomize;
#X msg 356 382 switch 1 \, threshold 94 \, ratio 1.2;
#X msg 175 231 switch 1 \, threshold 98 \, ratio 1.5;
#X obj 321 463 *~ 1.5;
#X obj 377 512 r randomize;
#X connect 0 0 41 1;
#X connect 1 0 42 1;
#X connect 2 0 10 1;
#X connect 3 0 10 1;
#X connect 4 0 34 0;
#X connect 5 0 4 1;
#X connect 6 0 4 1;
#X connect 7 0 10 1;
#X connect 8 0 7 0;
#X connect 9 0 42 1;
#X connect 10 0 40 0;
#X connect 11 0 34 0;
#X connect 11 1 32 0;
#X connect 12 0 37 0;
#X connect 13 0 41 0;
#X connect 14 0 42 0;
#X connect 15 0 4 1;
#X connect 16 0 15 0;
#X connect 17 0 43 1;
#X connect 18 0 32 0;
#X connect 19 0 18 1;
#X connect 20 0 18 1;
#X connect 21 0 43 1;
#X connect 22 0 18 1;
#X connect 23 0 22 0;
#X connect 24 0 43 0;
#X connect 27 0 28 0;
#X connect 28 0 29 0;
#X connect 29 0 30 0;
#X connect 31 0 33 0;
#X connect 31 0 35 0;
#X connect 32 0 26 0;
#X connect 33 0 32 1;
#X connect 34 0 25 0;
#X connect 35 0 34 1;
#X connect 36 0 46 0;
#X connect 37 0 38 0;
#X connect 38 0 34 0;
#X connect 38 0 32 0;
#X connect 39 0 45 0;
#X connect 40 0 47 0;
#X connect 41 0 10 0;
#X connect 42 0 4 0;
#X connect 43 0 18 0;
#X connect 44 0 41 1;
#X connect 45 0 40 1;
#X connect 46 0 37 1;
#X connect 47 0 11 0;
#X connect 48 0 11 1;
