#N canvas 381 87 985 606 10;
#X obj 514 1311 r randomize;
#X obj 489 1196 r randomize3;
#X obj 737 1275 r randomize1;
#X obj 790 1175 r randomize2;
#X obj 504 1427 mm_stereoChorus;
#X obj 432 1320 *~ 1;
#X obj 659 1312 *~ 1;
#X obj 635 1372 mm_monoSyncDelay;
#X obj 392 1374 mm_monoSyncDelay;
#X obj 661 1545 scope synthScope;
#X obj 383 891 scope synthScope1;
#X obj 513 899 scope synthScope2;
#X obj 636 894 scope synthScope3;
#X obj 383 867 *~ 0.65;
#X obj 510 872 *~ 0.65;
#X obj 623 873 *~ 0.65;
#X obj 627 1099 birdPan~;
#X obj 396 1098 birdPan~;
#X obj 501 1076 birdPan~;
#X obj 490 987 r randomize1;
#X obj 587 989 r randomize2;
#X obj 712 995 r randomize3;
#X obj 352 793 inlet~;
#X obj 481 791 inlet~;
#X obj 612 791 inlet~;
#X obj 772 785 inlet;
#X obj 773 822 route tempo;
#X msg 773 850 tempo \$1;
#X obj 471 1543 outlet~;
#X obj 569 1548 outlet~;
#X obj 767 1392 r synthVolume;
#X obj 496 1496 *~;
#X obj 515 1467 lop~ 1;
#X obj 566 1498 *~;
#X obj 585 1469 lop~ 1;
#X obj 395 1220 mm_rfilter~;
#X obj 636 1214 mm_rfilter~;
#X connect 0 0 4 2;
#X connect 0 0 8 1;
#X connect 0 0 35 1;
#X connect 1 0 4 2;
#X connect 1 0 8 1;
#X connect 1 0 35 1;
#X connect 2 0 4 2;
#X connect 2 0 7 1;
#X connect 2 0 36 1;
#X connect 3 0 4 2;
#X connect 3 0 7 1;
#X connect 3 0 36 1;
#X connect 4 0 31 0;
#X connect 4 1 33 0;
#X connect 5 0 4 0;
#X connect 6 0 4 1;
#X connect 7 0 4 1;
#X connect 8 0 4 0;
#X connect 13 0 10 0;
#X connect 14 0 11 0;
#X connect 15 0 12 0;
#X connect 16 0 5 0;
#X connect 16 0 35 0;
#X connect 16 1 6 0;
#X connect 16 1 36 0;
#X connect 17 0 5 0;
#X connect 17 0 35 0;
#X connect 17 1 6 0;
#X connect 17 1 36 0;
#X connect 18 0 5 0;
#X connect 18 0 35 0;
#X connect 18 1 6 0;
#X connect 18 1 36 0;
#X connect 19 0 17 1;
#X connect 20 0 18 1;
#X connect 21 0 16 1;
#X connect 22 0 17 0;
#X connect 22 0 13 0;
#X connect 23 0 18 0;
#X connect 23 0 14 0;
#X connect 24 0 16 0;
#X connect 24 0 15 0;
#X connect 25 0 26 0;
#X connect 26 0 27 0;
#X connect 27 0 4 2;
#X connect 27 0 7 1;
#X connect 27 0 8 1;
#X connect 27 0 35 1;
#X connect 27 0 36 1;
#X connect 30 0 34 0;
#X connect 30 0 32 0;
#X connect 31 0 28 0;
#X connect 31 0 9 0;
#X connect 32 0 31 1;
#X connect 33 0 29 0;
#X connect 33 0 9 0;
#X connect 34 0 33 1;
#X connect 35 0 8 0;
#X connect 36 0 7 0;
