#N canvas 95 118 1345 728 10;
#X msg 295 -59 play;
#X msg 253 -60 arm;
#X obj 201 339 bng 15 250 50 0 empty empty empty 17 7 0 10 -262144
-1 -1;
#X obj 229 339 bng 15 250 50 0 empty empty empty 17 7 0 10 -262144
-1 -1;
#X msg 390 -60 clear;
#X msg 342 -61 slice;
#X obj 164 293 sample_slicer2~;
#X obj 322 410 s noiseCancelState;
#X obj 152 -126 inlet~;
#X obj 252 -123 inlet;
#X msg 433 -61 randomize;
#X msg 506 55 tempo \$1;
#X obj 240 405 outlet;
#X obj 166 575 outlet~;
#X obj 452 59 t f f;
#X obj 520 90 - 5;
#X obj 406 102 + 5;
#X msg 497 138 edge lower \$1;
#X msg 403 137 edge upper \$1;
#X obj 253 -95 route arm play slice clear randomize threshold tempo
;
#X obj 221 439 loadbang;
#X obj 166 502 mm_compressor;
#X obj 165 473 *~ 1.5;
#X msg 218 468 switch 1 \, threshold 95 \, ratio 1.5;
#X obj 166 540 *~ 2;
#X connect 0 0 6 1;
#X connect 1 0 6 1;
#X connect 2 0 12 0;
#X connect 4 0 6 1;
#X connect 5 0 6 1;
#X connect 6 0 22 0;
#X connect 6 1 3 0;
#X connect 6 1 2 0;
#X connect 6 2 7 0;
#X connect 8 0 6 0;
#X connect 9 0 19 0;
#X connect 10 0 6 1;
#X connect 11 0 6 1;
#X connect 14 0 16 0;
#X connect 14 1 15 0;
#X connect 15 0 17 0;
#X connect 16 0 18 0;
#X connect 17 0 6 1;
#X connect 18 0 6 1;
#X connect 19 0 1 0;
#X connect 19 1 0 0;
#X connect 19 2 5 0;
#X connect 19 3 4 0;
#X connect 19 4 10 0;
#X connect 19 5 14 0;
#X connect 19 6 11 0;
#X connect 20 0 23 0;
#X connect 21 0 24 0;
#X connect 22 0 21 0;
#X connect 23 0 21 1;
#X connect 24 0 13 0;
