#N canvas 320 180 853 531 10;
#X msg 409 843 time \$1;
#X msg 518 744 randomize;
#X obj 323 1010 mm_monoSyncDelay;
#X obj 308 1414 birdPan~;
#X obj 301 1466 outlet~;
#X obj 361 1466 outlet~;
#X obj 422 561 inlet;
#X msg 671 782 tempo \$1;
#X obj 396 642 t f f;
#X obj 424 599 route tempo randomize;
#X obj 320 576 inlet~;
#X obj 390 682 swap 60000;
#X obj 407 706 /;
#X obj 422 731 r beats;
#X obj 406 756 * 4;
#X obj 407 806 * 4;
#X obj 426 782 r measures;
#X obj 568 996 env~;
#X floatatom 593 1105 5 0 0 0 - - -;
#X obj 320 949 mm_rfilter~;
#X obj 346 1315 throw~ toVerbL;
#N canvas 710 242 450 300 toTremelo 0;
#X obj 75 -66 inlet~;
#X obj 76 167 *~;
#X obj 101 144 lop~ 1;
#X obj 154 44 random 100;
#X obj 152 67 * 0.01;
#X obj 152 91 *;
#X obj 155 15 t b;
#X obj 76 197 throw~ toTremelo;
#X obj 156 -9 r randomize3;
#X connect 0 0 1 0;
#X connect 1 0 7 0;
#X connect 2 0 1 1;
#X connect 3 0 4 0;
#X connect 4 0 5 1;
#X connect 4 0 5 0;
#X connect 5 0 2 0;
#X connect 6 0 3 0;
#X connect 8 0 6 0;
#X restore 448 1313 pd toTremelo;
#X obj 349 1285 *~ 0.5;
#N canvas 710 242 450 300 toFuzz 0;
#X obj 75 -66 inlet~;
#X obj 76 197 throw~ toFuzz;
#X obj 76 167 *~;
#X obj 101 144 lop~ 1;
#X obj 154 44 random 100;
#X obj 152 67 * 0.01;
#X obj 152 91 *;
#X obj 37 36 r onOff;
#X obj 37 63 sel 0;
#X msg 36 90 0;
#X obj 155 15 t b;
#X obj 156 -9 r randomize1;
#X connect 0 0 2 0;
#X connect 2 0 1 0;
#X connect 3 0 2 1;
#X connect 4 0 5 0;
#X connect 5 0 6 1;
#X connect 5 0 6 0;
#X connect 6 0 3 0;
#X connect 7 0 8 0;
#X connect 8 0 9 0;
#X connect 9 0 3 0;
#X connect 10 0 4 0;
#X connect 11 0 10 0;
#X restore 386 1377 pd toFuzz;
#X obj 386 1350 *~ 0.25;
#X obj 318 1230 *~ 1;
#X obj 360 1200 loadbang;
#X obj 319 1262 mm_compressor;
#X msg 358 1228 switch 1 \, threshold 98 \, ratio 1.2;
#X connect 0 0 19 1;
#X connect 1 0 2 1;
#X connect 1 0 3 1;
#X connect 1 0 19 1;
#X connect 2 0 17 0;
#X connect 2 0 25 0;
#X connect 3 0 4 0;
#X connect 3 1 5 0;
#X connect 3 1 17 0;
#X connect 6 0 9 0;
#X connect 7 0 2 1;
#X connect 8 0 11 0;
#X connect 8 1 7 0;
#X connect 8 1 11 1;
#X connect 9 0 8 0;
#X connect 9 1 1 0;
#X connect 10 0 17 0;
#X connect 10 0 19 0;
#X connect 11 0 12 0;
#X connect 11 1 12 1;
#X connect 12 0 14 0;
#X connect 13 0 14 1;
#X connect 14 0 15 0;
#X connect 15 0 0 0;
#X connect 16 0 15 1;
#X connect 17 0 18 0;
#X connect 19 0 2 0;
#X connect 22 0 20 0;
#X connect 24 0 23 0;
#X connect 25 0 27 0;
#X connect 26 0 28 0;
#X connect 27 0 22 0;
#X connect 27 0 24 0;
#X connect 27 0 21 0;
#X connect 27 0 3 0;
#X connect 28 0 27 1;
