#N canvas 0 22 1065 819 10;
#X msg 166 119 play;
#X obj 287 296 s~ metro;
#X obj 162 278 route clock;
#X obj 127 -390 r onOff;
#X obj 127 -197 sel 0 1;
#X msg 266 156 stop;
#X obj 163 395 s \$0-clock;
#X obj 162 311 t f f;
#X obj 237 117 t b b;
#X msg 219 180 reset;
#X obj 305 -70 random 100;
#X obj 306 -48 * 0.01;
#X obj 302 45 int;
#X obj 547 395 s \$0-detectedTempo;
#X msg 301 67 tempo \$1;
#X obj 308 -297 r setNewTempo;
#X obj 438 72 s detectedTempo;
#X obj 454 5 r setTempo;
#X obj 250 -256 loadbang;
#X obj 248 -209 timer;
#X obj 241 -184 f;
#X obj 148 -170 t b b b b b;
#X obj 240 -158 mod 200;
#X msg 240 -139 seed \$1;
#X obj 303 19 + 80;
#N canvas 695 279 450 300 inv 0;
#X obj 98 49 inlet;
#X obj 100 88 swap 1;
#X obj 102 115 -;
#X obj 97 145 outlet;
#X connect 0 0 1 0;
#X connect 1 0 2 0;
#X connect 1 1 2 1;
#X connect 2 0 3 0;
#X restore 364 -133 pd inv;
#X obj 304 -129 spigot;
#X obj 362 -230 r lockTempo;
#X msg 447 -157 0;
#X obj 446 -179 loadbang;
#X obj 304 -10 * 200;
#X obj 293 391 s clock;
#X obj 480 -119 r minTempo;
#X obj 410 -119 r maxTempo;
#X obj 409 -28 -;
#X obj 427 -56 t b f f;
#X obj 480 -84 change;
#X obj 407 -89 change;
#X obj 406 -2 t b f;
#X obj 683 66 r divisions;
#X msg 679 180 divisions \$1;
#X obj 777 70 r beats;
#X msg 772 184 beats \$1;
#X obj 847 70 r measures;
#X msg 839 184 measures \$1;
#X obj 681 128 t b f;
#X obj 773 126 t b f;
#X obj 844 125 t b f;
#X obj 596 63 r swing;
#X obj 164 250 birdClock 8 4 2 120 1;
#X obj 596 97 t b f;
#X obj 307 -101 t b;
#X obj 77 394 outlet;
#X obj 427 394 outlet;
#X msg 620 181 swing \$1;
#X obj 302 114 t b a a;
#X connect 0 0 49 0;
#X connect 2 0 7 0;
#X connect 3 0 4 0;
#X connect 4 0 8 0;
#X connect 4 1 21 0;
#X connect 5 0 49 0;
#X connect 7 0 52 0;
#X connect 7 1 31 0;
#X connect 8 0 9 0;
#X connect 8 1 5 0;
#X connect 9 0 49 0;
#X connect 10 0 11 0;
#X connect 11 0 30 0;
#X connect 12 0 14 0;
#X connect 12 0 16 0;
#X connect 14 0 55 0;
#X connect 15 0 26 0;
#X connect 17 0 12 0;
#X connect 18 0 19 0;
#X connect 19 0 20 1;
#X connect 20 0 22 0;
#X connect 21 0 0 0;
#X connect 21 2 26 0;
#X connect 21 3 20 0;
#X connect 21 4 19 1;
#X connect 22 0 23 0;
#X connect 23 0 10 0;
#X connect 24 0 12 0;
#X connect 25 0 26 1;
#X connect 26 0 51 0;
#X connect 27 0 25 0;
#X connect 28 0 25 0;
#X connect 29 0 28 0;
#X connect 30 0 24 0;
#X connect 32 0 36 0;
#X connect 33 0 37 0;
#X connect 34 0 38 0;
#X connect 35 0 34 0;
#X connect 35 1 34 1;
#X connect 35 2 24 1;
#X connect 36 0 35 0;
#X connect 37 0 34 0;
#X connect 38 0 26 0;
#X connect 38 1 30 1;
#X connect 39 0 45 0;
#X connect 40 0 49 1;
#X connect 41 0 46 0;
#X connect 42 0 49 1;
#X connect 43 0 47 0;
#X connect 44 0 49 1;
#X connect 45 0 0 0;
#X connect 45 1 40 0;
#X connect 46 0 0 0;
#X connect 46 1 42 0;
#X connect 47 0 0 0;
#X connect 47 1 44 0;
#X connect 48 0 50 0;
#X connect 49 0 2 0;
#X connect 49 1 1 0;
#X connect 50 0 0 0;
#X connect 50 1 54 0;
#X connect 51 0 10 0;
#X connect 54 0 49 1;
#X connect 55 0 0 0;
#X connect 55 1 49 1;
#X connect 55 2 53 0;
